<svg xmlns="http://www.w3.org/2000/svg" viewBox="0 0 371.63 241"><defs><style>.cls-1{fill:#969696;}.cls-2{fill:#575757;}</style></defs><title>cps</title><g id="Layer_1" data-name="Layer 1"><path class="cls-1" d="M84,192.68a11.22,11.22,0,0,0-2.52-.25,63.68,63.68,0,0,1-35-14.3c-1.65-1.37-3.21-2.86-4.82-4.29-.29-.21-.18-.48-.08-.74a2.69,2.69,0,0,1,.91-1.17,14,14,0,0,0,1.9-1.87c.22-.26.41-.56.83-.52a14.86,14.86,0,0,1,1.74,1.54,58.52,58.52,0,0,0,10,7.34,9.89,9.89,0,0,0,2.41,1.26c.49.47,1.19.49,1.73.83a1,1,0,0,0,.46.45,82.3,82.3,0,0,0,9.65,3.5A68.65,68.65,0,0,0,81,186.31a60.84,60.84,0,0,0,9.54.21A56.37,56.37,0,0,0,104,184.23a59.35,59.35,0,0,0,16.39-7.64,54.16,54.16,0,0,0,7.13-5.59.62.62,0,0,1,.29-.18c.35,0,.45.25.59.48a6.72,6.72,0,0,1,.86,2.44,9.15,9.15,0,0,0,.76,2.68c.1.2.17.38,0,.58-1.36,1.08-2.7,2.19-4.1,3.23a62.3,62.3,0,0,1-28.23,11.64,52.41,52.41,0,0,1-7,.69,3,3,0,0,0-.6.12Z"/><path class="cls-1" d="M35.7,167c-1.18-1.83-2.49-3.57-3.6-5.45a63.79,63.79,0,0,1-8.54-24.62,44,44,0,0,1-.42-4.58,3.19,3.19,0,0,0-.12-.6v-6.19a11.84,11.84,0,0,0,.24-2.59,63.53,63.53,0,0,1,10-29.22,62.3,62.3,0,0,1,9-11.06A64.07,64.07,0,0,1,65.07,68.34a62.31,62.31,0,0,1,15.64-3.58,63.75,63.75,0,0,1,31.34,4.75,60.8,60.8,0,0,1,8.77,4.56,1.24,1.24,0,0,0,.69.28,1.28,1.28,0,0,1-.76,1.66,2,2,0,0,1-.87.12,61.07,61.07,0,0,0-13.7-6.58A58.15,58.15,0,0,0,92.13,66.7a55.48,55.48,0,0,0-5.62-.25A62.18,62.18,0,0,0,69.92,69a59.4,59.4,0,0,0-9.57,3.8A60.34,60.34,0,0,0,32.82,101.1a59.5,59.5,0,0,0-5.09,17.28,60.23,60.23,0,0,0-.5,10.9,59.95,59.95,0,0,0,11.44,32.61,9,9,0,0,1,.71,1.1.52.52,0,0,1-.13.62c-1,1-1.79,2.18-2.84,3.13C36.21,166.92,36,167.15,35.7,167Z"/><path class="cls-1" d="M144.77,108.46c.74-1,1-1,2-.35a8.14,8.14,0,0,1,1.58,1.41,4.45,4.45,0,0,0,.31,1.4A63.86,63.86,0,0,1,151,124.79a66.35,66.35,0,0,1-6.17,32.33,62.65,62.65,0,0,1-4.95,8.64,10.39,10.39,0,0,1-.72.92c-.25-3-.31-6.06-.27-9.1a13.94,13.94,0,0,1,1.42-3.06,59.54,59.54,0,0,0,6.35-19.85,57.73,57.73,0,0,0,.51-10.75,58.85,58.85,0,0,0-2.31-14.06A1.89,1.89,0,0,1,144.77,108.46Z"/><path class="cls-2" d="M119.85,75.84c1.07.07,1.46-.61,1.66-1.49a1.6,1.6,0,0,0-.63-1.75,8.94,8.94,0,0,1-2.52-2.78.29.29,0,0,0-.3-.2,2.09,2.09,0,0,1-1.58-1.81c0-.09,0-.22.09-.26.69-.37.24-.76,0-1.15a4.13,4.13,0,0,1-.55-2.25c0-.51-.15-.61-.62-.56q-3.39.36-6.78.67a1.28,1.28,0,0,1-.79,0c.52-.35,1-.68,1.49-1,3-2.12,5.91-4.34,8.82-6.58a2.08,2.08,0,0,1,1.24-.46l12.36-.74c.22,0,.49-.11.62.15s-.12.43-.28.55c-.57.43-.32.64,0,1.17A10.31,10.31,0,0,1,134,61.91c.15,1.5.52,3,.67,4.48,0,.23.13.5-.05.66a1.19,1.19,0,0,1-.71.36c-.31,0-.25-.39-.28-.62-.28-2.14-.55-4.28-.83-6.41a5.21,5.21,0,0,0-.65-1.87c-.3-.55-1.12-.64-1.21-1.39,0-.14-.23,0-.35,0a12.68,12.68,0,0,0-2.74,1.7.5.5,0,0,0-.17.65,12.22,12.22,0,0,1,1,4.81c0,.11,0,.27.11.28.3,0,.57.05.56.43,0,.59.18,1.25-.24,1.73a1.31,1.31,0,0,0-.29,1.07,4.54,4.54,0,0,1-.79,3.12,1.74,1.74,0,0,0,.49,2.69.44.44,0,0,0,.69,0,16.75,16.75,0,0,1,3.11-2.12,2.14,2.14,0,0,1,1.61-.21,3.41,3.41,0,0,0,3.43-.83,7.76,7.76,0,0,1,1.9-1.09A8.87,8.87,0,0,0,141.35,68a29.85,29.85,0,0,1,2.75-2.27,3.34,3.34,0,0,0,1.09-1.87,25.57,25.57,0,0,0,1.1-6.9c0-.78.1-1.55.17-2.33.08-1,.22-1.14,1.16-1.33.54-.1.55-.24.17-.6a3,3,0,0,1-1.07-2.29c0-.42-.31-.46-.57-.58-2.67-1.17-5.33-2.33-8-3.52-1-.47-2-1-3.09-1.51a.8.8,0,0,1-.44-1.18,4,4,0,0,1,.79-1.28,1.38,1.38,0,0,1,2-.31c2,1.12,4.08,2.27,6.14,3.38.82.45,1.68.84,2.53,1.24a1.65,1.65,0,0,0,1.71,0c2-1.15,5.12.53,5.35,2.85a1.36,1.36,0,0,0,1.14,1.41c1.74.49,3.46,1.07,5.14,1.73.49.2,1,.4,1.45.63a2,2,0,0,1,1,2.87.74.74,0,0,1-1,.45c-.53-.15-1.05-.35-1.56-.55-1.79-.71-3.56-1.45-5.36-2.13a1.26,1.26,0,0,0-1.76,1.5,12.41,12.41,0,0,0,1.06,3.69,1.48,1.48,0,0,1,0,1.33c-.2.43-.44.85-.66,1.28a4.14,4.14,0,0,0-.39,2.93,11.64,11.64,0,0,1-.76,7.38c-.44,1-.88,2-1.24,3a3.17,3.17,0,0,0-.09,1.88,39,39,0,0,1,1,5.89,14,14,0,0,1-.12,2.67,38.09,38.09,0,0,0-.08,9.66,6.68,6.68,0,0,0,.6,1.9,17.22,17.22,0,0,1,1.54,5.18c.41,3-1,5.31-3.15,7.22a1.29,1.29,0,0,1-1.6.15c-.28.13-.48,0-.66-.22a8.84,8.84,0,0,0-1.06-.86c-.66-.48-.85-.47-1.49,0-.14.12-.3.21-.44.34a2.45,2.45,0,0,1-1,.44,2.9,2.9,0,0,0-2.28,2.84c-.16,2.91-.39,5.8-.6,8.7q-.33,4.67-.63,9.33c-.12,2-.21,4-.33,6-.14,2.45-.19,4.9-.36,7.34-.1,1.35-.13,2.71-.14,4,0,2.82-.24,5.63-.17,8.45a4.26,4.26,0,0,0,.05,1.63,35.26,35.26,0,0,0,0,4.71c.12,1.21,0,2.42.06,3.63a1.56,1.56,0,0,1-.2.72,18.27,18.27,0,0,0,.2,3.22c.07.59-.13.79-.65.86a3.72,3.72,0,0,1-1.56-.17c-.48-.13-.72,0-.81.5a2,2,0,0,0,.65,2c1,.85,1.92,1.71,2.87,2.58a7,7,0,0,1,1.22,1.48,1.91,1.91,0,0,1-.56,2.92,4.57,4.57,0,0,1-4.94.35,8,8,0,0,1-2.67-2.34,1.47,1.47,0,0,0-1.54-.66,1.57,1.57,0,0,1-1.31-.47,5.28,5.28,0,0,1-1.05-2.79,9.32,9.32,0,0,0-1.13-3.29c-.35,0-.46-.26-.57-.52a2.92,2.92,0,0,1-.27-1,2,2,0,0,0-1.43-1.83,6.31,6.31,0,0,0-2-.52,1.44,1.44,0,0,0-1.75,1.4,19.51,19.51,0,0,0-.17,5.34,1.62,1.62,0,0,1-1.18,1.93,4.8,4.8,0,0,1-1.33.33,2.8,2.8,0,0,0-2.08,1.32c-.23.34-.5.65-.75,1a4.56,4.56,0,0,1-3.87,1.86,9.65,9.65,0,0,1-2.78-.42,1.87,1.87,0,0,1-1.2-3,12.23,12.23,0,0,1,2.11-2.69,33.59,33.59,0,0,0,2.46-2.6c.15-.2.37-.39.25-.67s-.44-.27-.71-.28-.74,0-1.1,0c-.79-.06-1.15-.48-1-1.23a41.9,41.9,0,0,0,.46-5.47c.27-3.38.58-6.75,1.06-10.11a28.74,28.74,0,0,1,1.19-5.64,1.26,1.26,0,0,0,.08-.61,67.93,67.93,0,0,0-1-10.45A39.52,39.52,0,0,1,112,133c-.12-1.16-.11-2.33-.25-3.49a12.17,12.17,0,0,1,.18-2.95c.13-.94-.1-1.16-1.05-1l-2,.4a3.49,3.49,0,0,1-1.16,0,1.39,1.39,0,0,1-1.32-1.42c0-.5,0-1,0-1.51a.91.91,0,0,0-.85-1,3,3,0,0,1-1-.37,1.52,1.52,0,0,1-.87-1.43,38.3,38.3,0,0,1,.61-7.25c.17-1,0-2.11.22-3.15a3.7,3.7,0,0,1,.13-.74,13.65,13.65,0,0,0,.82-4.29c.48-4,1-7.91,1.89-11.81a33.19,33.19,0,0,1,3.48-8.43A53.9,53.9,0,0,1,114,79.15a8.28,8.28,0,0,1,4.42-3.33A1.83,1.83,0,0,1,119.85,75.84Z"/><path class="cls-2" d="M167.25,82.41a16.92,16.92,0,0,1,15.13-17.15c5-.58,9.68.29,13.79,3.4a16.26,16.26,0,0,1,3,3c.24.3.23.48-.09.71-.58.41-1.15.84-1.69,1.3-.37.32-.59.33-.93-.08a14.08,14.08,0,0,0-9-5.06C180,67.32,172.79,71.84,171.16,79c-2.32,10.09,5,17.42,13.43,17.59a14.77,14.77,0,0,0,11.78-4.92c.34-.37.57-.47,1-.1a13.25,13.25,0,0,0,1.59,1.2c.47.3.4.53.08.9A16.66,16.66,0,0,1,190.2,99a19.79,19.79,0,0,1-12.69-.77c-5.76-2.44-9-7-10-13.07A24.33,24.33,0,0,1,167.25,82.41Z"/><path class="cls-2" d="M184.9,109.64a10.28,10.28,0,0,0-4-1c-3.76-.3-7.52-.14-11.28-.18-.91,0-.91,0-.91.9v19.81c0,3.83,0,7.66,0,11.49,0,.56.14.78.72.74a9.73,9.73,0,0,1,1.79,0c.65.06.81-.19.8-.81,0-4.54,0-9.08,0-13.62,0-.89,0-.89.91-.89a69.7,69.7,0,0,0,8.79-.37,8.11,8.11,0,0,0,7.56-7.82A8.22,8.22,0,0,0,184.9,109.64Zm-.25,11.11a6,6,0,0,1-4.44,2c-2.56.25-5.12,0-7.69,0-.49,0-.48-.29-.48-.63v-5c0-1.65,0-3.3,0-5,0-.39,0-.65.54-.64,2.68.07,5.36-.11,8,.14a5.26,5.26,0,0,1,4.84,3.28A5.36,5.36,0,0,1,184.65,120.75Z"/><path class="cls-2" d="M221.82,163.81a19.35,19.35,0,0,1,2.32-2.42A10.16,10.16,0,0,1,232.6,159a8.41,8.41,0,0,1,7,7.36,32.51,32.51,0,0,1,.35,4.93c0,3.92,0,7.84,0,11.76,0,.63-.18.87-.82.8a10,10,0,0,0-1.64,0c-.56,0-.7-.18-.7-.7q0-6,0-11.9a23.82,23.82,0,0,0-.28-4.39c-.84-4.23-4.57-6.25-8.78-4.65a8.46,8.46,0,0,0-5.61,7.06,38.74,38.74,0,0,0-.28,5.7c0,2.75,0,5.5,0,8.25,0,.47-.12.66-.62.63s-1.28,0-1.92,0c-.49,0-.68-.16-.62-.63a1.31,1.31,0,0,0,0-.28q0-16,0-32c0-.89,0-.91.9-.88.73,0,1.67-.33,2.12.15s.12,1.36.12,2.07c0,3.51,0,7,0,10.52Z"/><path class="cls-2" d="M207,78.56a1.38,1.38,0,0,0,.7-.6,11.06,11.06,0,0,1,7.54-4.06A8.51,8.51,0,0,1,224.71,81a26,26,0,0,1,.41,4.58c0,4.17,0,8.34,0,12.52,0,.56-.15.77-.73.73a14.28,14.28,0,0,0-1.85,0c-.46,0-.6-.14-.59-.59,0-1,0-1.92,0-2.89,0-3.34,0-6.69,0-10a17,17,0,0,0-.33-3.76c-1.09-4.73-5.07-5.38-8.28-4.5a8.72,8.72,0,0,0-6.11,7.7c-.34,4-.14,8-.2,12,0,.48,0,1,0,1.45s-.08.64-.57.61a18.87,18.87,0,0,0-2,0c-.47,0-.62-.17-.57-.6,0-.11,0-.23,0-.34V66.07c0-1,0-1,1-1,.48,0,1,0,1.44,0s.73.2.73.76c0,3.94,0,7.88,0,11.82Z"/><path class="cls-2" d="M175.44,150.11a8.5,8.5,0,0,1,5.84,2.22,19,19,0,0,1,2.49,2.74c.23.3.26.49-.07.73-.65.46-1.29.95-1.92,1.45-.32.26-.49.17-.71-.12a13.93,13.93,0,0,0-2-2.23,5.36,5.36,0,0,0-4.87-1.26,4.23,4.23,0,0,0-2.9,6,7.6,7.6,0,0,0,2.41,2.95c2.07,1.67,4.3,3.14,6.3,4.9a15.58,15.58,0,0,1,3.54,4.17c3.41,6.29-1.44,12.24-6.66,12.93a9.84,9.84,0,0,1-9.47-3.82,20.06,20.06,0,0,1-1.77-2.62c-.18-.29-.18-.47.15-.65.68-.38,1.35-.78,2-1.2.36-.24.51-.11.69.21a12.68,12.68,0,0,0,2.65,3.4,6,6,0,0,0,7,.83,5.33,5.33,0,0,0,2.07-7.8,17.85,17.85,0,0,0-3.53-3.73c-2-1.67-4.08-3.12-6-4.84a8.85,8.85,0,0,1-3-4.91A7.67,7.67,0,0,1,175.44,150.11Z"/><path class="cls-2" d="M279.77,142c-5.5-.08-9.81-2.33-12.24-7.37a12.78,12.78,0,0,1,9-17.86A14.87,14.87,0,0,1,286.78,118a10.32,10.32,0,0,1,4.07,3.6c.23.34.24.54-.15.76a14.19,14.19,0,0,0-1.57,1c-.37.26-.58.17-.84-.16-3.3-4.11-8.6-4.48-12.24-3.2a9.82,9.82,0,0,0,1.72,18.92,10.73,10.73,0,0,0,10.47-3.61c.34-.39.58-.41,1-.11a10.2,10.2,0,0,0,1.38.9c.55.29.48.56.14,1a12.5,12.5,0,0,1-7.53,4.58A17,17,0,0,1,279.77,142Z"/><path class="cls-2" d="M202.64,184.47c-5.28,0-9.45-2.15-12-6.86a12.78,12.78,0,0,1,8.69-18.34,14.79,14.79,0,0,1,11,1.57,10.29,10.29,0,0,1,3.42,3.24c.25.37.22.57-.18.79a9.66,9.66,0,0,0-1.34.83c-.47.35-.75.33-1.16-.16a10.89,10.89,0,0,0-16.59.17,9.85,9.85,0,0,0,6.21,15.68,10.72,10.72,0,0,0,10.51-3.68c.26-.3.46-.36.8-.12a15.93,15.93,0,0,0,1.55,1c.43.24.45.45.15.84a12.25,12.25,0,0,1-6.08,4.29A15.35,15.35,0,0,1,202.64,184.47Z"/><path class="cls-2" d="M251,99.46c-5,0-9-1.93-11.65-6.19a12.73,12.73,0,0,1,7.33-18.72,14.2,14.2,0,0,1,13.46,2.36,9.57,9.57,0,0,1,1.9,2.16c.28.38.2.57-.19.79-.64.36-1.24,1-1.88,1.06s-1-.89-1.49-1.36a11,11,0,0,0-15.54.94,9.84,9.84,0,0,0,5.94,15.86,10.73,10.73,0,0,0,10.59-3.63c.28-.33.49-.4.85-.13a13.68,13.68,0,0,0,1.49,1c.46.25.48.47.17.89A12.39,12.39,0,0,1,255,99,15.58,15.58,0,0,1,251,99.46Z"/><path class="cls-2" d="M210.54,125.27c0-2.7,0-5.13,0-7.56,0-.58.18-.76.74-.72s1.29,0,1.93,0c.36,0,.55.08.54.49-.08,5,.21,10-.18,15-.37,4.77-2.89,8-7,9.09a13.44,13.44,0,0,1-7.2-.09,8.74,8.74,0,0,1-6-5.73,14,14,0,0,1-.68-3.15,42.75,42.75,0,0,1-.22-4.66c0-3.4,0-6.79,0-10.18,0-.61.18-.81.78-.76a16.31,16.31,0,0,0,1.85,0c.39,0,.55.14.53.52,0,.23,0,.46,0,.69.05,4.47-.11,8.94.11,13.4a10.65,10.65,0,0,0,.35,2.45,6.22,6.22,0,0,0,3.5,4.1,8.21,8.21,0,0,0,6.62.22,6.45,6.45,0,0,0,4.26-6C210.58,129.9,210.51,127.45,210.54,125.27Z"/><path class="cls-2" d="M314.35,184.46a8.82,8.82,0,0,1-6-2.93c-.33-.34-.42-.58,0-.95a15.88,15.88,0,0,0,1.27-1.45c.23-.28.39-.29.65,0a7.72,7.72,0,0,0,2.33,1.79,4.91,4.91,0,0,0,5.89-.88,3.67,3.67,0,0,0-.29-5.43,16.79,16.79,0,0,0-3-1.9,22.58,22.58,0,0,1-3.24-1.94,6.61,6.61,0,0,1-2.24-8.35,6.7,6.7,0,0,1,7.9-3.28,11.16,11.16,0,0,1,4.57,2.71c.27.24.27.45,0,.67l0,.05c-.5.51-.92,1.27-1.52,1.46s-1.08-.7-1.66-1.06a6.18,6.18,0,0,0-3.54-1.13,3.49,3.49,0,0,0-3.29,2.21,3.21,3.21,0,0,0,.95,3.68,12.93,12.93,0,0,0,3.14,2.09,29.51,29.51,0,0,1,3.07,1.82c2.88,2.05,3.9,4.85,2.9,8S318.44,184.48,314.35,184.46Z"/><path class="cls-2" d="M301.32,167c0-5.36,0-10.73,0-16.09,0-.65.16-.92.83-.85a17.83,17.83,0,0,0,1.79,0c.38,0,.56.13.53.52,0,.16,0,.32,0,.48v31.77c0,1,0,1-1,1-.5,0-1,0-1.51,0s-.64-.14-.63-.62c0-1.31,0-2.62,0-3.92Z"/><path class="cls-2" d="M249.18,124.51c0-5.34,0-10.69,0-16,0-.68.16-1,.87-.89a12.34,12.34,0,0,0,1.72,0c.42,0,.59.16.56.57,0,.13,0,.27,0,.41v31.85c0,.92,0,.92-.93.93-.53,0-1.06,0-1.59,0s-.64-.14-.63-.62c0-1.49,0-3,0-4.47Z"/><path class="cls-2" d="M261.71,129.18c0,3.81,0,7.62,0,11.42,0,.61-.17.82-.78.77a13.22,13.22,0,0,0-1.78,0c-.5,0-.62-.17-.62-.63q0-11.56,0-23.11c0-.49.15-.65.63-.63a15.37,15.37,0,0,0,1.92,0c.58,0,.62.26.62.71Q261.7,123.45,261.71,129.18Z"/><path class="cls-2" d="M230.65,86.6c0-3.78,0-7.56,0-11.35,0-.59.14-.83.76-.77a9.09,9.09,0,0,0,1.65,0c.63-.06.76.18.76.77,0,6.63,0,13.25,0,19.88,0,1.05,0,2.11,0,3.16,0,.41-.11.58-.54.56a15.37,15.37,0,0,0-1.92,0c-.56,0-.7-.17-.7-.7C230.66,94.3,230.65,90.45,230.65,86.6Z"/><path class="cls-2" d="M257.58,109.48a2.56,2.56,0,1,1,5.11.14,2.56,2.56,0,1,1-5.11-.14Z"/><path class="cls-2" d="M234.79,67.08a2.56,2.56,0,1,1-2.52-2.62A2.58,2.58,0,0,1,234.79,67.08Z"/><path class="cls-2" d="M72.72,178.52c-.46-1.31-1.24-2.13-2.76-1.87h-.14a1,1,0,0,1-1-.68,15.49,15.49,0,0,1-.59-2,4.52,4.52,0,0,0-1.29-2.31,2.64,2.64,0,0,1-.91-2.07,55.58,55.58,0,0,0-1.12-8.23,2.57,2.57,0,0,1,.07-1.29,2.59,2.59,0,0,0,0-1.82,9.54,9.54,0,0,0-2.33-3.91,4.29,4.29,0,0,1-1.41-2,4.53,4.53,0,0,0-.78-1.45,10.74,10.74,0,0,1-1.62-4.12,1.85,1.85,0,0,1,.1-1.09,26.62,26.62,0,0,0,.83-2.9c.24-.87.51-1,1.35-.69a4.27,4.27,0,0,0,2.14.38,2.43,2.43,0,0,1,1.28.15,1.48,1.48,0,0,0,1.64-.35A7,7,0,0,0,67.75,140a1.45,1.45,0,0,0-1.11-2,5.65,5.65,0,0,0-3.38.13,2.52,2.52,0,0,1-1.15.19,1,1,0,0,1-1.06-1.17,11.27,11.27,0,0,1,0-1.93,7.1,7.1,0,0,0-.39-3.65,17.3,17.3,0,0,1-1.11-4.31,8.42,8.42,0,0,0-.19-1.57c-.34-1.2-.33-1.21.92-1a1.52,1.52,0,0,0,1.85-1.22,3.73,3.73,0,0,0,.23-1.08A3.19,3.19,0,0,1,63.45,120a.94.94,0,0,0,.09-1.35,2.09,2.09,0,0,1-.39-1.74,11.45,11.45,0,0,0-.36-4.9,2.93,2.93,0,0,0-1.15-1.58,9,9,0,0,0-2.7-1.32,9.93,9.93,0,0,0-5.56.21,4.92,4.92,0,0,0-2.63,1.77,8.52,8.52,0,0,0-1.62,6.29,5.4,5.4,0,0,0,1,2.54c.46.66.76,1.41,1.25,2a.88.88,0,0,1-.07,1.2,2.49,2.49,0,0,1-.8.64.83.83,0,0,1-1.25-.28A16.44,16.44,0,0,0,47.78,122a2.55,2.55,0,0,0-2.13-.74.88.88,0,0,0-.88.73,2.57,2.57,0,0,0,.8,2.68c.22.2.47.36.7.56a1.12,1.12,0,0,1,.21,1.74,5.43,5.43,0,0,0-.7,1c-.82,1.76-2.21,3.14-3.19,4.8a3,3,0,0,0-.52,1.52c0,1.12,0,2.24,0,3.37a1.51,1.51,0,0,1-.74,1.45A22.25,22.25,0,0,0,38.74,141a1.05,1.05,0,0,0-.43,1.15,3,3,0,0,1-.12,1.62,5.76,5.76,0,0,0,0,3.39c.41,1.46.87,2.9,1.34,4.34a6,6,0,0,0,.85,1.64,1.28,1.28,0,0,0,1,.6,12,12,0,0,1,1.61.3,1.29,1.29,0,0,1,1.12,1.14,5.63,5.63,0,0,1-2.4,5.66,15.14,15.14,0,0,0-2.09,1.56.69.69,0,0,0-.31.71C38,164.35,37,165.82,35.7,167A6.33,6.33,0,0,1,34.45,168a4,4,0,0,0-1.27,1.42,2.77,2.77,0,0,1-1.68,1.42c-1.18.43-2.33.94-3.49,1.44-.47.2-.9.55-.67,1.1.55,1.38,1,2.82,2.38,3.69a1.36,1.36,0,0,1,.72,1.18,3.69,3.69,0,0,0,.95,2.36,8.76,8.76,0,0,0,3.07,2.89c.31.17.68.37,1,.06a5,5,0,0,0,1.41-2.39c.14-.77-.45-1.2-.92-1.66-.15-.15-.27-.23-.06-.49a12.58,12.58,0,0,1,3.89-3.1,4,4,0,0,0,1.87-2.12,2.53,2.53,0,0,1,.69-1.31,31.94,31.94,0,0,0,2.86-2.84c.35.1.55-.15.76-.35.63-.6,1.21-1.26,1.8-1.9A32.67,32.67,0,0,0,53,160.35c.15-.28.33-.59.7-.57s.54.33.63.64c.71,2.47,1.8,4.8,2.45,7.29a8.29,8.29,0,0,0,1.87,4.14.89.89,0,0,1,.28,1A3.26,3.26,0,0,0,59,175a1.62,1.62,0,0,1,.12.81c-.21,1.09,0,2.2-.19,3.29-.05.29-.07.61.31.74.3.76,1.05.65,1.64.83a3.42,3.42,0,0,0,3.1,0,1.46,1.46,0,0,1,1-.18,13.91,13.91,0,0,0,6.19,0,3.22,3.22,0,0,0,1.13-.48A1.14,1.14,0,0,0,72.72,178.52Zm-24.2-53.4a.48.48,0,0,1-.47-.21c-.51-.56-1-1.11-1.54-1.66-.1-.11-.2-.2-.1-.34a.33.33,0,0,1,.44-.1,4.74,4.74,0,0,1,1.95,1.68C49,124.87,48.74,125,48.52,125.12Z"/><path class="cls-2" d="M99.93,117.49c-.08,0-.12-.14-.17-.22a.58.58,0,0,0-.69-.3c-.63.17-.58-.14-.45-.57.34-1.12.64-2.25,1-3.36.16-.49.11-.78-.42-1-.7-.29-1.34-.73-2-1a2.85,2.85,0,0,1-2.14-2.7c-.18-2-1.23-3.73-1.47-5.7a2.85,2.85,0,0,0-2-2.25q-1.89-.72-3.75-1.53c-.53-.23-1-.64-.76-1.29s.73-.67,1.31-.6a5.69,5.69,0,0,0,2.25-.08c.68-.21.91-.56.75-1.22a.55.55,0,0,1,.17-.61c.43-.41-.07-1.12.46-1.52a1.4,1.4,0,0,0-.19-.26c-.45-.4-.36-.67.16-.9s.59-.64.26-1.1c-.12-.17-.25-.33-.38-.49-.52-.63-.93-1.27-.41-2.1a.82.82,0,0,0,.1-.46c-.12-2.54-.49-3.35-2.61-4.39a7,7,0,0,0-6.43-.08c-.44.21-.78.4-.91-.38a1.61,1.61,0,0,0-2-1.32.65.65,0,0,1-.45,0,1.32,1.32,0,0,0-1.91.4.83.83,0,0,1-.91.36,1.14,1.14,0,0,0-1.49.94,1,1,0,0,1-.59.87,1.45,1.45,0,0,0-.45,2.28,1.07,1.07,0,0,1,.32,1c-.12.93.31,1.65,1.17,1.71a2.62,2.62,0,0,1,2.08.7.41.41,0,0,0,.32.09c.83-.24,1,.36,1.11.92a4.85,4.85,0,0,0,2.24,3.08.7.7,0,0,1,.25.23C81.9,96,81.31,97,79.82,97c-.65,0-1,.21-.91.91a1,1,0,0,1-.69,1.12,6.88,6.88,0,0,0-2,1.6A7.92,7.92,0,0,0,73.81,106s0,.09,0,.13a1.26,1.26,0,0,1-1.11,1.13,9.42,9.42,0,0,0-2.48.78,1.29,1.29,0,0,0-.84,1.15,78.27,78.27,0,0,0,.19,8.39,12.42,12.42,0,0,0,.67,3.29A1.66,1.66,0,0,0,71.55,122a9.63,9.63,0,0,0,1.78.12.66.66,0,0,1,.76.61c.06.48.16,1,.23,1.43.22,1.36,0,1.57,1.67,1.41,1-.1,1.29.26,1.23,1.25a26.37,26.37,0,0,0-.14,3,4.37,4.37,0,0,0,1.36,3.13,4.32,4.32,0,0,1,1.27,2.31,29.48,29.48,0,0,1,.52,7.38c0,1.24,0,2.48,0,3.71a5.43,5.43,0,0,1-.44,2.48,2.69,2.69,0,0,0-.37,1.51,5.77,5.77,0,0,1-.14,1.44,13.12,13.12,0,0,0,.66,7.95c.15.37.11.52-.3.6a2.33,2.33,0,0,0-1.65,1,2.53,2.53,0,0,1-.87.85c-1.42.87-2.49,2.17-3.81,3.15a1,1,0,0,0-.26,1.45,7.62,7.62,0,0,0,1.23,1.65,1.38,1.38,0,0,0,1,.44c1.32,0,1.68.34,1.65,1.67a1.39,1.39,0,0,0,.4,1c.91,1,1.77,2,2.68,2.95.28.3.3.47,0,.78a3.37,3.37,0,0,0-.84,3.49,3.77,3.77,0,0,1,.11.75c.09,1,.09,1,1.16,1,.58,0,1.2.14,1.55-.57.15-.28.49-.23.74-.07a3.09,3.09,0,0,0,1.45.37c2.42.22,4.85.25,7.28.27a2,2,0,0,0,1.16-.36c.44-.29.95-.58.93-1.18s-.58-.79-1-.9a3.49,3.49,0,0,1-2.52-2.41c-.35-.89-1-1.65-1.33-2.55a18,18,0,0,1-.88-6.91,5.4,5.4,0,0,1,.85-2.93,141.73,141.73,0,0,1,8.81-11.17,4.91,4.91,0,0,0,1.37-3.85c0-.61-.05-1.23-.12-1.85a83.65,83.65,0,0,0-2.08-10,42.15,42.15,0,0,0-2.29-7.83,12.37,12.37,0,0,1-.84-4.41c-.1-1.27.28-1.46,1.35-.87s1.19.66,1.62-.65c.18-.55.41-.64.94-.39a1.52,1.52,0,0,0,1.57.13,3.88,3.88,0,0,0,1.58-2.71C100.8,118.83,100.82,118,99.93,117.49ZM89.72,150.07a22.41,22.41,0,0,1-1.32,2.4,3.35,3.35,0,0,1-1,1c1-3.61,1-7.2,1.45-10.89a2.43,2.43,0,0,1,.58,1.27c.25,1.23.49,2.46.69,3.7A3.92,3.92,0,0,1,89.72,150.07Z"/><path class="cls-2" d="M256.52,158.86a12.7,12.7,0,0,0-12.7,12.88c-.07,6.09,4.79,12.9,12.71,12.73,7.86.17,12.77-6.6,12.7-12.75A12.66,12.66,0,0,0,256.52,158.86Zm0,22.65a9.49,9.49,0,0,1-9.48-9.8,9.51,9.51,0,1,1,19,.06A9.46,9.46,0,0,1,256.49,181.51Z"/><path class="cls-2" d="M284.92,158.86a12.71,12.71,0,0,0-12.72,12.87c0,6.4,5,12.91,12.71,12.74,7.68.18,12.71-6.34,12.71-12.67A12.68,12.68,0,0,0,284.92,158.86Zm0,22.65a9.5,9.5,0,0,1-9.49-9.72,9.52,9.52,0,1,1,19,0A9.52,9.52,0,0,1,284.88,181.51Z"/><path class="cls-2" d="M244.47,127.17a12,12,0,0,0-8.66-10.23c-4.95-1.54-9.32-.23-12.87,3.61-.12.13-.19.37-.53.33V111.2c0-1,0-2,0-3,0-.45-.16-.62-.6-.6s-1.06,0-1.58,0c-.94,0-.94,0-.94.93v31.91c0,.14,0,.28,0,.42,0,.38.13.53.52.52a16.49,16.49,0,0,1,1.86,0c.56,0,.76-.15.74-.73,0-1.16,0-2.33,0-3.54l.2.05.39.48a11.34,11.34,0,0,0,11.76,4.05A12.63,12.63,0,0,0,244.47,127.17Zm-12.76,11.76a9.86,9.86,0,0,1,.18-19.72,9.85,9.85,0,0,1,9.56,9.91A9.68,9.68,0,0,1,231.71,138.93Z"/><path class="cls-2" d="M291,76c0-.3,0-.6,0-.89s-.11-.63-.58-.61a15.37,15.37,0,0,1-1.92,0c-.49,0-.64.15-.63.63,0,1.19,0,2.38,0,3.76-.24-.29-.36-.42-.48-.56a11.35,11.35,0,0,0-12-4.13,12.69,12.69,0,0,0-9.48,15.25A12,12,0,0,0,274.69,99a11.84,11.84,0,0,0,12.54-3.54,1.64,1.64,0,0,1,.64-.57c0,.64,0,1.21,0,1.78s-.3,1.62.12,2.06,1.4.07,2.12.16.89-.15.89-.85C291,90.66,291,83.32,291,76ZM278.47,96.56a9.84,9.84,0,0,1,0-19.68,9.61,9.61,0,0,1,9.64,9.88A9.51,9.51,0,0,1,278.47,96.56Z"/><path class="cls-2" d="M319.14,74.49c-.69,0-1.37,0-2.06,0-.5,0-.62.17-.61.64,0,1.11,0,2.23,0,3.53a12.34,12.34,0,0,0-18.11-1.52,12.64,12.64,0,0,0-1.86,16.57A11.84,11.84,0,0,0,304,98.52a12.49,12.49,0,0,0,12.51-4.2,30.74,30.74,0,0,1-.21,4.47,7,7,0,0,1-4.6,5.84,12.28,12.28,0,0,1-5.46.83c-3.37-.14-6.15-1.37-8-4.33a.67.67,0,0,0-.66-.38c-.82,0-1.65,0-2.48,0-.42,0-.45.14-.29.49a11,11,0,0,0,5.85,5.91,16.57,16.57,0,0,0,11.44.47,9.87,9.87,0,0,0,7.12-8.05,27.76,27.76,0,0,0,.42-5.07c0-6.3,0-12.6,0-18.91,0-.2,0-.41,0-.62S319.5,74.48,319.14,74.49Zm-12,21.38c-5.68,0-9.68-3.76-9.68-9.18a9.67,9.67,0,0,1,9.74-9.81,9.23,9.23,0,0,1,9.44,9.52C316.64,92.1,312.9,95.83,307.12,95.87Z"/><path class="cls-2" d="M335.25,73.85a12.64,12.64,0,0,0-12.64,12.92,12.69,12.69,0,1,0,12.64-12.92Zm0,22.64a9.45,9.45,0,0,1-9.46-9.73,9.51,9.51,0,1,1,19,0A9.48,9.48,0,0,1,335.26,96.49Z"/></g></svg>