<svg width="107" height="79" viewBox="0 0 107 79" fill="none" xmlns="http://www.w3.org/2000/svg">
<path d="M57.9835 20.9382C57.9835 15.259 60.1634 10.3785 64.5233 6.29664C68.8832 2.39214 74.5147 0.439941 81.4179 0.439941C85.5961 0.439941 89.2294 1.14984 92.3176 2.56964C95.4059 4.16694 98.04 6.20784 100.22 8.69254C102.4 11.3546 104.035 14.2829 105.125 17.4774C106.215 20.672 106.76 23.9552 106.76 27.3273C106.76 36.5559 105.306 44.2761 102.4 50.4877C99.3116 56.8768 95.5876 62.0235 91.2277 65.928C86.6861 70.0099 81.8721 73.027 76.7855 74.9792C71.5173 76.9314 66.6124 78.085 62.0709 78.4399V60.3375C64.4325 59.9826 66.9757 59.2727 69.7007 58.2078C72.2439 57.3204 74.6964 55.9894 77.058 54.2146C79.2379 52.4399 81.1454 50.3102 82.7804 47.8256C84.2337 45.5184 85.0511 42.8563 85.2328 39.8392C84.8695 40.0167 84.1428 40.2829 83.0529 40.6379C81.9629 40.9928 80.6912 41.1703 79.2379 41.1703C72.3348 41.1703 67.0666 39.218 63.4333 35.3136C59.8001 31.5866 57.9835 26.7948 57.9835 20.9382ZM0.759766 20.9382C0.759766 15.259 2.93977 10.3785 7.29957 6.29664C11.6595 2.39214 17.2911 0.439941 24.1942 0.439941C28.3725 0.439941 32.0057 1.14984 35.094 2.56964C38.1823 4.16694 40.8164 6.20784 42.9963 8.69254C44.9946 11.3546 46.5387 14.2829 47.6287 17.4774C48.7187 20.672 49.2637 23.9552 49.2637 27.3273C49.2637 36.5559 47.8104 44.2761 44.9038 50.4877C41.9972 56.8768 38.3639 62.0235 34.004 65.928C29.4625 70.0099 24.6484 73.027 19.5619 74.9792C14.2936 76.9314 9.38876 78.085 4.84676 78.4399V60.3375C7.20876 59.9826 9.75207 59.2727 12.477 58.2078C15.0203 57.3204 17.4727 55.9894 19.8343 54.2146C22.0143 52.4399 23.9218 50.3102 25.5567 47.8256C27.01 45.5184 27.8275 42.8563 28.0092 39.8392C27.6458 40.0167 26.9192 40.2829 25.8292 40.6379C24.7392 40.9928 23.4676 41.1703 22.0143 41.1703C15.1111 41.1703 9.84286 39.218 6.20976 35.3136C2.57676 31.5866 0.759766 26.7948 0.759766 20.9382Z" fill="#90CEF4"/>
</svg>
