<svg width="50" height="50" viewBox="0 0 50 50" fill="none" xmlns="http://www.w3.org/2000/svg">
<ellipse cx="25" cy="43.2021" rx="8.33333" ry="1.53509" fill="#A6D0E5"/>
<path d="M14.1575 23.9515V11.4894C16.0189 10.3263 20.8753 8 25.4094 8C29.9435 8 34.7998 10.3263 36.6613 11.4894V23.9515C36.6613 26.1947 33.9108 32.4257 25.4094 35.4997C16.9079 32.4257 14.1575 26.1946 14.1575 23.9515Z" fill="#A6D0E5" stroke="#469CD6"/>
<path d="M18.4041 22.8311V14.6202C19.5864 13.904 22.671 12.4717 25.5509 12.4717C28.4308 12.4717 31.5154 13.9041 32.6978 14.6203V22.8312C32.6978 24.2124 30.9508 28.049 25.5509 29.9418C20.1511 28.049 18.4041 24.2123 18.4041 22.8311Z" fill="white" stroke="#469CD6"/>
<path d="M21.5612 21.3531L24.2976 24.0498L29.8846 18.5439" stroke="#469CD6" stroke-linecap="round" stroke-linejoin="round"/>
</svg>
