<svg width="50" height="50" viewBox="0 0 50 50" fill="none" xmlns="http://www.w3.org/2000/svg">
<ellipse cx="24.9993" cy="43.2016" rx="8.33333" ry="1.53509" fill="#A6D0E5"/>
<path d="M16.2578 9.9165H27.5569L32.1804 14.652V31.48C32.1804 32.0323 31.7327 32.48 31.1804 32.48H16.2578C15.7055 32.48 15.2578 32.0323 15.2578 31.48V10.9165C15.2578 10.3642 15.7055 9.9165 16.2578 9.9165Z" fill="white"/>
<path d="M27.5569 9.9165H16.2578C15.7055 9.9165 15.2578 10.3642 15.2578 10.9165V31.48C15.2578 32.0323 15.7055 32.48 16.2578 32.48H31.1804C31.7327 32.48 32.1804 32.0323 32.1804 31.48V14.652M27.5569 9.9165V14.652H32.1804M27.5569 9.9165L32.1804 14.652M17.902 14.652H24.7768M17.902 17.4377H29.5363M17.902 20.1238H29.5363M17.902 22.8099H29.5363M17.902 25.496H29.5363M17.902 28.1822H29.5363" stroke="#469CD6" stroke-linecap="round" stroke-linejoin="round"/>
<path d="M35.0309 32.4107L33.5652 30.9887L27.9566 25.5476L27.0938 22.0132L30.5452 22.8968L36.1538 28.6402L37.4579 29.9757C38.153 30.6874 38.1007 31.8387 37.3439 32.4845C36.6693 33.0602 35.6675 33.0282 35.0309 32.4107Z" fill="#A6D0E5"/>
<path d="M35.0321 32.4106L33.5664 30.9887L36.155 28.6401L37.4591 29.9756C38.1541 30.6873 38.1018 31.8386 37.3451 32.4844C36.6705 33.0601 35.6686 33.0281 35.0321 32.4106Z" fill="white"/>
<path d="M33.5652 30.9887L35.0309 32.4107C35.6675 33.0282 36.6693 33.0602 37.3439 32.4845V32.4845C38.1007 31.8387 38.153 30.6874 37.4579 29.9757L36.1538 28.6402M33.5652 30.9887L36.1538 28.6402M33.5652 30.9887L27.9566 25.5476L27.0938 22.0132L30.5452 22.8968L36.1538 28.6402" stroke="#469CD6" stroke-linecap="round" stroke-linejoin="round"/>
</svg>
