<svg width="50" height="50" viewBox="0 0 50 50" fill="none" xmlns="http://www.w3.org/2000/svg">
<ellipse cx="25" cy="43.2021" rx="8.33333" ry="1.53509" fill="#A6D0E5"/>
<path d="M9 13C9 10.7909 10.7909 9 13 9H38C40.2091 9 42 10.7909 42 13V27C42 29.2091 40.2091 31 38 31H25L16 37.5V31H13C10.7909 31 9 29.2091 9 27V13Z" fill="white" stroke="#3295DB" stroke-linecap="round" stroke-linejoin="round"/>
<circle cx="25.5" cy="20.5" r="6.5" fill="#A6D0E5" stroke="#3295DB" stroke-linecap="round" stroke-linejoin="round"/>
<path d="M19 20.5H32M27.6667 20.5C27.6667 24.0899 26.6966 27 25.5 27C24.3034 27 23.3333 24.0899 23.3333 20.5C23.3333 16.9101 24.3034 14 25.5 14C26.6966 14 27.6667 16.9101 27.6667 20.5Z" stroke="#3295DB" stroke-linecap="round" stroke-linejoin="round"/>
<path d="M20.6349 15.984C20.3796 15.8788 20.0873 16.0005 19.9821 16.2558C19.877 16.5112 19.9987 16.8034 20.254 16.9086L20.6349 15.984ZM20.4444 24.0183C20.1861 24.116 20.0559 24.4046 20.1536 24.6629C20.2513 24.9211 20.5399 25.0513 20.7982 24.9536L20.4444 24.0183ZM30.3651 25.018C30.6205 25.1232 30.9127 25.0015 31.0179 24.7462C31.1231 24.4908 31.0013 24.1986 30.746 24.0934L30.3651 25.018ZM30.746 16.9086C31.0013 16.8034 31.1231 16.5112 31.0179 16.2558C30.9127 16.0005 30.6205 15.8788 30.3651 15.984L30.746 16.9086ZM25.5 16.751C23.4982 16.751 21.7465 16.4419 20.6349 15.984L20.254 16.9086C21.5257 17.4324 23.418 17.751 25.5 17.751L25.5 16.751ZM20.7982 24.9536C21.9163 24.5306 23.5965 24.251 25.5 24.251L25.5 23.251C23.5167 23.251 21.7085 23.54 20.4444 24.0183L20.7982 24.9536ZM25.5 24.251C27.5018 24.251 29.2535 24.5601 30.3651 25.018L30.746 24.0934C29.4744 23.5696 27.5821 23.251 25.5 23.251L25.5 24.251ZM30.3651 15.984C29.2535 16.4419 27.5018 16.751 25.5 16.751L25.5 17.751C27.5821 17.751 29.4744 17.4324 30.746 16.9086L30.3651 15.984Z" fill="#3295DB"/>
</svg>
