<svg width="50" height="50" viewBox="0 0 50 50" fill="none" xmlns="http://www.w3.org/2000/svg">
<ellipse cx="25" cy="43.2021" rx="8.33333" ry="1.53509" fill="#A6D0E5"/>
<path d="M19.9562 10.9489C19.9562 9.47507 21.151 8.28027 22.6248 8.28027H27.3452C28.8357 8.28027 30.0439 9.48852 30.0439 10.979V10.979C30.0439 12.7584 28.8844 14.3583 27.1303 14.6573C26.4119 14.7797 25.6598 14.8668 25 14.8587C24.3612 14.8508 23.6201 14.7589 22.9058 14.637C21.1417 14.3359 19.9562 12.7386 19.9562 10.9489V10.9489Z" stroke="#469CD6"/>
<path d="M39.2544 28.1572C39.2544 31.4709 36.5681 34.1572 33.2544 34.1572H16.7456C13.4319 34.1572 10.7456 31.4709 10.7456 28.1572V26.9865C10.7456 24.6354 12.1166 22.4944 14.3239 21.6846C17.3615 20.5702 21.7624 19.2203 25.2036 19.2453C28.5221 19.2693 32.7478 20.5849 35.6944 21.6777C37.8924 22.4928 39.2544 24.6289 39.2544 26.9731V28.1572Z" fill="#CAE5C8"/>
<path d="M9.64917 17.5693C9.64917 14.2556 12.3355 11.5693 15.6492 11.5693H34.3509C37.6646 11.5693 40.3509 14.2556 40.3509 17.5693V19.5464C40.3509 21.9001 38.978 24.0408 36.771 24.8586C33.4947 26.0727 28.5913 27.6056 24.7807 27.5781C21.1042 27.5515 16.3938 26.0576 13.2127 24.8662C11.0149 24.0432 9.64917 21.9066 9.64917 19.5598V17.5693Z" fill="#CAE5C8"/>
<path d="M39.2544 32.1572C39.2544 33.2618 38.359 34.1572 37.2544 34.1572H12.7456C11.6411 34.1572 10.7456 33.2618 10.7456 32.1572V23.1265C10.7456 23.1265 19.3589 19.2029 25.2036 19.2453C30.8949 19.2865 39.2544 23.1265 39.2544 23.1265V32.1572Z" fill="#A6D0E5" stroke="#469CD6"/>
<path d="M9.64917 13.5693C9.64917 12.4648 10.5446 11.5693 11.6492 11.5693H38.3509C39.4555 11.5693 40.3509 12.4648 40.3509 13.5693V22.1231C40.3509 22.9076 39.8929 23.6185 39.1681 23.919C36.4695 25.0375 29.7106 27.6137 24.7807 27.5781C19.9982 27.5436 13.4661 25.0259 10.8268 23.9214C10.1051 23.6194 9.64917 22.9098 9.64917 22.1276V13.5693Z" fill="white" stroke="#469CD6"/>
<path d="M19.5176 22.9492C19.5176 21.8447 20.413 20.9492 21.5176 20.9492H28.4825C29.5871 20.9492 30.4825 21.8446 30.4825 22.9492V26.5913C30.4825 26.5913 27.248 27.4938 25 27.4685C22.8111 27.4439 19.5176 26.5913 19.5176 26.5913V22.9492Z" fill="#A6D0E5" stroke="#469CD6"/>
<rect x="23.465" y="24.7275" width="3.07017" height="4.82456" rx="1" fill="white" stroke="#469CD6"/>
</svg>
