<svg width="50" height="50" viewBox="0 0 50 50" fill="none" xmlns="http://www.w3.org/2000/svg">
<ellipse cx="25" cy="43.2021" rx="8.33333" ry="1.53509" fill="#A6D0E5"/>
<rect x="10.3071" y="8.99121" width="29.1667" height="22.5877" rx="1" fill="white"/>
<path d="M10.3071 26.3291C10.3071 25.7768 10.7548 25.3291 11.3071 25.3291H38.4738C39.0261 25.3291 39.4738 25.7768 39.4738 26.3291V30.5791C39.4738 31.1314 39.0261 31.5791 38.4738 31.5791H11.3071C10.7548 31.5791 10.3071 31.1314 10.3071 30.5791V26.3291Z" fill="#A6D0E5"/>
<path d="M15.7896 36.7459C15.7896 36.1937 16.2381 35.7394 16.7827 35.6476C18.0453 35.4348 20.121 34.7613 20.6156 32.6302C20.7404 32.0922 21.1715 31.6367 21.7238 31.6367H27.5088C28.0611 31.6367 28.491 32.0935 28.6286 32.6284C29.1918 34.8172 31.6076 35.4692 32.997 35.6635C33.5439 35.74 33.9913 36.1937 33.9913 36.7459V37.1582C33.9913 37.7105 33.5436 38.1582 32.9913 38.1582H16.7896C16.2373 38.1582 15.7896 37.7105 15.7896 37.1582V36.7459Z" fill="#A6D0E5" stroke="#469CD6"/>
<path d="M16.8861 35.1357C16.61 35.1357 16.3861 35.3596 16.3861 35.6357C16.3861 35.9119 16.61 36.1357 16.8861 36.1357V35.1357ZM32.5 36.1357C32.7761 36.1357 33 35.9119 33 35.6357C33 35.3596 32.7761 35.1357 32.5 35.1357V36.1357ZM32.5 35.1357H16.8861V36.1357H32.5V35.1357Z" fill="#469CD6"/>
<path d="M10.5264 25.3291H39.3641" stroke="#469CD6"/>
<rect x="10.3071" y="8.99121" width="29.1667" height="22.5877" rx="1" stroke="#469CD6"/>
<ellipse cx="25.0001" cy="28.0701" rx="1.09649" ry="1.0965" fill="white" stroke="#469CD6"/>
<path d="M26.0966 18.2016H27.9606L29.4957 21.3815L32.0176 12.9385L33.443 16.6665H35.1974" stroke="#469CD6" stroke-linecap="round" stroke-linejoin="round"/>
<path d="M16.7349 14.1934C16.4587 14.1934 16.2349 14.4172 16.2349 14.6934C16.2349 14.9695 16.4587 15.1934 16.7349 15.1934V14.1934ZM22.8077 15.1934C23.0839 15.1934 23.3077 14.9695 23.3077 14.6934C23.3077 14.4172 23.0839 14.1934 22.8077 14.1934V15.1934ZM16.7349 15.1934H22.8077V14.1934H16.7349V15.1934Z" fill="#469CD6"/>
<path d="M16.734 17.1533C16.4579 17.1533 16.234 17.3772 16.234 17.6533C16.234 17.9295 16.4579 18.1533 16.734 18.1533V17.1533ZM22.8069 18.1533C23.083 18.1533 23.3069 17.9295 23.3069 17.6533C23.3069 17.3772 23.083 17.1533 22.8069 17.1533V18.1533ZM16.734 18.1533H22.8069V17.1533H16.734V18.1533Z" fill="#469CD6"/>
<path d="M16.734 20.1143C16.4579 20.1143 16.234 20.3381 16.234 20.6143C16.234 20.8904 16.4579 21.1143 16.734 21.1143V20.1143ZM22.8069 21.1143C23.083 21.1143 23.3069 20.8904 23.3069 20.6143C23.3069 20.3381 23.083 20.1143 22.8069 20.1143V21.1143ZM16.734 21.1143H22.8069V20.1143H16.734V21.1143Z" fill="#469CD6"/>
<circle cx="14.6931" cy="20.614" r="0.657896" fill="#469CD6"/>
<ellipse cx="14.6931" cy="17.5436" rx="0.657896" ry="0.657893" fill="#469CD6"/>
<circle cx="14.6931" cy="14.6931" r="0.657896" fill="#469CD6"/>
</svg>
