<svg width="50" height="50" viewBox="0 0 50 50" fill="none" xmlns="http://www.w3.org/2000/svg">
<ellipse cx="25" cy="43.2021" rx="8.33333" ry="1.53509" fill="#A6D0E5"/>
<path d="M9 32V13.5C9 11.2909 10.7909 9.5 13 9.5H37.5C39.7091 9.5 41.5 11.2909 41.5 13.5V32H44.5L44.3289 32.5989C43.8383 34.3161 42.2687 35.5 40.4828 35.5H10.0172C8.23128 35.5 6.66174 34.3161 6.17111 32.5989L6 32H9Z" fill="#A6D0E5"/>
<path d="M11.5 13.5V32H39V13.5C39 12.9477 38.5523 12.5 38 12.5H12.5C11.9477 12.5 11.5 12.9477 11.5 13.5Z" fill="white"/>
<circle cx="31.5" cy="22.5" r="4.5" fill="white" stroke="#3295DB" stroke-linecap="round" stroke-linejoin="round"/>
<path d="M9 32V13.5C9 11.2909 10.7909 9.5 13 9.5H37.5C39.7091 9.5 41.5 11.2909 41.5 13.5V32M41.5 32H44.5L44.3289 32.5989C43.8383 34.3161 42.2687 35.5 40.4828 35.5H10.0172C8.23128 35.5 6.66174 34.3161 6.17111 32.5989L6 32H11.5M41.5 32H39M11.5 32V13.5C11.5 12.9477 11.9477 12.5 12.5 12.5H38C38.5523 12.5 39 12.9477 39 13.5V32M11.5 32H39M21.5 33.5H28.5M34.5 33.5H34.51M37 33.5H36.99M38.99 33.5H39M25 11H25.01" stroke="#3295DB" stroke-linecap="round" stroke-linejoin="round"/>
<path fill-rule="evenodd" clip-rule="evenodd" d="M17.4791 18.2292C17.4977 18.0977 17.6103 18 17.7431 18H19.2397C19.3707 18 19.4823 18.0952 19.5029 18.2246L19.5566 18.5598C19.5777 18.6921 19.6738 18.799 19.8001 18.8435C19.9225 18.8866 20.042 18.9356 20.1584 18.9902C20.2808 19.0476 20.4257 19.038 20.5338 18.9568L20.798 18.7582C20.9042 18.6784 21.0529 18.6889 21.1467 18.7828L22.205 19.8411C22.2976 19.9337 22.3092 20.0799 22.2324 20.186L22.0443 20.4457C21.9652 20.5549 21.958 20.6996 22.0171 20.8208C22.0763 20.9421 22.1293 21.0668 22.1758 21.1947C22.222 21.3214 22.3311 21.4168 22.4647 21.4357L22.7708 21.4791C22.9023 21.4978 23 21.6103 23 21.7431V23.2397C23 23.3707 22.9049 23.4823 22.7754 23.503L22.4873 23.5491C22.3537 23.5705 22.2461 23.6682 22.2024 23.7963C22.1555 23.9337 22.1012 24.0677 22.0399 24.1977C21.9822 24.3202 21.9917 24.4654 22.0731 24.5737L22.2417 24.7981C22.3215 24.9042 22.311 25.0529 22.2171 25.1468L21.1589 26.2051C21.0662 26.2977 20.92 26.3093 20.8139 26.2325L20.5948 26.0738C20.4853 25.9945 20.3404 25.9874 20.219 26.0469C20.0842 26.113 19.9451 26.1715 19.8021 26.222C19.6736 26.2674 19.5767 26.3772 19.5575 26.5121L19.5208 26.7708C19.5022 26.9023 19.3896 27 19.2568 27H17.7602C17.6293 27 17.5176 26.9048 17.497 26.7754L17.4546 26.5104C17.4334 26.3777 17.3368 26.2706 17.21 26.2263C17.0668 26.1763 16.9275 26.1182 16.7924 26.0526C16.6691 25.9927 16.5219 26.0013 16.4123 26.0837L16.2019 26.2418C16.0957 26.3216 15.947 26.3111 15.8532 26.2172L14.7949 25.1589C14.7023 25.0663 14.6907 24.9201 14.7675 24.814L14.9364 24.5808C15.0147 24.4727 15.0226 24.3297 14.9653 24.2091C14.9036 24.0792 14.8489 23.9453 14.8016 23.808C14.7569 23.6783 14.6465 23.5801 14.5107 23.5608L14.2292 23.5209C14.0977 23.5022 14 23.3897 14 23.2569V21.7603C14 21.6293 14.0951 21.5177 14.2246 21.497L14.537 21.447C14.6684 21.426 14.7748 21.3311 14.8199 21.206C14.8661 21.078 14.9188 20.953 14.9776 20.8316C15.0372 20.7084 15.0284 20.5615 14.9462 20.4521L14.7582 20.202C14.6784 20.0958 14.6889 19.9472 14.7828 19.8532L15.8411 18.795C15.9337 18.7024 16.0799 18.6907 16.186 18.7676L16.4599 18.966C16.5678 19.0441 16.7105 19.0522 16.8309 18.9952C16.9472 18.9403 17.0666 18.8909 17.1888 18.8474C17.3168 18.8019 17.4134 18.6922 17.4325 18.5576L17.4791 18.2292Z" fill="#DAEAF5"/>
<path d="M17.4791 18.2292L16.984 18.1589L16.984 18.159L17.4791 18.2292ZM19.5029 18.2246L19.0092 18.3034L19.0092 18.3035L19.5029 18.2246ZM20.798 18.7582L20.4977 18.3585L20.4976 18.3585L20.798 18.7582ZM21.1467 18.7828L20.793 19.1362L20.7932 19.1364L21.1467 18.7828ZM22.205 19.8411L22.5586 19.4875L22.5585 19.4875L22.205 19.8411ZM22.2324 20.186L22.6373 20.4793L22.6374 20.4792L22.2324 20.186ZM22.7708 21.4791L22.7005 21.9742L22.7006 21.9742L22.7708 21.4791ZM22.7754 23.503L22.6966 23.0093L22.6965 23.0093L22.7754 23.503ZM22.2417 24.7981L22.6414 24.4977L22.6414 24.4977L22.2417 24.7981ZM22.2171 25.1468L22.5707 25.5004L22.5709 25.5002L22.2171 25.1468ZM21.1589 26.2051L20.8053 25.8515L20.8053 25.8515L21.1589 26.2051ZM20.8139 26.2325L21.1073 25.8276L21.1072 25.8275L20.8139 26.2325ZM19.5208 26.7708L20.0159 26.8411L20.0159 26.841L19.5208 26.7708ZM17.497 26.7754L17.9907 26.6966L17.9907 26.6965L17.497 26.7754ZM16.2019 26.2418L16.5023 26.6415L16.5023 26.6415L16.2019 26.2418ZM15.8532 26.2172L16.2069 25.8638L16.2068 25.8636L15.8532 26.2172ZM14.7949 25.1589L14.4413 25.5125L14.4414 25.5125L14.7949 25.1589ZM14.7675 24.814L14.3626 24.5207L14.3625 24.5208L14.7675 24.814ZM14.2292 23.5209L14.2995 23.0258L14.2994 23.0258L14.2292 23.5209ZM14.2246 21.497L14.3035 21.9907L14.3035 21.9907L14.2246 21.497ZM14.7582 20.202L14.3585 20.5024L14.3585 20.5024L14.7582 20.202ZM14.7828 19.8532L14.4292 19.4997L14.4291 19.4998L14.7828 19.8532ZM15.8411 18.795L16.1946 19.1486L16.1947 19.1485L15.8411 18.795ZM16.186 18.7676L15.8926 19.1725L15.8927 19.1726L16.186 18.7676ZM17.1888 18.8474L17.3564 19.3185L17.3564 19.3185L17.1888 18.8474ZM17.4325 18.5576L17.9275 18.6279L17.9275 18.6279L17.4325 18.5576ZM14.9776 20.8316L15.4276 21.0494L15.4276 21.0494L14.9776 20.8316ZM14.9462 20.4521L14.5465 20.7525L14.5465 20.7525L14.9462 20.4521ZM14.8016 23.808L14.3289 23.9709L14.8016 23.808ZM14.5107 23.5608L14.5809 23.0657L14.5809 23.0657L14.5107 23.5608ZM16.7924 26.0526L17.011 25.6029L16.7924 26.0526ZM16.4123 26.0837L16.112 25.6839L16.112 25.6839L16.4123 26.0837ZM22.1758 21.1947L22.6457 21.0236L22.1758 21.1947ZM22.4647 21.4357L22.5349 20.9407L22.5349 20.9407L22.4647 21.4357ZM14.9364 24.5808L15.3413 24.8741L15.3413 24.8741L14.9364 24.5808ZM14.9653 24.2091L15.417 23.9946L15.417 23.9946L14.9653 24.2091ZM16.4599 18.966L16.7532 18.561L16.7532 18.561L16.4599 18.966ZM16.8309 18.9952L17.0446 19.4473L17.0446 19.4473L16.8309 18.9952ZM19.8021 26.222L19.9686 26.6935L19.9686 26.6935L19.8021 26.222ZM19.5575 26.5121L19.0625 26.4419L19.0625 26.4419L19.5575 26.5121ZM20.1584 18.9902L19.9461 19.4429L19.9461 19.4429L20.1584 18.9902ZM20.5338 18.9568L20.8342 19.3565L20.8342 19.3565L20.5338 18.9568ZM17.4546 26.5104L16.9608 26.5893L16.9608 26.5893L17.4546 26.5104ZM17.21 26.2263L17.0452 26.6983L17.21 26.2263ZM14.537 21.447L14.4581 20.9533L14.4581 20.9533L14.537 21.447ZM14.8199 21.206L15.2902 21.3757L14.8199 21.206ZM22.0399 24.1977L21.5876 23.9847L21.5876 23.9847L22.0399 24.1977ZM22.0731 24.5737L22.4728 24.2733L22.4728 24.2733L22.0731 24.5737ZM22.4873 23.5491L22.4083 23.0554L22.4083 23.0554L22.4873 23.5491ZM22.2024 23.7963L22.6756 23.9577L22.2024 23.7963ZM20.5948 26.0738L20.3015 26.4787L20.3015 26.4787L20.5948 26.0738ZM20.219 26.0469L20.4391 26.4959L20.219 26.0469ZM22.0443 20.4457L22.4493 20.739L22.4493 20.739L22.0443 20.4457ZM22.0171 20.8208L21.5677 21.04L22.0171 20.8208ZM19.5566 18.5598L19.0628 18.6388L19.0628 18.6388L19.5566 18.5598ZM19.8001 18.8435L19.9663 18.3719L19.8001 18.8435ZM17.7431 17.5C17.3614 17.5 17.0377 17.7809 16.984 18.1589L17.9741 18.2995C17.9578 18.4145 17.8593 18.5 17.7431 18.5V17.5ZM19.2397 17.5H17.7431V18.5H19.2397V17.5ZM19.9967 18.1457C19.9373 17.7736 19.6163 17.5 19.2397 17.5V18.5C19.125 18.5 19.0273 18.4167 19.0092 18.3034L19.9967 18.1457ZM20.0503 18.4808L19.9967 18.1456L19.0092 18.3035L19.0628 18.6388L20.0503 18.4808ZM20.3707 18.5375C20.2393 18.4759 20.1044 18.4206 19.9663 18.3719L19.634 19.3151C19.7405 19.3526 19.8447 19.3953 19.9461 19.4429L20.3707 18.5375ZM20.8342 19.3565L21.0984 19.1579L20.4976 18.3585L20.2334 18.557L20.8342 19.3565ZM21.0984 19.1579C21.0056 19.2277 20.8754 19.2187 20.793 19.1362L21.5004 18.4295C21.2304 18.1592 20.8028 18.1292 20.4977 18.3585L21.0984 19.1579ZM20.7932 19.1364L21.8514 20.1946L22.5585 19.4875L21.5002 18.4293L20.7932 19.1364ZM21.8514 20.1946C21.7704 20.1135 21.7602 19.9857 21.8274 19.8928L22.6374 20.4792C22.8583 20.1742 22.8248 19.7539 22.5586 19.4875L21.8514 20.1946ZM21.8275 19.8927L21.6394 20.1524L22.4493 20.739L22.6373 20.4793L21.8275 19.8927ZM22.6457 21.0236C22.5931 20.8792 22.5332 20.7385 22.4665 20.6017L21.5677 21.04C21.6193 21.1457 21.6655 21.2544 21.706 21.3658L22.6457 21.0236ZM22.841 20.9841L22.5349 20.9407L22.3945 21.9308L22.7005 21.9742L22.841 20.9841ZM23.5 21.7431C23.5 21.3613 23.219 21.0377 22.8409 20.9841L22.7006 21.9742C22.5856 21.9579 22.5 21.8594 22.5 21.7431H23.5ZM23.5 23.2397V21.7431H22.5V23.2397H23.5ZM22.8543 23.9967C23.2265 23.9373 23.5 23.6163 23.5 23.2397H22.5C22.5 23.1251 22.5833 23.0274 22.6966 23.0093L22.8543 23.9967ZM22.5662 24.0428L22.8544 23.9967L22.6965 23.0093L22.4083 23.0554L22.5662 24.0428ZM22.4923 24.4108C22.5614 24.264 22.6227 24.1128 22.6756 23.9577L21.7291 23.6349C21.6883 23.7546 21.641 23.8713 21.5876 23.9847L22.4923 24.4108ZM22.6414 24.4977L22.4728 24.2733L21.6734 24.8741L21.842 25.0985L22.6414 24.4977ZM22.5709 25.5002C22.8405 25.2303 22.8708 24.8029 22.6414 24.4977L21.842 25.0984C21.7722 25.0055 21.7814 24.8755 21.8634 24.7934L22.5709 25.5002ZM21.5124 26.5586L22.5707 25.5004L21.8636 24.7933L20.8053 25.8515L21.5124 26.5586ZM20.5205 26.6373C20.8256 26.8584 21.2461 26.8249 21.5125 26.5586L20.8053 25.8515C20.8863 25.7705 21.0143 25.7602 21.1073 25.8276L20.5205 26.6373ZM20.3015 26.4787L20.5206 26.6374L21.1072 25.8275L20.8881 25.6688L20.3015 26.4787ZM19.9686 26.6935C20.13 26.6365 20.287 26.5704 20.4391 26.4959L19.999 25.598C19.8814 25.6556 19.7602 25.7066 19.6357 25.7505L19.9686 26.6935ZM20.0159 26.841L20.0526 26.5823L19.0625 26.4419L19.0258 26.7006L20.0159 26.841ZM19.2568 27.5C19.6385 27.5 19.9622 27.2191 20.0159 26.8411L19.0258 26.7005C19.0421 26.5855 19.1406 26.5 19.2568 26.5V27.5ZM17.7602 27.5H19.2568V26.5H17.7602V27.5ZM17.0032 26.8543C17.0626 27.2264 17.3836 27.5 17.7602 27.5V26.5C17.8749 26.5 17.9726 26.5833 17.9907 26.6966L17.0032 26.8543ZM16.9608 26.5893L17.0032 26.8544L17.9907 26.6965L17.9483 26.4314L16.9608 26.5893ZM16.5738 26.5023C16.7262 26.5763 16.8835 26.6419 17.0452 26.6983L17.3749 25.7543C17.2501 25.7107 17.1287 25.6601 17.011 25.6029L16.5738 26.5023ZM16.5023 26.6415L16.7127 26.4834L16.112 25.6839L15.9015 25.8421L16.5023 26.6415ZM15.4995 26.5706C15.7695 26.8408 16.1971 26.8708 16.5023 26.6415L15.9015 25.8421C15.9943 25.7723 16.1246 25.7813 16.2069 25.8638L15.4995 26.5706ZM14.4414 25.5125L15.4997 26.5707L16.2068 25.8636L15.1485 24.8054L14.4414 25.5125ZM14.3625 24.5208C14.1416 24.8258 14.1751 25.2461 14.4413 25.5125L15.1485 24.8054C15.2295 24.8865 15.2397 25.0143 15.1725 25.1072L14.3625 24.5208ZM14.5315 24.2875L14.3626 24.5207L15.1724 25.1073L15.3413 24.8741L14.5315 24.2875ZM14.3289 23.9709C14.3823 24.1259 14.4441 24.277 14.5137 24.4236L15.417 23.9946C15.3632 23.8814 15.3155 23.7648 15.2743 23.6451L14.3289 23.9709ZM14.159 24.0159L14.4405 24.0558L14.5809 23.0657L14.2995 23.0258L14.159 24.0159ZM13.5 23.2569C13.5 23.6387 13.781 23.9623 14.1591 24.0159L14.2994 23.0258C14.4144 23.0421 14.5 23.1406 14.5 23.2569H13.5ZM13.5 21.7603V23.2569H14.5V21.7603H13.5ZM14.1457 21.0033C13.7735 21.0627 13.5 21.3837 13.5 21.7603H14.5C14.5 21.8749 14.4167 21.9726 14.3035 21.9907L14.1457 21.0033ZM14.4581 20.9533L14.1456 21.0033L14.3035 21.9907L14.616 21.9407L14.4581 20.9533ZM14.5275 20.6138C14.4612 20.7508 14.4017 20.8918 14.3496 21.0364L15.2902 21.3757C15.3305 21.2641 15.3764 21.1553 15.4276 21.0494L14.5275 20.6138ZM14.3585 20.5024L14.5465 20.7525L15.3459 20.1517L15.1579 19.9016L14.3585 20.5024ZM14.4291 19.4998C14.1594 19.7698 14.1291 20.1971 14.3585 20.5024L15.1579 19.9016C15.2278 19.9946 15.2185 20.1245 15.1365 20.2066L14.4291 19.4998ZM15.4875 18.4414L14.4292 19.4997L15.1363 20.2068L16.1946 19.1486L15.4875 18.4414ZM16.4794 18.3627C16.1743 18.1416 15.7538 18.1751 15.4875 18.4415L16.1947 19.1485C16.1136 19.2296 15.9856 19.2399 15.8926 19.1725L16.4794 18.3627ZM16.7532 18.561L16.4793 18.3626L15.8927 19.1726L16.1667 19.3709L16.7532 18.561ZM17.0212 18.3763C16.8832 18.4254 16.7485 18.4812 16.6173 18.5432L17.0446 19.4473C17.1459 19.3994 17.2499 19.3564 17.3564 19.3185L17.0212 18.3763ZM16.984 18.159L16.9374 18.4874L17.9275 18.6279L17.9741 18.2994L16.984 18.159ZM17.3564 19.3185C17.6442 19.2161 17.8801 18.9622 17.9275 18.6279L16.9374 18.4874C16.9467 18.4222 16.9895 18.3876 17.0212 18.3763L17.3564 19.3185ZM15.4276 21.0494C15.5616 20.7725 15.5501 20.4235 15.3459 20.1517L14.5465 20.7525C14.5066 20.6995 14.5127 20.6443 14.5275 20.6138L15.4276 21.0494ZM15.2743 23.6451C15.1738 23.3536 14.9185 23.1136 14.5809 23.0657L14.4405 24.0558C14.3746 24.0465 14.3399 24.003 14.3289 23.9709L15.2743 23.6451ZM17.011 25.6029C16.7339 25.4682 16.3842 25.4793 16.112 25.6839L16.7127 26.4834C16.6596 26.5233 16.6044 26.5171 16.5738 26.5023L17.011 25.6029ZM21.706 21.3658C21.8098 21.6508 22.0626 21.8837 22.3945 21.9308L22.5349 20.9407C22.5997 20.9499 22.6342 20.9921 22.6457 21.0236L21.706 21.3658ZM15.3413 24.8741C15.5359 24.6055 15.5458 24.2659 15.417 23.9946L14.5137 24.4236C14.4994 24.3935 14.4935 24.3399 14.5315 24.2875L15.3413 24.8741ZM16.1667 19.3709C16.4347 19.5651 16.7735 19.5754 17.0446 19.4473L16.6173 18.5432C16.6474 18.5289 16.7009 18.5232 16.7532 18.561L16.1667 19.3709ZM19.6357 25.7505C19.347 25.8525 19.11 26.1067 19.0625 26.4419L20.0526 26.5823C20.0433 26.6477 20.0003 26.6823 19.9686 26.6935L19.6357 25.7505ZM19.9461 19.4429C20.2214 19.5719 20.5657 19.5583 20.8342 19.3565L20.2334 18.557C20.2858 18.5177 20.3402 18.5232 20.3707 18.5375L19.9461 19.4429ZM17.9483 26.4314C17.8956 26.1018 17.66 25.8538 17.3749 25.7543L17.0452 26.6983C17.0137 26.6873 16.9711 26.6536 16.9608 26.5893L17.9483 26.4314ZM14.616 21.9407C14.9423 21.8886 15.1888 21.657 15.2902 21.3757L14.3496 21.0364C14.3608 21.0053 14.3945 20.9635 14.4581 20.9533L14.616 21.9407ZM21.5876 23.9847C21.4578 24.2602 21.4712 24.6051 21.6734 24.8741L22.4728 24.2733C22.5122 24.3257 22.5066 24.3803 22.4923 24.4108L21.5876 23.9847ZM22.4083 23.0554C22.0763 23.1084 21.8273 23.347 21.7291 23.6349L22.6756 23.9577C22.6648 23.9894 22.631 24.0325 22.5662 24.0428L22.4083 23.0554ZM20.8881 25.6688C20.6162 25.4719 20.2719 25.4642 19.999 25.598L20.4391 26.4959C20.4089 26.5107 20.3545 26.5171 20.3015 26.4787L20.8881 25.6688ZM21.6394 20.1524C21.4428 20.4238 21.4347 20.7674 21.5677 21.04L22.4665 20.6017C22.4812 20.6318 22.4876 20.6861 22.4493 20.739L21.6394 20.1524ZM19.0628 18.6388C19.1154 18.9674 19.3499 19.215 19.634 19.3151L19.9663 18.3719C19.9977 18.383 20.04 18.4167 20.0503 18.4808L19.0628 18.6388Z" fill="#3295DB"/>
<circle cx="18.5" cy="22.4996" r="2.04545" fill="white" stroke="#3295DB" stroke-linecap="round" stroke-linejoin="round"/>
<circle cx="31.5" cy="22.5" r="4.5" stroke="#3295DB" stroke-linecap="round" stroke-linejoin="round"/>
<path d="M27 22.5H36M33 22.5C33 24.9853 32.3284 27 31.5 27C30.6716 27 30 24.9853 30 22.5C30 20.0147 30.6716 18 31.5 18C32.3284 18 33 20.0147 33 22.5Z" stroke="#3295DB" stroke-linecap="round" stroke-linejoin="round"/>
<path d="M28.1904 19.231C27.9351 19.1259 27.6429 19.2476 27.5377 19.5029C27.4325 19.7582 27.5542 20.0505 27.8096 20.1557L28.1904 19.231ZM27.9455 24.7916C27.6872 24.8893 27.5571 25.1779 27.6548 25.4362C27.7525 25.6945 28.0411 25.8246 28.2993 25.7269L27.9455 24.7916ZM34.8096 25.7699C35.0649 25.8751 35.3571 25.7533 35.4623 25.498C35.5675 25.2427 35.4458 24.9504 35.1904 24.8453L34.8096 25.7699ZM35.1904 20.1557C35.4458 20.0505 35.5675 19.7582 35.4623 19.5029C35.3571 19.2476 35.0649 19.1259 34.8096 19.231L35.1904 20.1557ZM31.5 19.7505C30.1265 19.7505 28.9354 19.5379 28.1904 19.231L27.8096 20.1557C28.7145 20.5285 30.0462 20.7505 31.5 20.7505L31.5 19.7505ZM28.2993 25.7269C29.051 25.4426 30.1945 25.2505 31.5 25.2505L31.5 24.2505C30.1147 24.2505 28.8431 24.452 27.9455 24.7916L28.2993 25.7269ZM31.5 25.2505C32.8735 25.2505 34.0646 25.463 34.8096 25.7699L35.1904 24.8453C34.2855 24.4725 32.9538 24.2505 31.5 24.2505L31.5 25.2505ZM34.8096 19.231C34.0646 19.5379 32.8735 19.7505 31.5 19.7505L31.5 20.7505C32.9538 20.7505 34.2855 20.5285 35.1904 20.1557L34.8096 19.231Z" fill="#3295DB"/>
</svg>
