<svg width="50" height="50" viewBox="0 0 50 50" fill="none" xmlns="http://www.w3.org/2000/svg">
<ellipse cx="25" cy="43.2021" rx="8.33333" ry="1.53509" fill="#A6D0E5"/>
<rect x="10" y="21" width="30" height="17" rx="2" fill="white" stroke="#469CD6" stroke-linecap="round" stroke-linejoin="round"/>
<path d="M25 18.5C23.5135 18.5 22.2795 19.5811 22.0415 21H27.9585C27.7205 19.5811 26.4865 18.5 25 18.5Z" fill="#A6D0E5"/>
<rect x="10" y="21" width="30" height="17" rx="2" stroke="#469CD6" stroke-linecap="round" stroke-linejoin="round"/>
<path d="M13 34.5H14.5M37 34.5H35.5M17.5 34.5H32.5M13 31.5H15M37 31.5H35.25M17.5 31.5H19.5M22 31.5H24M26 31.5H28M30.5 31.5H32.5M13 28H15M37 28H35.25M17.5 28H19.5M22 28H24M26 28H28M30.5 28H32.5M15 24.5H17M19.5 24.5H21.5M24 24.5H26M28 24.5H30M32.5 24.5H34.5" stroke="#469CD6" stroke-linecap="round" stroke-linejoin="round"/>
<path d="M22.0415 21C22.2795 19.5811 23.5135 18.5 25 18.5C26.4865 18.5 27.7205 19.5811 27.9585 21" stroke="#469CD6" stroke-linecap="round" stroke-linejoin="round"/>
<path d="M24.5 18C24.5 18.2761 24.7239 18.5 25 18.5C25.2761 18.5 25.5 18.2761 25.5 18H24.5ZM25.5 6C25.5 5.72386 25.2761 5.5 25 5.5C24.7239 5.5 24.5 5.72386 24.5 6H25.5ZM22.5 8H13.75V9H22.5V8ZM13.75 12.5H36.25V11.5H13.75V12.5ZM36.25 15H27.5V16H36.25V15ZM27.5 15C25.8431 15 24.5 16.3431 24.5 18H25.5C25.5 16.8954 26.3954 16 27.5 16V15ZM37.5 13.75C37.5 14.4404 36.9404 15 36.25 15V16C37.4926 16 38.5 14.9926 38.5 13.75H37.5ZM36.25 12.5C36.9404 12.5 37.5 13.0596 37.5 13.75H38.5C38.5 12.5074 37.4926 11.5 36.25 11.5V12.5ZM11.5 10.25C11.5 11.4926 12.5074 12.5 13.75 12.5V11.5C13.0596 11.5 12.5 10.9404 12.5 10.25H11.5ZM13.75 8C12.5074 8 11.5 9.00736 11.5 10.25H12.5C12.5 9.55964 13.0596 9 13.75 9V8ZM24.5 6C24.5 7.10457 23.6046 8 22.5 8V9C24.1569 9 25.5 7.65685 25.5 6H24.5Z" fill="#469CD6"/>
</svg>
