<svg width="50" height="50" viewBox="0 0 50 50" fill="none" xmlns="http://www.w3.org/2000/svg">
<ellipse cx="25" cy="43.2021" rx="8.33333" ry="1.53509" fill="#A6D0E5"/>
<path d="M23.5 23L10 16.5L25.5 8L38 14.5L23.5 23Z" fill="#A6D0E5"/>
<path d="M10 22V16.5L23.5 23L37.5 15V21.5L23.5 28.5L10 22Z" fill="white"/>
<path d="M36.5 31.5L34 34L36.5 35.5L38.5 34L36.5 31.5Z" fill="white"/>
<path d="M36.5 31.5L34 33.5L28.5 28.5L28 25L31 26L36.5 31.5Z" fill="#A6D0E5"/>
<path d="M16 28.5V22L20 24V30L18 28L16 28.5Z" fill="#A6D0E5"/>
<path d="M38.5857 20.7273L29.4714 25.3939M19.9429 26.5124V30.0606L17.8714 27.9394L15.8 28.3636V24.4555M19.9429 26.5124V24.1212L15.8 22V24.4555M19.9429 26.5124L22.7682 27.9152C23.3363 28.1972 24.0045 28.1931 24.5691 27.904L28.0905 26.101M15.8 24.4555L10.5553 21.8515C10.2151 21.6826 10 21.3356 10 20.9558V20M37.55 21.1987V17.5M37.55 14.9529V14.9529C37.9912 14.7019 37.9728 14.0599 37.518 13.8346L26.1942 8.22365C25.9103 8.08297 25.5765 8.08517 25.2945 8.22958L10.5442 15.7819C10.2102 15.953 10 16.2967 10 16.672V18M37.55 14.9529L24.5805 22.3313C24.011 22.6553 23.319 22.6798 22.7281 22.397L10 16.3049V18M37.55 14.9529V17.5M34.0286 33.5885L28.6429 28.3636L28.0905 26.101M34.0286 33.5885L35.436 34.9539C36.0472 35.5469 37.0093 35.5776 37.6571 35.0248V35.0248C38.3837 34.4047 38.434 33.2992 37.7666 32.6157L36.5143 31.3333M34.0286 33.5885L36.5143 31.3333M36.5143 31.3333L31.1286 25.8182L29.4714 25.3939M36.5143 28.5758V25.1818M34.8571 26.8788H38.1714M28.0905 26.101L27.8143 24.9697L29.4714 25.3939M10 18L14 20M10 18V20M10 20L11.5 20.7273M37.55 17.5L29.4714 22.2" stroke="#469CD6" stroke-linecap="round" stroke-linejoin="round"/>
</svg>
