<svg width="50" height="50" viewBox="0 0 50 50" fill="none" xmlns="http://www.w3.org/2000/svg">
<ellipse cx="25" cy="43.2021" rx="8.33333" ry="1.53509" fill="#A6D0E5"/>
<path d="M37.2453 16.3458C37.2453 17.3129 37.0584 18.2364 36.7187 19.0821C38.8565 19.8091 40.394 21.8332 40.394 24.2163C40.394 27.2108 37.9662 29.6383 34.9711 29.6383H14.0668C14.0374 29.6383 14.0084 29.6389 13.9794 29.6383C11.846 29.5917 10.1309 27.8471 10.1309 25.703C10.1309 23.5296 11.8932 21.7677 14.0668 21.7677C14.266 21.7677 14.4618 21.7825 14.6531 21.8111C14.5557 21.4044 14.5041 20.98 14.5041 20.5434C14.5041 17.549 16.932 15.1215 19.927 15.1215C20.8868 15.1215 21.7884 15.3708 22.5705 15.8081C22.8459 12.0022 26.0213 9 29.8981 9C33.9557 9 37.2453 12.2888 37.2453 16.3458Z" fill="white" stroke="#459DD7" stroke-linecap="round" stroke-linejoin="round"/>
<circle cx="25.1315" cy="28" r="7.5" fill="#A6D0E5" stroke="#469CD6"/>
<circle cx="25.1315" cy="28" r="4.5" fill="#F5F5F5" stroke="#469CD6"/>
<path d="M23.1315 28.5306L24.4465 30L27.1315 27" stroke="#469CD6" stroke-linecap="round" stroke-linejoin="round"/>
</svg>
