<svg width="50" height="50" viewBox="0 0 50 50" fill="none" xmlns="http://www.w3.org/2000/svg">
<ellipse cx="25" cy="43.2021" rx="8.33333" ry="1.53509" fill="#A6D0E5"/>
<path d="M15.5 20.1298L17.4334 24.0472C17.579 24.3424 17.8606 24.547 18.1863 24.5943L22.5095 25.2225L19.3812 28.2718C19.1455 28.5015 19.038 28.8325 19.0936 29.1569L19.8321 33.4626L15.9653 31.4298C15.674 31.2766 15.326 31.2766 15.0347 31.4298L11.1679 33.4626L11.9064 29.1569C11.962 28.8325 11.8545 28.5015 11.6188 28.2718L8.4905 25.2225L12.8137 24.5943C13.1394 24.547 13.421 24.3424 13.5666 24.0472L15.5 20.1298Z" fill="#A6D0E5" stroke="#3295DB" stroke-linecap="round" stroke-linejoin="round"/>
<path d="M34.5 20.1298L36.4334 24.0472C36.579 24.3424 36.8606 24.547 37.1863 24.5943L41.5095 25.2225L38.3812 28.2718C38.1455 28.5015 38.038 28.8325 38.0936 29.1569L38.8321 33.4626L34.9653 31.4298C34.674 31.2766 34.326 31.2766 34.0347 31.4298L30.1679 33.4626L30.9064 29.1569C30.962 28.8325 30.8545 28.5015 30.6188 28.2718L27.4905 25.2225L31.8137 24.5943C32.1394 24.547 32.421 24.3424 32.5666 24.0472L34.5 20.1298Z" fill="#A6D0E5" stroke="#3295DB" stroke-linecap="round" stroke-linejoin="round"/>
<path d="M25 6.12978L28.5498 13.3224C28.6955 13.6176 28.977 13.8222 29.3027 13.8695L37.2403 15.0229L31.4966 20.6216C31.2609 20.8513 31.1534 21.1823 31.209 21.5067L32.5649 29.4122L25.4653 25.6798C25.174 25.5266 24.826 25.5266 24.5347 25.6798L17.4351 29.4122L18.791 21.5067C18.8466 21.1823 18.7391 20.8513 18.5034 20.6216L12.7597 15.0229L20.6973 13.8695C21.023 13.8222 21.3045 13.6176 21.4502 13.3224L25 6.12978Z" fill="white" stroke="#3295DB" stroke-linecap="round" stroke-linejoin="round"/>
</svg>
