<svg width="50" height="50" viewBox="0 0 50 50" fill="none" xmlns="http://www.w3.org/2000/svg">
<ellipse cx="25" cy="43.2021" rx="8.33333" ry="1.53509" fill="#A6D0E5"/>
<path d="M13.5 21.5V33H35V22L32.5 18.5H29.5V17L24 12.5L19 17V18.5H16L13.5 21.5Z" fill="white"/>
<path d="M10 28H13.5V21.5L16 18.5L19.5 18.75V17L17 15L13.5 17.5V18.5H12L10 20.5V28Z" fill="#A6D0E5"/>
<path d="M38.5 28H35V21.5L32.5 18.5L29 18.75V17L31.5 15L35 17.5V18.5H36.5L38.5 20.5V28Z" fill="#A6D0E5"/>
<rect x="24" y="9" width="3" height="2" fill="#A6D0E5"/>
<rect x="21" y="25" width="6" height="8" fill="#A6D0E5"/>
<path d="M38.6559 20.7164H39.1559C39.1559 20.6036 39.1177 20.4941 39.0476 20.4057L38.6559 20.7164ZM35.0687 17.8191H35.5687C35.5687 17.6769 35.5082 17.5415 35.4023 17.4467L35.0687 17.8191ZM35.0687 28.0288H34.5687C34.5687 28.3049 34.7925 28.5288 35.0687 28.5288V28.0288ZM38.6559 28.0288V28.5288C38.932 28.5288 39.1559 28.3049 39.1559 28.0288H38.6559ZM37.0692 18.7159L37.461 18.4052C37.3661 18.2856 37.2218 18.2159 37.0692 18.2159V18.7159ZM35.0687 18.2159C34.7925 18.2159 34.5687 18.4397 34.5687 18.7159C34.5687 18.992 34.7925 19.2159 35.0687 19.2159V18.2159ZM31.7574 12.7832V12.2832C31.4813 12.2832 31.2574 12.5071 31.2574 12.7832H31.7574ZM33.551 12.7832H34.051C34.051 12.5071 33.8271 12.2832 33.551 12.2832V12.7832ZM33.551 13.749V14.249C33.8271 14.249 34.051 14.0251 34.051 13.749H33.551ZM35.0687 20.7164H34.5687C34.5687 20.9926 34.7925 21.2164 35.0687 21.2164V20.7164ZM30.2518 16.2015L30.5818 16.5772L30.5854 16.5739L30.2518 16.2015ZM35.0687 28.5288H38.6559V27.5288H35.0687V28.5288ZM39.1559 28.0288V20.7164H38.1559V28.0288H39.1559ZM39.0476 20.4057L37.461 18.4052L36.6775 19.0266L38.2641 21.0271L39.0476 20.4057ZM37.0692 18.2159H35.0687V19.2159H37.0692V18.2159ZM35.4023 17.4467L32.091 14.4803L31.4238 15.2252L34.735 18.1915L35.4023 17.4467ZM31.7574 13.2832H33.551V12.2832H31.7574V13.2832ZM33.051 12.7832V13.749H34.051V12.7832H33.051ZM32.2574 14.8527V13.749H31.2574V14.8527H32.2574ZM32.2574 13.749V12.7832H31.2574V13.749H32.2574ZM33.551 13.249H31.7574V14.249H33.551V13.249ZM38.6559 20.2164H35.0687V21.2164H38.6559V20.2164ZM35.5687 20.7164V17.8191H34.5687V20.7164H35.5687ZM34.5687 17.8191V22.3632H35.5687V17.8191H34.5687ZM34.5687 22.3632V28.0288H35.5687V22.3632H34.5687ZM29.6216 17.4207L30.5818 16.5772L29.9218 15.8259L28.9616 16.6694L29.6216 17.4207ZM30.5854 16.5739L32.091 15.2252L31.4238 14.4803L29.9182 15.8291L30.5854 16.5739Z" fill="#3295DB"/>
<path d="M19.6593 16.5264C19.8704 16.7044 19.8973 17.0198 19.7193 17.231C19.5413 17.4421 19.2259 17.4689 19.0148 17.2909L19.6593 16.5264ZM9.99998 20.7164H9.49998C9.49998 20.6036 9.53813 20.4941 9.60823 20.4057L9.99998 20.7164ZM13.5872 17.8191H13.0872C13.0872 17.6769 13.1477 17.5415 13.2535 17.4467L13.5872 17.8191ZM13.5872 28.0288H14.0872C14.0872 28.3049 13.8633 28.5288 13.5872 28.5288V28.0288ZM9.99998 28.0288V28.5288C9.72383 28.5288 9.49998 28.3049 9.49998 28.0288H9.99998ZM11.5866 18.7159L11.1949 18.4052C11.2897 18.2856 11.434 18.2159 11.5866 18.2159V18.7159ZM13.5872 18.2159C13.8633 18.2159 14.0872 18.4397 14.0872 18.7159C14.0872 18.992 13.8633 19.2159 13.5872 19.2159V18.2159ZM16.8984 12.7832H16.3984C16.3984 12.5071 16.6223 12.2832 16.8984 12.2832V12.7832ZM18.7552 12.7832V12.2832C19.0313 12.2832 19.2552 12.5071 19.2552 12.7832H18.7552ZM18.7552 13.749H19.2552C19.2552 14.0251 19.0313 14.249 18.7552 14.249V13.749ZM13.5872 20.7164H14.0872C14.0872 20.9926 13.8633 21.2164 13.5872 21.2164V20.7164ZM19.0148 17.2909L16.5761 15.235L17.2207 14.4705L19.6593 16.5264L19.0148 17.2909ZM14.0872 17.8191V28.0288H13.0872V17.8191H14.0872ZM13.5872 28.5288H9.99998V27.5288H13.5872V28.5288ZM9.49998 28.0288V20.7164H10.5V28.0288H9.49998ZM9.60823 20.4057L11.1949 18.4052L11.9784 19.0266L10.3917 21.0271L9.60823 20.4057ZM11.5866 18.2159H13.5872V19.2159H11.5866V18.2159ZM13.2535 17.4467L16.5648 14.4803L17.2321 15.2252L13.9208 18.1915L13.2535 17.4467ZM16.8984 12.2832H18.7552V13.2832H16.8984V12.2832ZM19.2552 12.7832V13.749H18.2552V12.7832H19.2552ZM16.3984 14.8527V13.749H17.3984V14.8527H16.3984ZM16.3984 13.749V12.7832H17.3984V13.749H16.3984ZM18.7552 14.249H16.8984V13.249H18.7552V14.249ZM9.99998 20.2164H13.5872V21.2164H9.99998V20.2164ZM13.0872 20.7164V17.8191H14.0872V20.7164H13.0872Z" fill="#3295DB"/>
<path d="M13.6049 21.6195L13.2131 21.3088C13.143 21.3972 13.1049 21.5067 13.1049 21.6195H13.6049ZM19.1877 17.1102L18.8541 16.7378C18.7482 16.8327 18.6877 16.9681 18.6877 17.1102H19.1877ZM13.6049 33H13.1049C13.1049 33.2761 13.3287 33.5 13.6049 33.5V33ZM16.0742 18.506V18.006C15.9216 18.006 15.7773 18.0757 15.6825 18.1953L16.0742 18.506ZM19.1877 19.006C19.4639 19.006 19.6877 18.7821 19.6877 18.506C19.6877 18.2298 19.4639 18.006 19.1877 18.006V19.006ZM35.0775 21.6195H35.5775C35.5775 21.5067 35.5394 21.3972 35.4693 21.3088L35.0775 21.6195ZM29.4946 17.1102H29.9946C29.9946 16.9681 29.9341 16.8327 29.8282 16.7378L29.4946 17.1102ZM35.0775 33V33.5C35.3536 33.5 35.5775 33.2761 35.5775 33H35.0775ZM32.6082 18.506L32.9999 18.1953C32.9051 18.0757 32.7608 18.006 32.6082 18.006V18.506ZM29.4946 18.006C29.2185 18.006 28.9946 18.2298 28.9946 18.506C28.9946 18.7821 29.2185 19.006 29.4946 19.006V18.006ZM20.8013 33C20.8013 33.2761 21.0251 33.5 21.3013 33.5C21.5774 33.5 21.8013 33.2761 21.8013 33H20.8013ZM21.3013 24.6656V24.1656C21.0251 24.1656 20.8013 24.3894 20.8013 24.6656H21.3013ZM27.3811 24.6656H27.8811C27.8811 24.3894 27.6572 24.1656 27.3811 24.1656V24.6656ZM26.8811 33C26.8811 33.2761 27.1049 33.5 27.3811 33.5C27.6572 33.5 27.8811 33.2761 27.8811 33H26.8811ZM24.3412 9V8.5C24.065 8.5 23.8412 8.72386 23.8412 9H24.3412ZM27.1326 9H27.6326C27.6326 8.72386 27.4088 8.5 27.1326 8.5V9ZM27.1326 10.7758V11.2758C27.4088 11.2758 27.6326 11.052 27.6326 10.7758H27.1326ZM29.4946 21.6195H28.9946C28.9946 21.8956 29.2185 22.1195 29.4946 22.1195V21.6195ZM19.1877 21.6195V22.1195C19.4639 22.1195 19.6877 21.8956 19.6877 21.6195H19.1877ZM18.6877 17.1102V33H19.6877V17.1102H18.6877ZM19.1877 32.5H13.6049V33.5H19.1877V32.5ZM14.1049 33V21.6195H13.1049V33H14.1049ZM13.9966 21.9302L16.466 18.8167L15.6825 18.1953L13.2131 21.3088L13.9966 21.9302ZM16.0742 19.006H19.1877V18.006H16.0742V19.006ZM19.5214 17.4827L24.6748 12.866L24.0076 12.1212L18.8541 16.7378L19.5214 17.4827ZM28.9946 17.1102V33H29.9946V17.1102H28.9946ZM29.4946 33.5H35.0775V32.5H29.4946V33.5ZM35.5775 33V21.6195H34.5775V33H35.5775ZM35.4693 21.3088L32.9999 18.1953L32.2164 18.8167L34.6858 21.9302L35.4693 21.3088ZM32.6082 18.006H29.4946V19.006H32.6082V18.006ZM29.8282 16.7378L24.6748 12.1212L24.0076 12.866L29.161 17.4827L29.8282 16.7378ZM21.8013 33V24.6656H20.8013V33H21.8013ZM21.3013 25.1656H27.3811V24.1656H21.3013V25.1656ZM26.8811 24.6656V33H27.8811V24.6656H26.8811ZM24.3412 9.5H27.1326V8.5H24.3412V9.5ZM26.6326 9V10.7758H27.6326V9H26.6326ZM24.8412 12.4936V10.7758H23.8412V12.4936H24.8412ZM24.8412 10.7758V9H23.8412V10.7758H24.8412ZM27.1326 10.2758H24.3412V11.2758H27.1326V10.2758ZM19.1877 33.5H29.4946V32.5H19.1877V33.5ZM35.0775 21.1195H29.4946V22.1195H35.0775V21.1195ZM29.9946 21.6195V17.1102H28.9946V21.6195H29.9946ZM13.6049 22.1195H19.1877V21.1195H13.6049V22.1195ZM19.6877 21.6195V17.1102H18.6877V21.6195H19.6877Z" fill="#3295DB"/>
<path d="M24.3412 17.0025V18.5055H25.2001M26.7032 18.5055C26.7032 19.81 25.6457 20.8675 24.3412 20.8675C23.0367 20.8675 21.9792 19.81 21.9792 18.5055C21.9792 17.2011 23.0367 16.1436 24.3412 16.1436C25.6457 16.1436 26.7032 17.2011 26.7032 18.5055Z" stroke="#3295DB" stroke-linecap="round" stroke-linejoin="round"/>
</svg>
