<svg width="166" height="88" viewBox="0 0 166 88" fill="none" xmlns="http://www.w3.org/2000/svg">
<path d="M139.788 56.5148C139.733 56.7269 139.6 56.8459 139.502 56.9847C138.961 57.7436 138.491 58.5388 138.181 59.4229C138.037 59.8351 137.987 60.2455 138.117 60.6705C138.252 61.1159 138.218 61.5645 138.177 62.024C138.066 63.2763 138.012 64.5301 138.083 65.7905C138.151 67.0302 138.209 68.2703 138.333 69.5052C138.413 70.2896 138.414 71.073 138.41 71.8588C138.406 72.6857 138.536 73.4857 138.928 74.2295C139.082 74.5222 139.302 74.7673 139.507 75.0242C139.369 75.198 139.2 75.1347 139.055 75.1362C138.127 75.1465 137.198 75.1267 136.271 75.1565C134.699 75.2075 133.128 75.2792 131.558 75.3605C130.952 75.3916 130.369 75.2655 129.78 75.1805C129.035 75.0733 128.292 74.9619 127.557 74.8533C127.551 74.7867 127.535 74.7451 127.548 74.7281C128.157 73.9763 128.355 73.0729 128.497 72.1511C128.666 71.0612 128.673 69.9609 128.725 68.8625C128.789 67.5095 128.691 66.1603 128.714 64.8092C128.732 63.8038 128.706 62.7937 128.899 61.8025C129.121 60.6611 129.363 59.5239 129.489 58.3665C129.542 57.8824 129.569 57.396 129.607 56.9106C129.642 56.4624 129.64 56.4558 130.101 56.3977C130.927 56.2933 131.755 56.1984 132.582 56.0988C133.05 56.0421 133.524 56.0086 133.985 55.9198C134.808 55.7616 135.612 55.916 136.421 56.0138C137.404 56.1328 138.386 56.2627 139.367 56.3906C139.506 56.4086 139.65 56.4194 139.788 56.5153L139.788 56.5148Z" fill="#686868"/>
<path d="M64.9722 63.1544C64.6728 64.1098 64.3895 65.0075 64.1099 65.9066C63.2509 68.6678 62.3929 71.429 61.5348 74.1902C61.5069 74.2804 61.4725 74.3682 61.4488 74.4593C61.4078 74.6185 61.3124 74.678 61.1452 74.6931C60.2678 74.772 60.2645 74.772 60.0279 73.9224C58.8468 69.6841 57.6638 65.4462 56.4832 61.2078C56.3227 60.6322 56.1225 60.0698 55.9421 59.5007C55.7933 59.0318 55.4915 58.8032 55.0207 58.7588C54.9267 58.7498 54.8328 58.7428 54.7388 58.7324C54.4087 58.6951 54.4049 58.6903 54.3884 58.3654C54.3645 57.8825 54.5967 57.6409 55.0849 57.6406C56.7841 57.6406 58.4832 57.6406 60.1828 57.6406C60.2928 57.6406 60.4033 57.6368 60.5133 57.6429C60.843 57.6599 60.8694 57.6755 60.8722 57.9947C60.8798 58.8065 60.9166 58.6814 60.212 58.7267C59.3427 58.7824 59.2232 58.9147 59.3993 59.7685C59.6383 60.9236 59.9986 62.0475 60.314 63.1828C60.7811 64.8635 61.2533 66.5423 61.7242 68.222C61.753 68.3254 61.753 68.443 61.8743 68.5323C61.9645 68.4482 61.9848 68.3283 62.0193 68.2182C63.0342 64.9791 64.0438 61.7382 65.0653 58.5014C65.2938 57.7766 65.1493 57.8573 65.9653 57.8488C66.0442 57.8479 66.1235 57.8564 66.201 57.8483C66.4716 57.8195 66.5863 57.9565 66.6619 58.2049C66.9948 59.3028 67.3457 60.3951 67.6895 61.4893C68.4569 63.9331 69.2228 66.3774 69.9945 68.8203C70.0351 68.9493 70.0318 69.1065 70.1659 69.1981C70.2651 69.1802 70.2637 69.0881 70.2835 69.0239C71.1973 66.0497 72.1649 63.0921 73.0286 60.1028C73.098 59.8615 73.1542 59.6155 73.1967 59.368C73.2496 59.0615 73.1717 58.942 72.8893 58.8207C72.6503 58.7182 72.3953 58.7253 72.146 58.7149C71.9047 58.705 71.8282 58.6011 71.8187 58.364C71.7909 57.6415 71.7814 57.6415 72.5224 57.6415C73.5925 57.6415 74.6621 57.6391 75.7322 57.6429C76.2044 57.6443 76.2044 57.65 76.2101 58.1137C76.2106 58.161 76.2106 58.2082 76.2101 58.2554C76.2057 58.5646 76.0467 58.7256 75.7331 58.7385C74.8392 58.7753 74.8175 58.7683 74.5426 59.6268C73.6987 62.2605 72.8704 64.8993 72.0402 67.5377C71.3375 69.7714 70.6405 72.0065 69.9397 74.2407C69.7985 74.6907 69.7957 74.695 69.3244 74.6912C68.6151 74.6855 68.7327 74.7724 68.522 74.1094C67.4222 70.6498 66.3266 67.1892 65.2258 63.7301C65.1696 63.5539 65.1498 63.3594 64.9732 63.1558L64.9722 63.1544Z" fill="#494949"/>
<path d="M115.907 64.1505C116.147 63.835 116.334 63.563 116.548 63.3142C117.706 61.964 119.186 61.48 120.913 61.7879C122.034 61.9876 122.803 62.6691 123.226 63.7297C123.494 64.3989 123.559 65.102 123.561 65.8123C123.567 67.6521 123.561 69.4925 123.565 71.3323C123.566 71.7715 123.565 72.2107 123.65 72.6475C123.716 72.9851 123.906 73.1721 124.223 73.26C124.481 73.3318 124.745 73.3766 125.013 73.3842C125.271 73.3913 125.363 73.5192 125.36 73.7742C125.351 74.6427 125.385 74.4873 124.66 74.4902C122.803 74.4977 120.946 74.4925 119.089 74.4925C118.963 74.4925 118.838 74.4878 118.712 74.4892C118.557 74.4911 118.478 74.4189 118.475 74.2644C118.473 74.2172 118.469 74.17 118.469 74.1232C118.473 73.3676 118.401 73.3993 119.117 73.3554C119.195 73.3506 119.272 73.3299 119.349 73.3129C119.989 73.1698 120.12 73.0248 120.183 72.3613C120.205 72.1266 120.219 71.8905 120.219 71.6548C120.219 69.5949 120.216 67.535 120.212 65.4751C120.211 65.1592 120.166 64.8475 120.071 64.5457C119.948 64.1543 119.69 63.9144 119.283 63.8157C118.736 63.6834 118.22 63.7699 117.719 63.9899C116.992 64.3087 116.453 64.8546 115.96 65.4567C115.863 65.5762 115.847 65.7093 115.848 65.8534C115.851 67.8977 115.853 69.942 115.859 71.9864C115.859 72.1266 115.883 72.2678 115.905 72.4076C116.009 73.0701 116.123 73.1929 116.78 73.3242C116.949 73.3577 117.123 73.3714 117.295 73.3837C117.517 73.3988 117.634 73.4857 117.631 73.7332C117.624 74.6507 117.677 74.4869 116.928 74.4902C115.071 74.4982 113.214 74.493 111.358 74.4925C111.232 74.4925 111.106 74.4878 110.98 74.4887C110.822 74.4902 110.752 74.4094 110.751 74.2569C110.751 74.2252 110.748 74.1941 110.748 74.1624C110.751 73.3445 110.676 73.4087 111.403 73.3558C111.543 73.3455 111.68 73.2992 111.818 73.2694C112.208 73.1868 112.405 72.9431 112.45 72.5507C112.498 72.1285 112.534 71.7068 112.534 71.2813C112.531 67.4283 112.531 63.5753 112.534 59.7223C112.534 59.2808 112.498 58.8435 112.443 58.4062C112.395 58.0317 112.19 57.8078 111.827 57.7261C111.551 57.6638 111.273 57.609 110.988 57.601C110.839 57.5968 110.753 57.5283 110.752 57.3715C110.752 57.3559 110.749 57.3403 110.749 57.3243C110.743 56.3703 110.677 56.5149 111.493 56.5097C112.752 56.5021 114.011 56.5068 115.27 56.5082C115.844 56.5087 115.846 56.5111 115.846 57.0702C115.847 59.2406 115.846 61.4106 115.848 63.581C115.848 63.7481 115.815 63.9205 115.907 64.1505H115.907Z" fill="#494949"/>
<path d="M6.0824 57.6401C7.87596 57.6401 9.67 57.6401 11.4636 57.6401C11.5896 57.6401 11.7153 57.6453 11.8414 57.642C12.0557 57.6363 12.1535 57.7284 12.1521 57.9518C12.1459 58.8009 12.1464 59.65 12.1521 60.499C12.1535 60.7153 12.0746 60.815 11.8489 60.8088C11.4872 60.7994 11.125 60.8013 10.7632 60.8079C10.5658 60.8112 10.4737 60.7257 10.4709 60.5302C10.4676 60.2946 10.4615 60.0584 10.452 59.8228C10.4204 59.0667 10.2565 58.8878 9.51321 58.7966C8.91725 58.7234 8.31845 58.7621 7.72107 58.757C7.04435 58.7508 6.3681 58.7518 5.69138 58.7574C5.29423 58.7607 5.27865 58.7716 5.2777 59.1447C5.27392 61.1573 5.27392 63.1705 5.2777 65.1832C5.27865 65.5374 5.30131 65.5633 5.65502 65.5629C6.70906 65.561 7.76309 65.5515 8.81666 65.5317C9.22184 65.5241 9.30259 65.4287 9.3314 65.0226C9.34368 64.8502 9.34793 64.6769 9.3536 64.5041C9.36021 64.3091 9.4641 64.242 9.65394 64.2245C10.5484 64.1419 10.563 64.1509 10.563 65.0651C10.563 65.8514 10.5654 66.6377 10.5621 67.4239C10.5602 67.8806 10.5564 67.8806 10.0837 67.8858C9.62655 67.8908 9.37611 67.6615 9.33234 67.1978C9.29504 66.8025 9.19115 66.6806 8.78833 66.6122C8.5881 66.5782 8.38173 66.5692 8.17772 66.5678C7.32816 66.5631 6.4786 66.5612 5.62857 66.5673C5.29423 66.5697 5.27392 66.5829 5.27912 66.9158C5.30698 68.707 5.19317 70.5006 5.35609 72.2899C5.43307 73.1362 5.47557 73.189 6.32985 73.3217C6.57777 73.3605 6.83042 73.3704 7.08071 73.3954C7.24316 73.4115 7.34516 73.487 7.33713 73.666C7.33572 73.6972 7.33902 73.7288 7.33902 73.7605C7.33902 74.6232 7.38578 74.4877 6.65806 74.4896C4.66001 74.4953 2.6615 74.4915 0.663454 74.4915C0.537366 74.4915 0.411751 74.4853 0.285663 74.4901C0.100545 74.4976 0.0334873 74.3975 0.0320705 74.2303C0.0306538 74.0575 0.0358485 73.8842 0.0282926 73.7113C0.0188479 73.4917 0.12888 73.3964 0.336665 73.3864C0.62048 73.3727 0.900046 73.3317 1.17347 73.2533C1.4724 73.1678 1.65468 72.9874 1.71607 72.6696C1.76991 72.3891 1.79447 72.1086 1.79541 71.8262C1.80155 69.9391 1.80627 68.052 1.80627 66.165C1.80627 64.1995 1.80155 62.2336 1.79541 60.2681C1.79447 60.0013 1.76944 59.7364 1.7241 59.471C1.66602 59.13 1.47004 58.9425 1.15128 58.8613C0.876906 58.7914 0.600646 58.7272 0.314942 58.7272C0.118018 58.7272 0.0476544 58.6271 0.0278204 58.4372C-0.050099 57.6902 -0.00901427 57.6392 0.748457 57.6392C2.52644 57.6392 4.30442 57.6392 6.0824 57.6392V57.6401Z" fill="#494949"/>
<path d="M136.694 24.304C136.845 24.7313 136.863 25.17 136.899 25.604C137.04 27.2772 137.099 28.9555 137.251 30.6287C137.358 31.7965 137.166 32.9497 136.854 34.0755C136.318 36.007 135.44 37.767 134.152 39.3145C133.879 39.6428 133.581 39.9365 133.225 40.1792C132.512 40.667 131.809 41.17 131.101 41.6668C131.024 41.7211 130.949 41.7792 130.868 41.8273C130.732 41.9086 130.619 41.8949 130.597 41.7154C130.417 40.2637 129.869 38.8815 129.769 37.4176C129.701 36.4089 129.851 35.412 130.076 34.4297C130.582 32.2215 131.58 30.2395 132.88 28.3997C133.9 26.9556 135.112 25.6819 136.391 24.4692C136.458 24.406 136.521 24.3304 136.695 24.3054L136.694 24.304Z" fill="#AAAAAA"/>
<path d="M96.1816 64.0972C96.3161 63.9106 96.4474 63.7213 96.5867 63.5385C97.2219 62.7041 97.9912 62.0552 99.0391 61.8087C99.4537 61.711 99.874 61.6718 100.302 61.7289C100.526 61.7586 100.636 61.8385 100.634 62.0831C100.626 63.2146 100.628 64.3465 100.632 65.478C100.633 65.7047 100.528 65.7854 100.317 65.7831C100.018 65.7793 99.7196 65.7746 99.4211 65.7854C99.1793 65.7944 99.0839 65.6801 99.0688 65.4516C99.0471 65.1229 99.0263 64.7923 98.9781 64.4669C98.9172 64.0556 98.8497 64.0079 98.4247 63.9942C97.7003 63.9706 97.1142 64.2658 96.6273 64.7833C96.2604 65.1734 96.0592 65.5989 96.071 66.1731C96.1102 68.0427 96.0895 69.9133 96.0951 71.7838C96.0961 72.0662 96.1225 72.3462 96.1721 72.6268C96.2321 72.9677 96.4243 73.1547 96.7459 73.2317C97.0519 73.3049 97.3603 73.3583 97.6757 73.3781C98.1513 73.4083 98.1583 73.4192 98.1607 73.8683C98.1645 74.588 98.1664 74.4907 97.5605 74.4916C95.5634 74.4949 93.5663 74.493 91.5692 74.4926C91.4592 74.4926 91.3491 74.4878 91.2391 74.4897C91.088 74.4921 91.0011 74.4283 90.9968 74.2706C90.9954 74.2234 90.9912 74.1766 90.9912 74.1294C90.9954 73.3672 90.9227 73.4031 91.6325 73.3578C91.7104 73.3526 91.7874 73.3332 91.8643 73.3162C92.508 73.1745 92.6402 73.0291 92.7054 72.3717C92.7252 72.1687 92.737 71.9642 92.7389 71.7597C92.7573 69.3395 92.771 66.9193 92.7314 64.4995C92.7271 64.2488 92.7068 63.9994 92.6492 63.7515C92.5855 63.4776 92.4277 63.3095 92.1633 63.2297C91.8913 63.1475 91.6159 63.0809 91.3312 63.0795C91.1007 63.0786 90.9883 62.995 90.9898 62.7485C90.9935 61.8687 90.9388 61.9872 91.6929 61.9839C92.9982 61.9778 94.3035 61.9801 95.6087 61.9839C96.0777 61.9853 96.081 61.9915 96.0847 62.4599C96.0885 62.9926 96.0857 63.5258 96.0857 64.0585C96.1178 64.0717 96.1499 64.0849 96.182 64.0981L96.1816 64.0972Z" fill="#494949"/>
<path d="M32.8555 64.1691C33.1323 63.7658 33.3684 63.4149 33.6531 63.1023C34.429 62.2504 35.3721 61.7423 36.5404 61.7021C37.3002 61.6757 37.338 61.7149 37.338 62.4667C37.338 63.4102 37.3404 64.3533 37.3371 65.2968C37.3352 65.7752 37.3305 65.7766 36.8719 65.7832C36.6518 65.7865 36.4313 65.7879 36.2113 65.7823C35.8231 65.7723 35.8183 65.7648 35.7829 65.3922C35.7551 65.0951 35.731 64.7976 35.6941 64.5015C35.6398 64.0685 35.5657 64.0052 35.1242 63.9939C34.5485 63.9788 34.0408 64.1601 33.605 64.5337C33.3773 64.7287 33.1823 64.9535 33.0081 65.199C32.848 65.4252 32.7686 65.6604 32.77 65.9433C32.7785 67.7515 32.77 69.5592 32.7785 71.3674C32.7804 71.7438 32.814 72.1216 32.8617 72.4951C32.9264 72.9971 33.0676 73.1426 33.5568 73.2573C33.8477 73.3253 34.1438 73.3617 34.4432 73.3825C34.829 73.4089 34.8474 73.4302 34.8493 73.799C34.854 74.6188 34.8833 74.4884 34.1773 74.4903C32.2109 74.496 30.2445 74.4922 28.2781 74.4922C28.1525 74.4922 28.0264 74.488 27.9008 74.488C27.7671 74.488 27.6973 74.419 27.6883 74.2892C27.6821 74.1952 27.6807 74.1007 27.6798 74.0063C27.6757 73.6203 27.8698 73.4069 28.2621 73.3659C28.3088 73.3612 28.356 73.3589 28.4028 73.3518C29.1824 73.2342 29.3652 73.0462 29.4313 72.2633C29.4554 71.9818 29.4615 71.698 29.462 71.4151C29.4644 69.2924 29.4644 67.1702 29.462 65.0474C29.4615 64.639 29.4497 64.2324 29.378 63.8267C29.318 63.4876 29.1319 63.2926 28.8146 63.2076C28.5563 63.1387 28.2951 63.0749 28.0255 63.0777C27.7964 63.0801 27.6793 62.9989 27.6784 62.7491C27.676 61.8589 27.6505 61.9864 28.3848 61.9831C29.6278 61.9774 30.8702 61.9817 32.1132 61.9817C32.2388 61.9817 32.3649 61.9864 32.4905 61.9845C32.686 61.9821 32.7743 62.0728 32.7724 62.2712C32.7682 62.7269 32.7696 63.1831 32.7752 63.6388C32.7771 63.7899 32.7408 63.9476 32.855 64.1686L32.8555 64.1691Z" fill="#494949"/>
<path d="M128.552 45.2232C128.413 46.1072 128.268 47.0546 128.112 47.9995C128.073 48.2333 127.991 48.264 127.79 48.1284C126.89 47.5225 125.965 46.9488 125.106 46.29C124.146 45.5533 123.461 44.5635 122.873 43.5156C121.781 41.5681 121.187 39.4628 120.937 37.2532C120.819 36.2067 120.742 35.1584 120.766 34.1043C120.768 34.0099 120.763 33.9154 120.769 33.8215C120.775 33.7143 120.749 33.5849 120.859 33.5207C120.999 33.4385 121.094 33.5613 121.185 33.6368C121.559 33.9485 121.935 34.2588 122.296 34.586C123.227 35.4304 124.16 36.2733 125.075 37.1342C126.634 38.5996 127.554 40.4371 128.132 42.4653C128.383 43.3451 128.515 44.2452 128.552 45.2227V45.2232Z" fill="#AAAAAA"/>
<path d="M106.804 67.3585C106.804 68.5066 106.798 69.6541 106.806 70.8021C106.81 71.3362 106.838 71.8713 106.96 72.3945C107.111 73.0363 107.398 73.2799 108.059 73.381C108.506 73.449 108.935 73.3838 109.363 73.2629C109.636 73.1864 109.666 73.2011 109.663 73.4854C109.652 74.4997 109.841 74.3746 108.801 74.6306C107.88 74.8572 106.955 74.8171 106.046 74.572C104.589 74.1786 103.827 73.1657 103.586 71.7201C103.519 71.3173 103.49 70.9102 103.491 70.4994C103.496 68.2667 103.494 66.0339 103.494 63.8012C103.494 63.6755 103.487 63.5495 103.494 63.4238C103.505 63.2061 103.411 63.1065 103.19 63.1107C102.891 63.1164 102.592 63.1051 102.293 63.1089C102.081 63.1117 101.977 63.0305 101.978 62.8043C101.981 61.8574 101.907 61.9934 102.721 61.9826C103.606 61.9708 103.482 62.0643 103.493 61.1925C103.497 60.8468 103.496 60.5007 103.495 60.1545C103.494 59.9996 103.524 59.8802 103.708 59.8476C104.667 59.6766 105.625 59.5 106.584 59.3262C106.764 59.2936 106.799 59.406 106.8 59.5477C106.802 60.0351 106.803 60.5224 106.804 61.0098C106.804 61.2142 106.799 61.4187 106.807 61.6227C106.82 61.942 106.842 61.9722 107.164 61.9774C107.731 61.9873 108.297 61.9807 108.863 61.9816C109.606 61.9826 109.517 61.9618 109.519 62.6513C109.521 63.098 109.513 63.1037 109.077 63.1079C108.464 63.1136 107.85 63.1056 107.237 63.1117C106.823 63.1159 106.808 63.1296 106.806 63.5377C106.802 64.8113 106.805 66.0849 106.804 67.3585H106.804Z" fill="#494949"/>
<path d="M46.3619 73.1862C46.3619 73.5489 46.3539 73.8464 46.3647 74.1429C46.3718 74.3384 46.2712 74.4249 46.1041 74.4768C44.7823 74.8877 43.4657 74.9042 42.1798 74.3625C41.249 73.9701 40.6936 73.2277 40.4197 72.2696C40.2629 71.7218 40.2086 71.1608 40.2096 70.5908C40.2133 68.2947 40.2124 65.9982 40.21 63.7022C40.2096 63.1261 40.288 63.1067 39.6193 63.1091C39.5404 63.1091 39.4611 63.1157 39.3832 63.1077C39.1697 63.0855 38.8816 63.2083 38.7598 63.0179C38.5988 62.7662 38.6942 62.438 38.7093 62.1434C38.7164 61.9998 38.8495 61.9894 38.96 61.987C39.259 61.9809 39.5584 61.9885 39.8568 61.9776C40.1798 61.9658 40.2015 61.946 40.2082 61.6187C40.2171 61.1469 40.2195 60.6752 40.2086 60.2034C40.2034 59.9781 40.2762 59.8615 40.5113 59.8214C41.4256 59.6655 42.3384 59.4988 43.2503 59.3298C43.4831 59.2868 43.5171 59.4124 43.5167 59.5942C43.5152 60.1288 43.5167 60.6638 43.5176 61.1984C43.5176 61.3557 43.5252 61.5134 43.5181 61.6702C43.5082 61.8921 43.6121 61.9809 43.8288 61.9795C44.4267 61.9762 45.0245 61.9795 45.6228 61.9814C46.0368 61.9823 46.2423 62.1885 46.2391 62.6C46.2353 63.102 46.2353 63.1048 45.7503 63.1081C45.2309 63.1119 44.7119 63.1086 44.1924 63.1091C43.4359 63.11 43.519 63.0798 43.5185 63.7603C43.5185 66.198 43.5228 68.6357 43.5252 71.0734C43.5252 71.5154 43.5686 71.9536 43.6692 72.3829C43.8208 73.0303 44.1122 73.2811 44.7596 73.3789C45.1402 73.4365 45.5119 73.4058 45.8816 73.3137C46.0176 73.2797 46.1527 73.2419 46.3624 73.1862H46.3619Z" fill="#494949"/>
<path d="M111.648 31.0872C109.447 30.9564 107.768 29.9983 106.735 27.9894C106.494 27.5209 106.514 27.0151 106.432 26.524C106.361 26.091 106.338 25.6504 106.279 25.2154C106.249 24.9987 106.31 24.8872 106.536 24.8693C107.291 24.8098 108.02 24.6058 108.76 24.4693C110.599 24.1302 112.216 24.6048 113.623 25.81C114.614 26.6591 115.32 27.6966 115.612 28.9891C115.692 29.3409 115.804 29.6856 115.888 30.0365C115.99 30.4639 115.84 30.735 115.417 30.8606C115.208 30.9224 114.986 30.955 114.767 30.9663C113.733 31.0202 112.693 30.9503 111.647 31.0877L111.648 31.0872Z" fill="#AAAAAA"/>
<path d="M117.828 23.5176C117.734 24.1575 117.744 24.8021 117.72 25.4458C117.709 25.7518 117.657 25.7801 117.375 25.6777C116.622 25.4028 115.867 25.1322 115.119 24.8437C114.541 24.6208 114.039 24.2671 113.574 23.8614C111.941 22.4376 110.981 20.6082 110.401 18.5568C110.136 17.618 109.953 16.6617 109.879 15.686C109.843 15.2034 109.912 15.1448 110.359 15.3786C111.013 15.7214 111.654 16.0907 112.299 16.4496C112.698 16.6711 113.085 16.9143 113.495 17.1136C114.793 17.7459 115.771 18.7211 116.548 19.9159C117.137 20.8211 117.553 21.7987 117.762 22.8617C117.804 23.0794 117.825 23.2966 117.828 23.5176V23.5176Z" fill="#AAAAAA"/>
<path d="M148.163 25.3594C148.118 26.5159 147.759 27.5695 147.082 28.5149C146.925 28.7331 146.74 28.9258 146.528 29.0906C146.214 29.3347 145.871 29.4514 145.471 29.3376C145.32 29.2946 145.162 29.2785 145.011 29.2365C144.591 29.1194 144.185 29.1222 143.766 29.2719C143.039 29.5312 142.425 29.2974 141.952 28.7303C141.189 27.8169 140.713 26.7676 140.609 25.5719C140.555 24.9495 140.658 24.3484 140.987 23.8043C141.454 23.0332 142.162 22.7423 143.039 22.9571C143.207 22.9982 143.378 23.0369 143.535 23.1059C144.102 23.3538 144.661 23.3538 145.219 23.087C145.638 22.8863 146.077 22.908 146.513 22.9926C147.411 23.1673 147.995 23.8232 148.126 24.7885C148.152 24.9745 148.151 25.1644 148.163 25.3594V25.3594Z" fill="#494949"/>
<path d="M145.808 6.99371C145.779 8.61207 145.167 9.9674 144.076 11.1225C143.881 11.3289 143.666 11.5154 143.408 11.6396C142.841 11.9121 142.274 12.1827 141.702 12.4448C141.432 12.5685 141.409 12.5501 141.302 12.2601C141.111 11.7444 140.942 11.2193 140.723 10.715C140.098 9.27273 140.177 7.83193 140.721 6.39916C141.261 4.97772 142.146 3.82073 143.451 3.00801C143.731 2.83328 144.004 2.64769 144.287 2.47863C144.579 2.30437 144.822 2.37332 145 2.66516C145.083 2.80211 145.116 2.95654 145.148 3.11049C145.349 4.09605 145.559 5.07972 145.744 6.06812C145.801 6.3746 145.789 6.69384 145.808 6.99323V6.99371Z" fill="#AAAAAA"/>
<path d="M137.423 45.1504C137.349 44.0454 137.054 43.1056 137.003 42.1338C136.928 40.6769 137.292 39.2928 137.828 37.9559C138.694 35.7958 140.027 33.9385 141.621 32.2588C141.703 32.1714 141.772 32.0538 141.957 32.0496C142.048 32.3712 142.086 32.705 142.088 33.0465C142.092 33.9267 142.099 34.807 142.105 35.6872C142.108 36.235 142.185 36.7748 142.127 37.3316C142.003 38.5032 141.687 39.6134 141.213 40.6826C141.016 41.1274 140.792 41.5628 140.548 41.9836C140.056 42.8336 139.463 43.5977 138.647 44.1743C138.254 44.452 137.893 44.774 137.424 45.1504H137.423Z" fill="#AAAAAA"/>
<path d="M153.533 20.8605C153.52 22.4142 153.043 23.8234 152.211 25.1253C151.961 25.5173 151.626 25.8195 151.264 26.1005C150.891 26.3895 150.526 26.6884 150.154 26.9793C150.045 27.0644 149.913 27.1182 149.854 26.9368C149.54 25.981 148.982 25.114 148.798 24.1138C148.56 22.818 148.71 21.5462 149.108 20.2981C149.584 18.8073 150.389 17.502 151.373 16.2987C151.602 16.0192 151.84 15.7457 152.092 15.4869C152.253 15.3207 152.345 15.349 152.44 15.562C152.485 15.6621 152.517 15.7689 152.542 15.8756C152.839 17.1143 153.134 18.3534 153.428 19.5926C153.528 20.0091 153.541 20.4332 153.533 20.8601V20.8605Z" fill="#AAAAAA"/>
<path d="M122.171 28.172C122.141 27.696 122.213 27.1657 122.278 26.6363C122.315 26.3317 122.4 26.276 122.685 26.4039C123.043 26.564 123.389 26.7525 123.735 26.939C124.467 27.3347 125.21 27.7139 125.925 28.1413C127.647 29.1717 128.484 30.7169 128.505 32.7135C128.507 32.8382 128.504 32.969 128.469 33.0871C128.295 33.6745 128.108 34.2582 127.929 34.8438C127.867 35.045 127.759 35.1319 127.544 35.0351C126.925 34.7578 126.265 34.5982 125.635 34.3541C124.317 33.8426 123.428 32.8802 122.844 31.6231C122.346 30.5511 122.143 29.4126 122.171 28.1725V28.172Z" fill="#AAAAAA"/>
<path d="M126.636 56.0106C126.011 55.9392 125.384 55.8864 124.762 55.7933C123.647 55.6266 122.669 55.1246 121.762 54.4838C120.097 53.3093 118.847 51.7675 117.853 50.0075C117.628 49.6108 117.412 49.2084 117.214 48.798C117.076 48.5138 117.158 48.4004 117.465 48.4679C118.002 48.5865 118.532 48.739 119.063 48.8835C119.701 49.0573 120.333 49.2519 120.973 49.4129C122.015 49.6745 122.939 50.1638 123.782 50.8145C124.381 51.2764 124.936 51.784 125.417 52.3738C125.968 53.051 126.448 53.7589 126.653 54.6269C126.732 54.9622 126.869 55.2838 126.971 55.6143C127.107 56.0521 127.088 56.0724 126.637 56.0101L126.636 56.0106Z" fill="#AAAAAA"/>
<path d="M157.977 29.5072C157.88 31.5506 157.11 33.4877 155.695 35.1622C155.331 35.5934 154.814 35.8673 154.366 36.2111C153.657 36.7546 153.653 36.7494 153.475 35.8975C153.43 35.6822 153.397 35.4631 153.334 35.2534C152.813 33.5453 153.089 31.8939 153.702 30.2736C154.275 28.7582 155.152 27.4227 156.194 26.1897C156.56 25.7571 156.941 25.3392 157.355 24.9534C157.553 24.7687 157.626 24.8046 157.678 25.0776C157.803 25.7283 157.787 26.3918 157.83 27.0482C157.88 27.8152 157.946 28.5821 157.976 29.5067L157.977 29.5072Z" fill="#AAAAAA"/>
<path d="M149.973 50.704C149.402 50.6667 148.808 50.6332 148.238 50.4174C147.782 50.2445 147.312 50.1104 146.853 49.9466C146.579 49.8488 146.564 49.7912 146.748 49.5952C147.265 49.046 147.776 48.4897 148.313 47.9599C148.845 47.4333 149.499 47.0796 150.181 46.7859C151.497 46.2197 152.877 45.9391 154.307 45.8938C155.569 45.8537 156.823 45.9254 158.065 46.1625C158.127 46.1743 158.189 46.1833 158.251 46.1951C158.36 46.2159 158.494 46.2267 158.535 46.3349C158.59 46.4799 158.456 46.5606 158.36 46.6362C157.495 47.3186 156.612 47.9778 155.767 48.6824C154.322 49.8856 152.647 50.4731 150.798 50.6313C150.657 50.6436 150.518 50.67 150.376 50.6828C150.251 50.6941 150.125 50.6965 149.973 50.704V50.704Z" fill="#AAAAAA"/>
<path d="M120.379 45.9736C119.983 45.9032 119.541 45.9004 119.102 45.925C117.793 45.9991 116.668 45.525 115.637 44.7788C114.602 44.0294 113.806 43.0627 113.171 41.9614C112.857 41.4165 112.575 40.854 112.35 40.2661C112.287 40.1018 112.108 39.92 112.266 39.7481C112.392 39.6092 112.593 39.699 112.761 39.7278C113.722 39.8926 114.679 40.0786 115.642 40.2194C116.566 40.3544 117.402 40.6902 118.162 41.2167C119.04 41.8254 119.749 42.5947 120.256 43.542C120.338 43.6955 120.41 43.8523 120.447 44.0218C120.559 44.5281 120.672 45.0343 120.776 45.542C120.859 45.9391 120.814 45.9882 120.379 45.9736V45.9736Z" fill="#AAAAAA"/>
<path d="M126.605 17.6351C126.573 16.6628 126.747 15.7631 127.189 14.9211C127.396 14.5268 127.656 14.1717 128.003 13.8931C128.468 13.5191 128.951 13.1672 129.421 12.798C129.618 12.6426 129.769 12.6568 129.952 12.8329C130.256 13.1247 130.474 13.4534 130.571 13.8676C130.65 14.2033 130.757 14.5325 130.851 14.8649C131.184 16.0333 131.13 17.195 130.782 18.3482C130.394 19.6322 129.703 20.7505 128.874 21.7903C128.708 21.9991 128.539 22.2078 128.353 22.399C128.159 22.5983 128.015 22.5785 127.853 22.3589C127.816 22.3088 127.785 22.2522 127.764 22.1936C127.381 21.0961 126.98 20.0043 126.706 18.8724C126.606 18.4563 126.592 18.0327 126.605 17.6356V17.6351Z" fill="#AAAAAA"/>
<path d="M53.2082 83.6798C53.2795 83.5811 53.246 83.4702 53.246 83.3658C53.2422 82.0454 53.2352 80.725 53.2295 79.4047C53.2295 79.3102 53.2333 79.2162 53.2337 79.1218C53.2342 78.9532 53.3065 78.8545 53.4864 78.855C53.7537 78.8559 54.021 78.8536 54.2883 78.8564C54.4389 78.8578 54.5187 78.9414 54.5272 79.0897C54.5338 79.1992 54.5376 79.3093 54.5376 79.4193C54.5381 81.7144 54.5376 84.0095 54.5376 86.3041C54.5376 86.3513 54.5385 86.3985 54.5366 86.4457C54.5225 86.8471 54.5163 86.8523 54.0965 86.8618C53.4653 86.876 53.0288 86.5885 52.787 85.9995C52.2765 84.748 51.7693 83.4957 51.2603 82.2438C51.2314 82.1729 51.1937 82.1059 51.0789 82.0388C51.0789 82.1984 51.0789 82.358 51.0789 82.5177C51.0808 83.8064 51.0846 85.0956 51.0832 86.3843C51.0827 86.8542 51.0761 86.8637 50.6128 86.8599C49.6778 86.8519 49.7793 86.9879 49.777 86.0401C49.7722 83.8867 49.7755 81.7333 49.7755 79.5794C49.7755 79.4377 49.7807 79.2965 49.7793 79.1548C49.7765 78.9353 49.8865 78.8394 50.1009 78.8512C50.1165 78.8521 50.1326 78.8512 50.1481 78.8503C50.8496 78.8109 51.3322 79.1207 51.596 79.7796C52.0848 81.0055 52.5702 82.2334 53.059 83.4593C53.0916 83.5405 53.0968 83.6454 53.2073 83.6794L53.2082 83.6798Z" fill="#686868"/>
<path d="M4.62752 82.0417C4.62752 82.3524 4.62752 82.6631 4.62752 82.9734C4.62752 84.0737 4.62752 85.1745 4.62705 86.2748C4.62705 86.4004 4.62327 86.5261 4.61666 86.6517C4.61005 86.7825 4.53733 86.8528 4.40699 86.8543C4.12412 86.8576 3.84077 86.8576 3.5579 86.8571C3.40254 86.8571 3.3317 86.7697 3.32651 86.6215C3.32273 86.5114 3.31895 86.4014 3.31895 86.2914C3.31895 84.0119 3.31895 81.7319 3.31895 79.4524C3.31895 79.374 3.31659 79.2951 3.32131 79.2167C3.34162 78.8956 3.36712 78.8706 3.67738 78.8508C4.38794 78.8054 4.87403 79.1107 5.13565 79.7664C5.62961 81.0075 6.12074 82.2499 6.61423 83.4915C6.64162 83.5604 6.67987 83.6246 6.72332 83.711C6.83052 83.5727 6.78849 83.4466 6.78802 83.3309C6.78518 82.0105 6.77763 80.6897 6.77243 79.3693C6.77243 79.2748 6.77621 79.1809 6.77952 79.0864C6.78566 78.9353 6.86641 78.8753 7.01611 78.8526C7.96436 78.7077 8.08054 78.8016 8.08054 79.7376C8.08054 81.8599 8.08054 83.9826 8.08054 86.1048C8.08054 86.1832 8.08101 86.2621 8.08054 86.3405C8.07487 86.858 8.0744 86.868 7.55635 86.8599C6.49381 86.8439 6.7696 87.0271 6.35781 86.05C5.82087 84.7755 5.31321 83.4886 4.79186 82.2079C4.76872 82.1503 4.73708 82.0965 4.70922 82.0407C4.6823 82.0407 4.65491 82.0407 4.628 82.0407L4.62752 82.0417Z" fill="#686868"/>
<path d="M33.4193 82.0089C33.4193 83.3369 33.4193 84.6242 33.4193 85.912C33.4193 86.132 33.4141 86.3521 33.4169 86.5722C33.4193 86.7639 33.3404 86.8654 33.1378 86.8607C32.8861 86.8555 32.6344 86.8555 32.3827 86.8607C32.1759 86.8645 32.106 86.753 32.1098 86.566C32.1117 86.4716 32.1074 86.3776 32.1074 86.2831C32.1074 84.0032 32.1074 81.7237 32.1074 79.4437C32.1074 79.3493 32.1126 79.2548 32.1093 79.1608C32.1013 78.9436 32.2014 78.8392 32.4205 78.8525C32.4361 78.8534 32.4522 78.8525 32.4677 78.8515C33.172 78.8119 33.6564 79.1213 33.9208 79.7799C34.4053 80.9912 34.8856 82.2039 35.3706 83.4152C35.4084 83.5097 35.3994 83.6391 35.5703 83.6868C35.5703 83.3671 35.5713 83.0587 35.5703 82.7508C35.5666 81.6188 35.5595 80.4869 35.56 79.3549C35.56 78.8581 35.567 78.8506 36.061 78.8525C36.8936 78.8558 36.8393 78.7609 36.8402 79.5972C36.8421 81.7671 36.8407 83.9366 36.8407 86.1065C36.8407 86.1849 36.8411 86.2638 36.8407 86.3422C36.8341 86.8588 36.8341 86.8673 36.3127 86.8616C35.3064 86.8498 35.5335 87.0024 35.1638 86.1136C34.6263 84.822 34.0672 83.5394 33.5803 82.2271C33.5544 82.1577 33.5421 82.076 33.4202 82.0094L33.4193 82.0089Z" fill="#686868"/>
<path d="M148.113 44.9494C147.661 44.9636 147.63 44.9333 147.677 44.5537C147.742 44.0394 147.801 43.5237 147.885 43.0123C148.049 42.0173 148.545 41.1823 149.214 40.4523C150.483 39.0696 152.11 38.3196 153.9 37.8776C154.241 37.7936 154.307 37.8625 154.206 38.2091C153.887 39.2953 153.614 40.3999 153.211 41.4544C152.592 43.0727 151.378 44.132 149.767 44.7341C149.214 44.9404 148.609 44.8285 148.112 44.9489L148.113 44.9494Z" fill="#AAAAAA"/>
<path d="M74.9465 82.8408C74.9465 81.7249 74.9465 80.609 74.9465 79.4927C74.9465 79.367 74.9503 79.2414 74.9508 79.1153C74.9517 78.943 75.0343 78.8532 75.2095 78.8547C75.2251 78.8547 75.2412 78.8523 75.2568 78.8528C76.6206 78.8632 76.341 78.6795 76.3675 79.8704C76.3807 80.4674 76.3642 81.0652 76.3736 81.6621C76.3788 81.9875 76.4057 82.0135 76.7268 82.0234C77.0881 82.0347 77.4503 82.0338 77.8121 82.0239C78.1525 82.0144 78.1799 81.988 78.1832 81.6324C78.1903 80.8621 78.1832 80.0919 78.1875 79.3217C78.1903 78.857 78.195 78.8561 78.6677 78.8504C78.8722 78.8481 79.0767 78.8584 79.2812 78.8504C79.5277 78.8405 79.6221 78.9628 79.6127 79.1937C79.6103 79.2565 79.6141 79.3193 79.6141 79.3822C79.6141 81.6928 79.6141 84.0035 79.6141 86.3141C79.6141 86.377 79.616 86.4402 79.6122 86.5026C79.5919 86.8279 79.5768 86.861 79.2557 86.8582C77.9651 86.8464 78.2116 87.0438 78.1889 85.8504C78.1761 85.1746 78.1917 84.4984 78.1832 83.8226C78.179 83.4698 78.1511 83.4443 77.8059 83.4335C77.4602 83.4226 77.1136 83.4231 76.7679 83.433C76.4034 83.4434 76.3769 83.4694 76.3736 83.8538C76.3665 84.624 76.3712 85.3942 76.3708 86.1644C76.3708 86.2589 76.3727 86.3533 76.3698 86.4473C76.3576 86.8407 76.3509 86.8497 75.9774 86.8605C75.7729 86.8662 75.5684 86.8657 75.364 86.8605C74.9607 86.8511 74.9508 86.8473 74.9489 86.4237C74.9441 85.2289 74.9475 84.0347 74.947 82.8399L74.9465 82.8408Z" fill="#686868"/>
<path d="M149.473 14.3108C149.38 15.5074 149.248 16.6871 148.439 17.6693C147.961 18.2507 147.379 18.6922 146.728 19.0511C146.078 19.4091 145.39 19.6749 144.672 19.8596C144.255 19.9663 144.101 19.8714 144.1 19.4483C144.099 19.0577 144.138 18.6648 144.185 18.2762C144.287 17.4375 144.297 16.5846 144.599 15.7761C144.817 15.1934 145.127 14.6687 145.546 14.2154C146.105 13.6104 146.811 13.2992 147.635 13.2671C148.043 13.2515 148.451 13.2411 148.86 13.2426C149.196 13.244 149.253 13.2969 149.373 13.6152C149.458 13.8399 149.478 14.0728 149.473 14.3098L149.473 14.3108Z" fill="#AAAAAA"/>
<path d="M143.108 35.5391C142.998 34.3467 143.544 33.0797 144.507 31.9656C144.849 31.5704 145.245 31.2417 145.747 31.0556C146.116 30.9196 146.476 30.7619 146.838 30.6094C147.046 30.522 147.158 30.5735 147.206 30.8049C147.319 31.3588 147.458 31.9071 147.567 32.462C147.757 33.4414 147.534 34.366 147.138 35.2553C146.537 36.6016 145.547 37.615 144.355 38.4481C144.123 38.61 143.884 38.7621 143.645 38.9127C143.465 39.0261 143.348 38.9713 143.309 38.7621C143.284 38.6233 143.252 38.4844 143.245 38.3442C143.201 37.5135 143.163 36.6824 143.108 35.5395V35.5391Z" fill="#AAAAAA"/>
<path d="M133.24 5.15772C133.243 6.68353 132.77 7.74984 131.954 8.6811C131.84 8.81096 131.718 8.93564 131.564 9.01875C131.12 9.25534 130.676 9.49099 130.231 9.72569C130.098 9.79653 129.949 9.85084 129.881 9.65863C129.625 8.93422 129.219 8.26364 129.064 7.50428C128.82 6.30952 129.096 5.19456 129.659 4.14241C130.239 3.05579 131.089 2.20009 132.058 1.45726C132.299 1.27261 132.404 1.29009 132.468 1.55737C132.777 2.83667 133.144 4.10558 133.24 5.15772H133.24Z" fill="#AAAAAA"/>
<path d="M139.478 3.7979C139.389 5.52441 138.692 6.93357 137.275 7.96069C137.021 8.14439 136.753 8.3092 136.483 8.47024C136.144 8.6733 135.933 8.59916 135.794 8.2327C135.745 8.10142 135.715 7.96116 135.687 7.82327C135.542 7.11633 135.361 6.41411 135.265 5.70055C135.048 4.08739 135.593 2.72403 136.793 1.65111C137.246 1.24592 137.867 1.07592 138.421 0.816187C138.56 0.751018 138.654 0.79777 138.709 0.951247C138.924 1.55713 139.15 2.15971 139.366 2.76512C139.485 3.09757 139.455 3.44703 139.479 3.79743L139.478 3.7979Z" fill="#AAAAAA"/>
<path d="M140.837 20.7866C140.784 21.4624 140.698 22.1103 140.442 22.7308C140.004 23.792 139.363 24.7119 138.559 25.5227C138.322 25.7612 138.132 25.7551 138.008 25.4542C137.437 24.0673 136.712 22.72 136.802 21.1465C136.842 20.4466 136.99 19.7817 137.375 19.182C137.573 18.8736 137.809 18.6077 138.115 18.4032C138.467 18.1676 138.812 17.9206 139.165 17.6859C139.497 17.4658 139.566 17.4777 139.846 17.7629C140.001 17.9211 140.152 18.0939 140.214 18.3041C140.446 19.0828 140.811 19.828 140.826 20.6634C140.827 20.7101 140.834 20.7569 140.836 20.7866H140.837Z" fill="#AAAAAA"/>
<path d="M146.212 51.0931C147.238 51.0766 148.103 51.2418 148.967 51.4156C149.373 51.4973 149.396 51.5469 149.243 51.9143C149.05 52.3785 148.859 52.8456 148.636 53.2956C148.246 54.0776 147.644 54.6708 146.884 55.0915C146.279 55.4263 145.627 55.4575 144.96 55.304C144.511 55.2011 144.094 55.0235 143.684 54.8205C143.147 54.5551 142.639 54.2396 142.128 53.9298C141.803 53.7324 141.775 53.6092 141.946 53.2739C142.033 53.1043 142.155 52.9617 142.284 52.8224C143.381 51.6366 144.711 51.0015 146.212 51.0926L146.212 51.0931Z" fill="#AAAAAA"/>
<path d="M146.166 42.4015C146.139 43.4371 145.836 44.3764 145.379 45.2642C144.578 46.8174 143.387 48.0386 142.027 49.1077C141.942 49.1743 141.849 49.2706 141.735 49.2196C141.591 49.1559 141.626 49.0019 141.633 48.8839C141.673 48.2256 141.722 47.5682 141.769 46.9104C141.779 46.7697 141.802 46.6289 141.804 46.4882C141.834 44.4599 142.737 42.8307 144.158 41.4641C144.623 41.0183 145.256 40.7963 145.812 40.4714C145.969 40.3793 146.051 40.4799 146.047 40.6376C146.033 41.2364 146.135 41.8277 146.166 42.4005V42.4015Z" fill="#AAAAAA"/>
<path d="M105.259 31.0341C105.255 31.0733 105.26 31.2037 105.223 31.3213C105.079 31.7864 104.922 32.2483 104.768 32.7106C104.708 32.8905 104.604 32.959 104.409 32.8792C103.855 32.6539 103.279 32.4763 102.744 32.2147C101.697 31.7023 101.066 30.8145 100.698 29.7355C100.314 28.6097 100.293 27.4527 100.482 26.2886C100.537 25.9552 100.633 25.9023 100.925 26.0648C101.846 26.5767 102.774 27.082 103.64 27.6803C104.61 28.3499 105.263 29.7289 105.258 31.0341H105.259Z" fill="#AAAAAA"/>
<path d="M15.5733 82.8256C15.5733 81.6629 15.5714 80.5003 15.5747 79.3376C15.5761 78.8602 15.5822 78.8531 16.0398 78.8512C17.109 78.8474 18.1777 78.8474 19.2468 78.8512C19.6893 78.8526 19.6959 78.8644 19.7054 79.2965C19.7087 79.4538 19.7082 79.6106 19.7054 79.7678C19.6973 80.2226 19.6921 80.2306 19.2157 80.2339C18.6183 80.2382 18.0209 80.2302 17.4235 80.2377C17.0202 80.2424 17.006 80.2609 16.999 80.6726C16.9933 80.9867 17.0027 81.3012 16.999 81.6152C16.9961 81.8329 17.0991 81.9302 17.313 81.9297C17.6747 81.9288 18.0365 81.926 18.3977 81.9359C18.7571 81.9458 18.7878 81.9656 18.7869 82.308C18.785 83.4811 18.9181 83.252 17.8674 83.2752C16.8767 83.2969 17.0098 83.134 16.9975 84.1568C16.9938 84.4869 16.99 84.817 17.0004 85.1466C17.0103 85.4574 17.0434 85.4956 17.3635 85.5018C17.9293 85.5131 18.4955 85.506 19.0612 85.507C19.1868 85.507 19.3129 85.5022 19.4385 85.5103C19.7559 85.5296 19.7823 85.5537 19.7965 85.8729C19.8055 86.0769 19.8045 86.2814 19.7975 86.4854C19.7856 86.8387 19.7743 86.8566 19.4159 86.859C18.5668 86.8656 17.7182 86.8618 16.8691 86.8618C16.5702 86.8618 16.2717 86.8665 15.9733 86.8599C15.5941 86.8514 15.5775 86.8406 15.5756 86.4538C15.57 85.4168 15.5733 84.3797 15.5728 83.3427C15.5728 83.1698 15.5728 82.997 15.5728 82.8242L15.5733 82.8256Z" fill="#686868"/>
<path d="M44.3605 82.8354C44.3605 81.6728 44.3586 80.5101 44.3614 79.3475C44.3628 78.8564 44.3676 78.8521 44.8639 78.8507C45.9014 78.8479 46.9389 78.8474 47.9764 78.8507C48.4364 78.8526 48.4453 78.8658 48.4534 79.331C48.4567 79.5194 48.4477 79.7083 48.4534 79.8967C48.4605 80.1352 48.3504 80.2367 48.1129 80.2339C47.5944 80.2287 47.0754 80.2339 46.5569 80.2348C46.3996 80.2348 46.2424 80.2395 46.0851 80.2386C45.8948 80.2377 45.7918 80.3212 45.7928 80.5196C45.7942 80.8964 45.7947 81.2737 45.7928 81.6506C45.7914 81.8527 45.9005 81.9287 46.0879 81.9292C46.4652 81.9297 46.8426 81.925 47.2199 81.9368C47.5424 81.9467 47.5675 81.9741 47.5802 82.2914C47.5896 82.5266 47.5778 82.7627 47.5811 82.9984C47.584 83.2 47.4825 83.2765 47.2898 83.2751C46.9125 83.2718 46.5351 83.2704 46.1578 83.2793C45.823 83.2874 45.8003 83.3039 45.7942 83.6231C45.7838 84.1256 45.7843 84.6285 45.7937 85.1315C45.7999 85.4687 45.8291 85.4979 46.1876 85.5036C46.8322 85.5135 47.4768 85.5036 48.1209 85.5097C48.5577 85.514 48.587 85.5367 48.5861 85.9574C48.5842 87.0436 48.6923 86.8481 47.6945 86.8603C46.7358 86.8721 45.7767 86.8655 44.8176 86.8613C44.3718 86.8594 44.3638 86.8537 44.3624 86.4179C44.3581 85.2236 44.361 84.0297 44.361 82.8354H44.3605Z" fill="#686868"/>
<path d="M65.9686 78.7423C66.7204 78.7225 67.3645 79.0592 67.8915 79.6594C68.0204 79.8058 68.0379 79.9205 67.8901 80.0589C67.7182 80.2199 67.5586 80.3937 67.3891 80.5576C67.1312 80.8064 67.1222 80.8126 66.8677 80.5675C66.5971 80.3068 66.2977 80.1297 65.9095 80.1293C65.6087 80.1293 65.3395 80.2006 65.1884 80.482C65.0326 80.7715 65.0845 81.0591 65.2545 81.3302C65.3395 81.4657 65.4557 81.5734 65.5884 81.6584C65.8396 81.8189 66.0918 81.9785 66.3516 82.1249C66.6528 82.2949 66.9485 82.4716 67.2313 82.6718C68.2821 83.4165 68.4081 84.6254 68.0776 85.5704C67.8093 86.3364 67.2327 86.7727 66.4587 86.929C65.3315 87.1566 64.3851 86.8095 63.6154 85.9576C63.4874 85.816 63.4544 85.6979 63.5946 85.5553C63.6607 85.4882 63.7188 85.4131 63.7873 85.3484C63.9804 85.1666 64.1174 84.8634 64.3648 84.8181C64.6161 84.7718 64.7398 85.1062 64.9414 85.2474C65.1766 85.4117 65.4198 85.5506 65.7055 85.5968C66.114 85.6629 66.4847 85.5147 66.6538 85.2233C66.8408 84.9008 66.7865 84.4328 66.5206 84.1253C66.2689 83.834 65.9388 83.6484 65.6059 83.4713C65.2446 83.2791 64.8867 83.084 64.5627 82.8323C63.8402 82.2709 63.5625 81.52 63.6513 80.6308C63.7651 79.4931 64.6803 78.738 65.969 78.7428L65.9686 78.7423Z" fill="#686868"/>
<path d="M26.6954 82.8466C26.6954 81.7462 26.6954 80.6459 26.6954 79.5456C26.6954 79.4356 26.6921 79.3255 26.6973 79.2155C26.7138 78.8816 26.7256 78.8708 27.0472 78.8514C27.0784 78.8495 27.11 78.85 27.1416 78.85C28.2113 78.85 29.2804 78.8467 30.35 78.8514C30.7642 78.8533 30.7708 78.867 30.7821 79.2755C30.7864 79.4327 30.785 79.59 30.7826 79.7468C30.776 80.2195 30.7708 80.2285 30.3141 80.2332C29.8107 80.2384 29.3078 80.2346 28.8044 80.2346C28.6944 80.2346 28.5839 80.2308 28.4743 80.237C28.1503 80.2549 28.1244 80.2743 28.114 80.5921C28.1036 80.9217 28.1031 81.2523 28.114 81.5824C28.1239 81.8926 28.1527 81.9191 28.4819 81.929C28.8275 81.9394 29.1742 81.9262 29.5198 81.9356C29.8754 81.9451 29.9099 81.9687 29.9094 82.3092C29.9071 83.4808 30.0402 83.2517 28.9876 83.2749C27.9903 83.2971 28.1239 83.1337 28.1111 84.1509C28.1069 84.481 28.1041 84.8111 28.1135 85.1412C28.123 85.4656 28.1456 85.4911 28.4672 85.502C28.8129 85.5138 29.159 85.5062 29.5052 85.5067C29.7881 85.5067 30.0714 85.5043 30.3543 85.5076C30.8719 85.5138 30.8794 85.5152 30.8766 86.0394C30.8714 86.9966 30.9743 86.8521 30.044 86.8601C29.0849 86.8681 28.1253 86.8644 27.1662 86.8606C26.7048 86.8587 26.6992 86.854 26.6977 86.3822C26.6944 85.2035 26.6968 84.0243 26.6963 82.8456L26.6954 82.8466Z" fill="#686868"/>
<path d="M112.311 78.7427C113.048 78.7285 113.679 79.034 114.187 79.605C114.397 79.8411 114.392 79.8822 114.181 80.1164C114.129 80.1745 114.073 80.2312 114.015 80.2836C113.841 80.4404 113.717 80.6987 113.492 80.7412C113.26 80.7851 113.16 80.4942 112.987 80.369C112.686 80.1523 112.357 80.0871 112.003 80.1537C111.577 80.2335 111.354 80.6208 111.466 81.042C111.53 81.2833 111.682 81.4576 111.867 81.6091C112.098 81.7995 112.36 81.9454 112.623 82.0871C112.997 82.2882 113.356 82.5125 113.697 82.7661C114.679 83.4934 114.703 84.7977 114.397 85.634C114.073 86.5209 113.135 87.0503 112.08 87.0002C111.23 86.9601 110.545 86.5946 109.973 85.9807C109.812 85.8078 109.804 85.6713 109.983 85.5065C110.156 85.3474 110.303 85.1613 110.468 84.9932C110.726 84.7311 110.724 84.7368 110.986 84.9753C111.137 85.1122 111.295 85.243 111.46 85.362C111.654 85.5018 111.877 85.5859 112.116 85.6033C112.481 85.6303 112.819 85.5604 113.003 85.2029C113.184 84.852 113.155 84.5002 112.914 84.1824C112.691 83.8872 112.373 83.7078 112.056 83.5321C111.686 83.3262 111.308 83.1331 110.965 82.8795C110.214 82.3236 109.912 81.5742 109.993 80.659C110.095 79.5039 111.017 78.7332 112.31 78.7441L112.311 78.7427Z" fill="#686868"/>
<path d="M136.517 52.1093C136.479 50.6732 137.09 49.5819 137.948 48.5992C138.383 48.1005 138.893 47.6802 139.439 47.3076C139.683 47.1418 139.763 47.1659 139.834 47.4474C140.092 48.4825 140.374 49.5243 140.453 50.583C140.552 51.9181 140.041 53.0812 139.032 53.9775C138.595 54.3652 138.013 54.5234 137.485 54.7624C137.358 54.82 137.262 54.7614 137.226 54.64C136.968 53.7759 136.415 52.9915 136.517 52.1088V52.1093Z" fill="#AAAAAA"/>
<path d="M123.044 3.38109C123.183 3.37873 123.231 3.49159 123.294 3.57423C124.4 5.0207 125.312 6.57248 125.836 8.32921C126.089 9.17593 126.259 10.0378 126.237 10.927C126.217 11.7473 125.967 12.5255 125.841 13.3137C125.661 13.3387 125.607 13.2249 125.527 13.1564C123.762 11.6401 123.032 9.62645 122.764 7.3937C122.734 7.14578 122.743 6.89077 122.757 6.64001C122.81 5.69978 122.871 4.76003 122.933 3.82027C122.943 3.66915 122.91 3.50151 123.044 3.38062V3.38109Z" fill="#AAAAAA"/>
<path d="M130.779 82.8678C130.747 83.4515 130.783 84.0304 130.947 84.5948C131.014 84.8233 131.104 85.041 131.256 85.2266C131.644 85.704 132.27 85.6757 132.608 85.1586C132.711 85.0018 132.786 84.8262 132.859 84.6524C132.931 84.4819 133.04 84.4569 133.197 84.5263C133.441 84.6344 133.686 84.7426 133.934 84.8422C134.111 84.9135 134.166 85.0136 134.102 85.2077C133.71 86.3982 132.892 87.1718 131.473 86.9564C130.951 86.8771 130.534 86.6141 130.199 86.2126C129.903 85.8566 129.7 85.4476 129.573 85.0061C129.166 83.5969 129.169 82.183 129.568 80.7729C129.684 80.3625 129.88 79.9866 130.125 79.6339C131.003 78.373 133.204 78.3872 133.9 79.9933C134.227 80.7474 134.255 80.7356 133.483 80.9883C133.423 81.0076 133.362 81.0251 133.302 81.044C132.868 81.1819 132.861 81.1847 132.689 80.7814C132.544 80.4386 132.332 80.1836 131.932 80.1685C131.516 80.1529 131.26 80.398 131.089 80.7432C130.891 81.1441 130.819 81.5805 130.783 82.0196C130.76 82.3006 130.779 82.5849 130.779 82.8678Z" fill="#686868"/>
<path d="M70.4415 82.8701C70.4146 83.4534 70.4519 84.0328 70.6163 84.5971C70.6871 84.8408 70.7839 85.0731 70.9549 85.2649C71.3303 85.6866 71.9267 85.6597 72.2507 85.1973C72.3574 85.0448 72.4358 84.8687 72.5071 84.6953C72.5794 84.5192 72.6743 84.4399 72.866 84.5268C73.1239 84.6434 73.3845 84.7539 73.6447 84.8649C73.7836 84.9239 73.8313 85.015 73.7831 85.1638C73.4469 86.2032 72.7579 87.1519 71.2344 86.9696C70.6923 86.9049 70.2541 86.6551 69.8994 86.2462C69.5518 85.8452 69.3356 85.3758 69.2014 84.8696C68.8473 83.5346 68.8487 82.1967 69.2109 80.8631C69.3441 80.3729 69.5698 79.929 69.8833 79.5239C70.7305 78.4278 72.8056 78.4013 73.5276 79.9087C73.9234 80.7351 73.9437 80.729 73.061 81.0138C73.0313 81.0232 73.0011 81.0327 72.9713 81.0426C72.4613 81.2145 72.4953 81.1672 72.3522 80.7814C72.2228 80.432 71.9976 80.1812 71.5981 80.1689C71.1834 80.1562 70.9265 80.3994 70.7561 80.746C70.5516 81.1621 70.4836 81.6149 70.4463 82.0697C70.4245 82.3351 70.4425 82.6038 70.4425 82.8706L70.4415 82.8701Z" fill="#686868"/>
<path d="M125.384 18.5371C125.384 18.8218 125.386 19.0735 125.383 19.3247C125.38 19.5401 125.253 19.6308 125.051 19.6411C124.775 19.6553 124.524 19.5656 124.282 19.4471C124 19.3092 123.72 19.1656 123.437 19.0287C122.622 18.6343 121.996 18.0242 121.479 17.2965C120.699 16.1995 120.264 14.958 119.992 13.6536C119.921 13.3155 120.057 13.1814 120.368 13.3155C121.536 13.818 122.755 14.2265 123.739 15.0807C124.23 15.5076 124.639 16.0021 124.959 16.5688C125.311 17.1907 125.433 17.8632 125.383 18.5371H125.384Z" fill="#AAAAAA"/>
<path d="M121.606 8.86322C121.59 9.42708 121.358 9.96826 121.21 10.5279C121.176 10.6544 121.069 10.704 120.949 10.6445C120.139 10.2417 119.245 9.99943 118.602 9.2854C117.822 8.41979 117.431 7.39928 117.273 6.27157C117.181 5.61658 117.159 4.95922 117.256 4.29998C117.311 3.9203 117.387 3.85135 117.688 4.04497C118.48 4.55687 119.297 5.04139 120.034 5.62508C121.05 6.42977 121.507 7.55512 121.606 8.86228L121.606 8.86322Z" fill="#AAAAAA"/>
<path d="M157.004 43.8316C157.055 43.4269 157.097 43.0213 157.159 42.6185C157.348 41.4138 158.053 40.5288 158.969 39.7931C159.865 39.0734 160.903 38.6342 162.008 38.3466C162.353 38.2569 162.433 38.3211 162.339 38.6535C162.065 39.6193 161.843 40.6072 161.437 41.5243C160.902 42.7294 159.947 43.5266 158.716 43.9828C158.225 44.165 157.692 44.1065 157.178 44.1674C156.926 44.1976 156.991 43.9813 157.003 43.8312L157.004 43.8316Z" fill="#AAAAAA"/>
<path d="M126.796 50.3202C126.799 49.9594 126.787 49.5981 126.864 49.2411C126.951 48.8402 126.977 48.8246 127.357 49.0168C127.469 49.0734 127.577 49.1386 127.684 49.2028C128.251 49.541 128.828 49.8635 129.382 50.2215C130.523 50.96 131.098 52.0325 131.125 53.3817C131.137 53.9734 130.829 54.4981 130.652 55.0492C130.625 55.1337 130.543 55.1771 130.463 55.1441C129.497 54.7455 128.451 54.4995 127.767 53.5932C127.158 52.7852 126.863 51.88 126.798 50.8854C126.786 50.6979 126.796 50.5086 126.796 50.3202V50.3202Z" fill="#AAAAAA"/>
<path d="M116.628 83.551C116.628 82.608 116.631 81.6649 116.627 80.7218C116.624 80.2534 116.611 80.2444 116.153 80.2364C115.87 80.2317 115.586 80.2302 115.303 80.2335C115.093 80.2359 114.979 80.1547 114.984 79.9294C114.99 79.6782 114.991 79.4265 114.983 79.1753C114.975 78.9288 115.096 78.8471 115.328 78.8494C115.941 78.8556 116.555 78.8499 117.168 78.8504C117.907 78.8504 118.647 78.8556 119.386 78.8494C119.619 78.8475 119.74 78.9269 119.732 79.1748C119.723 79.426 119.724 79.6777 119.731 79.929C119.736 80.1537 119.623 80.2359 119.412 80.2335C119.129 80.2302 118.846 80.2317 118.563 80.2364C118.104 80.2444 118.089 80.2529 118.088 80.7209C118.084 82.4186 118.086 84.1163 118.086 85.814C118.086 86.0341 118.092 86.2541 118.084 86.4742C118.072 86.8364 118.059 86.8501 117.712 86.861C117.476 86.868 117.24 86.868 117.004 86.861C116.657 86.8506 116.635 86.8364 116.633 86.4751C116.626 85.5004 116.63 84.5262 116.63 83.5515H116.629L116.628 83.551Z" fill="#686868"/>
<path d="M136.417 83.54C136.417 82.5969 136.42 81.6539 136.416 80.7113C136.414 80.2489 136.403 80.2428 135.935 80.2362C135.636 80.232 135.338 80.2315 135.039 80.232C134.846 80.232 134.748 80.1441 134.75 79.9472C134.752 79.6799 134.751 79.4131 134.75 79.1458C134.748 78.9569 134.824 78.8469 135.027 78.853C135.09 78.8549 135.153 78.8502 135.216 78.8502C136.489 78.8502 137.763 78.8478 139.037 78.8511C139.502 78.8525 139.51 78.8648 139.519 79.3281C139.522 79.5165 139.513 79.7054 139.518 79.8938C139.524 80.1304 139.418 80.2405 139.179 80.2343C138.943 80.2282 138.707 80.2343 138.471 80.2353C137.844 80.2376 137.842 80.2376 137.841 80.8463C137.84 82.6224 137.841 84.398 137.841 86.1741C137.841 86.2998 137.835 86.4258 137.839 86.5515C137.847 86.7668 137.756 86.866 137.533 86.8627C136.169 86.8428 136.444 87.0478 136.42 85.8511C136.405 85.0814 136.417 84.3112 136.417 83.5409L136.417 83.54Z" fill="#686868"/>
<path d="M57.1947 83.5101C57.1947 82.5986 57.1966 81.6868 57.1938 80.7753C57.1924 80.2398 57.1895 80.2393 56.6351 80.2356C56.3678 80.2337 56.1005 80.2299 55.8333 80.2332C55.6141 80.236 55.5239 80.1321 55.5254 79.9163C55.5353 78.6054 55.3799 78.8698 56.4958 78.8533C57.5961 78.8368 58.6974 78.8477 59.7982 78.851C60.2846 78.8524 60.2959 78.8614 60.2959 79.3586C60.2959 80.3517 60.3738 80.2242 59.4544 80.2351C58.5165 80.246 58.6228 80.1378 58.6199 81.0648C58.6147 82.7781 58.6185 84.4909 58.618 86.2042C58.618 86.3454 58.6133 86.4871 58.611 86.6283C58.6081 86.7832 58.525 86.8564 58.3744 86.8568C58.0754 86.8587 57.777 86.8549 57.4781 86.8606C57.2764 86.8644 57.1957 86.7666 57.1971 86.574C57.1994 86.3067 57.1947 86.0399 57.1942 85.7726C57.1938 85.0184 57.1942 84.2638 57.1942 83.5096L57.1947 83.5101Z" fill="#686868"/>
<path d="M154.853 12.2265C154.878 13.1114 154.672 14.0592 154.4 14.9961C154.378 15.0712 154.354 15.1468 154.321 15.2176C154.24 15.3957 154.12 15.3909 153.984 15.2781C153.949 15.2483 153.914 15.2143 153.887 15.1765C153.278 14.3218 152.606 13.5072 152.206 12.5202C151.883 11.7207 151.76 10.8905 151.823 10.032C151.852 9.63434 151.979 9.26458 152.16 8.91324C152.31 8.62045 152.467 8.33002 152.631 8.04479C152.796 7.75814 152.921 7.72933 153.196 7.91917C153.311 7.99851 153.427 8.09296 153.503 8.20629C154.111 9.10685 154.683 10.0235 154.808 11.1408C154.845 11.4695 154.85 11.7977 154.854 12.226L154.853 12.2265Z" fill="#AAAAAA"/>
<path d="M118.806 35.8827C118.089 35.8095 117.427 35.7784 116.779 35.6683C115.428 35.4388 114.416 34.6903 113.731 33.514C113.485 33.0904 113.444 32.5889 113.33 32.1176C113.294 31.9707 113.372 31.8791 113.525 31.8574C115.05 31.6411 116.456 31.8375 117.651 32.9317C118.365 33.5862 118.871 34.3536 119.183 35.2641C119.35 35.7515 119.253 35.9012 118.806 35.8827Z" fill="#AAAAAA"/>
<path d="M122.733 23.5975C122.733 23.7387 122.742 23.8808 122.731 24.0216C122.706 24.3318 122.56 24.4357 122.258 24.3521C122.139 24.3186 122.026 24.2581 121.913 24.2029C121.433 23.9672 120.95 23.7382 120.478 23.4889C119.185 22.807 118.49 21.692 118.242 20.289C118.159 19.8262 118.303 19.3539 118.363 18.8883C118.385 18.7178 118.494 18.6739 118.672 18.7065C121.615 19.2477 122.75 21.6863 122.732 23.5975H122.733Z" fill="#AAAAAA"/>
<path d="M111.839 37.9598C109.816 37.9971 108.577 37.0021 107.763 35.3653C107.581 34.9993 107.444 34.613 107.336 34.2187C107.247 33.8929 107.294 33.8362 107.638 33.8159C107.701 33.8121 107.764 33.8126 107.826 33.8159C108.548 33.8537 109.269 33.8844 109.99 33.933C110.771 33.9854 111.329 34.4227 111.787 35.0182C111.95 35.2307 112.094 35.4569 112.195 35.7053C112.419 36.2583 112.661 36.8033 112.919 37.3421C113.115 37.7501 113.076 37.7969 112.621 37.8941C112.325 37.957 112.028 37.9636 111.839 37.9607L111.839 37.9598Z" fill="#AAAAAA"/>
<path d="M152.092 32.2937C152.071 32.6597 152.132 33.1626 152.049 33.6636C151.86 34.797 151.319 35.7264 150.453 36.4739C150.012 36.855 149.449 36.9835 148.929 37.2007C148.761 37.2711 148.716 37.1492 148.679 37.0147C148.248 35.4709 148.417 34.0306 149.393 32.7182C150.012 31.8847 150.784 31.2269 151.666 30.6904C151.981 30.4982 152.074 30.5497 152.089 30.9313C152.104 31.3393 152.092 31.7487 152.092 32.2932L152.092 32.2937Z" fill="#AAAAAA"/>
<path d="M93.5487 82.8481C93.5487 81.7326 93.5487 80.6172 93.5487 79.5018C93.5487 79.3762 93.552 79.2505 93.553 79.1249C93.5539 78.9582 93.6214 78.8548 93.8028 78.8558C93.8184 78.8558 93.8344 78.8543 93.85 78.8529C94.592 78.7811 94.9631 79.1197 94.9631 79.8687C94.9631 81.4871 94.9631 83.105 94.9631 84.7233C94.9631 84.7861 94.9631 84.8489 94.9631 84.9118C94.9659 85.2832 95.1617 85.4703 95.5505 85.4728C96.0535 85.4751 96.5569 85.4671 97.0598 85.4765C97.4121 85.4832 97.4343 85.5101 97.4452 85.8539C97.4527 86.089 97.44 86.3252 97.4461 86.5608C97.4518 86.7837 97.345 86.8649 97.1306 86.8626C96.5805 86.8569 96.0303 86.8626 95.4802 86.8626C94.9772 86.8626 94.4738 86.8668 93.9709 86.8607C93.5619 86.856 93.5525 86.8493 93.5511 86.43C93.5464 85.2362 93.5492 84.0419 93.5492 82.8481H93.5487Z" fill="#686868"/>
<path d="M132.358 13.7899C132.333 13.2775 132.459 12.7982 132.623 12.3151C132.9 11.4953 133.553 11.0339 134.201 10.5583C134.304 10.4828 134.418 10.4781 134.479 10.6075C134.778 11.245 135.245 11.7975 135.396 12.5115C135.55 13.2411 135.488 13.9523 135.275 14.6536C134.987 15.6042 134.455 16.4179 133.797 17.1503C133.542 17.4341 133.441 17.4186 133.305 17.0691C133.008 16.3074 132.731 15.5381 132.452 14.7698C132.337 14.4529 132.362 14.1181 132.358 13.7889V13.7899Z" fill="#AAAAAA"/>
<path d="M108.183 21.317C108.183 21.6622 108.187 22.0079 108.182 22.3531C108.18 22.4607 108.184 22.5953 108.072 22.6468C107.947 22.7044 107.876 22.5793 107.805 22.5042C107.536 22.218 107.273 21.9266 107.011 21.6348C106.696 21.2844 106.363 20.9482 106.074 20.5774C105.266 19.5395 104.897 18.3371 104.812 17.039C104.773 16.4477 104.994 15.8961 105.11 15.329C105.146 15.1509 105.227 15.1051 105.407 15.2237C107.028 16.2928 107.833 17.8446 108.107 19.7213C108.185 20.2516 108.213 20.7829 108.183 21.317V21.317Z" fill="#AAAAAA"/>
<path d="M134.73 45.218C134.693 46.5365 134.339 47.7185 133.859 48.8698C133.738 49.1593 133.615 49.4492 133.473 49.7283C133.36 49.9498 133.27 49.963 133.133 49.7751C132.753 49.2561 132.353 48.7498 132.082 48.1595C131.976 47.9291 131.905 47.6892 131.911 47.4323C131.95 45.7851 132.279 44.2234 133.267 42.8577C133.35 42.7434 133.434 42.6287 133.524 42.521C133.841 42.1446 133.969 42.1531 134.173 42.6192C134.541 43.4636 134.675 44.3623 134.73 45.218H134.73Z" fill="#AAAAAA"/>
<path d="M163.173 21.4426C163.157 21.7557 163.159 22.0717 163.119 22.3819C163.056 22.8745 162.973 22.9108 162.572 22.6398C162.156 22.3583 161.75 22.0627 161.339 21.7732C161.133 21.6287 160.916 21.4984 160.725 21.3364C159.935 20.662 159.516 19.7922 159.389 18.7688C159.307 18.1134 159.578 17.5386 159.778 16.9464C159.819 16.8232 159.915 16.7812 160.041 16.8364C161.025 17.2662 162.002 17.6978 162.541 18.7235C162.92 19.4451 163.146 20.2021 163.159 21.019C163.162 21.1602 163.159 21.3014 163.159 21.4426C163.164 21.4426 163.168 21.4426 163.173 21.4431L163.173 21.4426Z" fill="#AAAAAA"/>
<path d="M131.602 24.6906C131.55 25.7474 131.296 26.6164 130.883 27.439C130.58 28.0439 130.211 28.6092 129.788 29.1381C129.539 29.4503 129.377 29.4404 129.268 29.0819C128.978 28.1214 128.634 27.1585 128.63 26.1479C128.625 24.7978 128.971 23.5638 130.15 22.7171C130.303 22.6075 130.441 22.4786 130.583 22.3544C130.734 22.2217 130.863 22.2496 130.988 22.3917C131.082 22.4989 131.172 22.6122 131.21 22.7487C131.398 23.4292 131.564 24.1144 131.601 24.6901L131.602 24.6906Z" fill="#AAAAAA"/>
<path d="M118.954 15.6824C118.922 16.0819 118.895 16.5679 118.84 17.0505C118.803 17.3678 118.678 17.4354 118.392 17.3017C118.194 17.2092 118.007 17.0883 117.83 16.9594C116.887 16.2704 116.15 15.4142 115.673 14.3356C115.29 13.4681 115.047 12.5609 114.841 11.641C114.785 11.3917 114.852 11.3142 115.061 11.3704C116.022 11.6287 116.933 11.9716 117.695 12.662C118.575 13.4587 118.936 14.4466 118.953 15.6824H118.954Z" fill="#AAAAAA"/>
<path d="M107.269 82.8031C107.269 81.7023 107.269 80.601 107.269 79.5002C107.269 79.3746 107.272 79.2485 107.273 79.1229C107.274 78.9548 107.347 78.8547 107.525 78.8542C107.84 78.8537 108.155 78.8542 108.469 78.8542C108.646 78.8542 108.724 78.952 108.731 79.1187C108.735 79.2287 108.738 79.3387 108.738 79.4488C108.738 81.7292 108.739 84.0096 108.738 86.2906C108.738 86.861 108.735 86.862 108.17 86.8629C107.95 86.8634 107.729 86.8601 107.509 86.8577C107.357 86.8558 107.279 86.7779 107.276 86.6249C107.274 86.4993 107.27 86.3732 107.27 86.2476C107.269 85.0996 107.27 83.9516 107.27 82.8031H107.269Z" fill="#696969"/>
<path d="M126.618 82.8518C126.618 81.6745 126.616 80.4972 126.619 79.3195C126.621 78.8572 126.627 78.8562 127.101 78.8501C127.305 78.8477 127.51 78.8591 127.714 78.8496C127.961 78.8383 128.046 78.9592 128.042 79.1915C128.035 79.5367 128.042 79.8824 128.042 80.2276C128.042 82.2058 128.042 84.1835 128.042 86.1618C128.042 86.2557 128.044 86.3502 128.041 86.4442C128.028 86.8517 128.028 86.8536 127.606 86.8616C127.387 86.8654 127.166 86.8531 126.947 86.8635C126.701 86.8748 126.616 86.7591 126.617 86.5254C126.623 85.8033 126.618 85.0813 126.617 84.3592C126.617 83.8568 126.617 83.3543 126.617 82.8523L126.618 82.8518Z" fill="#686868"/>
<path d="M161.556 31.3361C161.582 32.3363 161.262 33.1693 160.841 33.9683C160.607 34.4127 160.342 34.8443 160.008 35.2231C159.784 35.4753 159.647 35.4521 159.553 35.1277C159.317 34.3131 159.04 33.4947 159.039 32.6423C159.037 31.474 159.318 30.393 160.339 29.6516C160.415 29.5964 160.483 29.5293 160.554 29.4674C160.911 29.1572 161.087 29.2006 161.268 29.6507C161.309 29.7517 161.336 29.8603 161.354 29.968C161.437 30.4464 161.615 30.9115 161.556 31.3356V31.3361Z" fill="#AAAAAA"/>
<path d="M165.991 32.9115C166.006 33.4158 165.938 33.881 165.772 34.3287C165.541 34.953 165.14 35.4431 164.592 35.8219C164.188 36.101 163.752 36.3168 163.311 36.525C162.904 36.7172 162.778 36.636 162.777 36.1642C162.775 35.4337 162.906 34.723 163.187 34.0477C163.548 33.1783 164.116 32.4463 164.766 31.7743C164.974 31.5594 165.187 31.3498 165.403 31.1429C165.543 31.0093 165.658 31.0272 165.708 31.2256C165.848 31.789 166.044 32.3434 165.991 32.911V32.9115Z" fill="#AAAAAA"/>
<path d="M157.101 20.0484C157.036 21.0519 156.637 21.8698 156.014 22.5886C155.621 23.0429 155.153 23.4117 154.646 23.729C154.41 23.8764 154.298 23.8391 154.301 23.5944C154.312 22.7661 154.116 21.935 154.278 21.1128C154.528 19.8472 155.247 18.9618 156.498 18.5481C156.639 18.5013 156.782 18.4489 156.83 18.6581C156.939 19.1313 157.055 19.6031 157.101 20.0479V20.0484Z" fill="#AAAAAA"/>
<path d="M105.086 23.6783C105.119 24.2139 105.045 24.6955 104.947 25.173C104.88 25.5045 104.796 25.5437 104.494 25.4034C103.966 25.1569 103.473 24.866 103.071 24.4212C102.507 23.7969 102.392 23.0918 102.62 22.3188C102.776 21.7894 103.056 21.3105 103.355 20.8477C103.523 20.5871 103.644 20.5672 103.886 20.7873C104.559 21.3988 105.013 22.1346 105.083 23.064C105.1 23.2826 105.086 23.5036 105.086 23.6783Z" fill="#AAAAAA"/>
<path d="M149.552 4.19385C149.605 4.2354 149.643 4.24957 149.649 4.27271C149.883 5.18272 150.205 6.08469 150.119 7.04098C150.025 8.08132 149.57 8.92852 148.646 9.48387C148.336 9.67087 148.326 9.66332 148.165 9.34409C147.388 7.80836 147.764 6.41951 148.709 5.11094C148.953 4.77328 149.206 4.43233 149.552 4.19385V4.19385Z" fill="#AAAAAA"/>
<path d="M157.1 13.2579C157.091 12.1925 157.573 11.3241 158.214 10.5241C158.379 10.3187 158.489 10.3262 158.597 10.56C158.881 11.172 159.186 11.7803 159.361 12.4334C159.664 13.5686 159.221 14.728 158.258 15.4217C158.132 15.5128 158.031 15.5719 157.898 15.4198C157.382 14.8328 157.1 14.0829 157.1 13.2574V13.2579Z" fill="#AAAAAA"/>
<path d="M158.809 25.2022C158.83 24.3644 159.287 23.3624 159.934 22.432C160.076 22.2276 160.176 22.2342 160.259 22.458C160.533 23.1919 160.875 23.9158 160.946 24.7012C161.052 25.8529 160.728 26.873 159.827 27.6621C159.691 27.7816 159.595 27.8557 159.461 27.6484C158.995 26.9306 158.798 26.3172 158.808 25.2027L158.809 25.2022Z" fill="#AAAAAA"/>
<path d="M110.559 11.425C110.559 11.1742 110.545 10.922 110.563 10.6722C110.583 10.3752 110.673 10.3289 110.911 10.5018C111.291 10.779 111.648 11.0869 112.028 11.3641C112.655 11.8207 113.011 12.4403 113.214 13.1756C113.378 13.7678 113.267 14.3236 113.076 14.8808C112.999 15.1066 112.872 15.1033 112.676 15.0182C111.285 14.4157 110.635 13.3224 110.552 11.8481C110.544 11.7074 110.551 11.5657 110.551 11.4245C110.554 11.4245 110.557 11.4245 110.56 11.4245L110.559 11.425Z" fill="#AAAAAA"/>
<path d="M112.82 47.537C112.848 47.3613 112.715 47.0581 112.909 46.9571C113.144 46.8352 113.307 47.1304 113.486 47.265C113.786 47.4912 114.085 47.7221 114.362 47.9757C115.396 48.9249 115.87 50.0715 115.552 51.4816C115.482 51.7942 115.427 51.8079 115.138 51.6766C114.012 51.1652 113.371 50.2594 113.043 49.1034C112.902 48.6047 112.822 48.0933 112.82 47.5365L112.82 47.537Z" fill="#AAAAAA"/>
<path d="M140.67 30.478C140.628 31.3238 140.386 32.0293 139.736 32.5539C139.481 32.7603 139.482 32.7565 139.262 32.5048C138.094 31.1712 138.414 29.6341 139.014 28.5092C139.124 28.3024 139.264 28.1102 139.401 27.9189C139.479 27.8103 139.608 27.7872 139.672 27.9109C140.108 28.7416 140.644 29.5354 140.669 30.478H140.67Z" fill="#AAAAAA"/>
<path d="M137.172 16.3632C137.115 15.448 137.513 14.7198 138.114 14.0789C138.605 13.5562 139.198 13.1732 139.853 12.8889C140.139 12.7647 140.241 12.8436 140.19 13.1557C140.093 13.7441 140.035 14.351 139.84 14.9082C139.448 16.0307 138.69 16.8014 137.467 17.0205C137.17 17.0739 137.165 17.0692 137.171 16.74C137.174 16.6144 137.171 16.4888 137.171 16.3632H137.172Z" fill="#AAAAAA"/>
<path d="M163.828 24.2969C164.538 25.204 165.067 26.1702 164.741 27.39C164.543 28.1329 164.023 28.6646 163.488 29.1784C163.372 29.2899 163.249 29.2568 163.178 29.1208C163.106 28.9829 163.048 28.8356 163.003 28.6863C162.735 27.8066 162.737 26.9249 163.006 26.046C163.162 25.5351 163.369 25.043 163.594 24.5594C163.639 24.464 163.666 24.3488 163.828 24.2969H163.828Z" fill="#AAAAAA"/>
<path d="M135.456 18.554C135.533 19.3086 135.706 20.0325 135.663 20.7678C135.596 21.8974 135.23 22.9118 134.345 23.6825C134.076 23.9167 134.034 23.8988 133.913 23.5583C133.496 22.381 133.752 21.2712 134.248 20.1893C134.476 19.6897 134.78 19.2311 135.112 18.7924C135.183 18.697 135.244 18.5757 135.457 18.554H135.456Z" fill="#AAAAAA"/>
<path d="M107.996 42.4946C107.985 42.9064 107.792 43.2186 107.641 43.5449C107.584 43.6696 107.477 43.6795 107.361 43.6441C107.031 43.5425 106.689 43.4665 106.375 43.3281C105.945 43.1383 105.631 42.803 105.449 42.3662C105.205 41.7797 105.218 41.1724 105.34 40.5599C105.381 40.3511 105.476 40.2402 105.697 40.3403C106.241 40.5863 106.802 40.804 107.29 41.1506C107.757 41.4812 107.948 41.9742 107.996 42.4951V42.4946Z" fill="#AAAAAA"/>
<path d="M125.286 3.18379C125.303 2.42821 125.363 2.38618 126.057 2.60388C127.133 2.94106 127.671 3.74245 127.922 4.7776C127.988 5.04819 128.04 5.33201 128.001 5.61724C127.975 5.81416 127.854 5.91003 127.672 5.82786C126.873 5.46612 126.034 5.15586 125.591 4.30441C125.406 3.95118 125.265 3.59086 125.287 3.18379H125.286Z" fill="#AAAAAA"/>
<path d="M120.67 29.9807C120.674 30.6531 120.623 30.6857 120.023 30.3901C119.798 30.2791 119.572 30.1705 119.349 30.0548C118.38 29.55 117.852 28.4893 118.027 27.4249C118.058 27.2365 118.115 27.1491 118.332 27.1893C119.677 27.4396 120.66 28.6065 120.67 29.9807Z" fill="#AAAAAA"/>
<path d="M114.816 8.22375C114.831 9.09787 114.569 9.77222 114.07 10.3554C113.863 10.5963 113.761 10.5892 113.617 10.3158C113.427 9.95451 113.238 9.59041 113.087 9.21167C112.704 8.25067 112.995 7.13807 113.774 6.47458C113.899 6.36785 113.998 6.30929 114.121 6.4741C114.532 7.02426 114.892 7.59237 114.816 8.22422V8.22375Z" fill="#AAAAAA"/>
<path d="M103.036 34.5955C104.209 35.4181 105.186 36.244 105.247 37.7165C105.256 37.9328 105.21 38.1524 105.177 38.3686C105.126 38.703 105.082 38.7205 104.797 38.5689C104.15 38.2241 103.678 37.7193 103.391 37.044C103.074 36.2974 102.923 35.5258 103.036 34.5955Z" fill="#AAAAAA"/>
<path d="M110.924 46.8324C110.277 46.8834 109.66 46.8792 109.043 46.7753C108.094 46.6152 107.408 46.09 106.949 45.2556C106.773 44.9364 106.808 44.8584 107.18 44.7999C107.768 44.7069 108.338 44.7697 108.884 45.0195C109.688 45.3878 110.345 45.9333 110.865 46.6449C110.89 46.6789 110.893 46.729 110.924 46.8324H110.924Z" fill="#AAAAAA"/>
<path d="M156.53 40.0017C155.953 41.7948 155.172 43.3319 153.429 44.1517C153.346 44.1905 153.268 44.2547 153.166 44.2112C153.173 42.8427 154.946 40.5863 156.53 40.0017Z" fill="#AAAAAA"/>
<path d="M133.781 52.8152C133.765 53.1845 133.717 53.5103 133.632 53.8272C133.555 54.1105 133.449 54.1488 133.246 53.9603C132.926 53.6624 132.588 53.3748 132.334 53.0168C131.868 52.3609 131.735 51.6502 132.065 50.8894C132.253 50.4549 132.259 50.47 132.655 50.7113C133.465 51.2048 133.731 51.9689 133.782 52.8156L133.781 52.8152Z" fill="#AAAAAA"/>
<path d="M112.656 44.0596C111.034 43.7333 109.599 41.79 109.152 40.5358C109.275 40.4479 109.357 40.5561 109.444 40.6042C109.815 40.8092 110.194 41.0028 110.548 41.2333C111.58 41.9024 112.336 42.7841 112.656 44.0601V44.0596Z" fill="#AAAAAA"/>
<path d="M109.522 13.6919C109.437 14.5136 109.228 15.2022 108.533 15.6385C108.278 15.7981 108.237 15.7891 108.109 15.5186C107.869 15.0095 107.764 14.49 107.913 13.9233C108.09 13.2494 108.441 12.6884 108.924 12.203C109.073 12.0537 109.172 12.0778 109.22 12.2795C109.336 12.7663 109.431 13.2584 109.522 13.6919V13.6919Z" fill="#AAAAAA"/>
<path d="M146.222 20.7865C146.219 21.6404 146.006 22.1405 145.368 22.386C145.074 22.4989 144.786 22.6288 144.613 22.9201C144.581 22.9749 144.518 23.0009 144.45 22.9763C144.379 22.9503 144.37 22.8819 144.366 22.8214C144.335 22.3317 144.349 21.8458 144.555 21.3882C144.673 21.1237 144.846 20.9056 145.125 20.7875C145.284 20.72 145.436 20.6359 145.596 20.5707C146.164 20.3393 146.221 20.3809 146.223 20.787L146.222 20.7865Z" fill="#AAAAAA"/>
<path d="M89.4905 65.8931C88.9464 63.9933 87.7295 62.6979 85.8486 62.0529C85.067 61.7851 84.2538 61.7043 83.2815 61.6973C83.0694 61.7119 82.7077 61.7275 82.3478 61.7624C79.8577 62.0023 77.9324 63.6495 77.3166 66.0726C76.9738 67.4217 76.9421 68.7865 77.2576 70.1376C77.8276 72.5767 79.3335 74.0983 81.8114 74.613C82.7766 74.8132 83.7476 74.8118 84.7223 74.6796C87.1009 74.3566 88.9049 72.7864 89.5207 70.4606C89.923 68.9405 89.923 67.4057 89.49 65.8936L89.4905 65.8931ZM85.8141 71.2851C85.7012 71.713 85.5425 72.1229 85.3083 72.4993C84.437 73.8985 82.523 73.9353 81.6045 72.5677C81.1743 71.9269 80.984 71.1978 80.8773 70.4455C80.6346 68.7365 80.6383 67.0317 81.0072 65.3382C81.1148 64.8443 81.2933 64.3744 81.5682 63.9465C82.4725 62.5388 84.3993 62.5393 85.2998 63.9517C85.7229 64.6157 85.8892 65.367 86.0068 66.1321C86.1144 66.8333 86.1305 67.5398 86.1262 68.3218C86.138 69.2724 86.0766 70.2897 85.8136 71.2856L85.8141 71.2851Z" fill="#494949"/>
<path d="M26.2059 65.9086C25.6345 63.9181 24.3434 62.5954 22.3486 61.9876C21.636 61.7704 20.8993 61.7066 20.0016 61.6953C19.7796 61.7109 19.4023 61.726 19.0269 61.7652C16.5632 62.023 14.6809 63.6206 14.0471 66.0121C13.6486 67.5175 13.642 69.0377 14.0698 70.5328C14.6667 72.6187 16.0235 73.9707 18.1386 74.5256C19.2186 74.8089 20.3133 74.8297 21.4164 74.6805C23.8206 74.3551 25.6264 72.7783 26.2403 70.4298C26.6337 68.9234 26.6342 67.4028 26.2054 65.9086H26.2059ZM22.5503 71.1736C22.4615 71.5897 22.3113 71.9873 22.1007 72.3599C21.6738 73.1164 21.0523 73.5509 20.1589 73.5556C19.2668 73.5603 18.6345 73.1386 18.201 72.3854C17.8175 71.7191 17.6588 70.9838 17.5512 70.2334C17.4548 69.5628 17.4293 68.888 17.4416 68.2113C17.4241 67.2016 17.4945 66.2005 17.7471 65.2192C17.8812 64.6988 18.073 64.2015 18.4031 63.768C19.2928 62.5997 21.0122 62.6053 21.8934 63.7788C22.2202 64.2142 22.4232 64.7101 22.5385 65.2343C22.9725 67.2115 22.9725 69.1935 22.5507 71.1731L22.5503 71.1736Z" fill="#494949"/>
<path d="M124.252 83.9721C124.089 83.5778 124.061 83.5504 124.429 83.3356C124.732 83.1589 124.956 82.895 125.129 82.5866C125.393 82.1139 125.428 81.6034 125.401 81.0787C125.339 79.8599 124.649 79.0892 123.448 78.9107C122.651 78.7922 121.848 78.8729 121.048 78.8512C120.821 78.845 120.739 78.9584 120.745 79.1681C120.748 79.2937 120.743 79.4193 120.743 79.5449C120.743 81.7436 120.741 83.9424 120.744 86.1416C120.745 86.9605 120.682 86.858 121.489 86.8608C122.219 86.8632 122.163 86.9312 122.166 86.1671C122.169 85.4918 122.166 84.8165 122.171 84.1412C122.172 84.0194 122.161 83.8777 122.336 83.8508C122.504 83.8248 122.649 83.8465 122.721 84.0316C122.784 84.1927 122.855 84.3499 122.921 84.51C123.202 85.1924 123.481 85.8753 123.763 86.5577C123.822 86.7022 123.869 86.8613 124.074 86.8585C124.495 86.8533 124.918 86.8929 125.332 86.8301C125.401 86.6436 125.296 86.5085 125.239 86.3683C124.914 85.5683 124.584 84.7702 124.253 83.9721H124.252ZM123.878 81.951C123.762 82.1946 123.573 82.3467 123.319 82.4218C123.23 82.4482 123.136 82.4662 123.042 82.4766C122.2 82.5686 122.167 82.5389 122.167 81.6974C122.167 81.3517 122.162 81.0055 122.169 80.6599C122.177 80.2769 122.189 80.2703 122.573 80.258C122.62 80.2566 122.667 80.258 122.714 80.258C122.762 80.258 122.809 80.2566 122.856 80.258C123.793 80.2892 124.282 81.1 123.878 81.951H123.878Z" fill="#686868"/>
<path d="M14.0136 80.5253C13.6306 79.5912 12.9355 79.0476 11.9249 78.9046C11.3445 78.8224 10.7637 78.8559 10.1828 78.8517C9.51553 78.8465 9.5297 78.7936 9.5297 79.4807C9.5297 80.5966 9.5297 81.712 9.5297 82.8279C9.5297 83.0636 9.5297 83.2992 9.5297 83.5348C9.5297 84.5091 9.52639 85.4833 9.53253 86.458C9.53489 86.8419 9.55142 86.8547 9.93346 86.8604C10.4052 86.867 10.877 86.8641 11.3488 86.8622C12.7603 86.857 13.6958 86.1709 14.1326 84.8326C14.3003 84.3192 14.3668 83.7889 14.3942 83.2567C14.4419 82.325 14.372 81.4008 14.0136 80.5257V80.5253ZM12.817 84.1398C12.7678 84.3868 12.6843 84.6234 12.5506 84.8401C12.3499 85.165 12.0614 85.3671 11.6878 85.438C11.0385 85.5612 10.9554 85.4899 10.9549 84.8255C10.954 84.1511 10.9549 83.4763 10.9549 82.8019H10.9559C10.9559 82.0804 10.9507 81.3588 10.9582 80.6372C10.962 80.2797 10.9884 80.2585 11.3318 80.2589C11.9381 80.2599 12.3853 80.5191 12.6432 81.0797C12.7622 81.3389 12.8283 81.6119 12.8661 81.8933C12.9667 82.6447 12.9662 83.3941 12.8179 84.1393L12.817 84.1398Z" fill="#686868"/>
<path d="M105.974 81.6889C105.926 81.2672 105.82 80.8554 105.646 80.4653C105.25 79.5794 104.581 79.0529 103.613 78.9103C102.909 78.8064 102.202 78.8682 101.497 78.8512C101.268 78.846 101.192 78.965 101.199 79.1723C101.202 79.2663 101.197 79.3608 101.197 79.4547C101.197 81.7149 101.197 83.9755 101.197 86.2356C101.197 86.3296 101.193 86.424 101.199 86.518C101.218 86.8349 101.23 86.85 101.566 86.8594C101.848 86.8675 102.131 86.8609 102.414 86.8609V86.8618C102.587 86.8618 102.759 86.8618 102.932 86.8618C104.479 86.8595 105.436 86.1308 105.842 84.6324C106.105 83.6624 106.086 82.6754 105.974 81.6884V81.6889ZM104.569 83.4598C104.535 83.8499 104.487 84.2414 104.324 84.6069C104.064 85.1901 103.625 85.4748 102.989 85.4663C102.677 85.4621 102.63 85.4309 102.626 85.1164C102.617 84.3622 102.623 83.6076 102.623 82.8534H102.622C102.622 82.1149 102.617 81.3763 102.624 80.6377C102.628 80.2788 102.655 80.2623 102.999 80.258C103.632 80.25 104.1 80.5579 104.337 81.1822C104.615 81.9175 104.635 82.6877 104.569 83.4598V83.4598Z" fill="#686868"/>
<path d="M43.0844 81.5866C43.0376 81.196 42.9276 80.8187 42.7666 80.457C42.3699 79.5673 41.6932 79.0535 40.727 78.9085C40.0852 78.8122 39.4411 78.8589 38.7979 78.8523C38.3261 78.8476 38.32 78.858 38.3186 79.3217C38.3148 80.4839 38.3171 81.6456 38.3171 82.8078C38.3171 84.0011 38.3171 85.1945 38.3171 86.3883C38.3171 86.4039 38.3171 86.42 38.3171 86.4355C38.3294 86.8511 38.3294 86.8554 38.744 86.8606C39.1997 86.8662 39.6555 86.8634 40.1112 86.862C41.5779 86.8577 42.5432 86.1319 42.9455 84.7166C43.2383 83.6857 43.2095 82.6364 43.0844 81.5866V81.5866ZM41.4826 84.5154C41.2578 85.1501 40.8233 85.4504 40.1659 85.4651C39.8023 85.4736 39.7527 85.4368 39.749 85.0741C39.7414 84.3355 39.7466 83.5964 39.7466 82.8579C39.7466 82.1349 39.7424 81.4119 39.748 80.6889C39.7513 80.2672 39.7877 80.2374 40.2146 80.2596C40.7874 80.2889 41.1893 80.5727 41.4301 81.0893C41.5784 81.4071 41.6403 81.7481 41.6738 82.0928C41.7527 82.9107 41.7616 83.7277 41.4826 84.5154V84.5154Z" fill="#686868"/>
<path d="M92.2769 81.7241C92.1919 81.0474 92.021 80.3985 91.6531 79.8153C90.7596 78.3986 88.7644 78.3542 87.8029 79.7279C87.5942 80.0264 87.4435 80.3537 87.3316 80.6989C87.1016 81.4086 87.0218 82.1387 87.0615 82.8815C87.0615 83.1639 87.0388 83.4487 87.0658 83.7283C87.1451 84.5481 87.3193 85.3447 87.8062 86.0333C88.7228 87.3286 90.6222 87.3315 91.5506 86.0441C91.8396 85.6432 92.021 85.1927 92.1385 84.7167C92.3817 83.7292 92.403 82.73 92.2764 81.7241H92.2769ZM90.7431 84.4116C90.7124 84.5646 90.6666 84.7176 90.6047 84.8607C90.4328 85.2583 90.1839 85.5563 89.6947 85.5497C89.2111 85.5431 88.9505 85.2517 88.7875 84.8508C88.6936 84.6199 88.6189 84.3734 88.5859 84.1273C88.5292 83.708 88.4692 83.2872 88.4754 82.8608C88.4976 82.3276 88.525 81.7949 88.6449 81.2717C88.6945 81.0559 88.7653 80.8481 88.8806 80.6587C89.2725 80.0127 90.0427 79.9976 90.4616 80.628C90.6028 80.8401 90.6855 81.0781 90.736 81.3255C90.9471 82.3536 90.9504 83.3831 90.7431 84.4116V84.4116Z" fill="#686868"/>
<path d="M86.0958 82.8946C86.0958 82.5966 86.1175 82.2962 86.0916 82.0006C86.0245 81.2441 85.8621 80.5107 85.4574 79.8529C84.5639 78.4012 82.5672 78.3389 81.5826 79.7325C81.2979 80.1358 81.1269 80.59 81.0093 81.0661C80.7921 81.9449 80.7595 82.8384 80.8464 83.7323C80.9229 84.5167 81.0844 85.2855 81.5364 85.9585C82.4752 87.3563 84.4463 87.3587 85.3879 85.9641C85.574 85.6888 85.7105 85.3899 85.8144 85.0754C86.0481 84.367 86.1412 83.6388 86.0953 82.8951L86.0958 82.8946ZM84.5067 84.487C84.4708 84.6541 84.4085 84.8189 84.3358 84.9743C84.17 85.3261 83.9117 85.5481 83.4952 85.5495C83.0825 85.5509 82.8161 85.3389 82.6357 84.9951C82.4426 84.6277 82.3618 84.2277 82.325 83.8183C82.3066 83.6152 82.3009 83.4107 82.2896 83.2067C82.2707 82.5626 82.283 81.9199 82.4227 81.2871C82.4841 81.0089 82.5791 80.7421 82.7609 80.5169C83.1344 80.0536 83.7653 80.0465 84.1502 80.4999C84.3268 80.7081 84.4312 80.9551 84.4912 81.2172C84.7414 82.3052 84.74 83.3966 84.5067 84.4865V84.487Z" fill="#686868"/>
<path d="M25.6708 81.0766C25.5763 79.8549 24.8547 79.0833 23.6415 78.9024C22.9379 78.7976 22.23 78.8627 21.524 78.8528C21.0263 78.8457 21.0201 78.8571 21.0183 79.3487C21.0145 80.5104 21.0168 81.6726 21.0168 82.8343C21.0168 83.9648 21.0168 85.0954 21.0168 86.2259C21.0168 86.3515 21.0206 86.4771 21.023 86.6027C21.0268 86.7746 21.1127 86.8592 21.287 86.8587C21.5538 86.8577 21.8211 86.8677 22.0879 86.8596C22.4133 86.8502 22.4354 86.8332 22.4406 86.5059C22.4501 85.9095 22.4454 85.3126 22.4439 84.7161C22.4425 83.8907 22.4449 84.0323 23.1178 84.0031C23.7785 83.9743 24.3882 83.8061 24.8916 83.349C25.5688 82.7342 25.7378 81.945 25.6708 81.0766V81.0766ZM24.2488 81.5148C24.2191 82.1797 23.8526 82.5557 23.1934 82.5991C22.695 82.6318 22.4457 82.393 22.4454 81.8827C22.4454 81.7259 22.4454 81.5696 22.4454 81.4128H22.4501C22.4501 81.1153 22.4501 80.8178 22.4501 80.5203C22.4501 80.3508 22.5271 80.2577 22.7046 80.2601C22.8298 80.262 22.9554 80.2549 23.0805 80.2582C23.8847 80.2809 24.2852 80.712 24.2488 81.5144V81.5148Z" fill="#686868"/>
<path d="M1.79442 82.8811C1.79442 84.0112 1.79442 85.1417 1.79442 86.2718C1.79442 86.3974 1.79017 86.523 1.7845 86.6482C1.77837 86.7775 1.70989 86.8484 1.57861 86.855C1.56302 86.8559 1.54744 86.8569 1.53186 86.8588C0.425873 87.0009 0.371094 86.9537 0.371094 85.8501C0.371094 83.7462 0.371094 81.6429 0.371094 79.5395C0.371094 79.4139 0.377233 79.2883 0.372983 79.1627C0.365427 78.9469 0.462236 78.8487 0.681827 78.851C2.0466 78.8661 1.77175 78.6768 1.79159 79.8668C1.80859 80.8713 1.79489 81.8762 1.79489 82.8806L1.79442 82.8811Z" fill="#686868"/>
</svg>
