<svg xmlns="http://www.w3.org/2000/svg" viewBox="0 0 371.63 241"><defs><style>.cls-1{fill:#575757;}</style></defs><title>mcps</title><g id="Layer_1" data-name="Layer 1"><g id="mVWrJA.tif"><path class="cls-1" d="M193.41,16.55c.21.2.53.37.59.61a4,4,0,0,1,.19,1.77c-.05.24-.77.37-1.2.49-2.89.87-5.79,1.7-8.68,2.59-.71.22-.92.8-.84,1.57a12.85,12.85,0,0,0,1.92,5.66c1.89,2.95,3.81,5.89,5.86,8.74a34,34,0,0,0,3,3,3.16,3.16,0,0,1,.88,1.51,6.06,6.06,0,0,0,4.18,4.18,1.44,1.44,0,0,1,.72.52c.36.44.66.92,1.07,1.51.4-.9.27-1.46-.43-1.81-1.15-.55-1.31-1.57-1.31-2.67a2.14,2.14,0,0,1,.07-.43c.59-2.85.2-3.39-2.61-3.71-.31,0-.62-.1-1.23-.2a7.22,7.22,0,0,1,1.07-.77c2.14-.94,4.26-1.93,6.45-2.7a5.13,5.13,0,0,1,2.47.16c2.44.48,4.86,1,7.45,1.56-1.24,1.31-.66,2.73-.63,4.09a15.38,15.38,0,0,1-.27,3.38c-1.67-1.79-.33-4-1-6A1.57,1.57,0,0,0,210,41.72c.16.56.3,1.13.45,1.69a2.73,2.73,0,0,1-1.3,3.33c-.27.18-.23.79-.34,1.21.31,0,.76.11.9-.05,1.76-2,3.8-2.08,6.18-.88l2.55-4.31c.11-.19.18-.5.33-.56,1.59-.6,1.75-2.43,3-3.38A25.74,25.74,0,0,0,225,35.51c2.38-2.67,4.73-5.38,7.06-8.1a3.26,3.26,0,0,0,.71-3.27,3.41,3.41,0,0,1,1.53-3.92,2.12,2.12,0,0,1,1.68-.06c1.37.47,2.69,2.78,2.2,4.06A23.22,23.22,0,0,1,236.14,28c-.61,1-1.42,1.82-2,2.8s-1.21,2.33-1.9,3.45c-.41.67-.37,1.17.23,1.6.82.61.74,1.18.11,1.89-1.08,1.24-2,2.62-3.2,3.75a11.38,11.38,0,0,0-3,4.8,13.53,13.53,0,0,1-.82,2.26,12,12,0,0,1-1.45,1.85c-.94,1.11-1.95,2.16-2.83,3.32-1.41,1.86-2.54,4-4.65,5.18a1.09,1.09,0,0,0-.38.72,44.51,44.51,0,0,0,1.82,18.71c.92,2.73.88,5.84,1,8.78A44.2,44.2,0,0,0,221,99.33c1.21,3.71,2.14,7.51,3.24,11.26.27.92-.18,1.27-.91,1.55-1.23.48-1.18.6-.82,1.86,1.39,4.87,2.7,9.77,4.07,14.65.44,1.57,1,3.12,1.49,4.68,0,.17.18.42.11.52-.92,1.39.46,2.11.9,3.09.36.81.78,1.59,1.18,2.37a6.58,6.58,0,0,1-8-1.36c-.9-1.11-1.92-1.8-3.45-1.2-1.48-5.07-3.49-10-3.87-15.27a35.55,35.55,0,0,0-.72-3.76c-.45-2.56-3-3.2-4.88-2.15q-2.25,1.25-4.55,2.42a4.53,4.53,0,0,1-4,.38,2,2,0,0,0-1.56.38,7.82,7.82,0,0,0-2.77,5,31.11,31.11,0,0,1-3.27,8.2,24.92,24.92,0,0,0-1.73,4.47c-.26.85-.8.59-1.29.52a2.9,2.9,0,0,0-2.17.59c-2.38,1.59-5,2.8-8,2.16-1-.2-1.17-.77-1-1.68a4.32,4.32,0,0,1,2.17-2.63c.78-.53,1.41-1,.85-2.13-.13-.26.32-.82.55-1.35a34.63,34.63,0,0,1,1.92-5c1.7-3.08,2.43-6.48,3.56-9.74.4-1.14.73-2.31,1.17-3.43a24.31,24.31,0,0,0,1.41-7.34c.19-2.8,1.15-5.55,1.75-8.33,1-4.49,2-9,2.84-13.47.39-2.14.29-4.38.52-6.56.28-2.61.74-5.2,1-7.82A21.91,21.91,0,0,0,194.64,58a6.37,6.37,0,0,0-1.18-1.43c-1.52-1.61-3.1-3.18-4.57-4.84-.35-.39-.31-1.1-.51-1.64-.72-1.86-1.47-3.7-2.2-5.55a1.52,1.52,0,0,1-.2-.6,5.93,5.93,0,0,0-1.88-4.07,10.88,10.88,0,0,1-1.48-2.14,2.56,2.56,0,0,1,.45-3.39,1.33,1.33,0,0,0,.38-1.15c-1.17-3-2.43-5.94-3.64-8.91a1.47,1.47,0,0,0-1.91-1c-1.7.41-3.4.86-5.1,1.27s-2.4.09-3.12-1.45l3.7-1.28c1.55-.52,3.14-.95,4.65-1.59.61-.25,1-1,1.55-1.42.82-.64,1.69-1.26,2.85-.86.1,0,.28,0,.31.05.79,1.26,2,.73,2.91.47,2-.54,4-1.28,6-1.94Z"/><path class="cls-1" d="M23.29,159.2c1.83,0,3.66.05,5.49,0A1.07,1.07,0,0,1,30,160c2.47,6.28,5,12.55,7.48,18.82,0,.06.1.09.14.12q3.81-9.45,7.61-18.93a1.06,1.06,0,0,1,1.2-.8c1.82,0,3.65,0,5.57,0v2.14H49.15V180.6H52v2.16H44v-2.13h2.38V164.05c-1.08,2.67-2.09,5.14-3.1,7.62-1.4,3.45-2.84,6.88-4.17,10.36-.35.93-1,.79-1.65.79s-1.29.13-1.66-.79c-2.34-5.9-4.76-11.76-7.31-17.63v16.16l2.66.14v2H23.29v-2l2.73-.2V161.4H23.29Z"/><path class="cls-1" d="M340.24,167.55c-1.88.07-1.89.07-2.54,1.86-1.87,5.08-3.67,10.17-5.61,15.21a21,21,0,0,1-2.33,4.32c-1.68,2.45-4.16,3.05-7,2.55-.22,0-.47-.35-.58-.6a1.75,1.75,0,0,1,0-.76c0-.32,0-.64,0-.87a16.66,16.66,0,0,0,2.65,0,5.81,5.81,0,0,0,4.06-3.24,4.51,4.51,0,0,0,.31-4.5c-1.88-4.27-3.52-8.65-5.22-13a1.19,1.19,0,0,0-1.33-.94c-2.05.06-4.09,0-6.25,0-.05.56-.14,1.06-.14,1.56,0,2.78-.05,5.57,0,8.35s1,3.62,3.72,3.27c.71-.09,1.42-.28,2.13-.43.44,1.87.22,2.27-1.58,2.61a12.92,12.92,0,0,1-2.4.23c-3.1,0-4.63-1.4-4.68-4.51-.06-3.4.06-6.8.11-10.2v-.87h-2.71v-2.18h2.8v-4.16l2.77-.25v4.33H328.9v2.2l-2,.1c1.53,4,3,8,4.57,12.05,1.43-4,2.84-8,4.3-12.08h-2.31v-2.24h6.83Z"/><path class="cls-1" d="M118.24,216.13c-1.16-.29-2.32-.6-3.5-.86-.72-.17-.95-.54-.94-1.3,0-5.93.06-11.86.07-17.79v-1.33h-2.49v-2.39h5.82v10a14.45,14.45,0,0,1,1.07-1.32,6.29,6.29,0,0,1,9.46,1.15c2,3.29,1.23,9.05-1.56,11.71a9.73,9.73,0,0,1-4.85,2.11Zm7-9c0-.33,0-.66-.08-1-.27-2.34-1.52-3.59-3.62-3.62a3.81,3.81,0,0,0-4.11,3.55c-.18,2-.18,3.95-.2,5.92a1,1,0,0,0,.5.79c3.31,1.19,6.61.27,7.36-4C125.14,208.18,125.15,207.63,125.2,207.08Z"/><path class="cls-1" d="M181.54,216.13c-1.57-.29-3.15-.59-4.73-.86-.68-.11-.9-.45-.88-1.11,0-1.42,0-2.84,0-4.31h3.43a12.62,12.62,0,0,1,0,1.63c-.16,1,.35,1.42,1.28,1.6a9,9,0,0,0,4.76,0,3.11,3.11,0,0,0,2.11-2.07,2.46,2.46,0,0,0-1.47-3.4c-1.59-.62-3.26-1-4.9-1.55-.55-.17-1.12-.33-1.66-.55a5,5,0,0,1-3.44-4.4,5.58,5.58,0,0,1,2.86-5.82c2.43-1.37,5.06-1.27,7.69-1a28.21,28.21,0,0,1,3.12.62.87.87,0,0,1,.83,1c-.06,1.27,0,2.55,0,3.9h-3.25c0-.33,0-.61-.05-.9,0-1.7,0-1.82-1.74-2a12.24,12.24,0,0,0-3.77.3,2.63,2.63,0,0,0-2.12,2.61,2.56,2.56,0,0,0,2,2.51c1.45.46,2.94.84,4.41,1.25.28.08.57.14.84.23,3,.89,4.4,2.6,4.51,5.34a6.08,6.08,0,0,1-4.16,6.29c-.82.3-1.69.46-2.53.68Z"/><path class="cls-1" d="M98.24,216.13c-3.26-1.35-4.19-2.77-4.2-6.45,0-2.36,0-4.73,0-7.16l-1.88-.08V200h5.36c0,2.12,0,4.23,0,6.33,0,1.28,0,2.56,0,3.83a2.94,2.94,0,0,0,2.26,3,3.51,3.51,0,0,0,3.74-1.45,5.49,5.49,0,0,0,.94-2.4c.13-2.22,0-4.44,0-6.73l-1.84-.08V200h5.36V213.2l2,.09v2.34h-5.43l.19-2.49a7.19,7.19,0,0,1-4.37,3Z"/><path class="cls-1" d="M253.86,216.13l-1.15-.31c-3.55-1-5.48-3.88-5.32-8.15.12-3.23,1.4-5.86,4.41-7.26a8.16,8.16,0,0,1,8.63.58c2.49,1.8,3.06,4.54,3,7.41-.15,4.33-2.79,7-6.39,7.57-.1,0-.19.1-.29.16Zm-3-8.29.18,0c0,.29,0,.58,0,.88.22,2.57,1.82,4.3,4.13,4.47a4.16,4.16,0,0,0,4.35-3.55,12.21,12.21,0,0,0,0-4,3.69,3.69,0,0,0-3.3-3.19,4.09,4.09,0,0,0-4.53,2.33A21.29,21.29,0,0,0,250.83,207.84Z"/><path class="cls-1" d="M235.83,216.13l-1-.28a6.78,6.78,0,0,1-5-4.65c-1.46-4.41.32-9.16,4.1-10.89,6.15-2.81,12,1.42,11.46,8.29-.28,3.8-2.51,6.8-6.41,7.37a.72.72,0,0,0-.28.16Zm6-8.17c-.13-.91-.18-1.57-.32-2.21a3.87,3.87,0,0,0-3.26-3.25,4.21,4.21,0,0,0-4.64,2.35,7,7,0,0,0-.19,5.75,3.92,3.92,0,0,0,3.82,2.62,3.79,3.79,0,0,0,3.81-2.44A24,24,0,0,0,241.87,208Z"/><path class="cls-1" d="M279.57,216.13l-3.2-.68a.84.84,0,0,1-.81-.95c0-1.16,0-2.33,0-3.57h2.89a1.71,1.71,0,0,1,.1.36c.19,1.86.31,2,2.19,2.18a11.13,11.13,0,0,0,2.82-.19,1.81,1.81,0,0,0,1.54-2c0-1.12-.73-1.55-1.63-1.76-1.56-.37-3.16-.57-4.7-1-2.89-.82-4.09-2.8-3.33-5.45.67-2.28,2.53-3.11,4.65-3.43a14,14,0,0,1,6.7.66c.26.09.66.35.67.56.06,1.15,0,2.31,0,3.52h-2.88c-.06-.23-.2-.45-.16-.64.25-1.3-.59-1.61-1.57-1.65a13,13,0,0,0-2.71.18,1.62,1.62,0,0,0-1.45,1.67,1.58,1.58,0,0,0,1.43,1.57c1.46.35,2.93.62,4.4.91,2.36.46,3.59,1.58,3.8,3.48.29,2.68-.65,4.54-2.87,5.45a20.71,20.71,0,0,1-2.62.74Z"/><path class="cls-1" d="M201.1,216.13c-.46-.11-.92-.2-1.38-.32a7.64,7.64,0,0,1-5.74-8.35c.41-5.29,3.81-8.26,9.15-7.9a19.73,19.73,0,0,1,3.22.56,1.07,1.07,0,0,1,.65.78c.07,1.27,0,2.55,0,3.91h-2.8a8.34,8.34,0,0,1-.07-.85c0-1.59-.08-1.61-1.63-1.69-3.76-.2-5.39,2.81-5.07,5.9.42,4,3.37,5.83,7.63,4.78.59-.15,1.18-.35,1.9-.56-.06.92-.09,1.78-.21,2.62,0,.19-.37.41-.61.49-.8.24-1.62.42-2.43.63Z"/><path class="cls-1" d="M157.15,216.13c-.47-.11-.93-.2-1.39-.32a7.64,7.64,0,0,1-5.74-8.35c.41-5.29,3.81-8.26,9.15-7.9a19.73,19.73,0,0,1,3.22.56,1.07,1.07,0,0,1,.65.78c.07,1.27,0,2.55,0,3.91h-2.8a8.34,8.34,0,0,1-.07-.85c0-1.59-.08-1.61-1.63-1.69-3.74-.19-5.34,2.75-5.09,5.79.36,4.1,3.34,6,7.65,4.89.59-.15,1.18-.35,1.9-.56-.06.92-.09,1.78-.21,2.62,0,.19-.37.41-.61.49-.8.24-1.62.42-2.43.63Z"/><path class="cls-1" d="M112.37,93.28c1.63,4.84,3.44,9.51,4.77,14.32s2.26,9.81,3.24,14.75a2.65,2.65,0,0,0,2,2.31,21.41,21.41,0,0,0,3,.45l4,.52a4.63,4.63,0,0,1-4.09,4.35,16.12,16.12,0,0,0-3.18,1,14.09,14.09,0,0,1-6.85.91c-1-3.22-1.9-6.3-2.78-9.4-.26-.91-.1-2-.57-2.76-1.06-1.66-.7-3.44-.9-5.18-.07-.58-.15-1.16-.25-1.73,0-.21-.12-.52-.27-.58-1.3-.52-1.38-1.87-2-2.86s-1.27-2.13-1.87-3.21c-.5-.9-1.19-1-1.85-.32a17.78,17.78,0,0,0-2.36,2.85c-1.45,2.3-2.71,4.73-4.17,7A18.08,18.08,0,0,1,93,121a24.61,24.61,0,0,0-2.06,1.45,4.39,4.39,0,0,0-.81,6.3,14.8,14.8,0,0,1,1.08,2.05,4.39,4.39,0,0,1-5.42-.68,13.21,13.21,0,0,0-3.86-2.84,7.73,7.73,0,0,1-1.69-1.2,2.64,2.64,0,0,1-.49-3.86c1.45-2.36,3-4.69,5.69-5.75a7,7,0,0,0,3.33-3,23.16,23.16,0,0,1,4.2-4.89A13.87,13.87,0,0,0,98,99.42c.12-.9.43-1.79.47-2.69a6.9,6.9,0,0,0-.3-2.52c-.34-1-.65-1.91.18-2.85a2.24,2.24,0,0,0,.31-1.24c.26-3,.52-6,.73-9,.1-1.31,0-2.63.12-3.94s.26-2.53.4-3.79c0-.39.07-.79.12-1.24l-1.9.91c-1.06-2-1.92-3.8-3-5.51a12.91,12.91,0,0,1-1.27-9.85c.24-1.14.26-2.35,1.5-3,.15-.08.14-.45.25-.67.36-.78.57-1.71,1.73-1.69a.73.73,0,0,0,.47-.35c1.92-3,6.74-4.94,9.89-3.79a4.63,4.63,0,0,1,2.91,3.68c.19,1.3.36,2.22,1.57,2.19.09,1.17.2,2.19.24,3.21a4.72,4.72,0,0,1-.17,1.84,2.67,2.67,0,0,1-1.11,1.28c-.7.38-1.55.44-2.27.78-1.44.67-1.6,2.32-.19,3,2.15,1,2.75,2.65,2.69,4.79a4.3,4.3,0,0,0,.31,1.18H112L112.7,67c2.06.54,4.07,1,6,1.61.17,0,.33.61.27.88-.45,2-.93,3.9-1.47,5.83a2.26,2.26,0,0,0,.18,2c.48.77.59,1.79-.29,2.25-1.75.9-1.81,2.55-2,4.08-.29,2.42-.42,4.87-.49,7.31a1.71,1.71,0,0,1-1.17,1.64C113.32,92.85,112.86,93.05,112.37,93.28ZM100.8,65.56c.5-1.29,1.1-2.65,1.54-4.05a1.86,1.86,0,0,0-.45-1.37c-1-1.32-2.19-2.58-3.28-3.85l-2.23,1C97.87,60.09,99.36,62.86,100.8,65.56Z"/><path class="cls-1" d="M159,67.17l.12-10a5.19,5.19,0,0,1,0-1.53c1-3.21.5-6.55.84-9.8.24-2.28.71-4.54,1.17-6.79a4.51,4.51,0,0,0-.23-3.27,2.5,2.5,0,0,1,.11-2.62,19.32,19.32,0,0,0,.87-1.94c.92,0,1.93,0,2.94,0,.22,0,.55.37.59.6.34,2.14,1.08,4.28,0,6.45a1.81,1.81,0,0,0,.15,1.27,3.83,3.83,0,0,0,1,1.69c1.78,1.31,1.67,3.15,1.52,5a2,2,0,0,1-.79,1.3,1.43,1.43,0,0,0-.74,1.55,23.57,23.57,0,0,1,.27,2.5,5.71,5.71,0,0,1-.27,2.15,12.06,12.06,0,0,0,.08,8.23,48.81,48.81,0,0,1,1,5c.08.39.05.81.15,1.19a13.56,13.56,0,0,1,.36,5.2c-.25,2-.07,4-.28,6a34.74,34.74,0,0,1-1,4.48,10.86,10.86,0,0,0,.06,5.74c.46,1.53.82,3.08,1.23,4.63a2.83,2.83,0,0,1,3.57.8,1.33,1.33,0,0,1,.14,1.87,2.34,2.34,0,0,0-.44,1.42,10.25,10.25,0,0,1-1.23,5.92,3,3,0,0,1-2.64,1.8,14.33,14.33,0,0,0-1.57.24v9.44a5,5,0,0,0,0,.55c.14,2.24.15,2.14,2.37,2.38a12.22,12.22,0,0,1,3.2,1c.24.09.33.55.48.84-.32.16-.65.45-1,.44a22.62,22.62,0,0,1-2.41-.38l.46,1.23c-1.58-.37-3.06-.69-4.51-1.07-.19,0-.36-.43-.42-.68-1.16-4.61-2.14-9.25-1.89-14.06a1.9,1.9,0,0,0-2.48-1.92,10.3,10.3,0,0,0-2.38,1.66c-1.88,1.53-2,3.69-1.82,5.84a16.39,16.39,0,0,1-.21,5,18.34,18.34,0,0,0-.05,5.44c0,.42.81.83,1.31,1.16.7.46,1.46.84,2.19,1.26l-.15.43-2.43-.4.85,4.52c-1.49-.21-.77-1.72-1.62-2.2-.79.76.49,2.27-1.17,3v-2.62l-.18,0-.61,1.9-.35-.09v-2.78c-.41.54-.6.84-.85,1.1a8.34,8.34,0,0,1-.78.67l-.22-.2a2.55,2.55,0,0,1,.35-.86c.92-.92.81-2,.7-3.18a94.9,94.9,0,0,1,.3-19.72,4.78,4.78,0,0,0-.39-2c-.24-.68-.65-1.31-.95-2s-.57-1.44.49-1.89c.24-.09.43-.69.37-1a62.76,62.76,0,0,0-1.41-6.73c-.93-3-2.09-6-3.23-8.95a10.52,10.52,0,0,0-1.37-2.1,1.56,1.56,0,0,1,0-2c.89-1.2,1.73-2.42,2.6-3.62.28-.38.63-.71.91-1-2.67-4.35-5.36-8.68-8-13-1.1-1.82-2.18-3.65-3.1-5.56a18.21,18.21,0,0,0-6.79-7.27c-.24-.16-.5-.3-.73-.46-.06,0-.08-.13-.18-.3l1.26-1.4c-1-2-2.19-2.5-4.74-2-1.11.2-2.24.29-3.36.38-.61,0-.81-.25-.74-.89a4.17,4.17,0,0,1,2.78-3.65c2.67-.93,5.45-1.58,8.2-2.26a2.32,2.32,0,0,1,1.58.27,2.89,2.89,0,0,1,1.25,3.76,1.72,1.72,0,0,0,.06,1.05c1.2,2.95,3.31,5.19,5.54,7.39a22.41,22.41,0,0,1,2.91,4.22c.93,1.49,1.69,3.08,2.68,4.52a26.91,26.91,0,0,0,3,3.59c1.57,1.58,3.25,3.06,4.9,4.55.73.66,1.52,1.24,2.28,1.86Z"/><path class="cls-1" d="M283,59.65c-3.2-.6-6.39-1.18-9.58-1.79a4.41,4.41,0,0,1-.94-.43l.14-.35,11.25,1.23V55.54l-1.1-.44,1-.15L284,53l.19,0a2.39,2.39,0,0,1,.28.74c0,1.31.78,1.43,1.79,1.31a1.76,1.76,0,0,1,1,.13l-2.4.58.46,2.56,10.91-1.12,0,.19c-1.85.39-3.71.76-5.55,1.19-.31.07-.56.39-.85.56a1.67,1.67,0,0,1-.66.28,8.69,8.69,0,0,1-1.53,0c-.77-.08-1.1.21-1.43.94A8.36,8.36,0,0,1,283.35,64a15.39,15.39,0,0,0-2.47,2.44,14.52,14.52,0,0,0-1,1.3c-1.33,1.78-2.64,3.56-4.83,4.43-.7.28-1.25.9-1.93,1.24-.93.48-.94,1.11-.67,2a27,27,0,0,1,.56,2.72l-3.7,1.09c-.21.06-.41.15-.61.21-.61.18-1.55.17-1.77.56a10.7,10.7,0,0,0-.95,3,11.38,11.38,0,0,0-.06,1.76c-.17,2.77-.42,5.53-.5,8.31a7.16,7.16,0,0,0,.54,3.15,41.31,41.31,0,0,1,3.29,12.1,6.11,6.11,0,0,1-1.94,5.64c-1.64,1.51-3.3,3-4.93,4.5-1.2-.74-2.09-.36-2.16,1a24.16,24.16,0,0,0,.32,3.36,19,19,0,0,1,.15,2.61,2.16,2.16,0,0,1-1.49,2.19c-1.12.33-1.59-.44-2-1.23L257,126l-.34.12c.11,1.43.18,2.86.36,4.28,0,.31.56.54.76.87a2.69,2.69,0,0,1,.53,1.33c0,.24-.64.62-1,.63-1.53.08-3.06,0-4.64,0a6,6,0,0,1,.39-3.64,7.27,7.27,0,0,0,.36-3.34c-.09-1.53-.42-3-.6-4.56-.43-3.77-.87-7.55-1.25-11.33-.29-2.87-.57-5.75-.7-8.63,0-1.1-.36-1.58-1.44-1.74-1.41-.2-1.94-.79-1.34-2,1.47-3,.9-5.8.13-8.73a16.64,16.64,0,0,1-.26-2.83c0-.3-.11-.6-.16-.89l-.31-.12c-.32.45-.66.89-1,1.34-.71,1-1.21,1.16-2.28.53-1.84-1.09-3.09-.92-4.39.86a29.41,29.41,0,0,0-2,3.52c-.29.53-.55,1.08-.83,1.62l-.28-.08a5.25,5.25,0,0,0,.12-1,6.33,6.33,0,0,0-.26-1c-.33.15-.76.22-1,.47-.52.59-1,1.27-1.41,1.91l-.26-.1.77-1.92-.17-.11-1.43,1.92c-1-.72-.27-1.32,0-1.95a11.34,11.34,0,0,1,3.41-3.73,10.84,10.84,0,0,0,3.32-4.5,6.55,6.55,0,0,1,1.73-2.51c1.67-1.59,3.36-3.16,5.1-4.66a6.79,6.79,0,0,1,2-1.08c1.73-.67,3.48-1.26,5.22-1.9,1.07-.4,1.21-1,.43-1.89a3.61,3.61,0,0,0-.66-.57c-2.75-2-3.63-4.71-2.34-7.4A6.39,6.39,0,0,1,259,60.12a2.37,2.37,0,0,1,1.32.9,21.61,21.61,0,0,1,2.09,6.91,2.13,2.13,0,0,1-.95,2.26,2.16,2.16,0,0,0-.74.93.91.91,0,0,0,1.32,1c2.41-1.56,5.18-1.36,7.81-1.84a13.32,13.32,0,0,0,6-3.09c1.42-1.14,2.82-2.33,4.28-3.43a3.13,3.13,0,0,0,1.32-2.17C281.54,60.55,281.91,59.82,283,59.65Zm-25,55.47c1.27-2.51,2.4-4.74,3.5-7a.77.77,0,0,0,0-.63c-.66-1.22-1.35-2.43-2-3.64l-.29.06C258.85,107.56,258.46,111.18,258.05,115.12Z"/><path class="cls-1" d="M202.68,189.24a16.59,16.59,0,0,0,2.83,0c2-.36,3.12-1.72,4.06-3.39a4.28,4.28,0,0,0,.25-4.18c-1.86-4.32-3.53-8.73-5.23-13.11-.35-.91-.8-1.19-1.72-.82a2.57,2.57,0,0,1-1.17,0,4.44,4.44,0,0,0-4.82,2.49,8.93,8.93,0,0,0-1,3.32c-.15,2.29,0,4.6,0,7l2.64.12v2h-8.05v-2l2.41-.14v-13h-2.65v-2.16h5.67c-.08,1.39-.15,2.79-.24,4.51.22-.49.34-.7.42-.93,1.07-2.89,2.79-4,5.85-3.89,2.26.1,4.52.16,6.79.25l.73,0v2.11l-2,.1c1.53,4.05,3,8,4.57,12.05l4.3-12.08h-2.34v-2.13h6.87v1.95c-.08.05-.15.13-.2.12-1.48-.27-1.94.58-2.37,1.82-1.77,5.07-3.57,10.12-5.54,15.1a21,21,0,0,1-3,5.17c-1.61,2-4,2.3-6.4,1.86a1,1,0,0,1-.58-.61A11.35,11.35,0,0,1,202.68,189.24Z"/><path class="cls-1" d="M157.34,168.74a19.16,19.16,0,0,1,1.29-1.86,6.82,6.82,0,0,1,7.22-1.45c2.09.77,3.34,2.8,3.34,5.66s-.1,5.48-.15,8.23c0,.39,0,.78,0,1.32h2.52v2.08h-7.48v-2l2.12-.13c.05-.88.13-1.75.14-2.61,0-2.19.09-4.39,0-6.59-.06-1.61-.46-3.15-2.23-3.8a4.38,4.38,0,0,0-5,1.39,6,6,0,0,0-1.29,2.94c-.17,2.84-.06,5.7-.06,8.66l2.2.13v2h-7.4v-2l2.22-.1c0-1.63,0-3.22,0-4.81s.06-3.08-.05-4.61c-.16-2.3-1-3.32-2.72-3.73a4.42,4.42,0,0,0-4.82,2.05,7.7,7.7,0,0,0-1,3.08c-.14,2.63,0,5.27,0,8l2.32.12v2h-7.37v-2l2.13-.15V167.62h-2.56v-2.17h5.48c0,1-.1,2-.14,2.89C150.38,163.65,155,163.78,157.34,168.74Z"/><path class="cls-1" d="M109.7,177.21c-3.31-1.46-4.54-3.74-4-7.11a6.19,6.19,0,0,1,5.72-4.93c2.51-.11,5,.14,7.54.21,1.06,0,2.11,0,3.25,0v2.12H119a18.45,18.45,0,0,1,1,3.39c.48,4.45-3,6.43-5.89,6.78a17.8,17.8,0,0,0-3.12.49c-.52.17-.89.83-1.32,1.26.47.37.9,1,1.43,1.07,2.39.52,4.81.86,7.21,1.34,1.75.35,3.18,1.14,3.53,3.11a4.72,4.72,0,0,1-1.87,4.83,10.47,10.47,0,0,1-6.84,1.9,11.72,11.72,0,0,1-5.82-1.31c-2.4-1.36-3-4.32-1.18-6.09a15.18,15.18,0,0,1,2.84-1.76c-1.06-.51-2.26-1.14-2.13-2.79S108.34,177.77,109.7,177.21Zm-1.38-5.89a4.22,4.22,0,0,0,4.44,4.26,4.47,4.47,0,0,0,4.79-4.23,4.39,4.39,0,0,0-4.58-4.2C110.25,167.14,108.33,168.87,108.32,171.32Zm5.39,18.4a38.46,38.46,0,0,0,4-1.31,2.47,2.47,0,0,0,1.33-2.66,2.26,2.26,0,0,0-2.07-1.69c-1.51-.27-3.05-.4-4.55-.71a4.18,4.18,0,0,0-3.27.87,2.64,2.64,0,0,0-1.42,2.44,2.53,2.53,0,0,0,1.93,2.17C110.91,189.2,112.18,189.39,113.71,189.72Z"/><path class="cls-1" d="M211.32,194.84h-2v-2.38h5.56v10a5.82,5.82,0,0,1,6.23-2.88,4.59,4.59,0,0,1,4.37,4.29c.2,2.17.08,4.37.1,6.56v2.72l1.94.1v2.36h-7.17v-2.34l1.8-.13c0-2.64.12-5.27,0-7.88a2.81,2.81,0,0,0-2.6-2.81,3.81,3.81,0,0,0-4.06,2.35,6.5,6.5,0,0,0-.48,2.22c-.07,2,0,4,0,6.13l1.92.1v2.34h-7.3v-2.32l1.77-.14Z"/><path class="cls-1" d="M74.15,196.92V194.4c1.1,0,2.15,0,3.2,0,2.3,0,4.61,0,6.91.13,5.73.24,6.93,6.33,4.66,9.9a6.32,6.32,0,0,1-5.49,2.87c-1.16,0-2.33,0-3.59,0v5.91H82.2v2.5h-8v-2.41h2.08V197Zm5.69,0v7.77c1.15,0,2.25.09,3.33,0a3.86,3.86,0,0,0,.39-7.52A33.16,33.16,0,0,0,79.84,196.92Z"/><path class="cls-1" d="M248.8,176.46c0,1.87,0,3.55,0,5.23a1,1,0,0,1-.55.75c-4.27,1-8.56,1.33-12.7-.45s-5.69-5.15-6-9.32a14.3,14.3,0,0,1,.69-6.16c1.63-4.47,5-6.81,9.54-7.51a21.27,21.27,0,0,1,8.36.64,1.19,1.19,0,0,1,1.07,1.44c-.07,1.41,0,2.83,0,4.31H246.5c0-1,0-1.95,0-2.89,0-.31-.29-.8-.53-.86a13,13,0,0,0-8,.26c-3.69,1.45-5.14,4.47-5.38,8.19A11.45,11.45,0,0,0,234,177a8.05,8.05,0,0,0,7,3.84,29.07,29.07,0,0,0,4.46-.3c.25,0,.6-.48.65-.77a10.3,10.3,0,0,0,0-2.08c0-.87.26-1.3,1.2-1.19A11.17,11.17,0,0,0,248.8,176.46Z"/><path class="cls-1" d="M295.43,180.62h2.33v2.15h-7.35V180.7l2.1-.13v-13h-2.57v-2.15h5.49l-.13,2.92-.31-.26c.79-.64,1.54-1.33,2.37-1.89a7.12,7.12,0,0,1,6-.95c2.45.62,3.81,2.52,3.88,5.56.06,2.56-.06,5.12-.1,7.68,0,.65,0,1.31,0,2.08h2.49v2.13h-7.43v-2l2.19-.15c0-3.29.09-6.54,0-9.78a3.22,3.22,0,0,0-2.59-3.27,4.51,4.51,0,0,0-5,1.62,7,7,0,0,0-1.25,3.42C295.31,175.17,295.43,177.81,295.43,180.62Z"/><path class="cls-1" d="M91.58,182.78H84.16v-2.07l2.22-.14c0-1.62,0-3.22,0-4.81,0-1.43,0-2.86,0-4.29,0-2-.86-3.38-2.29-3.88a4.78,4.78,0,0,0-5.2,1.34,6.43,6.43,0,0,0-1.29,3c-.17,2.83-.06,5.69-.06,8.65h2.24v2.11h-7.4v-2.05l2.11-.1v-13H71.94v-2.18h5.5l-.14,3.05a6.71,6.71,0,0,1,6-3.46c3.66,0,5.84,2.07,5.87,5.75,0,2.59-.06,5.19-.09,7.79,0,.62,0,1.24,0,2l2.46.14Z"/><path class="cls-1" d="M271.86,167.57h-2.75v-2.11h5.46c0,1.87,0,3.68,0,5.5,0,2.19,0,4.4.15,6.58a3.14,3.14,0,0,0,2.61,3.22,4.53,4.53,0,0,0,4.84-1.78,9,9,0,0,0,1.23-4.82c0-2.16,0-4.31,0-6.58h-2.66v-2.12h5.49v15.12l2.27.11v2.06h-5v-3l-.53.75a6.56,6.56,0,0,1-8.22,2.16,4.7,4.7,0,0,1-2.85-4.47c-.13-3.14,0-6.29-.05-9.43Z"/><path class="cls-1" d="M188.69,174.37H176.13c-.35,3.71,2.06,6.35,5.89,6.47a13.18,13.18,0,0,0,2.93-.29,26.91,26.91,0,0,0,2.76-.84,14.06,14.06,0,0,1,0,1.84,1,1,0,0,1-.53.68,13.35,13.35,0,0,1-9,.37,7,7,0,0,1-4.8-5.89c-.61-3.8-.34-7.45,2.91-10.11a7.45,7.45,0,0,1,12.08,4.32C188.53,172,188.56,173.13,188.69,174.37Zm-12.6-2.25h9.59c-.08-2.91-2-5-4.56-5A5.06,5.06,0,0,0,176.09,172.12Z"/><path class="cls-1" d="M61.75,183.19c-5.34.07-8.82-4-8.27-9.78.31-3.16,1.44-5.9,4.44-7.47a8.29,8.29,0,0,1,12.35,7.41,15,15,0,0,1-.45,3.78A7.8,7.8,0,0,1,61.75,183.19Zm-5.56-8.79a27.89,27.89,0,0,0,1,3.45,4.73,4.73,0,0,0,4.77,3,4.78,4.78,0,0,0,4.66-3.05,9.06,9.06,0,0,0,0-7.34,4.81,4.81,0,0,0-4.72-3.12,4.69,4.69,0,0,0-4.7,3A27.6,27.6,0,0,0,56.19,174.4Z"/><path class="cls-1" d="M130.51,183.19c-5.36.07-9-4-8.21-10.21a11.66,11.66,0,0,1,1.13-3.74c1.69-3.34,5.27-4.85,9.22-4.05a7.53,7.53,0,0,1,6.23,7,15.47,15.47,0,0,1-.42,5.17C137.41,181.2,134.53,183.2,130.51,183.19Zm5.69-9.36a24.11,24.11,0,0,0-.82-3.28,4.71,4.71,0,0,0-4.65-3.2,4.87,4.87,0,0,0-4.86,3.09,9.3,9.3,0,0,0-.39,6.22,5.06,5.06,0,0,0,5.25,4.2,5.16,5.16,0,0,0,5.08-4.31C136,175.78,136,175,136.2,173.83Z"/><path class="cls-1" d="M259.36,183.19c-5.4.09-9-4-8.27-10.17.37-3.12,1.6-5.82,4.64-7.19a8.61,8.61,0,0,1,8.77.68c2.75,1.86,3.48,4.74,3.35,7.88a13,13,0,0,1-.44,2.7A7.85,7.85,0,0,1,259.36,183.19Zm5.72-8.9a29,29,0,0,0-.77-3.51,5.19,5.19,0,0,0-9.78,0,9.23,9.23,0,0,0,.18,7,4.77,4.77,0,0,0,4.57,3A4.65,4.65,0,0,0,264,178.1,24.94,24.94,0,0,0,265.08,174.29Z"/><path class="cls-1" d="M265.77,215.63V213.3l1.79-.1V194.85h-2.51v-2.41h6.06V213.2l2,.08v2.35Z"/><path class="cls-1" d="M131.16,215.64v-2.33l1.83-.11V194.9h-2.55v-2.45h6.06v20.74l2.08.11v2.34Z"/><path class="cls-1" d="M98.24,167.55c0,3.11,0,6.06,0,9a14.86,14.86,0,0,0,.21,2.4,2,2,0,0,0,2.2,1.86c1.18,0,2.37-.27,3.56-.42.33,1.84.13,2.22-1.76,2.54a15.21,15.21,0,0,1-3.16.19,3.55,3.55,0,0,1-3.67-3.49c-.16-2.73-.08-5.48-.09-8.21,0-1.24,0-2.48,0-3.83H92.85v-2.18h2.7l.23-4.19,2.66-.23v4.34h5.29v2.2Z"/><path class="cls-1" d="M148.11,213.2v2.43h-7.47v-2.32l1.91-.12V202.48h-2.22V200h5.75V213.2Z"/><path class="cls-1" d="M144.34,196.67a2.31,2.31,0,0,1-2.33-2.39,2.38,2.38,0,0,1,2.43-2.32,2.41,2.41,0,0,1,2.34,2.42A2.33,2.33,0,0,1,144.34,196.67Z"/></g></g></svg>