<svg xmlns="http://www.w3.org/2000/svg" viewBox="0 0 304.75 241"><defs><style>.cls-1{fill:#969696;}.cls-2{fill:#828282;}.cls-3{fill:#b6b6b6;}.cls-4{fill:#575757;}</style></defs><title>nyc</title><g id="Layer_1" data-name="Layer 1"><polygon class="cls-1" points="24.88 125.75 24.88 52.13 32 45.63 52.5 45.63 78.25 71.38 78.25 52.25 84 45.63 104.75 45.63 109.63 51.5 109.63 123.75 104.88 129 83.5 129 58.88 103.13 58.88 124.88 54.38 129 30.75 129 24.88 125.75"/><polygon class="cls-2" points="115.88 45.63 134.13 45.63 139.81 51.31 139.81 64.75 149.72 74.66 161.69 62.69 161.69 50.88 166.78 45.78 189.75 45.78 196.38 51.38 196.38 62.13 196.38 83.5 170.69 109.19 170.69 124.63 166.22 129.09 141.75 129.09 137.95 125.3 137.95 109.13 109.63 82.75 109.63 51.5 115.88 45.63"/><polygon class="cls-3" points="211.25 45.63 265.25 45.63 280 60.38 280 78.13 275.31 82.81 248 82.81 248 78 228.38 78 228.38 97.75 248.38 97.75 248.38 93.38 275.63 93.38 280 97.75 280 116 266.83 129.17 211.25 129.17 196.35 114.27 196.35 62.13 211.25 45.63"/><path class="cls-4" d="M40.31,144.2A7.27,7.27,0,0,1,44.05,147a9.69,9.69,0,0,1,1.57,3.54,16.92,16.92,0,0,1,.41,3.64,14.56,14.56,0,0,1-1.75,7.41,8,8,0,0,1-7.37,4.1H27.45v-22h9.46A11.85,11.85,0,0,1,40.31,144.2Zm-8.41,3.34v14.33h4.24a4.57,4.57,0,0,0,4.53-3.21,11.19,11.19,0,0,0,.7-4.18,10.34,10.34,0,0,0-1-5.15c-.7-1.19-2.09-1.79-4.18-1.79Z"/><path class="cls-4" d="M59.71,149.77a6.64,6.64,0,0,1,2.81,2.41,8,8,0,0,1,1.29,3.35,21.44,21.44,0,0,1,.14,3.22H52.13a3.9,3.9,0,0,0,1.69,3.43,4.29,4.29,0,0,0,2.34.61,3.27,3.27,0,0,0,3.23-1.86h4.34a5.31,5.31,0,0,1-1.58,2.93,7.87,7.87,0,0,1-6.1,2.37,8.86,8.86,0,0,1-5.72-2q-2.47-2-2.48-6.5a8.77,8.77,0,0,1,2.24-6.46,7.78,7.78,0,0,1,5.8-2.26A9.37,9.37,0,0,1,59.71,149.77Zm-6.35,3.67A4.4,4.4,0,0,0,52.23,156h7.31a3.53,3.53,0,0,0-1.13-2.56,3.74,3.74,0,0,0-2.52-.88A3.35,3.35,0,0,0,53.36,153.44Z"/><path class="cls-4" d="M79.75,151.19q2,2.1,2,6.16,0,4.29-1.94,6.54a6.29,6.29,0,0,1-5,2.25,5.22,5.22,0,0,1-3.24-1,6,6,0,0,1-1.37-1.56v8.46H66V149.45H70v2.39a6.74,6.74,0,0,1,1.47-1.66,5.4,5.4,0,0,1,3.39-1.09A6.43,6.43,0,0,1,79.75,151.19Zm-3.26,3.05a3,3,0,0,0-2.81-1.44,3.19,3.19,0,0,0-3.2,2.19,8.21,8.21,0,0,0-.45,2.95c0,1.88.5,3.21,1.51,4a3.5,3.5,0,0,0,2.14.67,3.1,3.1,0,0,0,2.73-1.37,7.2,7.2,0,0,0,.08-7Z"/><path class="cls-4" d="M91.16,155.81a6.58,6.58,0,0,0,1.69-.38,1.28,1.28,0,0,0,.92-1.2,1.42,1.42,0,0,0-.71-1.38,4.44,4.44,0,0,0-2.06-.38,2.75,2.75,0,0,0-2.16.74,3.12,3.12,0,0,0-.6,1.49H84.15a6.14,6.14,0,0,1,1.19-3.5q1.69-2.14,5.8-2.14a10.27,10.27,0,0,1,4.76,1.06q2.09,1,2.08,4v7.44c0,.52,0,1.15,0,1.88a2.34,2.34,0,0,0,.25,1.13,1.52,1.52,0,0,0,.63.49v.63H94.27a4.89,4.89,0,0,1-.27-.92c0-.29-.08-.62-.12-1a8.51,8.51,0,0,1-2,1.63,6.23,6.23,0,0,1-3.12.79,5.36,5.36,0,0,1-3.66-1.26,4.5,4.5,0,0,1-1.45-3.57A4.61,4.61,0,0,1,86,157,10.32,10.32,0,0,1,89.7,156Zm2.59,2a5.23,5.23,0,0,1-.82.41,7.71,7.71,0,0,1-1.14.29l-1,.17a6.39,6.39,0,0,0-1.95.59,1.92,1.92,0,0,0-1,1.8,1.88,1.88,0,0,0,.61,1.57,2.35,2.35,0,0,0,1.49.48,4.46,4.46,0,0,0,2.56-.8,3.43,3.43,0,0,0,1.22-2.94Z"/><path class="cls-4" d="M110.71,149.07l.36,0v4.35l-.71-.06-.51,0c-1.71,0-2.85.56-3.44,1.67a6.48,6.48,0,0,0-.49,2.89v7.76h-4.28V149.45h4v2.83a8.72,8.72,0,0,1,1.72-2.22,4.61,4.61,0,0,1,3.09-1Z"/><path class="cls-4" d="M111.89,152.62v-3h2.26v-4.53h4.2v4.53H121v3h-2.64v8.58a1.9,1.9,0,0,0,.26,1.24,2.8,2.8,0,0,0,1.55.25h.4l.43,0v3.17l-2,.07c-2,.07-3.38-.28-4.11-1a3.1,3.1,0,0,1-.72-2.25v-10Z"/><path class="cls-4" d="M144,149.51a4.66,4.66,0,0,1,1.89,1.46,4.61,4.61,0,0,1,.92,2.08,14.39,14.39,0,0,1,.15,2.4l0,10.23h-4.35V155.34a3.41,3.41,0,0,0-.29-1.52,2.13,2.13,0,0,0-2.09-1.13,2.45,2.45,0,0,0-2.43,1.46,4.75,4.75,0,0,0-.34,1.86v9.67h-4.27V156a5.41,5.41,0,0,0-.3-2.1,2.09,2.09,0,0,0-2.1-1.17,2.5,2.5,0,0,0-2.44,1.17,4.54,4.54,0,0,0-.35,2v9.77h-4.3v-16.2h4.13v2.36a6.93,6.93,0,0,1,1.48-1.8,5.17,5.17,0,0,1,3.21-.95,5,5,0,0,1,3,.82,4.68,4.68,0,0,1,1.41,2,5.36,5.36,0,0,1,2.07-2.1,6.24,6.24,0,0,1,2.91-.67A5.64,5.64,0,0,1,144,149.51Z"/><path class="cls-4" d="M161.41,149.77a6.64,6.64,0,0,1,2.81,2.41,8,8,0,0,1,1.29,3.35,21.44,21.44,0,0,1,.14,3.22H153.83a3.89,3.89,0,0,0,1.7,3.43,4.25,4.25,0,0,0,2.34.61,3.61,3.61,0,0,0,2.35-.74,3.81,3.81,0,0,0,.88-1.12h4.33a5.35,5.35,0,0,1-1.57,2.93,7.9,7.9,0,0,1-6.11,2.37,8.86,8.86,0,0,1-5.72-2q-2.47-2-2.48-6.5a8.77,8.77,0,0,1,2.24-6.46,7.8,7.8,0,0,1,5.8-2.26A9.34,9.34,0,0,1,161.41,149.77Zm-6.35,3.67a4.47,4.47,0,0,0-1.13,2.51h7.31a3.5,3.5,0,0,0-1.13-2.56,3.71,3.71,0,0,0-2.51-.88A3.38,3.38,0,0,0,155.06,153.44Z"/><path class="cls-4" d="M180.89,150.38c1.06.88,1.59,2.33,1.59,4.37v10.93h-4.35v-9.87a4.5,4.5,0,0,0-.34-2,2.38,2.38,0,0,0-2.36-1.25,2.93,2.93,0,0,0-2.94,1.83,6.27,6.27,0,0,0-.42,2.47v8.79h-4.24v-16.2h4.11v2.36a7.32,7.32,0,0,1,1.54-1.8,5.37,5.37,0,0,1,3.31-1A6.23,6.23,0,0,1,180.89,150.38Z"/><path class="cls-4" d="M184.76,152.62v-3H187v-4.53h4.2v4.53h2.64v3h-2.64v8.58a1.9,1.9,0,0,0,.26,1.24,2.8,2.8,0,0,0,1.55.25h.4l.43,0v3.17l-2,.07c-2,.07-3.38-.28-4.11-1a3.1,3.1,0,0,1-.72-2.25v-10Z"/><path class="cls-4" d="M218.59,163.69q-2,2.53-6.23,2.54t-6.24-2.54a10,10,0,0,1,0-12.19c1.37-1.72,3.45-2.57,6.24-2.57s4.87.85,6.23,2.57a10,10,0,0,1,0,12.19Zm-3.39-2.34a7.57,7.57,0,0,0,0-7.52,3.77,3.77,0,0,0-5.73,0,7.57,7.57,0,0,0,0,7.52,3.77,3.77,0,0,0,5.73,0Z"/><path class="cls-4" d="M230.41,143.53l.89.06v3.46c-.24,0-.64-.05-1.2-.07a1.4,1.4,0,0,0-1.16.37,1.35,1.35,0,0,0-.32.88v1.37h2.78v3h-2.78v13.09H224.4V152.59H222v-3h2.32v-1a5.54,5.54,0,0,1,.88-3.59c.62-1,2.1-1.46,4.46-1.46C229.94,143.5,230.19,143.51,230.41,143.53Z"/><path class="cls-4" d="M43.68,177.61H32.06v4.67H42.73v3.81H32.06v5.64H44.22v4H27.58v-22h16.1Z"/><path class="cls-4" d="M56.06,179.71a5.22,5.22,0,0,1,1.86,1.79v-7.74h4.3v21.92H58.1v-2.25a6.12,6.12,0,0,1-2.07,2.1,5.8,5.8,0,0,1-2.89.66,6,6,0,0,1-4.79-2.31,8.8,8.8,0,0,1-1.94-5.9,10.15,10.15,0,0,1,1.91-6.54,6.23,6.23,0,0,1,5.12-2.38A5.17,5.17,0,0,1,56.06,179.71Zm1,11.56A5.88,5.88,0,0,0,58,187.8c0-2-.5-3.4-1.51-4.26a3.25,3.25,0,0,0-2.14-.77,3,3,0,0,0-2.73,1.4,6.56,6.56,0,0,0-.87,3.5,6.42,6.42,0,0,0,.88,3.59,3,3,0,0,0,2.69,1.35A3.15,3.15,0,0,0,57.1,191.27Z"/><path class="cls-4" d="M70.31,179.45v9.78a5.14,5.14,0,0,0,.33,2.09,2.25,2.25,0,0,0,2.26,1.23,3,3,0,0,0,3-1.76,6.47,6.47,0,0,0,.41-2.51v-8.83h4.31v16.23H76.46v-2.29c0,.05-.14.19-.3.44a3,3,0,0,1-.56.66,6.06,6.06,0,0,1-1.92,1.22,6.53,6.53,0,0,1-2.18.33c-2.4,0-4-.87-4.84-2.59a9.9,9.9,0,0,1-.7-4.22v-9.78Z"/><path class="cls-4" d="M94.42,185.27a3.75,3.75,0,0,0-.61-1.64,2.59,2.59,0,0,0-2.23-1,2.93,2.93,0,0,0-2.94,2.13,9.06,9.06,0,0,0-.41,3,8.4,8.4,0,0,0,.41,2.87,2.84,2.84,0,0,0,2.87,2,2.56,2.56,0,0,0,2.12-.8,4,4,0,0,0,.76-2.09h4.33a7,7,0,0,1-1.4,3.67,6.81,6.81,0,0,1-5.91,2.78q-3.93,0-5.77-2.32a9.35,9.35,0,0,1-1.85-6,9.54,9.54,0,0,1,2-6.5,7.1,7.1,0,0,1,5.63-2.32,8.54,8.54,0,0,1,5,1.37c1.29.91,2.06,2.53,2.3,4.84Z"/><path class="cls-4" d="M108.1,185.81a6.68,6.68,0,0,0,1.7-.38,1.27,1.27,0,0,0,.91-1.2,1.42,1.42,0,0,0-.7-1.38,4.47,4.47,0,0,0-2.06-.38,2.72,2.72,0,0,0-2.16.74,3.12,3.12,0,0,0-.6,1.49h-4.1a6.22,6.22,0,0,1,1.2-3.5q1.69-2.14,5.8-2.14a10.3,10.3,0,0,1,4.76,1.06q2.09,1,2.08,4v7.44c0,.52,0,1.15,0,1.88a2.34,2.34,0,0,0,.25,1.13,1.52,1.52,0,0,0,.63.49v.63h-4.62a4.89,4.89,0,0,1-.27-.92q-.08-.44-.12-1a8.92,8.92,0,0,1-2,1.63,6.23,6.23,0,0,1-3.12.79,5.36,5.36,0,0,1-3.66-1.26,4.46,4.46,0,0,1-1.45-3.57A4.61,4.61,0,0,1,102.9,187a10.32,10.32,0,0,1,3.75-1.05Zm2.6,2a5.23,5.23,0,0,1-.82.41,7.71,7.71,0,0,1-1.14.29l-1,.17a6.21,6.21,0,0,0-2,.59,1.92,1.92,0,0,0-1,1.8,1.88,1.88,0,0,0,.61,1.57,2.34,2.34,0,0,0,1.49.48,4.46,4.46,0,0,0,2.56-.8,3.43,3.43,0,0,0,1.22-2.94Z"/><path class="cls-4" d="M117,182.62v-3h2.26v-4.53h4.2v4.53h2.64v3h-2.64v8.58a1.9,1.9,0,0,0,.26,1.24,2.76,2.76,0,0,0,1.54.25h.41l.43,0v3.17l-2,.07c-2,.07-3.38-.28-4.11-1a3.1,3.1,0,0,1-.72-2.25v-10Z"/><path class="cls-4" d="M133.16,177.51h-4.31v-3.92h4.31Zm-4.31,1.94h4.31v16.23h-4.31Z"/><path class="cls-4" d="M150.8,193.69q-2.06,2.53-6.24,2.54t-6.24-2.54a10.09,10.09,0,0,1,0-12.19c1.37-1.72,3.45-2.57,6.24-2.57s4.87.85,6.24,2.57a10,10,0,0,1,0,12.19Zm-3.39-2.34a7.57,7.57,0,0,0,0-7.52,3.77,3.77,0,0,0-5.73,0,7.57,7.57,0,0,0,0,7.52,3.77,3.77,0,0,0,5.73,0Z"/><path class="cls-4" d="M169,180.38c1.06.88,1.59,2.33,1.59,4.37v10.93h-4.35v-9.87a4.5,4.5,0,0,0-.34-2,2.38,2.38,0,0,0-2.36-1.25,2.93,2.93,0,0,0-2.94,1.83,6.27,6.27,0,0,0-.42,2.47v8.79h-4.24v-16.2H160v2.36a7.32,7.32,0,0,1,1.54-1.8,5.37,5.37,0,0,1,3.31-1A6.23,6.23,0,0,1,169,180.38Z"/></g></svg>