<svg xmlns="http://www.w3.org/2000/svg" viewBox="0 0 240.63 241"><defs><style>.cls-1{fill:#575757;}.cls-2{fill:#969696;}</style></defs><title>ocps</title><g id="Layer_1" data-name="Layer 1"><path class="cls-1" d="M97.28,18.38a18,18,0,0,1,17.94,17.94V97.78a18,18,0,0,1-17.94,17.94H35.82A18,18,0,0,1,17.88,97.78V36.32A18,18,0,0,1,35.82,18.38H97.28m0-6H35.82A23.93,23.93,0,0,0,11.88,36.32V97.78a23.94,23.94,0,0,0,23.94,23.94H97.28a23.94,23.94,0,0,0,23.94-23.94V36.32A23.94,23.94,0,0,0,97.28,12.38Z"/><path class="cls-2" d="M90.94,23.62H42.16a19,19,0,0,0-19,19V91.44a19,19,0,0,0,19,19H90.94a19,19,0,0,0,19-19V42.66A19,19,0,0,0,90.94,23.62ZM67.5,101c-27,0-39-15.31-39-34.19S46,33.25,67.5,33.25c29.25,0,39,14.68,39,33.56S92.88,101,67.5,101Z"/><ellipse class="cls-2" cx="67.73" cy="67.13" rx="18.89" ry="23.75"/><path class="cls-1" d="M204.16,18.38A18,18,0,0,1,222.1,36.32V97.78a18,18,0,0,1-17.94,17.94H142.69a18,18,0,0,1-17.94-17.94V36.32a18,18,0,0,1,17.94-17.94h61.47m0-6H142.69a23.94,23.94,0,0,0-23.94,23.94V97.78a23.94,23.94,0,0,0,23.94,23.94h61.47A23.94,23.94,0,0,0,228.1,97.78V36.32a23.94,23.94,0,0,0-23.94-23.94Z"/><path class="cls-1" d="M97.28,123.5a18,18,0,0,1,17.94,17.94v61.47a18,18,0,0,1-17.94,17.94H35.82a18,18,0,0,1-17.94-17.94V141.44A18,18,0,0,1,35.82,123.5H97.28m0-6H35.82a23.94,23.94,0,0,0-23.94,23.94v61.47a23.94,23.94,0,0,0,23.94,23.94H97.28a23.94,23.94,0,0,0,23.94-23.94V141.44A23.94,23.94,0,0,0,97.28,117.5Z"/><path class="cls-1" d="M204.16,123.5a18,18,0,0,1,17.94,17.94v61.47a18,18,0,0,1-17.94,17.94H142.69a18,18,0,0,1-17.94-17.94V141.44a18,18,0,0,1,17.94-17.94h61.47m0-6H142.69a23.94,23.94,0,0,0-23.94,23.94v61.47a23.94,23.94,0,0,0,23.94,23.94h61.47a23.94,23.94,0,0,0,23.94-23.94V141.44a23.94,23.94,0,0,0-23.94-23.94Z"/><path class="cls-2" d="M197.81,23.62H149a19,19,0,0,0-19,19V91.44a19,19,0,0,0,19,19h48.77a19,19,0,0,0,19-19V42.66A19,19,0,0,0,197.81,23.62ZM175.67,101c-11.25,0-36.75-4.12-36.75-31.38s24.13-36.28,39.52-36.28A88.74,88.74,0,0,1,204.55,37l-2.88,13.38s-.62,3.37-.75,3.87l-5.42-.37s-.38-4.76-.5-4.88c-2.75-2.25-10-4.88-16.62-4.88S159,48.38,159,65.12s14.88,23.26,24.5,23.26,18.3-7.63,18.3-7.63S208.05,88,207.92,88C199.67,96.88,186.92,101,175.67,101Z"/><path class="cls-2" d="M90.94,128.75H42.16a19,19,0,0,0-19,19v48.77a19,19,0,0,0,19,19H90.94a19,19,0,0,0,19-19V147.79A19,19,0,0,0,90.94,128.75ZM78.5,181.12c-2.51,0-11-.62-11-.62l2-9.38s3,.38,4.88.38,9-2.25,9-11.5S77,148.38,72.75,148.38a34,34,0,0,0-7.63.87c-.74,2-.24,47.63-.24,47.63l9.24,3v4.87S60.75,204,56.38,204s-18,.75-18,.75v-5s6.74-1.25,6.74-1.37c.76-7.38,0-52.13,0-52.13l-6.74-1.87V139.5c17.74,0,42.62-.75,45.5-.75S103.5,140,103.5,158.62,83.12,181.12,78.5,181.12Z"/><path class="cls-2" d="M197.81,128.75H149a19,19,0,0,0-19,19v48.77a19,19,0,0,0,19,19h48.77a19,19,0,0,0,19-19V147.79A19,19,0,0,0,197.81,128.75ZM170.88,206c-10.26,0-17.38-2.25-28.26-6.25,2.76-3.13,6.5-16.87,6.5-16.87l5.5,1.12s.38,3.25.63,5.62c11.37,6.76,25.37,8.13,28.87.88s-7.5-10.5-12.74-11.5-26.13-5.25-26-20.62,19.12-20.13,28.87-20.26,20.13,2.13,28.37,4.13c-1.74,1-6,16.13-6,16.13l-4.87-.63.13-4.75c-26.8-13.25-32.13,4.62-20.76,7.25,10.79,2.49,33.26,5.37,33.26,23.5S181.12,206,170.88,206Z"/></g></svg>