<svg width="30" height="23" viewBox="0 0 30 23" version="1.1" xmlns="http://www.w3.org/2000/svg" xmlns:xlink="http://www.w3.org/1999/xlink">
<title>&#226;&#128;&#156;</title>
<desc>Created using Figma</desc>
<g id="Canvas" transform="translate(-9410 -5678)">
<g id="&#226;&#128;&#156;">
<use xlink:href="#path0_fill" transform="translate(9410.76 5678.44)" fill="#B1D6F0"/>
</g>
</g>
<defs>
<path id="path0_fill" d="M 13.3445 16.2184C 13.3445 17.8202 12.7481 19.1968 11.5553 20.3481C 10.3625 21.4494 8.82176 22 6.93316 22C 5.79006 22 4.79606 21.7998 3.95116 21.3993C 3.10626 20.9488 2.3856 20.3732 1.7892 19.6724C 1.1928 18.9215 0.745501 18.0956 0.447301 17.1945C 0.1491 16.2935 0 15.3675 0 14.4164C 0 11.8134 0.397601 9.63595 1.1928 7.88396C 2.0377 6.08191 3.05656 4.63026 4.24936 3.52901C 5.49186 2.3777 6.80891 1.52674 8.20051 0.97611C 9.64182 0.425484 10.9837 0.100114 12.2262 0L 12.2262 5.1058C 11.5801 5.20592 10.8843 5.40614 10.1388 5.70648C 9.44302 5.95677 8.77207 6.3322 8.12596 6.83277C 7.52956 7.33333 7.00771 7.93402 6.56041 8.63482C 6.16281 9.28555 5.93916 10.0364 5.88946 10.8874C 5.98886 10.8373 6.18766 10.7622 6.48586 10.6621C 6.78406 10.562 7.13196 10.5119 7.52956 10.5119C 9.41817 10.5119 10.8595 11.0626 11.8535 12.1638C 12.8475 13.215 13.3445 14.5666 13.3445 16.2184ZM 29 16.2184C 29 17.8202 28.4036 19.1968 27.2108 20.3481C 26.018 21.4494 24.4773 22 22.5887 22C 21.4456 22 20.4516 21.7998 19.6067 21.3993C 18.7618 20.9488 18.0411 20.3732 17.4447 19.6724C 16.898 18.9215 16.4756 18.0956 16.1774 17.1945C 15.8792 16.2935 15.7301 15.3675 15.7301 14.4164C 15.7301 11.8134 16.1277 9.63595 16.9229 7.88396C 17.7181 6.08191 18.7121 4.63026 19.9049 3.52901C 21.1474 2.3777 22.4644 1.52674 23.856 0.97611C 25.2973 0.425484 26.6392 0.100114 27.8817 0L 27.8817 5.1058C 27.2356 5.20592 26.5398 5.40614 25.7943 5.70648C 25.0985 5.95677 24.4276 6.3322 23.7815 6.83277C 23.1851 7.33333 22.6632 7.93402 22.2159 8.63482C 21.8183 9.28555 21.5947 10.0364 21.545 10.8874C 21.6444 10.8373 21.8432 10.7622 22.1414 10.6621C 22.4396 10.562 22.7875 10.5119 23.1851 10.5119C 25.0737 10.5119 26.515 11.0626 27.509 12.1638C 28.503 13.215 29 14.5666 29 16.2184Z"/>
</defs>
</svg>
