<?xml version="1.0" encoding="utf-8"?>
<!-- Generator: Adobe Illustrator 27.0.0, SVG Export Plug-In . SVG Version: 6.00 Build 0)  -->
<svg version="1.1" id="Layer_1" xmlns="http://www.w3.org/2000/svg" xmlns:xlink="http://www.w3.org/1999/xlink" x="0px" y="0px"
	 viewBox="0 0 1920 535" style="enable-background:new 0 0 1920 535;" xml:space="preserve">
<style type="text/css">
	.st0{opacity:0.14;}
	.st1{fill:#82C0F1;}
	.st2{fill:#BCDDF8;}
	.st3{fill:none;stroke:#0076FF;stroke-width:2.6255;stroke-miterlimit:4.0001;}
	.st4{fill:none;stroke:#0076FF;stroke-width:2.6254;stroke-linecap:round;}
	.st5{fill:none;stroke:#0076FF;stroke-width:2.6254;}
	.st6{fill-rule:evenodd;clip-rule:evenodd;fill:#82C0F1;}
	.st7{fill:#BCDDF8;stroke:#0076FF;stroke-width:2.6255;stroke-miterlimit:4.0001;}
	.st8{fill:none;stroke:#0076FF;stroke-width:2.6254;stroke-miterlimit:4;}
	.st9{fill:none;stroke:#0076FF;stroke-width:2.6255;stroke-miterlimit:4.0002;}
	.st10{fill:none;stroke:#0076FF;stroke-width:2.6253;stroke-miterlimit:3.9999;}
</style>
<g>
	<g>
		<g class="st0">
			<path class="st1" d="M1247.1,286.3l69.4,25.6l-11.3,32.4l-69.8-29.9L1247.1,286.3z"/>
			<path class="st2" d="M1245.2,306.6l3.3,2.2l-1.7,4.4l-4.5-2.2L1245.2,306.6z"/>
			<path class="st2" d="M1249.8,293.6l3.7,1.1l-0.8,4.8l-5.1-1.9L1249.8,293.6z"/>
			<path class="st2" d="M1261.1,297.6l3.4,1.3l-1.7,4.4l-4.5-2.2L1261.1,297.6z"/>
			<path class="st2" d="M1270.9,300.4l3.8,2.7l-1,4.5l-4.4-1.7L1270.9,300.4z"/>
			<path class="st2" d="M1283,306.2l3.5,1.1l-1.7,4.4l-4.5-2.2L1283,306.2z"/>
			<path class="st2" d="M1293.1,308.8l3.9,2.4l-1.6,3.5l-4.6-1.3L1293.1,308.8z"/>
			<path class="st2" d="M1304.1,312.9l3.9,2.4l-1.7,4.4l-3.5-2.3L1304.1,312.9z"/>
			<path class="st2" d="M1298.9,327.9l3.8,1.4l-1.7,4.4l-4.5-2.2L1298.9,327.9z"/>
			<path class="st2" d="M1287.5,322.3l4.5,2.2l-2.2,4.5l-4.5-2.2L1287.5,322.3z"/>
			<path class="st2" d="M1255.6,311.7l25.9,9.3l-1.7,3.9l-26.3-9.5L1255.6,311.7z"/>
			
				<rect x="1257.7" y="273.7" transform="matrix(0.3542 -0.9352 0.9352 0.3542 530.3414 1395.186)" class="st3" width="35.2" height="79.9"/>
			
				<rect x="1247.3" y="292.4" transform="matrix(0.3542 -0.9352 0.9352 0.3542 531.1159 1360.6688)" class="st3" width="6.8" height="6.8"/>
			
				<rect x="1258.3" y="296.6" transform="matrix(0.3542 -0.9352 0.9352 0.3542 534.2422 1373.6898)" class="st3" width="6.8" height="6.8"/>
			
				<rect x="1269.2" y="300.7" transform="matrix(0.3542 -0.9352 0.9352 0.3542 537.456 1386.561)" class="st3" width="6.8" height="6.8"/>
			
				<rect x="1280.3" y="304.9" transform="matrix(0.3542 -0.9352 0.9352 0.3542 540.6868 1399.5664)" class="st3" width="6.8" height="6.8"/>
			
				<rect x="1290.8" y="308.9" transform="matrix(0.3542 -0.9352 0.9352 0.3542 543.8161 1412.002)" class="st3" width="6.8" height="6.8"/>
			
				<rect x="1301.8" y="313.1" transform="matrix(0.3542 -0.9352 0.9352 0.3542 546.9424 1425.0231)" class="st3" width="6.8" height="6.8"/>
			
				<rect x="1285.5" y="322.8" transform="matrix(0.3542 -0.9352 0.9352 0.3542 527.3509 1416.0339)" class="st3" width="6.8" height="6.8"/>
			
				<rect x="1296.6" y="327" transform="matrix(0.3542 -0.9352 0.9352 0.3542 530.5875 1429.0276)" class="st3" width="6.8" height="6.8"/>
			
				<rect x="1242.1" y="306.4" transform="matrix(0.3542 -0.9352 0.9352 0.3542 514.6781 1364.811)" class="st3" width="6.8" height="6.8"/>
			
				<rect x="1264" y="303" transform="matrix(0.3542 -0.9352 0.9352 0.3542 520.9991 1390.6571)" class="st3" width="6.8" height="30.3"/>
			<path class="st4" d="M1286.6,268.7c0.8,1.2,3.6,4.5,1.9,8.9c-2.2,5.9-10,2.2-12.3,8.4c-1.6,4.2,0.5,8.2,2.9,10.3"/>
			<path class="st5" d="M1317.9,351.5l-8-5.4 M1306,348.2l1.6,5.9 M1312,342.4l5.2-0.9"/>
			<path class="st5" d="M1275,281.5l-4-4.7 M1278.1,279.7l-1.2-3.2"/>
			<path class="st5" d="M1228.7,312.7l-5.6,2.6 M1227.8,309.2l-3.4,0.2"/>
			<path class="st1" d="M1356.2,21l29.2,14.9l-8.9,19c-4,8.5-14.1,12.2-22.7,8.3c-9.2-4.2-12.8-15.3-7.8-24.1L1356.2,21z"/>
			<path class="st2" d="M1366.3,37l-0.2,5l4.3,3l-5.2,2.7l-1.6,4.5l-4-4.5l-5.1-0.5l3.1-3.7l-1.3-5.1l5.1,1.6L1366.3,37z"/>
			<path class="st1" d="M1345.7,70.8c-3.6-1-6.1-1.5-9.4,0l19.4,10.6c-0.5-3.6-2-6.8-4.7-9.3l3.5-6.3l-5.9-2.2L1345.7,70.8z"/>
			<path class="st1" d="M1328.9,68.8l31.5,17.7l-8.4,14.9L1320.6,83L1328.9,68.8z"/>
			<path class="st6" d="M1399.2,46.7l-11.1-6.6l-1.2,1.7l10.4,5.4l-5,9.1c-6.3,10.7-16.4,9.3-21,6.5l-2.7,1.6c8.2,4.5,19,3.4,25-7.7
				L1399.2,46.7z"/>
			<path class="st6" d="M1339,16.2l11.2,5.9l-1,1.9l-9.8-5.7l-3.8,8.5c-4.2,7.8-2.3,18,4.9,21.9l0.3,4.3
				c-8.2-4.5-11.9-19.6-7.3-27.6L1339,16.2z"/>
			
				<rect x="1329.9" y="64.3" transform="matrix(0.4789 -0.8779 0.8779 0.4789 624.4562 1219.9679)" class="st3" width="19.9" height="39.3"/>
			
				<rect x="1336.7" y="73.8" transform="matrix(0.4789 -0.8779 0.8779 0.4789 624.4618 1219.9581)" class="st7" width="6.3" height="20.3"/>
			<path class="st5" d="M1355.8,81.4c-0.5-3.6-2.3-6.9-5-9.4l3.9-7.1l-6.7-3.7l-3.8,7.2c-3.6-1-7.4-0.6-10.7,0.9"/>
			<path class="st5" d="M1367.1,34.1l-0.1,7.5l5.9,4.7l-7.2,2.2l-2.6,7.1l-4.3-6.2l-7.5-0.3l4.5-6l-2-7.3l7.1,2.4L1367.1,34.1z"/>
			<path class="st5" d="M1354.2,16.8l34.5,18.8L1378,55.2c-5.2,9.5-17.1,13-26.6,7.8s-13-17.1-7.8-26.6L1354.2,16.8z"/>
			<path class="st5" d="M1386.9,38.7l13.6,7.4l-5.8,10.7c-6,11.1-17.8,13.4-27.9,7.9 M1385.1,42.1l10.4,5.7l-4,7.3
				c-4.2,7.8-13.8,10.7-20,7.3"/>
			<path class="st5" d="M1351.9,21.7l-13.6-7.4l-5.8,10.7c-6,11.1,0,23.1,10.1,28.6 M1350,25.1l-10.4-5.7l-4,7.3
				c-4.2,7.8-0.5,17.2,5.7,20.5"/>
			<path class="st5" d="M1358.2,3.3l-1.3,9.5 M1361.5,12.8l1.1-3.5 M1352.6,12.6l-3.1-4.3"/>
			<path class="st5" d="M1374.6,71.6v6.2 M1371.1,71l-1.2,3.2"/>
			<path class="st1" d="M1281.4,225.6l4.4-31.4l-31.6,13.5l12.7,4.4l-12.4,20.7l7.4,4.4l13.1-20.8L1281.4,225.6z"/>
			<path class="st5" d="M1283.7,229.1l4.3-38.5l-35,17.3l12.9,4.6l-13.5,18.6l9.6,6.6l13.1-18.5L1283.7,229.1z"/>
			<path class="st5" d="M1256.9,250.8l3.4-9 M1255.8,240.8l-1.9,3.2 M1264.4,243l2,4.8"/>
			<path class="st1" d="M1484.2,337.8c7.1-12.9,19.3-8.8,24.1-5.8c5.1,2.5,7.9,9.1,0.2,23c-7.7,13.9-6,18.3-5,19.9l-35-19.2
				C1470.3,355.7,1476.5,351.8,1484.2,337.8z"/>
			
				<ellipse transform="matrix(0.4817 -0.8764 0.8764 0.4817 495.1901 1490.0687)" class="st1" cx="1507.2" cy="326.4" rx="2.7" ry="2.7"/>
			<path class="st1" d="M1488.8,367.4c-0.7,1.3-2.8,4.1-5.2,2.8c-2.4-1.3-2.8-4.2-2.1-5.5c0.7-1.3,1.5-0.5,3.9,0.9
				C1487.8,366.9,1489.5,366.1,1488.8,367.4z"/>
			<path class="st2" d="M1481.1,342l27.7,15.7l-1.9,3.6l-28.5-15.7L1481.1,342z"/>
			<path class="st5" d="M1481.7,337.2c7.7-13.9,19.2-11.4,24-8.5c5.1,2.5,13.2,10.7,5.5,24.7c-7.7,13.9-7.5,20.6-6.5,22.2l-38.2-21
				C1468.4,354.6,1474,351.1,1481.7,337.2z"/>
			<path class="st5" d="M1507.8,330c0.8-0.3,1.5-0.9,2-1.7c1-1.9,0.3-4.2-1.5-5.2c-1.9-1-4.2-0.3-5.2,1.5c-0.5,0.8-0.6,1.7-0.4,2.6"
				/>
			<path class="st5" d="M1479.9,362c-1.7,3.1-0.7,6.8,2.3,8.5c3,1.6,6.7,0.5,8.4-2.6"/>
			<path class="st5" d="M1480.2,339.5l29.9,16.4"/>
			<path class="st5" d="M1476.9,345.4l29.9,16.4"/>
			<path class="st5" d="M1492.2,385.3l-2.5-9.3 M1494.3,375.5l2.8,4.6 M1485.5,376.8l-1.8,5.6"/>
			<path class="st5" d="M1485.6,316.3l4.8,8.4 M1494.2,322.9l0.3-5.8"/>
			<path class="st2" d="M1486.5,35.1l-27.9,21.6l-9.2-11.1l28.9-8.8l-33.6,3.5l-6.4-9.1L1486.5,35.1z"/>
			<path class="st1" d="M1441.9,56.7l11.4-4.5l-4.6-5.7l29.6-9.2l-31.4,3.9L1441.9,56.7z"/>
			<path class="st5" d="M1489.7,34.4l-30.1,24.1l-4.8-5.8 M1489.7,34.4l-54.7-6.5l10,12.8 M1489.7,34.4l-41,10.9 M1489.7,34.4
				l-44.7,6.3 M1444.9,40.8l-4.2,18.1 M1440.8,58.9l7.9-13.6 M1440.8,58.9l14-6.2 M1448.7,45.3l6.1,7.4"/>
			<path class="st5" d="M1417.2,64.4l17.2-6.7 M1436.9,62.1l-9.5,6.3 M1434.3,52.5l-12.5,0.3"/>
			<path class="st2" d="M1275,104l-4.2,8l0.5-30.1l1,0.8l4.7-0.4l3.3,1.6l-0.4,27.4L1275,104z"/>
			<path class="st2" d="M1291.6,92.6l6.4,7.2l-4.5-23.4l-1.9,4.4l-4.9,0.4l-1.9,2l2.4,19.4L1291.6,92.6z"/>
			<path class="st1" d="M1281.6,47.7c0.5,0.4,1.1,0.7,1.8,0.9s1.3,0.1,1.9-0.1c0.8-0.5,1.8-0.6,2.8-0.1c0.9,0.5,1.5,1.4,1.7,2.4
				c0.2,0.6,0.6,1.2,1.1,1.7s1.1,0.8,1.7,0.9c0.9,0,1.9,0.5,2.5,1.4s0.7,2,0.3,3c-0.1,0.7,0,1.4,0.2,2.1c0.2,0.7,0.6,1.3,1.1,1.7
				c0.8,0.5,1.4,1.4,1.5,2.5c0.1,1.1-0.4,2.1-1.1,2.7c-0.4,0.5-0.7,1.2-0.8,1.9c-0.1,0.7-0.1,1.4,0.1,2.1c0.5,0.9,0.5,2,0.1,3
				s-1.3,1.6-2.2,1.8c-0.6,0.2-1.1,0.6-1.6,1.2c-0.4,0.5-0.7,1.2-0.9,1.8c0,1-0.5,2-1.3,2.6s-1.9,0.7-2.8,0.3
				c-0.6-0.1-1.3,0-1.9,0.2s-1.2,0.6-1.6,1.1c-0.5,0.9-1.3,1.5-2.3,1.6s-2-0.4-2.5-1.2c-0.5-0.4-1.1-0.7-1.8-0.9
				c-0.7-0.1-1.3-0.1-1.9,0.1c-0.8,0.5-1.8,0.6-2.8,0.1c-0.9-0.5-1.5-1.4-1.7-2.4c-0.2-0.6-0.6-1.2-1.1-1.7s-1-0.9-1.7-0.9
				c-1.3-0.1-1.9-0.5-2.5-1.4s-0.7-2-0.3-3c0.1-0.7,0-1.3-0.2-2s-0.6-1.2-1-1.7l0,0c-0.8-0.5-1.4-1.4-1.5-2.6
				c-0.1-1.1,0.4-2.1,1.1-2.8l0,0c0.4-0.5,0.6-1.1,0.7-1.8s0.1-1.4-0.1-2l0,0c-0.5-0.9-0.6-2-0.1-3c0.4-1,1.3-1.6,2.2-1.8l0,0
				c0.6-0.2,1.1-0.6,1.5-1.2c0.4-0.5,0.7-1.2,0.9-1.8c0-1,0.4-2,1.3-2.6c0.8-0.6,1.9-0.7,2.8-0.3c0.6,0.1,1.3,0,1.9-0.2
				s1.2-0.6,1.6-1.1c0.5-0.9,1.3-1.5,2.3-1.6C1280.1,46.4,1281,46.9,1281.6,47.7z"/>
			<path class="st2" d="M1291.6,61.4c2,6.1-1.1,11.9-7.1,13.8c-6,2-13,0-15-6.1s1.6-13.3,7.6-15.2
				C1283.2,51.9,1289.7,55.3,1291.6,61.4z"/>
			<path class="st1" d="M1281,61.7l1.1,1.9l1.8,0.4l-1.1,1.8l0.3,2.3l-1.8-0.7l-1.6,1l-0.1-2.3l-1.3-1.7l1.8-0.7L1281,61.7z"/>
			<path class="st5" d="M1281.3,84.1l0.1,29.6l-6-7.1l-5.6,6.8l-0.7-34.8"/>
			<path class="st5" d="M1293.5,76.4l4.9,25.3l-6.7-5.9l-5,8l-4.1-19.6"/>
			<path class="st5" d="M1281.6,46.3c0.5,0.4,1.2,0.7,1.9,0.9c0.7,0.1,1.5,0.1,2.1-0.1c0.9-0.5,2.1-0.6,3.1-0.1s1.7,1.4,1.8,2.5
				c0.3,0.6,0.7,1.2,1.2,1.7c0.6,0.5,1.2,0.8,1.9,1c1.1,0,2.1,0.5,2.7,1.4s0.7,2.1,0.3,3.1c-0.1,0.7,0,1.4,0.2,2.1
				c0.2,0.7,0.7,1.3,1.2,1.8c0.9,0.5,1.6,1.5,1.6,2.6c0.1,1.1-0.4,2.2-1.2,2.8c-0.4,0.6-0.7,1.2-0.9,1.9c-0.1,0.7-0.1,1.5,0.1,2.1
				c0.5,0.9,0.6,2.1,0.1,3.1s-1.4,1.7-2.5,1.8c-0.7,0.3-1.2,0.7-1.7,1.2c-0.5,0.6-0.8,1.2-1,1.9c0,1.1-0.5,2.1-1.4,2.7
				s-2.1,0.7-3.1,0.3c-0.7-0.1-1.4,0-2.1,0.2s-1.3,0.7-1.8,1.2c-0.5,0.9-1.5,1.6-2.6,1.6c-1.1,0.1-2.2-0.4-2.8-1.2
				c-0.5-0.4-1.2-0.7-1.9-0.9c-0.7-0.1-1.5-0.1-2.1,0.1c-0.9,0.5-2.1,0.6-3.1,0.1s-1.7-1.4-1.8-2.5c-0.3-0.6-0.7-1.2-1.2-1.7
				c-0.6-0.5-1.1-0.9-1.9-1c-1.4-0.1-2.1-0.5-2.7-1.4c-0.7-0.9-0.7-2.1-0.3-3.1c0.1-0.7,0-1.4-0.2-2.1s-0.6-1.3-1.1-1.7l0,0
				c-0.9-0.5-1.6-1.5-1.7-2.6c-0.1-1.2,0.4-2.2,1.3-2.9l0,0c0.4-0.5,0.7-1.2,0.8-1.9c0.1-0.7,0.1-1.4-0.1-2.1l0,0
				c-0.5-0.9-0.6-2.1-0.1-3.1s1.4-1.7,2.5-1.8l0,0c0.7-0.3,1.2-0.7,1.7-1.2c0.5-0.6,0.8-1.2,1-1.9c0-1.1,0.5-2.1,1.4-2.7
				c0.9-0.6,2.1-0.7,3.1-0.3c0.7,0.1,1.4,0,2.1-0.2s1.3-0.7,1.8-1.2c0.5-0.9,1.5-1.6,2.6-1.6S1280.9,45.5,1281.6,46.3z"/>
			
				<ellipse transform="matrix(0.9972 -7.488259e-02 7.488259e-02 0.9972 -1.2495 96.0698)" class="st8" cx="1280.5" cy="64.7" rx="12.9" ry="12.9"/>
			<path class="st5" d="M1280.3,59.5l2.1,2.9l3.5,0.6l-2.1,2.9l0.5,3.5l-3.4-1.1l-3.2,1.6v-3.6l-2.5-2.6l3.4-1.1L1280.3,59.5z"/>
			<path class="st5" d="M1257,99l9.6,0.7 M1266.3,95.1l-3.6-0.9 M1266.7,104l-4,3.4"/>
			<path class="st5" d="M1294.6,46.9l2.9-5.4 M1297.4,49.1l2.6-2.2"/>
			<path class="st2" d="M1375.5,245.7c-6.5,14.6-18.2,16.6-33.2,12.9c-14.9-3.7-22.2-21.3-15.7-35.9c6.5-14.6,22.4-20.7,35.7-14.8
				C1375.7,213.9,1382,231.1,1375.5,245.7z"/>
			<path class="st1" d="M1349.2,232.7c-0.6,1.3,0,2.2,1.2,3s2.8,0.2,3.4-1.1s0-2.8-1.2-3.3C1351.3,230.7,1349.8,231.4,1349.2,232.7z
				"/>
			<path class="st2" d="M1361.8,203.6l4.9,1.7l-1,2.3l-5.2-2.3L1361.8,203.6z"/>
			
				<ellipse transform="matrix(0.4056 -0.9141 0.9141 0.4056 590.819 1373.0214)" class="st9" cx="1351.1" cy="232.2" rx="28.7" ry="28.7"/>
			
				<ellipse transform="matrix(0.4056 -0.9141 0.9141 0.4056 590.819 1373.0214)" class="st9" cx="1351.1" cy="232.2" rx="3.4" ry="3.4"/>
			<path class="st5" d="M1357.3,218.3l-4.9,11.1 M1354,234.1l7,3.1"/>
			<path class="st5" d="M1361.3,210.2l-1.8,4.1 M1343.2,251.1l-1.8,4.1"/>
			<path class="st5" d="M1328.9,222.8l4.1,1.8 M1369.7,240.9l4.1,1.8"/>
			<path class="st5" d="M1348.8,208.3l0.5,4.5 M1353.5,252.7l0.5,4.5"/>
			<path class="st5" d="M1326.9,235.3l4.5-0.5 M1371.3,230.6l4.5-0.5"/>
			<path class="st5" d="M1336.9,212.9l2.7,3.6 M1363.2,249l2.7,3.6"/>
			<path class="st5" d="M1331.5,247.2l3.7-2.7 M1367.6,220.9l3.7-2.7"/>
			
				<rect x="1361.7" y="201.1" transform="matrix(0.4056 -0.9141 0.9141 0.4056 623.5699 1367.8193)" class="st9" width="3.6" height="6.8"/>
			<path class="st5" d="M1375.6,265.5l-5.5-5.4 M1374.3,256.4l3.4,1.5 M1365.4,263.9l1.4,3.6"/>
			<path class="st5" d="M1357.7,189.5l2,7.7 M1356.9,199.4l-3.5-2.8 M1363.2,198.2l1.3-4.1"/>
			<path class="st2" d="M1401.8,161.7c-1.7-8.4-1.6-11.2-2.6-16.1l1-0.7c0,0-1.9-6.9-2.4-9.4c-1.4-6.8,2.8-13.6,12.9-17.1
				c0.7-0.2-0.8-2.1,0-2.3c10.1,1.2,18.6,5.2,19.8,10.9c1.4,6.9,2.1,15,7.1,26.7c4.7,11.2-7.1,20.8-15.2,21.5
				C1414.6,175.9,1404,172.3,1401.8,161.7z"/>
			<path class="st1" d="M1410.7,127.8c-0.3-1.7,1-2.7,2.8-3.1c0,0,1.4,0,2.1,1.2c0.9,1.5,2,4.1,2,4.1c0.3,1.3-0.5,2.8-2.3,3.2
				s-3.5-0.3-3.8-1.6C1411.5,131.5,1411.1,129.3,1410.7,127.8z"/>
			<path class="st5" d="M1395.8,135.7c-1.5-7.3,3.3-16.6,14.9-19.6c10-2,20,4.2,21.4,11.1l5.4,26.5c2.4,11.9-6.5,21.1-14.5,22.8
				c-8,1.6-21.2-3.3-23.4-13.9c-1.7-8.4,0.2-11.6-0.8-16.4C1398.2,142.6,1396.5,139,1395.8,135.7z"/>
			<path class="st5" d="M1410.7,116.1l1.4,6.9 M1414.2,132.9l1.9,9.1"/>
			<path class="st5" d="M1399,145.7l35.4-7.2"/>
			<path class="st5" d="M1408.8,127.5c-0.3-1.7,1.2-3.5,3.6-3.9c2.3-0.5,4.5,0.5,4.8,2.2l0.7,3.6c0.3,1.7-1.3,3.5-3.6,3.9
				c-2.3,0.5-4.5-0.5-4.8-2.2L1408.8,127.5z"/>
			<path class="st4" d="M1403.1,88.6c1.3,0.6,5.5,1.9,6.4,6.5c1.3,6.2-7.3,7.2-6,13.7c0.9,4.4,4.8,6.6,7.9,7.1"/>
			<path class="st5" d="M1418.8,192.3l-0.1-9.1 M1423.4,179.9l1.5,3.4 M1413.9,181l-2.6,4.6"/>
			<path class="st5" d="M1425.4,103.4l-9-1.5 M1412.4,106l3.1,2 M1415,96.8l4.9-1.9"/>
			<path class="st1" d="M1537.2,73.8l-3.2-11.3l9.9-3.5l3.7,8.8C1547.2,69.8,1540.5,72.6,1537.2,73.8z"/>
			<path class="st1" d="M1523.7,72.9l-1.6-10.2l-10.6,2l2.7,8.4L1523.7,72.9z"/>
			<path class="st1" d="M1503.1,80.2l8.5-4.5l1.8,9.1l-7.7,4L1503.1,80.2z"/>
			<path class="st1" d="M1520.3,95.2l-3.8-9.8l10.4,1.2l2.3,9L1520.3,95.2z"/>
			<path class="st1" d="M1543.9,95.9l-1.5-9.5l7.5-4.2l2.5,9L1543.9,95.9z"/>
			<path class="st1" d="M1535.9,75.4l2.7,9.3l-9-0.9l-2.5-8.1L1535.9,75.4z"/>
			<path class="st5" d="M1548.2,52.3l18.4,64.6"/>
			<path class="st5" d="M1550.8,79.1c-0.1,0.7-4.6,5.1-10.7,5.9c-7.6,1-13-0.8-19-0.6c-6,0.2-12.7,2.5-15.5,6 M1547.8,67.7
				c-0.1,0.7-4.6,5.1-10.7,5.9c-7.6,1-13-0.8-19-0.6c-6,0.2-12.7,2.5-15.5,6 M1534.2,62.3c6.1-0.8,10.5-5.2,10.6-5.9l9,34.1
				c-0.1,0.7-4.6,5.1-10.6,5.9 M1534.2,62.3c-4.4,0.6-8,0.2-11.5-0.2 M1534.2,62.3l8.9,34.1 M1543.1,96.4c-4.5,0.6-8.2,0.2-11.7-0.2
				 M1510.2,62.3c1.6-0.3,3.3-0.5,5-0.6c2.5-0.1,5,0.2,7.5,0.5 M1510.2,62.3c-4.4,0.9-8.5,2.9-10.6,5.5l8.9,34.1
				c2-2.5,5.8-4.4,10.1-5.4 M1510.2,62.3l8.5,34.2 M1518.7,96.4c1.8-0.4,3.6-0.6,5.4-0.7c2.5-0.1,4.8,0.2,7.3,0.5 M1531.4,96.2
				l-8.7-34"/>
			<path class="st5" d="M1523.8,112.1l-2-8.9 M1524,98.8l2.2,3 M1516.7,102.1l-1.6,5"/>
			<path class="st5" d="M1572.2,62.9l-14.5,4.2 M1556.7,62.8l5.9-2.7 M1558.4,71.4l9-1.2"/>
			<path class="st2" d="M1396.1,315.5L1360,302l35.9-15.9l40.9,11.4L1396.1,315.5z"/>
			<path class="st1" d="M1373.7,328.1v-16.3l22.6,7l25.1-12.5l0.4,19c-3.2,3.4-11,10.1-23.8,10.9
				C1385.1,336.9,1376.8,331.1,1373.7,328.1z"/>
			<path class="st2" d="M1428.6,322.4c0.1,2-0.4,2.5-2.6,2.6c-2.1,0.1-2.3-1-2.4-3c-0.1-1.1,1.4-3,2.8-3.1
				C1428.4,318.8,1428.4,320.4,1428.6,322.4z"/>
			<path class="st2" d="M1425,326.4c1.4,0.3,2.5,1.5,2.7,2.9l2.2,12.4l-4.9,0.5L1425,326.4z"/>
			<path class="st1" d="M1400.7,297.2c1.1,0.8,0.5,1.7-1.5,2.5s-3.8,1.1-5.7,0.3c-1.6-0.6-0.5-2.3,1.5-3
				C1396.9,296.2,1399,296.1,1400.7,297.2z"/>
			<path class="st5" d="M1399.8,299.2l25.2,5.2l0.8,13.4"/>
			
				<ellipse transform="matrix(0.9983 -5.831143e-02 5.831143e-02 0.9983 -16.3269 83.6876)" class="st8" cx="1425.8" cy="321.6" rx="3.8" ry="3.8"/>
			<path class="st5" d="M1423.9,327.6c0.1-1.2,1-2.1,2.1-2.1c1.2-0.1,2.2,0.7,2.4,1.9l2.5,15l-7.7,0.4L1423.9,327.6z"/>
			<path class="st5" d="M1438.7,297.8l-42.3,19l-42.9-14l42.3-19L1438.7,297.8z"/>
			<path class="st5" d="M1371.3,309.2l1.1,19.4c1.9,2.9,9.6,8.5,25.3,7.6c11.4-0.7,18.6-4.2,22.4-7.4c1.5-1.2,2.4-2.3,3-3.2l-0.1-1
				 M1421.9,305.4l0.5,9.2l0.3,4.5"/>
			<path class="st5" d="M1400.7,297.2c1.1,0.8,0.5,1.7-1.4,2.5c-2,0.8-3.8,1.1-5.7,0.3c-1.6-0.6-0.5-2.3,1.5-3
				C1396.9,296.2,1399,296.1,1400.7,297.2z"/>
			<path class="st5" d="M1441.6,321.5l-8,0.1 M1432.4,325.3l2.9,3.3 M1432.2,318l4.6-2.6"/>
			<path class="st5" d="M1393.4,270.9l2,9.3 M1400.1,281.3l1.4-5.5 M1391,282.5l-3.2-3.9"/>
			<path class="st1" d="M1504.8,169l-16.6-5.7l-7.3,9.3l-8-2.5l29.6-35.9l10.4,2.3l1.7,46.3l-7.6-1.9L1504.8,169z M1491.6,157
				l14.7,3.8l-1.5-18.1L1491.6,157z"/>
			<path class="st1" d="M1531.4,146.5l3.2-7.8l4.2,0.4l-3.1,8.2l7.5,2.3l-1.5,3.2l-7.7-1.5l-3,9.4l-3.5-1.1l3.1-8.4l-10.1-3.2
				l2.8-3.4L1531.4,146.5z"/>
			<path class="st5" d="M1504.4,170.3l-16.8-5.3l-5.9,7.8l-10.2-3.2l30-38.2l11.2,3.5l2.5,48.4l-10.5-3.3L1504.4,170.3z
				 M1493.6,157.2l10.5,3.3l-0.5-16.6L1493.6,157.2z"/>
			<path class="st5" d="M1530.7,145.3l2.7-8.6l5.6,1.8l-2.7,8.6l8.3,2.6l-1.7,5.4l-8.3-2.6l-2.7,8.6l-5.6-1.8l2.7-8.6l-8.3-2.6
				l1.7-5.4L1530.7,145.3z"/>
			<path class="st5" d="M1527.3,172.9l1.4-7.9 M1525.6,163.5l-1.4,3.5 M1532.2,165l1.7,5"/>
			<path class="st5" d="M1495.9,118.8l3.6,9.2 M1503,127.7l1.1-5.6 M1497.3,131.3l-5.1-3.7"/>
			<path class="st2" d="M1247.1,149l44.8,14l-2.3,6.8l-47.7-18l1.3-1.7C1244.1,149,1245.7,148.5,1247.1,149z"/>
			<path class="st2" d="M1324.9,174.7l-31.3-9.8l-2,5.9l35,10.6l0.7-2.1C1327.9,177.4,1326.9,175.4,1324.9,174.7z"/>
			<path class="st1" d="M1301.6,123.5l-22,33.1l48.7,18.1l22.1-36L1301.6,123.5z"/>
			<path class="st2" d="M1304.7,130.9l-16.6,23l38.1,14.1l16-25.9L1304.7,130.9z"/>
			<path class="st5" d="M1241.6,148.6c0.6-1.7,2.5-2.7,4.2-2.1l81,27.8c1.8,0.6,2.7,2.5,2.1,4.2l-0.3,0.9c-0.6,1.7-2.5,2.7-4.2,2.1
				l-81-27.8c-1.7-0.6-2.7-2.5-2.1-4.2L1241.6,148.6z"/>
			<path class="st5" d="M1328.4,179.7l24.1-41.4l-51.5-17.7l-22.5,37.4"/>
			<path class="st5" d="M1342.9,141.6l-15.7,26.8l-39.4-13.5l15.9-26.7L1342.9,141.6z"/>
			<path class="st5" d="M1292.6,162.3l-2.5,7.4"/>
			<path class="st5" d="M1309.5,136.1l-5.5,2.5 M1316.3,138.4l-14.7,7.2"/>
			<path class="st5" d="M1266,129.9l6.7,14.1 M1277.8,141.3l-0.4-6.9 M1268.2,147.8l-7.3-4.9"/>
			<path class="st1" d="M1420.1,265.3l4.9-54.4l77.6,6.5l-3.7,53.4l-28.4-2c-6.1-0.4-6.5,5.7-10.1,5.4l-4.1-0.3
				c-3.4-0.2-3-6.3-9.9-6.8L1420.1,265.3z"/>
			<path class="st2" d="M1455.3,206.9c3.8,0.3,7.1,2.7,6.8,6.6c0.3-3.8,4.2-5.8,8.1-5.6l24.6,1.7l-2.6,54.3l-23.4-1.2
				c-5.9-0.4-9.1,2.2-9.8,4.1c-0.5-1.9-2.5-4.9-8.5-5.3l-23.6-2.8l3.3-54.1L1455.3,206.9z"/>
			<path class="st5" d="M1458.8,267.5l3.8-54.7c0.3-3.8-3.3-7.5-7.2-7.7l-26.6-1.8l-3.9,56.3l24.8,1.7
				C1455.7,261.7,1458.4,265.6,1458.8,267.5z"/>
			<path class="st5" d="M1458.8,267.5l3.8-54.7c0.3-3.8,3.7-7,7.5-6.7l26.6,1.8l-3.9,56.3l-24.8-1.7
				C1462.1,262.1,1459.6,265.7,1458.8,267.5z"/>
			<path class="st5" d="M1432.2,219.7l25.2,1.7 M1431.7,226.8l25.2,1.7 M1431.2,233.5l25.2,1.7 M1430.7,240.8l25.2,1.7
				 M1430.3,247.7l25.2,1.7"/>
			<path class="st5" d="M1466,222.1l25.2,1.7 M1465.5,229.1l25.2,1.7 M1465,235.9l25.2,1.7 M1464.5,243.1l25.2,1.7 M1464.1,250
				l25.2,1.7"/>
			<path class="st5" d="M1428.7,209.3l-6.3-0.4l-3.9,56.3c7.7,0.5,24.2,1.7,27.9,1.9c7,0.5,6.6,6.6,9.9,6.8c1.6,0.1,2.9,0.2,4.1,0.3
				c3.6,0.2,4-5.8,10.1-5.4c4.9,0.3,21.2,1.5,28.4,2l3.9-56.3l-5.6-0.4"/>
			<path class="st5" d="M1500.5,192.4l-3.8,9.7 M1491,201.7l0.9-3.6 M1501.1,205.8l4.7-3.1"/>
			<path class="st5" d="M1427,279.1l2.6-8.1 M1434.6,271.4l-0.5,7.1 M1425.2,269.5l-2.3,3.5"/>
			<path class="st5" d="M1404.6,209.2l2.2,4.1l4.7,0.1l-3.2,3.4l1.3,4.5l-4.2-2l-3.8,2.6l0.6-4.6l-3.7-2.9l4.6-0.9L1404.6,209.2z"/>
			<path class="st5" d="M1245.8,180.1l0.6,3.8l3.6,1.4l-3.4,1.8l-0.2,3.9l-2.7-2.7l-3.7,1l1.7-3.4l-2.1-3.2l3.8,0.6L1245.8,180.1z"
				/>
			<path class="st5" d="M1531.3,202.6l-1,3.2l2.3,2.5l-3.4,0.1l-1.6,2.9l-1.1-3.2l-3.3-0.6l2.7-2l-0.4-3.3l2.8,1.9L1531.3,202.6z"/>
			<path class="st5" d="M1386.9,144.4l-1,2.5l1.7,2.2l-2.7-0.2l-1.6,2.3l-0.7-2.7l-2.6-0.8l2.3-1.4l-0.1-2.7l2.1,1.8L1386.9,144.4z"
				/>
			<path class="st5" d="M1312.6,33.9l0.5,2.7l2.6,1l-2.4,1.3l-0.1,2.7l-2-1.9l-2.6,0.7l1.2-2.5l-1.5-2.3l2.7,0.4L1312.6,33.9z"/>
			<path class="st5" d="M1484.5,68l2.1,1.8l2.6-0.9l-1.1,2.5l1.7,2.2l-2.7-0.2l-1.6,2.3l-0.7-2.7l-2.6-0.8l2.3-1.4L1484.5,68z"/>
			<path class="st5" d="M1445.6,359.1l-1.1,3.6l2.5,2.7l-3.7,0.1l-1.8,3.3l-1.2-3.5l-3.7-0.7l3-2.3l-0.5-3.7l3.1,2.1L1445.6,359.1z"
				/>
			<path class="st5" d="M1325.9,274.5l-0.1,2.7l2.3,1.5l-2.6,0.8l-0.7,2.6l-1.5-2.3l-2.7,0.2l1.7-2.1l-1-2.5l2.6,0.9L1325.9,274.5z"
				/>
			<path class="st5" d="M1464.7,108.7l-0.2,5.2l4.4,2.8l-5,1.4l-1.3,5l-2.9-4.3l-5.2,0.3l3.2-4.1l-1.9-4.8l4.9,1.8L1464.7,108.7z"/>
			<path class="st5" d="M1259.9,281.9c7.5-11.1,27.6-34.3,47.5-38.7 M1356.3,160c9.9,6.8,28.1,25.1,22.2,44.5 M1458.7,156.4
				c-11.1,6.6-12.6,23.9,1.6,28.8 M1305.3-6c-8.9,7.2-9.6,30.4,14.2,32.5 M1478.1,77.8c-3.2,4-13,11.1-27,6.9 M1514.2,240.5
				c-2,4.8-2.7,16.8,11.1,26.5 M1365.9,337.4c-4.3,4.9-15.5,14.2-25.5,12 M1377.8,107.9c1,5.1-6.7,13.5-15.6,10.1"/>
			
				<ellipse transform="matrix(0.1998 -0.9798 0.9798 0.1998 834.0327 1455.0565)" class="st10" cx="1307.9" cy="216.9" rx="4.4" ry="4.4"/>
			<ellipse class="st10" cx="1245.4" cy="122.9" rx="2" ry="2"/>
			
				<ellipse transform="matrix(0.1998 -0.9798 0.9798 0.1998 1035.6261 1427.7526)" class="st10" cx="1392" cy="79.8" rx="2.7" ry="2.7"/>
			
				<ellipse transform="matrix(0.1998 -0.9798 0.9798 0.1998 988.2905 1589.5482)" class="st10" cx="1467.3" cy="189.7" rx="2.2" ry="2.2"/>
			<ellipse class="st10" cx="1455.5" cy="332" rx="3.5" ry="3.5"/>
			
				<ellipse transform="matrix(0.1998 -0.9798 0.9798 0.1998 919.7668 1718.1207)" class="st10" cx="1511.8" cy="295.9" rx="2.7" ry="2.7"/>
			<path class="st1" d="M1188.5,229.3c7.1-12.9,19.3-8.8,24.1-5.8c5.1,2.5,7.9,9.1,0.2,23c-7.7,13.9-6,18.3-5,19.9l-35-19.2
				C1174.7,247.2,1180.9,243.2,1188.5,229.3z"/>
			
				<ellipse transform="matrix(0.4817 -0.8764 0.8764 0.4817 436.9742 1174.7246)" class="st1" cx="1211.6" cy="218" rx="2.7" ry="2.7"/>
			<path class="st1" d="M1193.2,258.9c-0.7,1.3-2.8,4.1-5.2,2.8c-2.4-1.3-2.8-4.2-2.1-5.5c0.7-1.3,1.5-0.5,3.9,0.9
				C1192.2,258.4,1193.9,257.6,1193.2,258.9z"/>
			<path class="st2" d="M1185.4,233.5l27.7,15.7l-2,3.6l-28.5-15.7L1185.4,233.5z"/>
			<path class="st5" d="M1186,228.7c7.6-13.9,19.2-11.4,24-8.5c5.1,2.5,13.2,10.7,5.5,24.7c-7.7,13.9-7.5,20.6-6.5,22.2l-38.2-21
				C1172.7,246.1,1178.4,242.6,1186,228.7z"/>
			<path class="st5" d="M1212.2,221.4c0.8-0.3,1.5-0.9,2-1.7c1-1.9,0.3-4.2-1.5-5.2s-4.2-0.3-5.2,1.5c-0.4,0.8-0.6,1.7-0.4,2.6"/>
			<path class="st5" d="M1184.3,253.5c-1.7,3.1-0.7,6.8,2.3,8.5c3,1.6,6.7,0.5,8.4-2.6"/>
			<path class="st5" d="M1184.6,231l29.9,16.4"/>
			<path class="st5" d="M1181.3,236.9l29.9,16.4"/>
			<path class="st5" d="M1196.5,276.8l-2.5-9.3 M1198.6,267l2.8,4.6 M1189.8,268.3l-1.8,5.6"/>
			<path class="st5" d="M1189.9,207.8l4.8,8.4 M1198.5,214.4l0.3-5.8"/>
			<path class="st2" d="M1079.9,137.2c-6.5,14.6-18.2,16.6-33.2,12.9c-14.9-3.7-22.2-21.3-15.7-35.9s22.4-20.7,35.7-14.8
				C1080,105.4,1086.3,122.6,1079.9,137.2z"/>
			<path class="st1" d="M1053.5,124.2c-0.6,1.3,0,2.2,1.2,3s2.8,0.2,3.4-1.1c0.6-1.3,0-2.8-1.2-3.3S1054.1,122.8,1053.5,124.2z"/>
			<path class="st2" d="M1066.2,95.1l4.9,1.7l-1,2.3l-5.2-2.3L1066.2,95.1z"/>
			
				<ellipse transform="matrix(0.4056 -0.9141 0.9141 0.4056 514.199 1038.2794)" class="st9" cx="1055.4" cy="123.8" rx="28.7" ry="28.7"/>
			
				<ellipse transform="matrix(0.4056 -0.9141 0.9141 0.4056 514.199 1038.2795)" class="st9" cx="1055.4" cy="123.8" rx="3.4" ry="3.4"/>
			<path class="st5" d="M1061.6,109.8l-4.9,11.1 M1058.3,125.6l7,3.1"/>
			<path class="st5" d="M1065.7,101.7l-1.8,4.1 M1047.6,142.6l-1.8,4.1"/>
			<path class="st5" d="M1033.2,114.2l4.1,1.8 M1074.1,132.4l4.1,1.8"/>
			<path class="st5" d="M1053.1,99.8l0.5,4.5 M1057.8,144.2l0.5,4.5"/>
			<path class="st5" d="M1031.2,126.8l4.5-0.5 M1075.7,122.1l4.5-0.5"/>
			<path class="st5" d="M1041.2,104.3l2.7,3.6 M1067.6,140.5l2.7,3.6"/>
			<path class="st5" d="M1035.8,138.7l3.6-2.7 M1072,112.4l3.7-2.7"/>
			
				<rect x="1066" y="92.6" transform="matrix(0.4056 -0.9141 0.9141 0.4056 546.9501 1033.0778)" class="st9" width="3.6" height="6.8"/>
			<path class="st5" d="M1080,157l-5.5-5.4 M1078.7,147.9l3.4,1.5 M1069.7,155.4l1.4,3.6"/>
			<path class="st5" d="M1062,81l2,7.7 M1061.3,90.9l-3.5-2.8 M1067.5,89.7l1.3-4.1"/>
			<path class="st5" d="M1252.6-56.2L1271,8.4"/>
			<path class="st5" d="M1255.2-29.4c-0.1,0.7-4.6,5.1-10.7,5.9c-7.6,1-13-0.8-19-0.6s-12.7,2.5-15.5,6 M1252.2-40.9
				c-0.1,0.7-4.6,5.1-10.7,5.9c-7.6,1-13-0.8-19-0.6s-12.7,2.5-15.5,6 M1238.5-46.2c6.1-0.8,10.5-5.2,10.7-5.9l8.9,34.1
				c-0.1,0.7-4.6,5.1-10.7,5.9 M1238.5-46.2c-4.4,0.6-8,0.2-11.5-0.2 M1238.5-46.2l8.9,34.1 M1247.5-12.1c-4.5,0.6-8.2,0.2-11.7-0.2
				 M1214.6-46.2c1.6-0.3,3.3-0.5,5-0.6c2.5-0.1,5,0.2,7.5,0.5 M1214.6-46.2c-4.4,0.9-8.5,2.9-10.6,5.5l8.9,34.1
				c2-2.5,5.9-4.4,10.1-5.4 M1214.6-46.2l8.5,34.2 M1223-12.1c1.8-0.4,3.6-0.6,5.4-0.7c2.5-0.1,4.8,0.2,7.3,0.5 M1235.8-12.3
				l-8.7-34"/>
			<path class="st5" d="M1228.2,3.6l-2-8.9 M1228.4-9.7l2.2,3 M1221-6.4l-1.6,5"/>
			<path class="st2" d="M1100.4,207l-36.1-13.5l35.9-15.9l40.9,11.4L1100.4,207z"/>
			<path class="st1" d="M1078.1,219.6v-16.3l22.6,7l25.1-12.5l0.4,19c-3.2,3.4-11,10.1-23.8,10.9
				C1089.5,228.4,1081.2,222.6,1078.1,219.6z"/>
			<path class="st2" d="M1132.9,213.9c0.1,2-0.4,2.5-2.6,2.6c-2.1,0.1-2.3-1-2.4-3c-0.1-1.1,1.4-3,2.8-3.1
				C1132.8,210.3,1132.8,211.9,1132.9,213.9z"/>
			<path class="st2" d="M1129.3,217.9c1.4,0.3,2.5,1.5,2.7,2.9l2.2,12.4l-4.9,0.5L1129.3,217.9z"/>
			<path class="st1" d="M1105,188.7c1.1,0.8,0.5,1.7-1.4,2.5c-2,0.8-3.8,1.1-5.7,0.3c-1.6-0.6-0.5-2.3,1.5-3
				C1101.3,187.7,1103.3,187.6,1105,188.7z"/>
			<path class="st5" d="M1104.2,190.7l25.2,5.2l0.8,13.4"/>
			
				<ellipse transform="matrix(0.9983 -5.831142e-02 5.831142e-02 0.9983 -10.503 66.2661)" class="st8" cx="1130.2" cy="213.1" rx="3.8" ry="3.8"/>
			<path class="st5" d="M1128.3,219.1c0.1-1.2,1-2.1,2.1-2.1c1.2-0.1,2.2,0.7,2.4,1.9l2.5,15l-7.7,0.4L1128.3,219.1z"/>
			<path class="st5" d="M1143,189.3l-42.3,19l-42.9-14l42.3-19L1143,189.3z"/>
			<path class="st5" d="M1075.6,200.7l1.1,19.4c1.9,2.9,9.6,8.5,25.3,7.6c11.3-0.7,18.6-4.2,22.4-7.4c1.5-1.2,2.4-2.3,3-3.2l-0.1-1
				 M1126.3,196.9l0.5,9.2l0.3,4.5"/>
			<path class="st5" d="M1105,188.7c1.1,0.8,0.5,1.7-1.4,2.5c-2,0.8-3.8,1.1-5.7,0.3c-1.6-0.6-0.5-2.3,1.5-3
				C1101.3,187.7,1103.3,187.6,1105,188.7z"/>
			<path class="st5" d="M1146,213l-8,0.1 M1136.7,216.8l2.9,3.3 M1136.6,209.5l4.6-2.6"/>
			<path class="st5" d="M1097.8,162.3l2,9.3 M1104.4,172.8l1.4-5.5 M1095.3,174l-3.2-3.9"/>
			<path class="st1" d="M1209.1,60.5l-16.6-5.7l-7.3,9.3l-8-2.5l29.5-35.9l10.4,2.3l1.7,46.3l-7.6-1.9L1209.1,60.5z M1196,48.5
				l14.7,3.8l-1.5-18.1L1196,48.5z"/>
			<path class="st1" d="M1235.7,38l3.2-7.8l4.2,0.4l-3.1,8.2l7.4,2.3l-1.5,3.2l-7.7-1.5l-3,9.4l-3.5-1.1l3.1-8.4l-10.1-3.2l2.8-3.4
				L1235.7,38z"/>
			<path class="st5" d="M1208.7,61.8l-16.8-5.3l-5.9,7.8l-10.2-3.2l30-38.2l11.2,3.5l2.5,48.4l-10.5-3.3L1208.7,61.8z M1197.9,48.7
				l10.5,3.3l-0.5-16.6L1197.9,48.7z"/>
			<path class="st5" d="M1235,36.8l2.7-8.6l5.6,1.8l-2.7,8.6l8.3,2.6l-1.7,5.4l-8.3-2.6l-2.7,8.6l-5.6-1.8l2.7-8.6l-8.3-2.6l1.7-5.4
				L1235,36.8z"/>
			<path class="st5" d="M1231.7,64.4l1.4-7.9 M1229.9,55l-1.3,3.5 M1236.5,56.5l1.7,5"/>
			<path class="st5" d="M1200.2,10.3l3.6,9.2 M1207.3,19.1l1.1-5.6 M1201.7,22.8l-5.1-3.7"/>
			<path class="st5" d="M1108.9,100.7l2.2,4.1l4.7,0.1l-3.2,3.4l1.3,4.5l-4.2-2l-3.9,2.6l0.6-4.6l-3.7-2.9l4.6-0.9L1108.9,100.7z"/>
			<path class="st5" d="M1235.7,94.1l-1,3.2l2.3,2.5l-3.4,0.1l-1.6,2.9l-1.1-3.2l-3.3-0.6l2.7-2l-0.4-3.3l2.8,1.9L1235.7,94.1z"/>
			<path class="st5" d="M1091.2,35.8l-1,2.5l1.7,2.2l-2.7-0.2l-1.5,2.3l-0.7-2.7l-2.6-0.8l2.3-1.4l-0.1-2.7l2.1,1.8L1091.2,35.8z"/>
			<path class="st5" d="M1150,250.6l-1.1,3.6l2.5,2.7l-3.7,0.1l-1.8,3.3l-1.2-3.5l-3.7-0.7l3-2.3l-0.5-3.7l3.1,2.1L1150,250.6z"/>
			<path class="st5" d="M1030.2,166l-0.1,2.7l2.3,1.5l-2.6,0.8l-0.7,2.6l-1.5-2.3l-2.7,0.2l1.7-2.1l-1-2.5l2.6,0.9L1030.2,166z"/>
			<path class="st5" d="M1169,0.1l-0.2,5.2l4.4,2.8l-5,1.4l-1.3,5l-2.9-4.3l-5.2,0.3l3.2-4.1l-1.9-4.8l4.9,1.8L1169,0.1z"/>
			<path class="st5" d="M964.3,173.4c7.5-11.1,27.6-34.3,47.5-38.7 M1060.7,51.5c9.9,6.8,28.1,25.1,22.2,44.5 M1163.1,47.9
				c-11.1,6.6-12.6,23.9,1.6,28.8 M1009.6-114.5c-8.9,7.2-9.6,30.4,14.2,32.5 M1182.5-30.7c-3.2,4-13,11.1-27,6.9 M1218.6,132
				c-2,4.8-2.7,16.8,11.1,26.5 M1070.2,228.9c-4.3,4.9-15.5,14.2-25.5,12 M1082.1-0.6c1,5.1-6.7,13.6-15.6,10.1"/>
			
				<ellipse transform="matrix(0.1998 -0.9798 0.9798 0.1998 703.8471 1078.5033)" class="st10" cx="1012.2" cy="108.3" rx="4.4" ry="4.4"/>
			
				<ellipse transform="matrix(0.1998 -0.9798 0.9798 0.1998 858.1041 1212.9949)" class="st10" cx="1171.7" cy="81.1" rx="2.2" ry="2.2"/>
			<ellipse class="st10" cx="1159.9" cy="223.4" rx="3.5" ry="3.5"/>
			
				<ellipse transform="matrix(0.1998 -0.9798 0.9798 0.1998 789.4691 1341.6263)" class="st10" cx="1216.1" cy="187.5" rx="2.7" ry="2.7"/>
			<path class="st1" d="M1871.8,441.8l4.4-31.4l-31.6,13.5l12.7,4.4l-12.5,20.7l7.4,4.4l13.1-20.8L1871.8,441.8z"/>
			<path class="st5" d="M1874,445.4l4.3-38.5l-35.1,17.3l13,4.6l-13.5,18.6l9.6,6.6l13.1-18.5L1874,445.4z"/>
			<path class="st5" d="M1847.2,467.1l3.4-9 M1846.2,457.1l-1.9,3.2 M1854.8,459.3l2,4.8"/>
			<path class="st2" d="M1865.4,320.3l-4.2,8l0.5-30.1l1,0.8l4.7-0.4l3.3,1.6l-0.4,27.4L1865.4,320.3z"/>
			<path class="st2" d="M1882,308.9l6.4,7.2l-4.5-23.4l-1.9,4.4l-5,0.4l-1.9,2l2.4,19.4L1882,308.9z"/>
			<path class="st1" d="M1872,263.9c0.5,0.4,1.1,0.7,1.7,0.9s1.3,0.1,1.9-0.1c0.8-0.5,1.8-0.6,2.8-0.1c0.9,0.5,1.5,1.4,1.7,2.4
				c0.2,0.6,0.6,1.2,1.1,1.7s1.1,0.8,1.7,0.9c0.9,0,1.9,0.5,2.5,1.4s0.7,2,0.3,3c-0.1,0.7,0,1.4,0.2,2.1s0.6,1.3,1.1,1.7
				c0.8,0.5,1.4,1.4,1.5,2.5s-0.4,2.1-1.1,2.7c-0.4,0.5-0.7,1.2-0.8,1.9c-0.1,0.7-0.1,1.4,0.1,2.1c0.5,0.9,0.5,2,0.1,3
				s-1.3,1.6-2.2,1.8c-0.6,0.2-1.1,0.6-1.6,1.2c-0.4,0.5-0.7,1.2-0.9,1.8c0,1-0.4,2-1.3,2.6c-0.8,0.6-1.9,0.7-2.8,0.3
				c-0.6-0.1-1.3,0-1.9,0.2s-1.2,0.6-1.6,1.1c-0.5,0.9-1.3,1.5-2.3,1.6s-2-0.4-2.5-1.2c-0.5-0.4-1.1-0.7-1.8-0.9s-1.3-0.1-1.9,0.1
				c-0.8,0.5-1.8,0.6-2.8,0.1c-0.9-0.5-1.5-1.4-1.7-2.4c-0.2-0.6-0.6-1.2-1.1-1.7s-1-0.9-1.7-0.9c-1.3-0.1-1.9-0.5-2.5-1.4
				s-0.7-2-0.3-3c0.1-0.7,0-1.4-0.2-2c-0.2-0.7-0.6-1.2-1-1.7l0,0c-0.8-0.5-1.4-1.4-1.5-2.6c-0.1-1.1,0.4-2.1,1.1-2.8l0,0
				c0.4-0.5,0.6-1.1,0.7-1.8c0.1-0.7,0.1-1.4-0.1-2l0,0c-0.5-0.9-0.6-2-0.1-3c0.4-1,1.3-1.6,2.2-1.8l0,0c0.6-0.2,1.1-0.6,1.5-1.2
				c0.4-0.5,0.7-1.2,0.9-1.8c0-1,0.5-2,1.3-2.6s1.9-0.7,2.8-0.3c0.6,0.1,1.3,0,1.9-0.2s1.2-0.6,1.6-1.1c0.5-0.9,1.3-1.5,2.3-1.6
				C1870.5,262.7,1871.4,263.1,1872,263.9z"/>
			<path class="st2" d="M1882,277.7c2,6.1-1.1,11.9-7.1,13.8c-6,2-13,0-15-6.1s1.6-13.3,7.6-15.2
				C1873.6,268.2,1880,271.6,1882,277.7z"/>
			<path class="st1" d="M1871.4,278l1.1,1.9l1.8,0.4l-1.1,1.8l0.3,2.3l-1.8-0.7l-1.7,1v-2.3l-1.3-1.7l1.8-0.7L1871.4,278z"/>
			<path class="st5" d="M1871.7,300.4l0.2,29.6l-6-7.1l-5.6,6.8l-0.7-34.8"/>
			<path class="st5" d="M1883.9,292.7l4.9,25.3l-6.7-5.9l-5,8l-4.1-19.6"/>
			<path class="st5" d="M1871.9,262.6c0.6,0.4,1.2,0.7,1.9,0.9c0.7,0.1,1.5,0.1,2.1-0.1c0.9-0.5,2.1-0.6,3.1-0.1s1.7,1.4,1.8,2.5
				c0.3,0.6,0.7,1.2,1.2,1.7c0.6,0.5,1.2,0.8,1.9,1c1.1,0,2.1,0.5,2.7,1.4s0.7,2.1,0.3,3.1c-0.1,0.7,0,1.4,0.2,2.1s0.7,1.3,1.2,1.8
				c0.9,0.5,1.6,1.5,1.6,2.6c0.1,1.1-0.4,2.2-1.2,2.8c-0.4,0.5-0.7,1.2-0.9,1.9c-0.1,0.7-0.1,1.5,0.1,2.1c0.5,0.9,0.6,2.1,0.1,3.1
				s-1.4,1.7-2.5,1.8c-0.7,0.3-1.2,0.7-1.7,1.2c-0.5,0.6-0.8,1.2-1,1.9c0,1.1-0.5,2.1-1.4,2.7s-2.1,0.7-3.1,0.3
				c-0.7-0.1-1.4,0-2.1,0.2s-1.3,0.7-1.8,1.2c-0.5,0.9-1.5,1.6-2.6,1.6c-1.1,0.1-2.2-0.4-2.8-1.2c-0.5-0.4-1.2-0.7-1.9-0.9
				c-0.7-0.1-1.5-0.1-2.1,0.1c-0.9,0.5-2.1,0.6-3.1,0.1s-1.7-1.4-1.8-2.5c-0.3-0.6-0.7-1.2-1.2-1.7c-0.6-0.5-1.1-0.9-1.9-1
				c-1.4-0.1-2.1-0.5-2.7-1.4s-0.7-2.1-0.3-3.1c0.1-0.7,0-1.4-0.2-2.1s-0.6-1.3-1.1-1.7l0,0c-0.9-0.5-1.6-1.5-1.7-2.6
				c-0.1-1.2,0.4-2.2,1.3-2.9l0,0c0.4-0.5,0.7-1.2,0.8-1.9c0.1-0.7,0.1-1.4-0.1-2.1l0,0c-0.6-0.9-0.6-2.1-0.1-3.1s1.4-1.7,2.5-1.8
				l0,0c0.6-0.3,1.2-0.7,1.7-1.2c0.5-0.6,0.8-1.2,1-1.9c0-1.1,0.5-2.1,1.4-2.7s2.1-0.7,3.1-0.3c0.7,0.1,1.4,0,2.1-0.2
				s1.3-0.7,1.8-1.2c0.5-0.9,1.5-1.6,2.6-1.6S1871.3,261.8,1871.9,262.6z"/>
			
				<ellipse transform="matrix(0.9972 -7.488260e-02 7.488260e-02 0.9972 -15.7823 140.8799)" class="st8" cx="1870.8" cy="280.9" rx="12.9" ry="12.9"/>
			<path class="st5" d="M1870.6,275.8l2.1,2.9l3.5,0.6l-2.1,2.9l0.5,3.5l-3.4-1.1l-3.2,1.6v-3.6l-2.5-2.6l3.4-1.1L1870.6,275.8z"/>
			<path class="st5" d="M1847.4,315.3l9.6,0.7 M1856.7,311.4l-3.6-0.9 M1857,320.2l-4,3.4"/>
			<path class="st5" d="M1884.9,263.2l2.9-5.4 M1887.8,265.4l2.6-2.2"/>
			<path class="st5" d="M1836.2,396.4l0.6,3.8l3.6,1.4l-3.4,1.8l-0.2,3.9l-2.8-2.7l-3.7,1l1.7-3.4l-2.1-3.2l3.8,0.6L1836.2,396.4z"
				/>
			<path class="st5" d="M1902.9,250.2l0.5,2.7l2.6,1l-2.4,1.3l-0.1,2.7l-2-1.9l-2.6,0.7l1.2-2.5l-1.5-2.3l2.7,0.4L1902.9,250.2z"/>
			<path class="st5" d="M1946.7,376.3c9.9,6.8,28.1,25.1,22.2,44.5 M2049.1,372.7c-11.1,6.6-12.6,23.9,1.6,28.8 M1895.7,210.3
				c-8.9,7.2-9.6,30.4,14.2,32.5 M2068.5,294.1c-3.2,4-13,11.1-27,6.9 M2104.6,456.8c-2,4.8-2.7,16.8,11.1,26.5 M1956.3,553.7
				c-4.3,4.9-15.5,14.2-25.5,12 M1968.2,324.2c1,5.1-6.7,13.5-15.6,10.1"/>
			
				<ellipse transform="matrix(0.1998 -0.9798 0.9798 0.1998 1094.521 2206.6541)" class="st10" cx="1898.3" cy="433.2" rx="4.4" ry="4.4"/>
			<ellipse class="st10" cx="1835.7" cy="339.2" rx="2" ry="2"/>
			<path class="st1" d="M1651,128.8l29.2,14.9l-8.9,19c-4,8.5-14.1,12.2-22.7,8.3c-9.2-4.2-12.8-15.3-7.8-24.1L1651,128.8z"/>
			<path class="st2" d="M1661,144.8l-0.2,5l4.3,3l-5.2,2.7l-1.6,4.5l-4-4.5l-5.1-0.5l3.1-3.7l-1.3-5.1l5.1,1.6L1661,144.8z"/>
			<path class="st1" d="M1640.4,178.6c-3.6-1-6.1-1.5-9.4,0l19.4,10.6c-0.5-3.6-2-6.8-4.7-9.3l3.5-6.3l-5.9-2.2L1640.4,178.6z"/>
			<path class="st1" d="M1623.6,176.6l31.5,17.7l-8.4,14.9l-31.4-18.4L1623.6,176.6z"/>
			<path class="st6" d="M1693.9,154.5l-11.1-6.6l-1.2,1.7l10.4,5.4l-5,9.1c-6.3,10.7-16.4,9.3-21,6.5l-2.7,1.6
				c8.2,4.5,19,3.4,25-7.7L1693.9,154.5z"/>
			<path class="st6" d="M1633.7,124l11.2,5.9l-1,1.9l-9.7-5.7l-3.8,8.5c-4.2,7.8-2.3,18,4.9,21.9l0.2,4.3
				c-8.2-4.5-11.9-19.6-7.3-27.6L1633.7,124z"/>
			
				<rect x="1624.6" y="172.1" transform="matrix(0.4789 -0.8779 0.8779 0.4789 683.5135 1534.8644)" class="st3" width="19.9" height="39.3"/>
			
				<rect x="1631.4" y="181.6" transform="matrix(0.4789 -0.8779 0.8779 0.4789 683.4124 1534.8679)" class="st7" width="6.3" height="20.3"/>
			<path class="st5" d="M1650.5,189.2c-0.5-3.6-2.2-6.9-5-9.4l3.9-7.1l-6.7-3.7l-3.9,7.2c-3.6-1-7.4-0.6-10.7,0.9"/>
			<path class="st5" d="M1661.8,141.9l-0.1,7.5l5.9,4.7l-7.2,2.2l-2.6,7.1l-4.3-6.2l-7.5-0.3l4.5-6l-2-7.3l7.1,2.4L1661.8,141.9z"/>
			<path class="st5" d="M1648.9,124.6l34.5,18.8l-10.7,19.6c-5.2,9.5-17.1,13-26.6,7.8s-13-17.1-7.8-26.6L1648.9,124.6z"/>
			<path class="st5" d="M1681.7,146.5l13.6,7.4l-5.8,10.7c-6,11.1-17.8,13.4-28,7.9 M1679.8,149.9l10.4,5.7l-4,7.3
				c-4.2,7.8-13.8,10.7-20,7.3"/>
			<path class="st5" d="M1646.6,129.5L1633,122l-5.8,10.7c-6,11.1,0,23.1,10.1,28.6 M1644.8,132.9l-10.4-5.7l-4,7.3
				c-4.2,7.8-0.5,17.2,5.7,20.5"/>
			<path class="st5" d="M1652.9,111.1l-1.4,9.5 M1656.2,120.6l1.1-3.5 M1647.3,120.4l-3.1-4.3"/>
			<path class="st5" d="M1669.3,179.4v6.2 M1665.8,178.8l-1.2,3.2"/>
			<path class="st1" d="M1576.2,333.3l4.4-31.4l-31.6,13.5l12.7,4.4l-12.5,20.7l7.4,4.4l13.1-20.8L1576.2,333.3z"/>
			<path class="st5" d="M1578.4,336.9l4.3-38.5l-35,17.3l12.9,4.6l-13.5,18.6l9.6,6.6l13.1-18.5L1578.4,336.9z"/>
			<path class="st5" d="M1551.6,358.6l3.4-9 M1550.5,348.6l-1.9,3.2 M1559.1,350.8l2.1,4.8"/>
			<path class="st1" d="M1778.9,430.6c7.1-12.9,19.3-8.8,24.1-5.8c5.1,2.5,7.9,9.1,0.2,23c-7.6,13.9-6,18.3-5,19.9l-35-19.2
				C1765.1,448.5,1771.3,444.5,1778.9,430.6z"/>
			
				<ellipse transform="matrix(0.4817 -0.8764 0.8764 0.4817 566.6425 1796.4784)" class="st1" cx="1802" cy="419.2" rx="2.7" ry="2.7"/>
			<path class="st1" d="M1783.5,460.2c-0.7,1.3-2.8,4.2-5.2,2.8c-2.4-1.3-2.8-4.2-2.1-5.5c0.7-1.3,1.5-0.5,3.9,0.9
				C1782.6,459.6,1784.3,458.9,1783.5,460.2z"/>
			<path class="st2" d="M1775.8,434.8l27.7,15.7l-2,3.6l-28.5-15.7L1775.8,434.8z"/>
			<path class="st5" d="M1776.4,430c7.7-13.9,19.2-11.4,24-8.5c5.1,2.5,13.2,10.7,5.5,24.7s-7.5,20.6-6.5,22.2l-38.2-21
				C1763.1,447.4,1768.8,443.9,1776.4,430z"/>
			<path class="st5" d="M1802.6,422.7c0.8-0.3,1.5-0.9,2-1.7c1-1.9,0.3-4.2-1.5-5.2c-1.9-1-4.2-0.3-5.2,1.5
				c-0.4,0.8-0.6,1.7-0.4,2.6"/>
			<path class="st5" d="M1774.7,454.8c-1.7,3.1-0.6,6.8,2.3,8.5c3,1.6,6.7,0.5,8.4-2.6"/>
			<path class="st5" d="M1774.9,432.3l29.9,16.4"/>
			<path class="st5" d="M1771.7,438.2l29.9,16.4"/>
			<path class="st5" d="M1786.9,478.1l-2.5-9.3 M1789,468.3l2.8,4.6 M1780.2,469.6l-1.8,5.6"/>
			<path class="st5" d="M1780.3,409.1l4.8,8.4 M1788.9,415.7l0.3-5.8"/>
			<path class="st2" d="M1781.2,142.9l-27.9,21.6l-9.2-11.1l28.9-8.8l-33.6,3.5l-6.4-9.1L1781.2,142.9z"/>
			<path class="st1" d="M1736.6,164.4l11.5-4.5l-4.6-5.7l29.6-9.2l-31.4,3.9L1736.6,164.4z"/>
			<path class="st5" d="M1784.4,142.2l-30.1,24.1l-4.8-5.8 M1784.4,142.2l-54.7-6.5l10,12.8 M1784.4,142.2l-41,10.9 M1784.4,142.2
				l-44.7,6.3 M1739.7,148.5l-4.2,18.1 M1735.5,166.7l7.9-13.6 M1735.5,166.7l14-6.2 M1743.4,153.1l6.1,7.4"/>
			<path class="st5" d="M1712,172.2l17.2-6.7 M1731.7,169.9l-9.5,6.3 M1729,160.3l-12.5,0.3"/>
			<path class="st2" d="M1569.7,211.8l-4.2,8l0.5-30.1l1,0.8l4.7-0.4l3.3,1.6l-0.4,27.4L1569.7,211.8z"/>
			<path class="st2" d="M1586.3,200.4l6.4,7.2l-4.5-23.4l-1.9,4.4l-4.9,0.4l-1.9,2l2.4,19.4L1586.3,200.4z"/>
			<path class="st1" d="M1576.3,155.4c0.5,0.4,1.1,0.7,1.8,0.9c0.7,0.1,1.3,0.1,1.9-0.1c0.8-0.5,1.8-0.6,2.8-0.1
				c0.9,0.5,1.5,1.4,1.7,2.4c0.2,0.6,0.6,1.2,1.1,1.7s1.1,0.8,1.7,0.9c0.9,0,1.9,0.5,2.4,1.4c0.6,0.9,0.7,2,0.3,3
				c-0.1,0.7,0,1.4,0.2,2.1c0.2,0.7,0.6,1.3,1.1,1.7c0.8,0.5,1.4,1.4,1.5,2.5s-0.3,2.1-1.1,2.7c-0.4,0.5-0.7,1.2-0.8,1.9
				c-0.1,0.7-0.1,1.4,0.1,2.1c0.5,0.9,0.6,2,0.1,3c-0.4,1-1.3,1.6-2.2,1.8c-0.6,0.2-1.1,0.6-1.6,1.2c-0.4,0.5-0.7,1.2-0.9,1.8
				c0,1-0.4,2-1.3,2.6c-0.8,0.6-1.9,0.7-2.7,0.3c-0.6-0.1-1.3,0-1.9,0.2s-1.2,0.6-1.6,1.1c-0.5,0.9-1.3,1.5-2.3,1.6
				s-1.9-0.4-2.5-1.2c-0.5-0.4-1.1-0.7-1.8-0.9c-0.7-0.1-1.3-0.1-1.9,0.1c-0.8,0.5-1.9,0.6-2.8,0.1s-1.5-1.4-1.7-2.4
				c-0.2-0.6-0.6-1.2-1.1-1.7s-0.9-0.9-1.7-0.9c-1.3-0.1-1.9-0.5-2.5-1.4s-0.7-2-0.3-3c0.1-0.7,0-1.4-0.2-2c-0.2-0.7-0.6-1.2-1-1.7
				l0,0c-0.9-0.5-1.5-1.4-1.5-2.6c-0.1-1.1,0.4-2.1,1.1-2.8l0,0c0.4-0.5,0.6-1.1,0.7-1.8s0.1-1.4-0.1-2l0,0c-0.5-0.9-0.6-2-0.1-3
				c0.4-1,1.3-1.6,2.2-1.8l0,0c0.6-0.2,1.1-0.6,1.5-1.2c0.4-0.5,0.7-1.2,0.9-1.8c0-1,0.4-2,1.3-2.6c0.8-0.6,1.9-0.7,2.7-0.3
				c0.6,0.1,1.3,0,1.9-0.2s1.2-0.6,1.6-1.1c0.5-0.9,1.3-1.5,2.3-1.6C1574.8,154.2,1575.7,154.6,1576.3,155.4z"/>
			<path class="st2" d="M1586.4,169.2c2,6.1-1.1,11.9-7.1,13.8c-6,2-13,0-15-6.1s1.6-13.3,7.6-15.2
				C1577.9,159.7,1584.4,163.1,1586.4,169.2z"/>
			<path class="st1" d="M1575.8,169.5l1.1,1.9l1.8,0.4l-1.1,1.8l0.3,2.3l-1.8-0.7l-1.7,1v-2.3l-1.3-1.7l1.8-0.7L1575.8,169.5z"/>
			<path class="st5" d="M1576,191.9l0.2,29.6l-6-7.1l-5.6,6.8l-0.7-34.8"/>
			<path class="st5" d="M1588.3,184.2l4.9,25.3l-6.7-5.9l-5,8l-4.1-19.6"/>
			<path class="st5" d="M1576.3,154.1c0.5,0.4,1.2,0.7,1.9,0.9c0.7,0.1,1.5,0.1,2.1-0.1c0.9-0.5,2.1-0.6,3.1-0.1s1.7,1.4,1.8,2.5
				c0.3,0.6,0.7,1.2,1.2,1.7c0.6,0.5,1.2,0.8,1.9,1c1.1,0,2.1,0.5,2.7,1.4s0.7,2.1,0.3,3.1c-0.1,0.7,0,1.4,0.2,2.1
				c0.2,0.7,0.7,1.3,1.2,1.8c0.9,0.5,1.6,1.5,1.6,2.6c0.1,1.1-0.4,2.2-1.2,2.8c-0.4,0.6-0.8,1.2-0.9,1.9s-0.1,1.5,0.1,2.1
				c0.5,0.9,0.6,2.1,0.1,3.1s-1.4,1.7-2.5,1.8c-0.7,0.3-1.2,0.7-1.7,1.2s-0.8,1.2-1,1.9c0,1.1-0.5,2.1-1.4,2.7
				c-0.9,0.6-2.1,0.7-3.1,0.3c-0.7-0.1-1.4,0-2.1,0.2s-1.3,0.7-1.8,1.2c-0.5,0.9-1.5,1.6-2.6,1.6c-1.1,0.1-2.2-0.4-2.8-1.2
				c-0.6-0.4-1.2-0.7-1.9-0.9c-0.7-0.1-1.5-0.1-2.1,0.1c-0.9,0.5-2.1,0.6-3.1,0.1s-1.7-1.4-1.8-2.5c-0.3-0.6-0.7-1.2-1.2-1.7
				c-0.6-0.5-1.1-0.9-1.9-1c-1.4-0.1-2.1-0.5-2.7-1.4s-0.7-2.1-0.3-3.1c0.1-0.7,0-1.4-0.2-2.1c-0.2-0.7-0.6-1.3-1.1-1.7l0,0
				c-0.9-0.5-1.6-1.5-1.7-2.6c-0.1-1.2,0.4-2.2,1.3-2.9l0,0c0.4-0.5,0.7-1.2,0.8-1.9c0.1-0.7,0.1-1.4-0.1-2.1l0,0
				c-0.5-0.9-0.6-2.1-0.1-3.1s1.4-1.7,2.5-1.8l0,0c0.6-0.3,1.2-0.7,1.7-1.2c0.5-0.6,0.8-1.2,1-1.9c0-1.1,0.5-2.1,1.4-2.7
				c0.9-0.6,2.1-0.7,3.1-0.3c0.7,0.1,1.4,0,2.1-0.2s1.3-0.7,1.8-1.2c0.5-0.9,1.5-1.6,2.6-1.6
				C1574.6,152.8,1575.6,153.3,1576.3,154.1z"/>
			
				<ellipse transform="matrix(0.9972 -7.488260e-02 7.488260e-02 0.9972 -8.4872 118.4398)" class="st8" cx="1575.2" cy="172.4" rx="12.9" ry="12.9"/>
			<path class="st5" d="M1575,167.3l2.1,2.9l3.5,0.6l-2.1,2.9l0.5,3.5l-3.4-1.1l-3.2,1.6v-3.6l-2.5-2.6l3.4-1.1L1575,167.3z"/>
			<path class="st5" d="M1551.8,206.8l9.6,0.7 M1561,202.9l-3.6-0.9 M1561.4,211.7l-4.1,3.4"/>
			<path class="st5" d="M1589.3,154.7l2.9-5.4 M1592.1,156.9l2.6-2.2"/>
			<path class="st2" d="M1670.2,353.5c-6.5,14.6-18.2,16.6-33.2,12.9c-14.9-3.7-22.2-21.3-15.7-35.9s22.4-20.7,35.7-14.8
				C1670.4,321.7,1676.7,338.9,1670.2,353.5z"/>
			<path class="st1" d="M1643.9,340.5c-0.6,1.3,0,2.2,1.2,3s2.8,0.2,3.4-1.1c0.6-1.3,0-2.8-1.2-3.3
				C1646.1,338.5,1644.5,339.1,1643.9,340.5z"/>
			<path class="st2" d="M1656.6,311.3l4.9,1.7l-1,2.3l-5.2-2.3L1656.6,311.3z"/>
			
				<ellipse transform="matrix(0.4056 -0.9141 0.9141 0.4056 667.4771 1706.5204)" class="st9" cx="1645.8" cy="340.1" rx="28.7" ry="28.7"/>
			
				<ellipse transform="matrix(0.4056 -0.9141 0.9141 0.4056 667.4819 1706.5094)" class="st9" cx="1645.8" cy="340" rx="3.4" ry="3.4"/>
			<path class="st5" d="M1652,326.1l-4.9,11.1 M1648.7,341.9l7,3.1"/>
			<path class="st5" d="M1656.1,318l-1.8,4.1 M1637.9,358.9l-1.8,4.1"/>
			<path class="st5" d="M1623.6,330.5l4.1,1.8 M1664.5,348.7l4.1,1.8"/>
			<path class="st5" d="M1643.5,316.1l0.5,4.5 M1648.2,360.5l0.5,4.5"/>
			<path class="st5" d="M1621.6,343.1l4.5-0.5 M1666.1,338.4l4.5-0.5"/>
			<path class="st5" d="M1631.6,320.6l2.7,3.6 M1657.9,356.8l2.7,3.6"/>
			<path class="st5" d="M1626.2,355l3.7-2.7 M1662.3,328.7l3.7-2.7"/>
			
				<rect x="1656.4" y="308.9" transform="matrix(0.4056 -0.9141 0.9141 0.4056 700.2328 1701.3076)" class="st9" width="3.6" height="6.8"/>
			<path class="st5" d="M1670.3,373.3l-5.5-5.4 M1669,364.2l3.4,1.5 M1660.1,371.7l1.4,3.6"/>
			<path class="st5" d="M1652.4,297.3l2,7.7 M1651.7,307.2l-3.5-2.8 M1657.9,306l1.3-4.1"/>
			<path class="st2" d="M1696.6,269.4c-1.7-8.4-1.6-11.2-2.6-16.1l1-0.7c0,0-1.9-6.9-2.4-9.4c-1.4-6.8,2.8-13.6,12.9-17.1
				c0.7-0.2-0.8-2.1,0-2.3c10.1,1.2,18.6,5.2,19.7,10.9c1.4,6.9,2.1,15,7.1,26.7c4.7,11.2-7.1,20.8-15.2,21.5
				C1709.4,283.6,1698.7,280.1,1696.6,269.4z"/>
			<path class="st1" d="M1705.5,235.6c-0.3-1.7,1-2.7,2.8-3.1c0,0,1.4,0,2.1,1.2c0.9,1.5,2,4.1,2,4.1c0.3,1.3-0.5,2.8-2.3,3.2
				s-3.5-0.3-3.8-1.6C1706.2,239.3,1705.8,237.1,1705.5,235.6z"/>
			<path class="st5" d="M1690.6,243.5c-1.5-7.3,3.3-16.6,14.9-19.6c10-2,20,4.2,21.4,11.1l5.4,26.5c2.4,11.9-6.5,21.1-14.5,22.8
				c-8,1.6-21.2-3.3-23.3-13.9c-1.7-8.4,0.2-11.6-0.8-16.4C1692.9,250.4,1691.2,246.8,1690.6,243.5z"/>
			<path class="st5" d="M1705.4,223.9l1.4,6.9 M1708.9,240.7l1.8,9.1"/>
			<path class="st5" d="M1693.8,253.4l35.4-7.2"/>
			<path class="st5" d="M1703.6,235.3c-0.4-1.7,1.2-3.5,3.6-3.9c2.3-0.5,4.5,0.5,4.8,2.2l0.7,3.6c0.4,1.7-1.2,3.5-3.6,3.9
				s-4.5-0.5-4.8-2.2L1703.6,235.3z"/>
			<path class="st4" d="M1697.8,196.4c1.3,0.6,5.4,1.9,6.4,6.5c1.3,6.2-7.3,7.2-6,13.7c0.9,4.4,4.8,6.6,7.9,7.1"/>
			<path class="st5" d="M1713.5,300.1l-0.1-9.1 M1718.1,287.7l1.5,3.4 M1708.6,288.8l-2.6,4.6"/>
			<path class="st5" d="M1720.1,211.1l-9-1.5 M1707.2,213.8l3.1,2 M1709.7,204.6l4.9-1.9"/>
			<path class="st1" d="M1831.9,181.5l-3.2-11.3l9.9-3.5l3.7,8.8C1841.9,177.6,1835.2,180.4,1831.9,181.5z"/>
			<path class="st1" d="M1818.5,180.7l-1.6-10.2l-10.6,2l2.7,8.4L1818.5,180.7z"/>
			<path class="st1" d="M1797.8,188l8.5-4.5l1.8,9.1l-7.7,4L1797.8,188z"/>
			<path class="st1" d="M1815.1,203l-3.8-9.8l10.4,1.2l2.3,9L1815.1,203z"/>
			<path class="st1" d="M1838.7,203.7l-1.5-9.5l7.5-4.2l2.5,9L1838.7,203.7z"/>
			<path class="st1" d="M1830.6,183.1l2.7,9.3l-9-0.9l-2.5-8.1L1830.6,183.1z"/>
			<path class="st5" d="M1842.9,160.1l18.4,64.6"/>
			<path class="st5" d="M1845.5,186.9c-0.1,0.7-4.6,5.1-10.7,5.9c-7.6,1-13-0.8-19-0.6s-12.7,2.5-15.5,6.1 M1842.6,175.4
				c-0.1,0.7-4.6,5.1-10.6,5.9c-7.6,1-13-0.8-19-0.6s-12.7,2.5-15.5,6.1 M1828.9,170.1c6.1-0.8,10.5-5.2,10.7-5.9l8.9,34.1
				c-0.1,0.7-4.6,5.1-10.7,5.9 M1828.9,170.1c-4.4,0.6-8,0.2-11.5-0.2 M1828.9,170.1l8.9,34.1 M1837.8,204.2
				c-4.5,0.6-8.2,0.2-11.7-0.2 M1804.9,170.1c1.7-0.3,3.3-0.5,5-0.6c2.5-0.1,5,0.2,7.5,0.5 M1804.9,170.1c-4.4,0.9-8.5,2.9-10.6,5.5
				l8.9,34.1c2-2.5,5.9-4.4,10.1-5.4 M1804.9,170.1l8.5,34.2 M1813.4,204.2c1.8-0.4,3.6-0.6,5.4-0.7c2.5-0.1,4.8,0.2,7.3,0.5
				 M1826.1,204l-8.7-34"/>
			<path class="st5" d="M1818.6,219.8l-2-8.9 M1818.8,206.6l2.2,3 M1811.4,209.9l-1.6,5"/>
			<path class="st5" d="M1866.9,170.7l-14.5,4.2 M1851.4,170.6l5.9-2.7 M1853.1,179.2l9-1.2"/>
			<path class="st2" d="M1690.8,423.2l-36.1-13.5l35.9-15.9l40.9,11.4L1690.8,423.2z"/>
			<path class="st1" d="M1668.4,435.9v-16.3l22.6,7l25-12.5l0.4,19c-3.2,3.4-11,10.1-23.8,10.9
				C1679.9,444.7,1671.6,438.8,1668.4,435.9z"/>
			<path class="st2" d="M1723.3,430.2c0.1,2-0.4,2.5-2.6,2.6c-2.1,0.1-2.3-1-2.4-3c-0.1-1.1,1.4-3,2.8-3.1
				C1723.2,426.6,1723.2,428.2,1723.3,430.2z"/>
			<path class="st2" d="M1719.7,434.2c1.4,0.3,2.5,1.5,2.7,2.9l2.2,12.4l-5,0.5L1719.7,434.2z"/>
			<path class="st1" d="M1695.4,405c1.1,0.8,0.5,1.7-1.4,2.5c-2,0.8-3.8,1.1-5.7,0.3c-1.6-0.6-0.5-2.3,1.5-3
				C1691.7,404,1693.7,403.9,1695.4,405z"/>
			<path class="st5" d="M1694.6,407l25.2,5.2l0.8,13.4"/>
			
				<ellipse transform="matrix(0.9983 -5.831141e-02 5.831141e-02 0.9983 -22.1116 101.0555)" class="st8" cx="1720.5" cy="429.4" rx="3.8" ry="3.8"/>
			<path class="st5" d="M1718.6,435.4c0-1.2,1-2.1,2.1-2.1c1.2-0.1,2.2,0.7,2.4,1.9l2.5,15l-7.7,0.4L1718.6,435.4z"/>
			<path class="st5" d="M1733.4,405.6l-42.3,19l-42.9-14l42.3-19L1733.4,405.6z"/>
			<path class="st5" d="M1666,417l1.1,19.4c1.9,2.9,9.6,8.5,25.3,7.6c11.4-0.7,18.6-4.2,22.4-7.4c1.5-1.2,2.5-2.3,3-3.2l-0.1-1
				 M1716.7,413.1l0.5,9.2l0.3,4.5"/>
			<path class="st5" d="M1695.4,405c1.1,0.8,0.5,1.7-1.4,2.5c-2,0.8-3.8,1.1-5.7,0.3c-1.6-0.6-0.5-2.3,1.4-3
				C1691.7,404,1693.7,403.9,1695.4,405z"/>
			<path class="st5" d="M1736.4,429.3l-8,0.1 M1727.1,433.1l2.9,3.3 M1726.9,425.8l4.6-2.6"/>
			<path class="st5" d="M1688.2,378.6l2,9.3 M1694.8,389.1l1.4-5.5 M1685.7,390.3l-3.2-3.9"/>
			<path class="st1" d="M1799.5,276.8l-16.6-5.7l-7.3,9.3l-8-2.5l29.5-35.9l10.4,2.3l1.7,46.3l-7.6-1.9L1799.5,276.8z M1786.4,264.8
				l14.7,3.8l-1.5-18.1L1786.4,264.8z"/>
			<path class="st1" d="M1826.1,254.3l3.2-7.8l4.2,0.4l-3.1,8.2l7.4,2.3l-1.5,3.2l-7.7-1.5l-3,9.4l-3.5-1.1l3.1-8.4l-10.1-3.2
				l2.8-3.4L1826.1,254.3z"/>
			<path class="st5" d="M1799.1,278.1l-16.8-5.3l-5.9,7.8l-10.1-3.2l30-38.2l11.2,3.5l2.5,48.4l-10.5-3.3L1799.1,278.1z M1788.3,265
				l10.5,3.3l-0.5-16.6L1788.3,265z"/>
			<path class="st5" d="M1825.4,253.1l2.7-8.6l5.6,1.8l-2.7,8.6l8.3,2.6l-1.7,5.4l-8.3-2.6l-2.7,8.6l-5.6-1.8l2.7-8.6l-8.4-2.6
				l1.7-5.4L1825.4,253.1z"/>
			<path class="st5" d="M1822,280.7l1.4-7.9 M1820.3,271.3l-1.4,3.5 M1826.9,272.8l1.7,5"/>
			<path class="st5" d="M1790.6,226.6l3.6,9.2 M1797.7,235.4l1.1-5.6 M1792.1,239.1l-5.1-3.7"/>
			<path class="st2" d="M1541.8,256.8l44.8,14l-2.4,6.8l-47.6-18l1.3-1.7C1538.8,256.8,1540.4,256.3,1541.8,256.8z"/>
			<path class="st2" d="M1619.7,282.5l-31.3-9.8l-2,5.9l35,10.6l0.7-2.1C1622.7,285.2,1621.6,283.1,1619.7,282.5z"/>
			<path class="st1" d="M1596.3,231.3l-22,33.1l48.7,18.1l22.1-36L1596.3,231.3z"/>
			<path class="st2" d="M1599.5,238.7l-16.6,23l38.1,14.1l16-25.9L1599.5,238.7z"/>
			<path class="st5" d="M1536.3,256.3c0.6-1.7,2.5-2.7,4.2-2.1l81,27.8c1.7,0.6,2.7,2.5,2.1,4.2l-0.3,0.9c-0.6,1.7-2.5,2.7-4.2,2.1
				l-81-27.8c-1.8-0.6-2.7-2.5-2.1-4.2L1536.3,256.3z"/>
			<path class="st5" d="M1623.1,287.5l24.1-41.4l-51.5-17.7l-22.5,37.4"/>
			<path class="st5" d="M1637.7,249.3l-15.7,26.8l-39.4-13.5l15.9-26.7L1637.7,249.3z"/>
			<path class="st5" d="M1587.3,270.1l-2.6,7.4"/>
			<path class="st5" d="M1604.2,243.9l-5.5,2.5 M1611,246.2l-14.7,7.2"/>
			<path class="st5" d="M1560.7,237.7l6.7,14.1 M1572.6,249.1l-0.4-6.9 M1562.9,255.6l-7.3-4.9"/>
			<path class="st1" d="M1714.8,373.1l4.9-54.4l77.6,6.5l-3.7,53.4l-28.4-2c-6.1-0.4-6.5,5.7-10.1,5.4l-4.1-0.3
				c-3.4-0.2-3-6.3-9.9-6.8L1714.8,373.1z"/>
			<path class="st2" d="M1750.1,314.7c3.8,0.3,7,2.8,6.8,6.6c0.3-3.8,4.2-5.8,8.1-5.6l24.5,1.7l-2.6,54.3l-23.4-1.2
				c-6-0.4-9.1,2.2-9.8,4.1c-0.5-1.9-2.5-4.9-8.4-5.3l-23.6-2.8l3.3-54.1L1750.1,314.7z"/>
			<path class="st5" d="M1753.6,375.3l3.8-54.7c0.3-3.8-3.3-7.5-7.2-7.7l-26.6-1.8l-3.9,56.3l24.8,1.7
				C1750.4,369.4,1753.1,373.4,1753.6,375.3z"/>
			<path class="st5" d="M1753.6,375.3l3.8-54.7c0.3-3.8,3.7-7,7.5-6.7l26.6,1.8l-3.9,56.3l-24.8-1.7
				C1756.8,369.9,1754.3,373.5,1753.6,375.3z"/>
			<path class="st5" d="M1726.9,327.5l25.2,1.7 M1726.4,334.6l25.2,1.7 M1726,341.3l25.2,1.7 M1725.5,348.5l25.2,1.7 M1725,355.4
				l25.2,1.7"/>
			<path class="st5" d="M1760.7,329.9l25.2,1.7 M1760.2,336.9l25.2,1.7 M1759.8,343.7l25.2,1.7 M1759.2,350.9l25.2,1.7
				 M1758.8,357.8l25.2,1.7"/>
			<path class="st5" d="M1723.4,317.1l-6.3-0.4l-3.9,56.3c7.7,0.5,24.1,1.7,27.9,1.9c7,0.5,6.6,6.6,9.9,6.8c1.6,0.1,2.9,0.2,4.1,0.3
				c3.6,0.2,4-5.8,10.1-5.4c4.9,0.3,21.2,1.5,28.4,2l3.9-56.3l-5.6-0.4"/>
			<path class="st5" d="M1795.2,300.1l-3.8,9.7 M1785.7,309.4l0.9-3.6 M1795.8,313.5l4.7-3.1"/>
			<path class="st5" d="M1721.8,386.9l2.6-8.1 M1729.3,379.2l-0.5,7.1 M1719.9,377.3l-2.3,3.5"/>
			<path class="st5" d="M1699.3,317l2.2,4.1l4.6,0.1l-3.2,3.4l1.3,4.5l-4.2-2l-3.8,2.6l0.6-4.6l-3.7-2.9l4.6-0.9L1699.3,317z"/>
			<path class="st5" d="M1540.5,287.9l0.6,3.8l3.6,1.4l-3.4,1.8l-0.2,3.8l-2.8-2.7l-3.7,1l1.7-3.4l-2.1-3.2l3.8,0.6L1540.5,287.9z"
				/>
			<path class="st5" d="M1826.1,310.4l-1,3.2l2.3,2.5l-3.3,0.1l-1.6,2.9l-1.1-3.2l-3.3-0.6l2.7-2l-0.4-3.3l2.8,1.9L1826.1,310.4z"/>
			<path class="st5" d="M1681.6,252.1l-1,2.5l1.7,2.2l-2.7-0.2l-1.6,2.3l-0.7-2.7l-2.6-0.8l2.3-1.4l-0.1-2.7l2.1,1.8L1681.6,252.1z"
				/>
			<path class="st5" d="M1607.3,141.7l0.5,2.7l2.6,1l-2.4,1.3l-0.1,2.7l-2-1.9l-2.7,0.7l1.2-2.5l-1.5-2.3l2.7,0.4L1607.3,141.7z"/>
			<path class="st5" d="M1779.2,175.7l2.1,1.8l2.6-0.9l-1.1,2.5l1.7,2.2l-2.7-0.2l-1.6,2.3l-0.6-2.7l-2.6-0.8l2.3-1.4L1779.2,175.7z
				"/>
			<path class="st5" d="M1740.3,466.9l-1.1,3.6l2.5,2.7l-3.7,0.1l-1.8,3.3l-1.2-3.5l-3.7-0.7l3-2.3l-0.4-3.7l3.1,2.1L1740.3,466.9z"
				/>
			<path class="st5" d="M1620.6,382.3l-0.1,2.7l2.3,1.5l-2.6,0.8l-0.7,2.6l-1.5-2.3l-2.7,0.2l1.7-2.1l-1-2.5l2.6,0.9L1620.6,382.3z"
				/>
			<path class="st5" d="M1759.4,216.4l-0.2,5.2l4.4,2.8l-5,1.4l-1.3,5l-2.9-4.3l-5.2,0.3l3.2-4.1l-1.9-4.8l4.9,1.8L1759.4,216.4z"/>
			<path class="st5" d="M1554.7,389.6c7.5-11.1,27.6-34.3,47.5-38.7 M1651.1,267.8c9.9,6.8,28.1,25.1,22.2,44.5 M1753.4,264.2
				c-11.1,6.6-12.6,23.9,1.6,28.8 M1600,101.8c-8.9,7.2-9.6,30.4,14.2,32.5 M1772.8,185.6c-3.2,4-13,11.1-27,6.9 M1808.9,348.3
				c-2,4.8-2.6,16.8,11.1,26.5 M1660.6,445.2c-4.3,4.9-15.5,14.2-25.5,12 M1672.5,215.7c1,5.1-6.7,13.6-15.6,10.1"/>
			
				<ellipse transform="matrix(0.1998 -0.9798 0.9798 0.1998 964.3401 1830.0851)" class="st10" cx="1602.6" cy="324.6" rx="4.4" ry="4.4"/>
			<ellipse class="st10" cx="1540" cy="230.7" rx="2" ry="2"/>
			
				<ellipse transform="matrix(0.1998 -0.9798 0.9798 0.1998 1165.9369 1802.7659)" class="st10" cx="1686.7" cy="187.5" rx="2.7" ry="2.7"/>
			
				<ellipse transform="matrix(0.1998 -0.9798 0.9798 0.1998 1118.5978 1964.5771)" class="st10" cx="1762.1" cy="297.4" rx="2.2" ry="2.2"/>
			<ellipse class="st10" cx="1750.3" cy="439.8" rx="3.5" ry="3.5"/>
			
				<ellipse transform="matrix(0.1998 -0.9798 0.9798 0.1998 1049.9622 2093.2083)" class="st10" cx="1806.5" cy="403.8" rx="2.7" ry="2.7"/>
			<path class="st5" d="M1515.9,14.4l-1.1,3.6l2.5,2.7l-3.7,0.1l-1.8,3.3l-1.2-3.5l-3.7-0.7l3-2.3l-0.5-3.7l3.1,2.1L1515.9,14.4z"/>
			<path class="st5" d="M1906.5,51.7l0.6,3.8l3.6,1.4l-3.4,1.8l-0.2,3.9l-2.8-2.7l-3.7,1l1.7-3.4l-2.1-3.2l3.8,0.6L1906.5,51.7z"/>
			<path class="st5" d="M1920.6,153.4c7.5-11.1,27.6-34.3,47.5-38.7 M2017,31.5c9.9,6.8,28.1,25.1,22.2,44.5 M2119.4,28
				c-11.1,6.6-12.6,23.9,1.6,28.8 M1965.9-134.4c-8.9,7.2-9.6,30.4,14.2,32.5 M2138.8-50.6c-3.2,4-13,11.1-27,6.9 M2174.9,112.1
				c-2,4.8-2.6,16.8,11.1,26.5 M2026.6,209c-4.3,4.9-15.5,14.2-25.5,12 M2038.4-20.5c1,5.1-6.6,13.6-15.6,10.1"/>
			<path class="st1" d="M1612.1,49.4l69.4,25.6l-11.3,32.4l-69.8-29.9L1612.1,49.4z"/>
			<path class="st2" d="M1610.2,69.6l3.3,2.2l-1.7,4.4l-4.5-2.2L1610.2,69.6z"/>
			<path class="st2" d="M1614.9,56.7l3.7,1.1l-0.8,4.8l-5.1-1.9L1614.9,56.7z"/>
			<path class="st2" d="M1626.1,60.7l3.4,1.3l-1.7,4.4l-4.5-2.2L1626.1,60.7z"/>
			<path class="st2" d="M1635.9,63.5l3.8,2.7l-1,4.5l-4.4-1.7L1635.9,63.5z"/>
			<path class="st2" d="M1648,69.2l3.5,1.1l-1.7,4.4l-4.5-2.2L1648,69.2z"/>
			<path class="st2" d="M1658.1,71.9l3.9,2.4l-1.6,3.5l-4.6-1.3L1658.1,71.9z"/>
			<path class="st2" d="M1669.1,76l3.9,2.4l-1.7,4.4l-3.5-2.3L1669.1,76z"/>
			<path class="st2" d="M1663.9,91l3.8,1.4l-1.7,4.4l-4.5-2.2L1663.9,91z"/>
			<path class="st2" d="M1652.5,85.4l4.5,2.2l-2.2,4.5l-4.5-2.2L1652.5,85.4z"/>
			<path class="st2" d="M1620.6,74.8l25.9,9.3l-1.7,3.9l-26.3-9.5L1620.6,74.8z"/>
			
				<rect x="1622.7" y="36.7" transform="matrix(0.3542 -0.9352 0.9352 0.3542 987.6292 1583.5171)" class="st3" width="35.2" height="79.9"/>
			
				<rect x="1612.3" y="55.5" transform="matrix(0.3542 -0.9352 0.9352 0.3542 988.3997 1549.0122)" class="st3" width="6.8" height="6.8"/>
			
				<rect x="1623.4" y="59.6" transform="matrix(0.3542 -0.9352 0.9352 0.3542 991.6359 1562.006)" class="st3" width="6.8" height="6.8"/>
			
				<rect x="1634.2" y="63.8" transform="matrix(0.3542 -0.9352 0.9352 0.3542 994.7391 1574.9044)" class="st3" width="6.8" height="6.8"/>
			
				<rect x="1645.3" y="68" transform="matrix(0.3542 -0.9352 0.9352 0.3542 997.9708 1587.91)" class="st3" width="6.8" height="6.8"/>
			
				<rect x="1655.9" y="71.9" transform="matrix(0.3542 -0.9352 0.9352 0.3542 1001.1 1600.3457)" class="st3" width="6.8" height="6.8"/>
			
				<rect x="1666.7" y="76.2" transform="matrix(0.3542 -0.9352 0.9352 0.3542 1004.1988 1613.2561)" class="st3" width="6.8" height="6.8"/>
			
				<rect x="1650.5" y="85.9" transform="matrix(0.3542 -0.9352 0.9352 0.3542 984.634 1604.3772)" class="st3" width="6.8" height="6.8"/>
			
				<rect x="1661.6" y="90" transform="matrix(0.3542 -0.9352 0.9352 0.3542 987.8703 1617.3706)" class="st3" width="6.8" height="6.8"/>
			
				<rect x="1607" y="69.4" transform="matrix(0.3542 -0.9352 0.9352 0.3542 971.9347 1553.0443)" class="st3" width="6.8" height="6.8"/>
			
				<rect x="1629" y="65.9" transform="matrix(0.3542 -0.9352 0.9352 0.3542 978.3931 1578.9731)" class="st3" width="6.8" height="30.3"/>
			<path class="st4" d="M1651.6,31.8c0.8,1.2,3.6,4.5,1.9,8.9c-2.2,5.9-10,2.2-12.3,8.4c-1.6,4.2,0.5,8.2,2.9,10.3"/>
			<path class="st5" d="M1682.9,114.6l-8-5.4 M1671,111.3l1.5,5.9 M1677,105.4l5.2-0.9"/>
			<path class="st5" d="M1640,44.6l-4-4.7 M1643.1,42.8l-1.2-3.2"/>
			<path class="st5" d="M1593.7,75.8l-5.6,2.6 M1592.8,72.3l-3.4,0.2"/>
			<path class="st1" d="M1646.5-11.4l4.4-31.4l-31.6,13.5l12.7,4.4l-12.4,20.7l7.4,4.4l13.1-20.8L1646.5-11.4z"/>
			<path class="st5" d="M1621.9,13.9l3.4-9 M1620.8,3.9l-1.9,3.2 M1629.4,6.1l2.1,4.8"/>
			<path class="st1" d="M1849.2,100.9c7.1-12.9,19.3-8.8,24.1-5.8c5.1,2.5,7.9,9.1,0.2,23s-6,18.3-5,19.9l-35-19.2
				C1835.3,118.8,1841.6,114.8,1849.2,100.9z"/>
			
				<ellipse transform="matrix(0.4817 -0.8764 0.8764 0.4817 892.0291 1687.1564)" class="st1" cx="1872.3" cy="89.5" rx="2.7" ry="2.7"/>
			<path class="st1" d="M1853.8,130.5c-0.7,1.3-2.8,4.1-5.2,2.8s-2.8-4.2-2.1-5.5c0.7-1.3,1.5-0.5,3.9,0.9
				C1852.9,129.9,1854.5,129.2,1853.8,130.5z"/>
			<path class="st2" d="M1846.1,105.1l27.7,15.7l-1.9,3.6l-28.5-15.7L1846.1,105.1z"/>
			<path class="st5" d="M1846.7,100.3c7.7-13.9,19.2-11.4,24-8.5c5.1,2.5,13.2,10.7,5.5,24.7c-7.7,13.9-7.5,20.6-6.5,22.2l-38.2-21
				C1833.4,117.7,1839.1,114.2,1846.7,100.3z"/>
			<path class="st5" d="M1872.9,93c0.8-0.3,1.5-0.9,2-1.7c1-1.9,0.3-4.2-1.5-5.2s-4.2-0.3-5.2,1.5c-0.4,0.8-0.6,1.7-0.4,2.6"/>
			<path class="st5" d="M1844.9,125.1c-1.7,3.1-0.6,6.8,2.3,8.5c2.9,1.6,6.7,0.5,8.4-2.6"/>
			<path class="st5" d="M1845.2,102.6l29.9,16.4"/>
			<path class="st5" d="M1841.9,108.5l29.9,16.4"/>
			<path class="st5" d="M1857.2,148.4l-2.5-9.3 M1859.3,138.6l2.8,4.6 M1850.5,139.9l-1.8,5.6"/>
			<path class="st5" d="M1850.6,79.4l4.8,8.4 M1859.2,86l0.3-5.8"/>
			<path class="st2" d="M1761.1,78.5L1725,65l35.9-15.9l40.9,11.4L1761.1,78.5z"/>
			<path class="st1" d="M1738.7,91.1V74.8l22.6,7l25-12.5l0.4,19c-3.2,3.4-11,10.1-23.8,10.9C1750.2,100,1741.8,94.1,1738.7,91.1z"
				/>
			<path class="st2" d="M1793.6,85.5c0.1,2-0.4,2.5-2.5,2.6s-2.3-1-2.4-3c-0.1-1.1,1.4-3,2.8-3.1
				C1793.4,81.8,1793.5,83.5,1793.6,85.5z"/>
			<path class="st2" d="M1790,89.5c1.4,0.3,2.5,1.5,2.7,2.9l2.2,12.4l-5,0.5L1790,89.5z"/>
			<path class="st1" d="M1765.7,60.3c1.1,0.8,0.5,1.7-1.4,2.5c-2,0.8-3.8,1.1-5.7,0.3c-1.6-0.6-0.5-2.3,1.5-3S1764,59.2,1765.7,60.3
				z"/>
			<path class="st5" d="M1764.9,62.3l25.2,5.2l0.8,13.4"/>
			
				<ellipse transform="matrix(0.9983 -5.831143e-02 5.831143e-02 0.9983 -1.8919 104.5683)" class="st8" cx="1790.8" cy="84.7" rx="3.8" ry="3.8"/>
			<path class="st5" d="M1788.9,90.7c0-1.2,1-2.1,2.1-2.1c1.2-0.1,2.2,0.7,2.4,1.9l2.5,15l-7.7,0.4L1788.9,90.7z"/>
			<path class="st5" d="M1803.7,60.9l-42.3,19l-42.9-14l42.3-19L1803.7,60.9z"/>
			<path class="st5" d="M1736.3,72.3l1.1,19.4c1.9,2.9,9.6,8.5,25.3,7.6c11.3-0.7,18.6-4.2,22.4-7.4c1.5-1.2,2.4-2.3,3-3.2l-0.1-1
				 M1786.9,68.4l0.5,9.2l0.3,4.5"/>
			<path class="st5" d="M1765.7,60.3c1.1,0.8,0.5,1.7-1.5,2.5s-3.8,1.1-5.7,0.3c-1.6-0.6-0.5-2.3,1.4-3S1764,59.2,1765.7,60.3z"/>
			<path class="st5" d="M1806.6,84.6l-8,0.1 M1797.4,88.3l2.9,3.3 M1797.2,81.1l4.6-2.6"/>
			<path class="st5" d="M1758.4,33.9l2,9.3 M1765.1,44.4l1.4-5.5 M1756,45.6l-3.2-3.9"/>
			<path class="st5" d="M1810.6,122.2l-1.1,3.6l2.5,2.7l-3.7,0.1l-1.8,3.3l-1.2-3.5l-3.7-0.7l3-2.3l-0.5-3.7l3.1,2.1L1810.6,122.2z"
				/>
			<path class="st5" d="M1690.9,37.6l-0.1,2.7l2.3,1.5l-2.6,0.8l-0.7,2.6l-1.5-2.3l-2.7,0.2l1.7-2.1l-1-2.5l2.6,0.9L1690.9,37.6z"/>
			<path class="st5" d="M1624.9,44.9c7.5-11.1,27.6-34.3,47.5-38.7 M1721.3-77c9.9,6.8,28.1,25.1,22.2,44.5 M1823.7-80.5
				c-11.1,6.6-12.6,23.9,1.6,28.8 M1670.3-242.9c-8.9,7.2-9.6,30.4,14.2,32.5 M1843.1-159.1c-3.2,4-13,11.1-27,6.9 M1879.2,3.6
				c-2,4.8-2.7,16.8,11.1,26.5 M1730.9,100.5c-4.3,4.9-15.5,14.2-25.5,12 M1742.8-129c1,5.1-6.6,13.5-15.6,10.1"/>
			<ellipse class="st10" cx="1820.6" cy="95.1" rx="3.5" ry="3.5"/>
			
				<ellipse transform="matrix(0.1998 -0.9798 0.9798 0.1998 1444.0095 1886.2472)" class="st10" cx="1876.9" cy="59" rx="2.7" ry="2.7"/>
			
				<ellipse transform="matrix(0.1998 -0.9798 0.9798 0.1998 1230.8783 1558.7504)" class="st10" cx="1569.8" cy="25.8" rx="4.4" ry="4.4"/>
			
				<ellipse transform="matrix(0.1998 -0.9798 0.9798 0.1998 1432.7882 1830.0898)" class="st10" cx="1836.9" cy="37.8" rx="4.4" ry="4.4"/>
			
				<ellipse transform="matrix(0.1998 -0.9798 0.9798 0.1998 1370.8594 1988.4628)" class="st10" cx="1902.9" cy="154.9" rx="4.4" ry="4.4"/>
			
				<ellipse transform="matrix(0.1998 -0.9798 0.9798 0.1998 1143.811 2144.5447)" class="st10" cx="1884.9" cy="372" rx="4.4" ry="4.4"/>
			<path class="st2" d="M1202,121l-27.9,21.6l-9.2-11.1l28.9-8.8l-33.6,3.5l-6.4-9.1L1202,121z"/>
			<path class="st1" d="M1157.4,142.5l11.5-4.5l-4.6-5.7l29.6-9.2l-31.4,3.9L1157.4,142.5z"/>
			<path class="st5" d="M1205.2,120.3l-30.1,24.1l-4.8-5.8 M1205.2,120.3l-54.7-6.5l10,12.8 M1205.2,120.3l-41,10.9 M1205.2,120.3
				l-44.7,6.3 M1160.5,126.6l-4.2,18.1 M1156.3,144.7l7.9-13.6 M1156.3,144.7l14-6.2 M1164.2,131.2l6.1,7.4"/>
			<path class="st5" d="M1132.8,150.3l17.2-6.7 M1152.5,147.9l-9.6,6.3 M1149.9,138.3l-12.5,0.3"/>
			
				<ellipse transform="matrix(0.1998 -0.9798 0.9798 0.1998 775.5975 1293.5177)" class="st10" cx="1179.8" cy="171.9" rx="4.4" ry="4.4"/>
			
				<ellipse transform="matrix(0.1998 -0.9798 0.9798 0.1998 835.7783 1145.215)" class="st10" cx="1119" cy="60.9" rx="4.4" ry="4.4"/>
			
				<ellipse transform="matrix(0.1998 -0.9798 0.9798 0.1998 773.6589 1019.1615)" class="st10" cx="1010.8" cy="35.9" rx="4.4" ry="4.4"/>
		</g>
	</g>
</g>
</svg>
