<svg width="125" height="67" viewBox="0 0 125 67" fill="none" xmlns="http://www.w3.org/2000/svg">
<path d="M39.9538 48.6479C39.9538 48.1439 40.1998 47.8919 40.6918 47.8919H44.1478C44.7838 47.8919 45.2758 47.9219 45.6238 47.9819C45.9838 48.0299 46.3018 48.1139 46.5778 48.2339C47.2258 48.5099 47.7418 48.9479 48.1258 49.5479C48.5218 50.1359 48.7198 50.8619 48.7198 51.7259C48.7198 52.1099 48.6718 52.4819 48.5758 52.8419C48.4798 53.2019 48.3418 53.5379 48.1618 53.8499C47.9818 54.1499 47.7598 54.4199 47.4958 54.6599C47.2318 54.8999 46.9318 55.0859 46.5958 55.2179V55.2539L46.7038 55.4159C46.7398 55.4759 46.7818 55.5479 46.8298 55.6319C46.8898 55.7039 46.9498 55.7999 47.0098 55.9199L49.1158 59.7719C49.2718 60.0359 49.2958 60.2519 49.1878 60.4199C49.0918 60.5879 48.8938 60.6719 48.5938 60.6719H47.6218C47.2258 60.6719 46.9318 60.4979 46.7398 60.1499L44.4898 55.9019H42.2578V59.9159C42.2578 60.4199 42.0118 60.6719 41.5198 60.6719H40.6918C40.1998 60.6719 39.9538 60.4199 39.9538 59.9159V48.6479ZM44.3458 53.8859C44.9698 53.8859 45.4618 53.7059 45.8218 53.3459C46.1818 52.9859 46.3618 52.4879 46.3618 51.8519C46.3618 51.4439 46.2778 51.0899 46.1098 50.7899C45.9538 50.4779 45.7018 50.2499 45.3538 50.1059C45.1978 50.0339 45.0118 49.9799 44.7958 49.9439C44.5918 49.9079 44.3158 49.8899 43.9678 49.8899H42.2578V53.8859H44.3458ZM49.8032 56.0819C49.8032 55.3739 49.9172 54.7259 50.1452 54.1379C50.3732 53.5499 50.6912 53.0459 51.0992 52.6259C51.5072 52.1939 51.9992 51.8639 52.5752 51.6359C53.1512 51.3959 53.7812 51.2759 54.4652 51.2759C55.1132 51.2759 55.6892 51.3899 56.1932 51.6179C56.7092 51.8339 57.1352 52.1339 57.4712 52.5179C57.8192 52.9019 58.0832 53.3639 58.2632 53.9039C58.4432 54.4439 58.5332 55.0259 58.5332 55.6499C58.5332 55.8539 58.4552 56.0339 58.2992 56.1899C58.1552 56.3459 57.9692 56.4239 57.7412 56.4239H52.1432C52.1792 56.8439 52.2752 57.2099 52.4312 57.5219C52.5992 57.8339 52.8032 58.0979 53.0432 58.3139C53.2952 58.5179 53.5772 58.6739 53.8892 58.7819C54.2132 58.8899 54.5492 58.9439 54.8972 58.9439C55.3172 58.9439 55.6952 58.8779 56.0312 58.7459C56.3792 58.6139 56.6612 58.4819 56.8772 58.3499C57.1052 58.2419 57.2972 58.2059 57.4532 58.2419C57.6212 58.2779 57.7652 58.3979 57.8852 58.6019L58.1012 58.9619C58.3292 59.3939 58.2452 59.7299 57.8492 59.9699C57.5492 60.1619 57.1352 60.3659 56.6072 60.5819C56.0792 60.7859 55.4552 60.8879 54.7352 60.8879C53.9792 60.8879 53.2952 60.7619 52.6832 60.5099C52.0712 60.2459 51.5492 59.8979 51.1172 59.4659C50.6972 59.0219 50.3732 58.5119 50.1452 57.9359C49.9172 57.3479 49.8032 56.7299 49.8032 56.0819ZM56.2652 55.0379C56.2412 54.3899 56.0552 53.8919 55.7072 53.5439C55.3712 53.1839 54.9392 53.0039 54.4112 53.0039C53.8232 53.0039 53.3312 53.1899 52.9352 53.5619C52.5512 53.9339 52.3052 54.4259 52.1972 55.0379H56.2652ZM59.1254 58.1339C59.1254 57.6899 59.2094 57.3059 59.3774 56.9819C59.5454 56.6459 59.7734 56.3639 60.0614 56.1359C60.3494 55.8959 60.6734 55.7039 61.0334 55.5599C61.4054 55.4159 61.7894 55.3019 62.1854 55.2179C62.5814 55.1339 62.9774 55.0799 63.3734 55.0559C63.7694 55.0199 64.1414 55.0019 64.4894 55.0019H64.8674V54.7859C64.8674 54.1859 64.6994 53.7659 64.3634 53.5259C64.0274 53.2859 63.6254 53.1659 63.1574 53.1659C62.7734 53.1659 62.4134 53.2259 62.0774 53.3459C61.7414 53.4539 61.4654 53.5679 61.2494 53.6879C60.7814 53.8919 60.4454 53.7899 60.2414 53.3819L60.0614 53.0399C59.8334 52.5959 59.9294 52.2599 60.3494 52.0319C60.6494 51.8759 61.0514 51.7139 61.5554 51.5459C62.0714 51.3659 62.6714 51.2759 63.3554 51.2759C64.5554 51.2759 65.4854 51.5939 66.1454 52.2299C66.8174 52.8659 67.1534 53.7659 67.1534 54.9299V59.9159C67.1534 60.4199 66.9014 60.6719 66.3974 60.6719H65.7854C65.2934 60.6719 65.0474 60.4199 65.0474 59.9159V59.5559C65.0474 59.4119 65.0534 59.3159 65.0654 59.2679C65.0654 59.2199 65.0714 59.1839 65.0834 59.1599H65.0474C64.8674 59.4839 64.6394 59.7719 64.3634 60.0239C64.1234 60.2399 63.8234 60.4379 63.4634 60.6179C63.1034 60.7979 62.6714 60.8879 62.1674 60.8879C61.7474 60.8879 61.3514 60.8219 60.9794 60.6899C60.6194 60.5579 60.3014 60.3719 60.0254 60.1319C59.7494 59.8919 59.5274 59.6039 59.3594 59.2679C59.2034 58.9319 59.1254 58.5539 59.1254 58.1339ZM61.3934 57.9359C61.3934 58.2479 61.5074 58.5299 61.7354 58.7819C61.9754 59.0219 62.3234 59.1419 62.7794 59.1419C63.1034 59.1419 63.3914 59.0699 63.6434 58.9259C63.9074 58.7819 64.1294 58.5959 64.3094 58.3679C64.4894 58.1279 64.6274 57.8639 64.7234 57.5759C64.8314 57.2879 64.8854 57.0059 64.8854 56.7299V56.3879H64.5074C64.2194 56.3879 63.8954 56.4059 63.5354 56.4419C63.1754 56.4779 62.8334 56.5499 62.5094 56.6579C62.1974 56.7659 61.9334 56.9219 61.7174 57.1259C61.5014 57.3299 61.3934 57.5999 61.3934 57.9359ZM68.3844 56.0819C68.3844 55.3499 68.4864 54.6899 68.6904 54.1019C68.8944 53.5139 69.1824 53.0099 69.5544 52.5899C69.9264 52.1699 70.3644 51.8459 70.8684 51.6179C71.3724 51.3899 71.9304 51.2759 72.5424 51.2759C73.0464 51.2759 73.4664 51.3479 73.8024 51.4919C74.1504 51.6239 74.4264 51.7739 74.6304 51.9419C74.8704 52.1339 75.0684 52.3499 75.2244 52.5899H75.2604C75.2484 52.5419 75.2424 52.4939 75.2424 52.4459C75.2304 52.3979 75.2244 52.3439 75.2244 52.2839C75.2244 52.2119 75.2244 52.1399 75.2244 52.0679V48.6479C75.2244 48.1439 75.4704 47.8919 75.9624 47.8919H76.7544C77.2464 47.8919 77.4924 48.1439 77.4924 48.6479V59.9159C77.4924 60.4199 77.2464 60.6719 76.7544 60.6719H76.0884C75.5964 60.6719 75.3504 60.4439 75.3504 59.9879V59.6279C75.3504 59.5079 75.3564 59.4299 75.3684 59.3939C75.3684 59.3579 75.3744 59.3279 75.3864 59.3039H75.3504C75.1824 59.6039 74.9664 59.8679 74.7024 60.0959C74.4744 60.2999 74.1744 60.4859 73.8024 60.6539C73.4424 60.8099 72.9984 60.8879 72.4704 60.8879C71.8464 60.8879 71.2824 60.7739 70.7784 60.5459C70.2744 60.3059 69.8424 59.9759 69.4824 59.5559C69.1344 59.1359 68.8644 58.6319 68.6724 58.0439C68.4804 57.4439 68.3844 56.7899 68.3844 56.0819ZM70.6884 56.0819C70.6884 56.9579 70.8984 57.6599 71.3184 58.1879C71.7384 58.7039 72.2904 58.9619 72.9744 58.9619C73.2744 58.9619 73.5624 58.9079 73.8384 58.7999C74.1144 58.6799 74.3604 58.5059 74.5764 58.2779C74.7924 58.0379 74.9604 57.7379 75.0804 57.3779C75.2124 57.0059 75.2784 56.5679 75.2784 56.0639C75.2784 55.7039 75.2304 55.3559 75.1344 55.0199C75.0384 54.6839 74.8944 54.3839 74.7024 54.1199C74.5224 53.8559 74.2884 53.6459 74.0004 53.4899C73.7124 53.3219 73.3764 53.2379 72.9924 53.2379C72.6804 53.2379 72.3864 53.3039 72.1104 53.4359C71.8344 53.5559 71.5884 53.7359 71.3724 53.9759C71.1684 54.2159 71.0004 54.5159 70.8684 54.8759C70.7484 55.2239 70.6884 55.6259 70.6884 56.0819ZM78.7081 62.8139C78.8041 62.6099 78.9241 62.4779 79.0681 62.4179C79.2121 62.3699 79.3621 62.3639 79.5181 62.3999C79.6021 62.4359 79.6981 62.4719 79.8061 62.5079C79.9141 62.5439 80.0341 62.5619 80.1661 62.5619C80.5021 62.5619 80.7961 62.4359 81.0481 62.1839C81.3001 61.9439 81.4921 61.6619 81.6241 61.3379L81.9661 60.5279L78.4741 52.3739C78.3541 52.1099 78.3481 51.8999 78.4561 51.7439C78.5641 51.5759 78.7621 51.4919 79.0501 51.4919H80.0221C80.4421 51.4919 80.7241 51.6959 80.8681 52.1039L82.5961 56.7839C82.6321 56.9159 82.6681 57.0539 82.7041 57.1979C82.7521 57.3299 82.7941 57.4619 82.8301 57.5939C82.8781 57.7379 82.9141 57.8819 82.9381 58.0259H82.9741C82.9981 57.8819 83.0281 57.7439 83.0641 57.6119C83.0881 57.4919 83.1181 57.3659 83.1541 57.2339C83.2021 57.0899 83.2441 56.9519 83.2801 56.8199L84.9001 52.1219C85.0201 51.7019 85.3021 51.4919 85.7461 51.4919H86.6461C86.9221 51.4919 87.1141 51.5699 87.2221 51.7259C87.3421 51.8819 87.3541 52.0919 87.2581 52.3559L83.4781 62.0399C83.3221 62.4599 83.1241 62.8199 82.8841 63.1199C82.6441 63.4199 82.3801 63.6659 82.0921 63.8579C81.8041 64.0619 81.4921 64.2119 81.1561 64.3079C80.8321 64.4039 80.5021 64.4519 80.1661 64.4519C79.9141 64.4519 79.6801 64.4219 79.4641 64.3619C79.2481 64.3019 79.0561 64.2419 78.8881 64.1819C78.6721 64.0979 78.5341 63.9659 78.4741 63.7859C78.4261 63.6059 78.4501 63.4139 78.5461 63.2099L78.7081 62.8139Z" fill="#2B6BB1"/>
<g clip-path="url(#clip0_646_4260)">
<path d="M124.38 0.902344H0V35.2423H124.38V0.902344Z" fill="#0C6CB9"/>
<path d="M122.66 2.5625H32.96V33.5825H122.66V2.5625Z" fill="white"/>
<path d="M22.2395 20.9414L30.7695 14.6914L20.0995 14.7614L16.4595 4.19141L13.1195 14.8014L2.26953 14.8814L11.1295 21.1114L7.86953 31.4814L16.6795 25.0214L25.8695 31.4814L22.2395 20.9414Z" fill="white"/>
<path d="M69.3502 6.5625H63.8402H60.4102H54.9102V10.0025H60.4102V29.8125H63.8402V10.0025H69.3502V6.5625Z" fill="#0C6CB9"/>
<path d="M84.1702 29.8531H88.0302L76.5102 5.20312L64.9902 29.8531H68.8502L71.3502 24.3631H81.6702L84.1702 29.8531ZM72.9902 20.7631L76.5102 13.0131L80.0302 20.7631H72.9802H72.9902Z" fill="#E51E25"/>
<path d="M109.06 19.8427C109.06 19.8427 114.2 18.9527 114.2 13.8327C114.2 12.2027 113.95 10.6427 112.9 9.31266C110.89 6.75266 107.8 6.72266 104.79 6.72266H101.25V29.7927H104.79V20.3327H105.46L112.17 29.7927H116.38L109.06 19.8427ZM104.83 17.2727V9.88266C104.83 9.75266 106.63 9.82266 106.8 9.83266C107.18 9.85266 107.56 9.89266 107.94 9.97266C108.23 10.0327 108.52 10.1227 108.8 10.2427C110.21 10.8527 110.9 11.9427 110.9 13.7927C110.9 17.1227 106.52 17.2827 106.52 17.2827H104.83V17.2727Z" fill="#0C6CB9"/>
<path d="M50.7704 11.7343C50.9804 11.5943 49.5403 10.1743 49.4403 10.0943C47.7603 8.8743 44.2903 9.0943 43.8503 11.5643C43.5703 13.1443 44.6504 14.1343 45.9004 14.8043C47.7604 15.8043 49.8304 16.4043 51.5804 17.6243C54.9704 19.9943 54.8204 25.1243 52.1304 27.9743C50.2704 29.9443 47.3804 30.7943 44.7504 30.1243C41.5004 29.2943 39.6004 26.5743 39.1104 23.3943L42.6703 22.6243C42.4903 22.6643 43.1104 24.5843 43.1604 24.7043C43.8904 26.3443 45.8104 27.4643 47.5804 26.9543C49.3504 26.4443 50.5204 24.9943 50.6404 23.1343C50.7204 21.9043 50.0004 20.7943 49.0904 20.0343C48.1004 19.2043 47.0404 19.0543 45.8804 18.6443C43.5904 17.8343 41.2704 16.3843 40.5004 13.9443C40.4004 13.6243 40.3303 13.2943 40.2803 12.9543C39.5303 7.1943 46.8003 4.5543 51.1003 7.2743C52.1003 7.9043 52.8004 8.9343 53.4704 9.8843L50.7704 11.7243V11.7343Z" fill="#0C6CB9"/>
<path d="M117.46 6.63281C117.77 6.63281 118.07 6.71281 118.37 6.87281C118.66 7.03281 118.89 7.26281 119.06 7.55281C119.22 7.84281 119.31 8.15281 119.31 8.47281C119.31 8.79281 119.23 9.09281 119.07 9.39281C118.91 9.69281 118.68 9.91281 118.39 10.0728C118.1 10.2328 117.79 10.3128 117.47 10.3128C117.15 10.3128 116.85 10.2328 116.55 10.0728C116.26 9.91281 116.03 9.68281 115.87 9.39281C115.71 9.10281 115.63 8.79281 115.63 8.47281C115.63 8.15281 115.71 7.84281 115.88 7.55281C116.05 7.25281 116.28 7.03281 116.57 6.87281C116.86 6.71281 117.17 6.63281 117.48 6.63281H117.46ZM117.46 6.94281C117.2 6.94281 116.95 7.01281 116.7 7.14281C116.45 7.27281 116.26 7.46281 116.12 7.71281C115.98 7.96281 115.91 8.21281 115.91 8.48281C115.91 8.75281 115.98 9.00281 116.11 9.24281C116.25 9.48281 116.44 9.67281 116.68 9.81281C116.92 9.95281 117.18 10.0128 117.44 10.0128C117.7 10.0128 117.96 9.94281 118.2 9.81281C118.44 9.67281 118.63 9.48281 118.77 9.24281C118.9 9.00281 118.97 8.74281 118.97 8.48281C118.97 8.22281 118.9 7.96281 118.76 7.71281C118.62 7.46281 118.43 7.27281 118.19 7.14281C117.94 7.01281 117.69 6.94281 117.44 6.94281H117.46ZM116.65 9.50281V7.52281H117.33C117.56 7.52281 117.73 7.54281 117.83 7.58281C117.93 7.62281 118.02 7.68281 118.08 7.77281C118.14 7.86281 118.17 7.96281 118.17 8.06281C118.17 8.21281 118.12 8.33281 118.02 8.44281C117.92 8.55281 117.78 8.61281 117.61 8.62281C117.68 8.65281 117.74 8.68281 117.78 8.72281C117.86 8.80281 117.96 8.93281 118.07 9.11281L118.31 9.50281H117.92L117.74 9.19281C117.6 8.94281 117.49 8.79281 117.41 8.73281C117.35 8.68281 117.27 8.66281 117.15 8.66281H116.96V9.50281H116.64H116.65ZM116.97 8.38281H117.36C117.55 8.38281 117.67 8.35281 117.74 8.30281C117.81 8.25281 117.84 8.17281 117.84 8.08281C117.84 8.02281 117.82 7.97281 117.79 7.92281C117.76 7.87281 117.71 7.84281 117.65 7.82281C117.59 7.80281 117.49 7.79281 117.33 7.79281H116.97V8.39281V8.38281Z" fill="#0C6CB9"/>
<path d="M96.6605 29.8531H100.52L89.0005 5.20312L77.4805 29.8531H81.3405L83.8405 24.3631H94.1605L96.6605 29.8531ZM85.4805 20.7631L89.0005 13.0131L92.5205 20.7631H85.4705H85.4805Z" fill="#0C6CB9"/>
</g>
<defs>
<clipPath id="clip0_646_4260">
<rect width="124.38" height="34.34" fill="white" transform="translate(0 0.902344)"/>
</clipPath>
</defs>
</svg>
