<svg width="133" height="89" viewBox="0 0 133 89" fill="none" xmlns="http://www.w3.org/2000/svg">
<g clip-path="url(#clip0_494_280545)">
<path d="M11.5107 60.6335C-11.5931 42.2975 21.4213 29.8774 39.6571 27.2848C72.0663 24.1579 107.611 52.8258 109.936 65.8733C111.795 76.3114 86.8614 82.3229 70.1745 81.5179C47.8956 80.0192 32.6129 77.3809 11.5107 60.6335Z" fill="#DAF0FB"/>
<mask id="mask0_494_280545" style="mask-type:alpha" maskUnits="userSpaceOnUse" x="17" y="6" width="116" height="83">
<rect width="114.244" height="82.0369" transform="translate(17.7754 6.75439)" fill="white"/>
</mask>
<g mask="url(#mask0_494_280545)">
<path d="M36.8253 76.6175C34.4042 80.1512 32.8659 92.8526 43.7032 96.2305C56.3595 96.2305 66.3563 93.3511 64.8252 87.6876C64.0897 84.9588 55.5439 80.2627 47.301 77.9871C45.3483 77.4502 44.5182 72.1459 42.9236 71.8658C40.1367 71.3563 37.1521 76.1532 36.8253 76.6175Z" fill="#2C5281"/>
<path d="M48.609 24.5099C48.6342 23.6756 48.4445 22.8686 47.9863 22.0621C46.5577 19.5891 42.7412 18.5745 40.1923 20.1409C36.6775 22.3284 36.1753 26.501 32.037 25.7562C31.8489 25.7297 31.7687 25.9183 31.8227 26.0796C33.7407 31.5121 41.9638 33.1094 46.0931 29.252C46.9512 28.4428 47.6479 27.5532 48.0758 26.6103C46.8468 30.004 43.3862 32.4336 39.7056 32.2261C39.6519 32.2262 39.652 32.3069 39.7058 32.3068C42.0434 32.571 44.2983 31.7857 46.0143 30.1403C47.4622 28.7647 48.7743 26.6088 48.609 24.5099Z" fill="#603D3D"/>
<path d="M47.2863 21.5824C45.1354 20.5648 42.7182 20.7852 40.679 22.0003C37.969 23.6473 35.3166 27.258 31.7678 25.7323C31.6334 25.6787 31.5532 25.8941 31.6877 25.9477C33.8385 26.8846 35.9856 25.9114 37.7292 24.6163C39.0972 23.591 40.3573 22.3507 41.9947 21.7015C43.7126 21.0252 45.5125 21.102 47.2596 21.6632C47.3134 21.663 47.3132 21.5823 47.2863 21.5824Z" fill="#371B1B"/>
<path d="M47.7994 21.9583C47.8261 21.9045 47.7455 21.8778 47.7187 21.9316C46.4882 24.5708 42.7577 26.3546 40.0459 27.0599C37.2805 27.7923 34.5399 27.4755 31.9321 26.3512C31.9052 26.3243 31.8785 26.4051 31.9053 26.405C34.7286 27.8248 38.0328 27.8714 41.0128 26.9771C43.6171 26.2451 46.7837 24.5971 47.7994 21.9583Z" fill="#371B1B"/>
<path d="M48.3458 22.9253C48.3457 22.8714 48.2651 22.8716 48.2652 22.9254C47.495 27.502 42.8008 31.0914 38.2069 30.9669C38.1263 30.967 38.0997 31.1016 38.2072 31.1014C42.7477 31.4145 48.0594 27.6623 48.3458 22.9253Z" fill="#371B1B"/>
<path d="M48.2908 22.6253C47.2386 20.3401 44.9791 18.7572 42.4008 19.0049C39.554 19.28 37.0602 21.5189 35.6949 23.9168C35.695 23.9437 35.695 23.9437 35.7219 23.9437C37.0074 22.0034 38.8039 20.3311 41.032 19.5729C43.958 18.571 46.7279 20.1529 48.1566 22.6794C48.1836 22.7601 48.3178 22.706 48.2908 22.6253Z" fill="#603D3D"/>
<path d="M71.6637 28.6909C67.6601 28.1611 68.4044 24.1763 65.8196 21.1405C65.7119 21.0062 65.6042 20.8987 65.4965 20.7913C65.8462 21.0328 66.196 21.3281 66.5191 21.7042C67.7577 23.1549 68.0568 24.9845 68.8928 26.6513C68.9198 26.7051 69.0003 26.678 68.9733 26.6242C68.1634 24.5805 67.8368 22.4012 66.1414 20.8707C65.038 19.8503 63.5865 19.3959 62.109 19.399C60.6582 19.2944 59.1547 19.7013 58.1089 20.6455C57.5457 21.1312 57.1708 21.7241 56.9303 22.3705C54.9791 27.4076 59.7173 32.6188 64.9018 32.554C64.9555 32.5538 64.9553 32.4731 64.9016 32.4463C61.4087 32.1038 58.5573 30.1183 57.3964 27.214C57.5043 27.4291 57.5853 27.6173 57.72 27.8324C60.3888 32.5635 68.4227 33.5154 71.7719 29.0675C71.8522 28.9327 71.825 28.7175 71.6637 28.6909Z" fill="#603D3D"/>
<path d="M58.0275 20.8883C54.8366 24.0173 56.7563 30.2576 60.5746 31.9183C60.6014 31.9182 60.6282 31.8913 60.6013 31.8644C56.9438 29.9612 55.4549 24.2044 58.1889 20.9956C58.2962 20.9146 58.1348 20.7804 58.0275 20.8883Z" fill="#63513D"/>
<path d="M70.8188 29.4453C67.9199 30.6895 64.6431 31.0465 61.7387 29.4651C58.6192 27.7495 57.4849 24.6573 57.4514 21.2397C57.4514 21.2127 57.3977 21.2129 57.3977 21.2398C57.2665 22.8547 57.4844 24.3882 58.0512 25.7594C59.1599 29.5245 63.1139 32.0724 67.0087 31.8487C67.0893 31.8485 67.0623 31.7409 67.0085 31.741C63.8922 31.694 61.4451 30.4345 59.7485 28.2853C60.1792 28.7419 60.6904 29.1444 61.2552 29.493C64.1332 31.2898 67.9209 31.2008 70.8458 29.526C70.8995 29.499 70.8994 29.4182 70.8188 29.4453Z" fill="#371B1B"/>
<path d="M71.788 28.961C67.2761 29.5898 66.9711 24.6659 64.5754 22.1686C63.0141 20.5305 60.5414 19.8631 58.3935 20.5136C58.3667 20.5137 58.3668 20.5944 58.4205 20.5673C60.2198 20.2674 61.9395 20.5059 63.4728 21.5789C64.9792 22.6251 65.6272 24.2921 66.463 25.878C67.5955 28.0283 69.2907 29.5047 71.8151 29.0955C71.8957 29.0684 71.8685 28.934 71.788 28.961Z" fill="#371B1B"/>
<path d="M62.7524 53.0753C64.182 56.0864 65.9087 59.931 66.1242 60.2804C66.3129 60.603 76.2308 63.3534 78.6234 64.2901C79.4296 64.4229 81.7138 64.8754 83.7843 65.8936C84.6447 66.3223 86.7725 69.2242 86.0754 69.8985C85.995 69.9794 85.9144 70.0065 85.807 70.0068C85.9959 70.4639 86.0235 70.8675 85.7285 71.0834C85.5407 71.2184 85.3257 71.165 85.1105 71.0309C85.1647 71.273 85.1113 71.4615 84.8966 71.5696C84.5209 71.7319 83.7945 71.1684 83.1485 70.5239C83.5256 71.0344 83.7683 71.5452 83.4194 71.7074C82.5607 72.1668 81.2144 70.5281 80.1648 69.5615C79.6266 69.0514 78.7657 68.4342 78.4978 68.8116C78.3371 69.0272 78.7141 69.5108 79.0369 69.7524C79.6825 70.2085 80.5702 70.8255 80.3023 71.2029C79.9005 71.7958 78.2602 70.9382 77.6955 70.6434C77.5341 70.563 77.3726 70.375 77.1841 70.1332C77.1304 70.1333 77.1035 70.1333 77.0766 70.1334C76.7809 70.0264 75.54 67.3379 75.0561 67.1505C73.7927 66.6958 68.2053 66.7886 65.8133 66.1749C64.2544 65.7746 63.0432 64.5662 62.1549 63.5993C61.078 62.3906 55.0989 54.3837 55.1431 49.4856C55.111 46.7406 61.7544 50.9783 62.7524 53.0753Z" fill="#CF9C77"/>
<path d="M80.1533 67.5974C80.7716 67.8382 81.39 68.1059 81.8476 68.5892C82.386 69.153 82.7099 69.9594 83.1678 70.5773C83.1679 70.6042 83.141 70.6042 83.141 70.6042C82.9255 70.2818 82.6831 69.9864 82.4408 69.691C82.2253 69.3955 82.0098 69.1 81.7675 68.8046C81.3098 68.2944 80.7985 67.865 80.1533 67.5974Z" fill="#874B1F"/>
<path d="M80.9333 66.575C81.6056 66.9233 82.3584 67.2446 82.9503 67.7276C83.5961 68.2643 84.0003 68.9631 84.4315 69.6617C84.6741 70.0917 84.8361 70.5488 85.0787 70.9788C85.0788 71.0057 85.0519 71.0058 85.0519 71.0058C84.6207 70.2802 84.1627 69.5816 83.7047 68.883C83.2736 68.2381 82.7353 67.7012 82.0629 67.2452C81.6863 67.0039 81.3098 66.7894 80.9333 66.575C80.9064 66.5482 80.9064 66.5751 80.9333 66.575Z" fill="#874B1F"/>
<path d="M81.9001 65.7393C82.5454 66.0339 83.1634 66.1402 83.7017 66.6502C84.4015 67.3214 84.9944 68.3157 85.21 68.665C85.4525 69.0412 85.6147 69.6059 85.8304 70.0091C85.8305 70.036 85.8036 70.036 85.8036 70.036C85.3184 69.1491 84.7794 68.2893 84.1869 67.4833C83.8906 67.1072 83.5675 66.7312 83.1909 66.463C82.7605 66.168 82.3303 65.9536 81.9001 65.7393Z" fill="#874B1F"/>
<path d="M53.7153 59.2341L64.1289 53.1824C64.1289 53.1824 60.8587 43.2051 56.2833 39.1515C51.7079 35.0979 49.8869 38.2776 50.5967 44.1968C51.2797 50.1161 53.7153 59.2341 53.7153 59.2341Z" fill="#E26969"/>
<path d="M61.1509 54.8277L53.7168 59.2578C53.7168 59.2578 51.281 50.1391 50.5978 44.2194C50.1337 40.3985 50.7465 37.7057 52.4654 37.379L61.1509 54.8277Z" fill="#A83B3B"/>
<path d="M61.2009 83.1911L34.8685 81.6055C34.8685 81.6055 33.4354 49.0641 41.7189 39.58C41.9066 39.371 42.0942 39.162 42.2819 38.9529C42.3086 38.9007 42.3623 38.8745 42.3892 38.8484C43.1131 38.1167 43.8375 37.5675 44.6159 37.1746C44.75 37.0961 44.9111 37.0175 45.0722 36.965C48.2665 35.5238 51.52 36.8727 54.0759 38.7187C57.5197 41.2146 61.1549 45.5095 59.5603 54.5096C58.8959 58.2401 55.5686 74.3371 55.5686 74.3371L61.2009 83.1911Z" fill="#E26969"/>
<path d="M36.2547 49.7855C34.8928 54.094 32.0202 69.3848 34.4154 71.6665C36.8107 73.9752 58.2948 69.9166 60.9544 69.9106C62.1633 69.9078 61.6199 66.6531 60.3301 66.4946C59.2552 66.3625 40.6932 67.1315 40.5314 66.809C40.3427 66.4596 41.4601 60.6716 42.3374 55.7722C43.3216 50.5496 36.869 47.8735 36.2547 49.7855Z" fill="#CF9C77"/>
<path d="M64.3228 64.8706C66.0416 64.6244 66.5255 64.8384 67.8669 63.84C68.7522 63.1924 69.5318 63.4863 69.0232 64.5096C68.1936 66.1791 66.0459 66.9643 65.2132 67.0201L64.3228 64.8706Z" fill="#CF9C77"/>
<path d="M59.7522 66.5258C59.7522 66.5258 61.6844 65.4453 63.4836 65.0105C64.7456 64.7115 67.673 64.2202 70.2035 67.0913C71.0111 68.0036 71.0404 69.2943 69.83 68.5175C68.8618 67.9283 68.3503 67.3379 67.7052 67.1513C67.7052 67.1513 68.0578 68.9791 67.3874 69.5992C67.0923 69.8689 66.234 70.5971 65.5096 71.083C65.5096 71.083 65.375 70.9489 65.2135 70.761C65.2135 70.761 61.5059 70.6358 59.6239 69.8338L59.7522 66.5258Z" fill="#CF9C77"/>
<path d="M64.7217 64.8982C65.3135 65.2196 66.5777 65.8891 67.4124 66.8018C68.3549 67.8218 69.8638 70.0244 69.1126 70.6989C68.5492 71.1846 67.9028 70.406 67.9028 70.406C67.9028 70.406 68.3347 71.4542 67.7441 71.8055C67.2072 72.1028 66.7224 71.4851 66.7224 71.4851C66.7224 71.4851 66.8849 72.1574 66.2941 72.3741C65.5958 72.618 65.3781 71.1387 64.4638 70.7643C64.2486 70.6842 64.7217 64.8982 64.7217 64.8982Z" fill="#CF9C77"/>
<path d="M66.1457 67.6495C66.6569 68.0248 67.5994 69.2062 67.8704 70.4432C67.8704 70.4701 67.8705 70.497 67.8435 70.4701C67.277 69.1801 66.4958 68.0791 66.1457 67.6495Z" fill="#874B1F"/>
<path d="M65.1906 68.5895C65.5944 68.9651 66.5102 70.2273 66.7543 71.4645C66.7543 71.4914 66.7275 71.5183 66.7275 71.4914C66.1876 70.1475 65.5139 69.073 65.1906 68.5895Z" fill="#874B1F"/>
<path d="M63.31 70.5514C63.31 70.5514 64.3846 70.522 64.8153 70.9783C64.8153 70.9783 65.2728 71.3808 65.5693 71.9182C65.8658 72.4556 66.2688 72.4815 66.5371 72.2657C66.8053 72.0229 66.7506 71.5118 66.7506 71.5118C66.7506 71.5118 67.2085 72.1296 67.7721 71.8323C68.3357 71.535 67.9307 70.4329 67.9307 70.4329C67.9307 70.4329 68.4693 71.158 69.0597 70.8069C69.6501 70.4557 69.3251 69.0844 67.7634 67.1778C67.7634 67.1778 68.1666 67.2845 69.0544 67.9819C69.9423 68.6794 70.4801 68.9471 70.7214 68.7044C70.9628 68.4617 70.7199 67.8704 70.7199 67.8704C70.3691 67.0372 69.1044 65.9909 68.3245 65.5353C68.3245 65.5353 69.0485 64.8072 69.1547 64.1075C69.2608 63.4077 68.2672 63.6253 68.2672 63.6253C67.4889 64.0307 67.1941 64.4349 66.469 64.5711C65.6633 64.7345 63.5949 64.847 61.9574 65.5234L59.81 66.5239" stroke="#FFDEDE" stroke-width="0.271279" stroke-miterlimit="10"/>
<path opacity="0.7" d="M34.673 56.6761C35.2045 53.7683 35.7905 51.1834 36.2444 49.7829C36.8316 47.8708 43.3109 50.5215 42.3542 55.7717C42.2744 56.1756 42.1946 56.5794 42.1417 57.0102C40.8248 56.7169 38.057 56.2652 34.673 56.6761Z" fill="#874B1F"/>
<path d="M32.5513 54.0746L44.1107 57.4666C44.1107 57.4666 47.3165 47.852 47.5198 41.7426C47.7231 35.6332 42.4067 37.3674 38.3042 41.6824C34.2017 45.9974 32.5513 54.0746 32.5513 54.0746Z" fill="#E26969"/>
<path d="M46.8311 47.8051C46.8311 47.7782 46.7773 47.7514 46.7774 47.8052C45.8698 50.9562 43.3289 57.2329 43.0064 57.1798C42.9526 57.1799 42.9259 57.2607 42.9797 57.2606C43.356 57.3405 43.7325 57.4742 44.082 57.608C44.1627 57.6347 44.2702 57.6345 44.3237 57.5267C44.9921 55.722 45.526 53.8906 45.9792 52.0056C46.113 51.7093 46.6716 48.7206 46.8311 47.8051Z" fill="#A83B3B"/>
<path d="M47.6126 37.7678C47.6677 38.4943 50.4449 43.6282 53.7236 43.9437C54.7986 44.0488 55.5937 38.207 55.5937 38.207L55.7541 37.803L57.9464 31.958L51.5142 26.4288L50.5723 25.6774C50.5723 25.6774 50.0649 27.3202 49.4776 29.3669C49.4509 29.4746 49.4242 29.5554 49.3976 29.6631C49.3709 29.7708 49.3174 29.8786 49.2907 29.9863C49.2106 30.2825 49.1038 30.6057 49.0237 30.9019C48.9436 31.1443 48.8902 31.3597 48.837 31.629C48.7568 31.8714 48.7036 32.1137 48.6503 32.383C48.0101 34.8334 47.5851 37.4449 47.6126 37.7678Z" fill="#CF9C77"/>
<path opacity="0.7" d="M49.4764 29.3381C50.5338 34.3679 54.0852 36.8624 55.7259 37.7736L57.9181 31.9291L51.486 26.4003L50.5442 25.6489C50.5711 25.6489 50.0637 27.2916 49.4764 29.3381Z" fill="#874B1F"/>
<path d="M67.4931 23.4593C66.9498 34.3872 60.3425 35.317 58.005 35.1876C55.8555 35.0848 48.6004 34.4281 48.0154 23.5027C47.4304 12.5772 52.6632 9.36292 57.5796 9.35196C62.4692 9.36797 68.0365 12.5313 67.4931 23.4593Z" fill="#CF9C77"/>
<path d="M48.124 23.2864C50.702 22.7692 51.396 20.3728 51.396 20.3728C60.7442 20.1093 63.8227 14.3171 63.8227 14.3171C65.6318 19.2101 67.2452 20.0406 67.4883 20.7665C67.4883 20.7665 68.2594 16.5133 66.8295 13.2877C65.5615 10.4383 62.33 6.27504 57.2539 6.93245C54.3801 7.31573 48.5782 7.70572 46.7886 13.1452C43.7435 22.4354 48.124 23.2864 48.124 23.2864Z" fill="#603D3D"/>
<path d="M63.96 13.9149C63.6399 15.1261 62.9704 16.2305 62.1124 17.1471C61.2546 18.0905 60.1814 18.7924 59.0272 19.3061L58.1414 19.6578C57.8461 19.7661 57.5238 19.8206 57.2284 19.902C56.6109 20.0917 55.9932 20.1469 55.3755 20.229C54.7577 20.2842 54.113 20.2857 53.4952 20.314C52.8772 20.2616 52.2593 20.2093 51.6413 20.1569C52.2591 20.1286 52.877 20.1271 53.4948 20.1257C54.1126 20.0705 54.7304 20.0422 55.3481 19.9601C56.5566 19.769 57.765 19.4973 58.8923 18.9836C60.0196 18.4968 61.0392 17.822 61.9241 16.9592C62.7821 16.1234 63.5055 15.0726 63.96 13.9149Z" fill="#263238"/>
<path d="M49.7905 23.6246C49.7905 23.6246 47.9027 19.9154 46.2379 20.5382C44.6 21.161 45.6844 26.3253 47.4058 27.2362C49.1272 28.1471 49.9841 26.5843 49.9841 26.5843L49.7905 23.6246Z" fill="#CF9C77"/>
<path opacity="0.7" d="M46.5868 22.018C46.5599 22.0181 46.56 22.045 46.5601 22.0719C47.7435 22.7688 48.2564 24.0324 48.5543 25.2964C48.2309 24.7859 47.7736 24.4641 47.0757 24.8155C47.0488 24.8425 47.0758 24.8963 47.1027 24.8962C47.64 24.868 47.9895 25.0018 48.2859 25.4585C48.5015 25.781 48.6097 26.1844 48.7447 26.5339C48.7987 26.6683 49.0135 26.614 48.9864 26.4795L48.9863 26.4526C49.2251 24.8374 48.2802 22.4177 46.5868 22.018Z" fill="#874B1F"/>
<path d="M59.9314 23.7067C59.8246 24.0566 59.4756 24.2457 59.1261 24.1389C58.7766 24.0321 58.5879 23.6828 58.6947 23.3328C58.8015 22.9829 59.1504 22.7938 59.4999 22.9006C59.8494 22.9805 60.0382 23.3567 59.9314 23.7067Z" fill="#371B1B"/>
<path d="M66.1413 24.0171C66.0345 24.3671 65.6856 24.5561 65.3361 24.4493C64.9866 24.3425 64.7978 23.9932 64.9046 23.6432C65.0115 23.2933 65.3604 23.1042 65.7099 23.211C66.0594 23.291 66.2482 23.6672 66.1413 24.0171Z" fill="#371B1B"/>
<path d="M57.7013 22.0967C57.755 22.0965 57.8087 22.0695 57.8624 22.0425C57.8624 22.0425 58.8814 21.1527 60.0641 21.5534C60.1985 21.6069 60.3326 21.5259 60.3861 21.4182C60.4396 21.2836 60.3588 21.1493 60.2512 21.0957C58.7997 20.5612 57.6198 21.6127 57.5662 21.6667C57.4589 21.7476 57.4592 21.909 57.54 22.0164C57.5669 22.0701 57.6476 22.0968 57.7013 22.0967Z" fill="#603D3D"/>
<path d="M66.7233 22.2085C66.8039 22.2084 66.8576 22.1813 66.9112 22.1274C66.9916 22.0197 66.9644 21.8584 66.8837 21.7779C66.8298 21.7242 65.5924 20.7589 64.1699 21.3538C64.0357 21.4079 63.9822 21.5425 64.0362 21.6768C64.0902 21.8112 64.2246 21.8646 64.3588 21.8106C65.5129 21.3238 66.562 22.1551 66.5889 22.1551C66.6159 22.2088 66.6696 22.2087 66.7233 22.2085Z" fill="#603D3D"/>
<path d="M63.8402 29.513C62.7395 29.8114 60.9679 30.434 58.816 28.8518C58.6278 28.7177 58.3596 28.9335 58.4673 29.0677C59.1944 30.0883 61.1051 31.9669 64.0556 29.8084C64.2165 29.6736 64.0549 29.4588 63.8402 29.513Z" fill="#874B1F"/>
<path d="M61.984 26.5819C62.0109 26.5818 62.0377 26.5818 62.0646 26.5817C62.0914 26.5817 62.1183 26.5816 62.1451 26.5815C62.172 26.5815 62.172 26.5815 62.1989 26.5814C62.2257 26.5814 62.2526 26.5813 62.2526 26.5813C62.2794 26.5812 62.3063 26.5812 62.3332 26.5811C62.36 26.5811 62.3869 26.581 62.4137 26.581L62.4406 26.5809C62.4674 26.5808 62.4943 26.5808 62.4943 26.5539L62.5211 26.5538C62.548 26.5537 62.5479 26.5268 62.5748 26.5268L62.6016 26.4998C62.6016 26.4998 62.6285 26.4997 62.6284 26.4728C62.6553 26.4728 62.6552 26.4459 62.682 26.4189C62.7088 26.3919 62.7088 26.365 62.7356 26.338C62.7624 26.311 62.7892 26.2841 62.8159 26.2302C62.8696 26.1762 62.977 26.2029 63.004 26.2567C63.031 26.3105 63.0579 26.3642 63.058 26.4181C63.0581 26.4719 63.0314 26.5527 63.0315 26.6065C62.9781 26.7412 62.8977 26.849 62.7636 26.9301C62.6563 27.0111 62.5221 27.0383 62.3878 27.0385C62.3072 27.0387 62.2535 27.0388 62.1728 27.0121C62.1191 26.9853 62.0653 26.9854 62.0115 26.9317C61.9847 26.9318 61.9846 26.9049 61.9577 26.878C61.9308 26.8511 61.9038 26.7974 61.9038 26.7705C61.9037 26.7435 61.9037 26.7435 61.8768 26.7167C61.823 26.663 61.9034 26.5821 61.984 26.5819Z" fill="#874B1F"/>
<path d="M59.1866 22.9284C59.1866 22.9284 58.7035 23.2526 58.4342 22.9569C58.1649 22.6613 58.435 23.3609 58.7307 23.441C59.0265 23.5212 59.1866 22.9284 59.1866 22.9284Z" fill="#371B1B"/>
<path d="M65.7075 23.3466C65.7075 23.3466 66.1109 23.4804 66.2448 23.2378C66.3787 22.9951 66.4598 23.2104 66.3794 23.3452C66.299 23.48 65.8964 23.7233 65.8964 23.7233L65.7075 23.3466Z" fill="#371B1B"/>
<path d="M61.7432 12.8536C61.7432 12.8536 58.2588 16.6292 52.0841 18.257C52.0841 18.257 60.7518 14.1208 61.7432 12.8536Z" fill="#371B1B"/>
<path d="M49.5786 16.3794C49.3643 16.6759 54.8581 10.2594 62.0054 11.321C62.0054 11.3479 54.4803 9.37206 49.5786 16.3794Z" fill="#371B1B"/>
<path d="M60.3134 9.81902C60.3134 9.81902 55.2068 8.29541 50.6494 12.7999C50.6494 12.7999 53.7556 7.94852 60.3134 9.81902Z" fill="#371B1B"/>
<path d="M61.3928 73.2786L58.1426 73.2863L58.1386 71.1608L61.3888 71.1532L61.3928 73.2786Z" fill="#212731"/>
<path d="M65.6135 73.1215L62.3633 73.1292L62.3593 71.0037L65.6095 70.9961L65.6135 73.1215Z" fill="#212731"/>
<path d="M69.8273 72.9644L66.5771 72.972L66.5732 70.8466L69.8234 70.839L69.8273 72.9644Z" fill="#212731"/>
<path d="M74.0295 72.8149L70.7793 72.8225L70.7753 70.6971L74.0255 70.6894L74.0295 72.8149Z" fill="#212731"/>
<path d="M78.2463 72.6595L74.9961 72.6671L74.9921 70.5417L78.2423 70.534L78.2463 72.6595Z" fill="#212731"/>
<path d="M82.4563 72.5303L79.2061 72.538L79.2021 70.4125L82.4523 70.4049L82.4563 72.5303Z" fill="#212731"/>
<path d="M86.6955 72.3749L83.4453 72.3826L83.4413 70.2571L86.6916 70.2495L86.6955 72.3749Z" fill="#212731"/>
<path d="M90.8938 72.2178L87.6436 72.2255L87.6396 70.1L90.8898 70.0924L90.8938 72.2178Z" fill="#212731"/>
<path d="M95.1184 72.0665L91.8682 72.0741L91.8642 69.9487L95.1144 69.941L95.1184 72.0665Z" fill="#212731"/>
<path d="M95.9201 74.4155L57.3465 74.5012L57.3415 71.9221L95.9131 70.7618L95.9201 74.4155Z" fill="#212731"/>
<path d="M117.95 62.2465L77.0691 65.9725L83.4595 35.6876L124.024 35.5947L117.95 62.2465Z" fill="#63676E"/>
<path d="M119.448 62.2436L78.5403 65.9696L84.9576 35.6846L125.522 35.5918L119.448 62.2436Z" fill="#212731"/>
<path d="M107.663 74.3618L87.7322 74.4073L87.7293 72.8765L107.659 72.1595L107.663 74.3618Z" fill="#63676E"/>
<path d="M113.087 74.3564L102.394 74.3809L95.8874 57.443L106.607 57.4184L113.087 74.3564Z" fill="#63676E"/>
<path d="M114.858 74.3506L104.139 74.3752L97.6588 57.4372L108.378 57.4127L114.858 74.3506Z" fill="#363C44"/>
<path d="M116.191 75.5412L121.193 75.531L121.236 96.3098L116.233 96.32L116.191 75.5412Z" fill="#64B4ED"/>
<path d="M28.409 75.5407L33.4102 75.531L33.4547 96.3098L28.4535 96.3195L28.409 75.5407Z" fill="#64B4ED"/>
<path d="M19.4394 74.5465L130.492 74.2816C131.416 74.2794 132.167 75.0272 132.169 75.9518C132.171 76.8764 131.422 77.6278 130.498 77.63L19.4452 77.8949C18.5206 77.8971 17.7697 77.1493 17.7681 76.2247C17.7665 75.3001 18.5147 74.5487 19.4394 74.5465Z" fill="#48A1DF"/>
<path d="M23.7825 77.8876L125.626 77.6447L125.635 82.6882C125.636 83.3594 125.093 83.9049 124.422 83.9065L25.0088 84.1436C24.3376 84.1452 23.7925 83.6024 23.7913 82.9312L23.7825 77.8876Z" fill="#90CEF4"/>
</g>
</g>
<defs>
<clipPath id="clip0_494_280545">
<rect width="132" height="88.1089" fill="white" transform="translate(0.463867 0.691895)"/>
</clipPath>
</defs>
</svg>
