<svg width="153" height="78" viewBox="0 0 153 78" fill="none" xmlns="http://www.w3.org/2000/svg">

  <g clip-path="url(#clip0_232_34223)">
<path d="M30.5821 71.6401H28.8608V70.6719H33.3792V71.6401H31.7655V76.4814H30.5821V71.6401Z" fill="#196CB6"/>
<path d="M33.8103 74.6424C33.8103 74.8575 33.8103 75.7182 34.5634 75.7182C34.8861 75.7182 35.2089 75.503 35.2089 75.1803H36.2847C36.2847 75.503 36.1771 75.8258 35.8543 76.041C35.5316 76.3637 34.9937 76.5789 34.4558 76.4713C33.9179 76.4713 33.4876 76.2561 33.1649 75.9334C32.7345 75.503 32.5194 74.9651 32.5194 74.4272C32.5194 73.6741 32.7345 73.0286 33.38 72.4907C33.7028 72.2756 34.1331 72.168 34.4558 72.168C35.1013 72.168 35.7468 72.4907 36.0695 73.1362C36.2847 73.5665 36.3922 74.1045 36.2847 74.6424H33.8103ZM35.2089 73.8893C35.2089 73.6741 35.2089 73.0286 34.5634 73.0286C33.9179 73.0286 33.8103 73.459 33.8103 73.8893H35.2089Z" fill="#196CB6"/>
<path d="M38.2214 72.375L38.9745 73.666L39.7276 72.375H40.9109L39.62 74.3115L40.9109 76.3556H39.5124L38.7593 74.8494L37.8987 76.3556H36.7153L38.0063 74.2039L36.8229 72.375H38.2214Z" fill="#196CB6"/>
<path d="M43.924 76.3637V75.8258C43.7088 76.2561 43.2785 76.4713 42.7406 76.4713C42.4179 76.4713 41.9876 76.3637 41.7724 76.1485C41.5572 75.9334 41.4497 75.6106 41.4497 75.2879C41.4497 74.75 41.7724 74.212 42.3103 73.9969C42.8482 73.7817 43.3861 73.7817 43.8164 73.7817V73.2438C43.7088 73.0286 43.4937 72.9211 43.2785 72.9211C43.0633 72.9211 42.9558 73.0286 42.8482 73.1362V73.459H41.5572C41.5572 73.1362 41.6648 72.7059 41.9876 72.4907C42.3103 72.2756 42.7406 72.168 43.1709 72.168C43.7088 72.168 44.2467 72.3831 44.5695 72.7059C44.7846 73.0286 44.8922 73.3514 44.8922 73.6741V76.2561H43.924V76.3637ZM42.5254 75.1803C42.5254 75.503 42.7406 75.7182 43.0633 75.7182C43.2785 75.7182 43.3861 75.6106 43.6012 75.503C43.8164 75.1803 43.8164 74.8575 43.8164 74.5348C42.9558 74.5348 42.5254 74.75 42.5254 75.1803Z" fill="#196CB6"/>
<path d="M46.7197 75.1782C46.7197 75.3933 46.9348 75.7161 47.3652 75.7161C47.903 75.7161 48.0106 75.5009 48.0106 75.2858C48.0106 75.0706 48.0106 74.963 47.4727 74.8554L46.7197 74.6403C46.1818 74.5327 45.7515 74.1024 45.7515 73.5644C45.7515 72.8114 46.5045 72.2734 47.4727 72.2734C48.4409 72.2734 48.9788 72.7038 48.9788 73.4569H47.903C47.903 73.2417 47.6879 73.0265 47.4727 72.9189H47.3652C47.0424 72.9189 46.8273 73.0265 46.8273 73.3493C46.8273 73.5644 47.0424 73.672 47.3652 73.7796L48.1182 73.9948C48.8713 74.2099 49.194 74.5327 49.194 75.0706C49.0864 75.9313 48.2258 76.5768 47.3652 76.4692C46.8273 76.4692 46.3969 76.3616 46.0742 76.0388C45.859 75.8237 45.7515 75.5009 45.7515 75.2858L46.7197 75.1782Z" fill="#196CB6"/>
<path d="M51.9932 70.6719H55.7584V71.6401H53.1765V73.0387H55.5433V74.007H53.1765V75.5131H55.866V76.4814H51.9932V70.6719Z" fill="#196CB6"/>
<path d="M59.3055 70.6719H60.4889V76.3738H59.3055V75.7283C59.1979 75.9434 59.0904 76.051 58.8752 76.1586C58.66 76.2662 58.3373 76.3738 58.1221 76.3738C57.0464 76.3738 56.4009 75.6207 56.4009 74.3297C56.4009 73.0387 57.1539 72.178 58.1221 72.178C58.5525 72.178 58.9828 72.3932 59.1979 72.716V70.6719H59.3055ZM58.4449 75.7283C58.7676 75.7283 59.0904 75.5131 59.1979 75.2979C59.3055 74.9752 59.4131 74.6525 59.4131 74.3297C59.4131 73.5766 59.0904 73.1463 58.5525 73.1463C58.0146 73.1463 57.6918 74.1145 57.6918 74.5449C57.5842 74.8676 57.7994 75.7283 58.4449 75.7283Z" fill="#196CB6"/>
<path d="M62.6434 72.375V74.7418C62.6434 75.0646 62.6434 75.6025 63.2889 75.6025C63.9343 75.6025 64.0419 75.0646 64.0419 74.3115V72.375H65.2253V76.4632H64.1495V75.9252C63.9343 76.3556 63.504 76.5707 62.9661 76.5707C62.5358 76.5707 62.1055 76.3556 61.7828 76.0328C61.5676 75.7101 61.46 75.3873 61.5676 74.957V72.5902L62.6434 72.375Z" fill="#196CB6"/>
<path d="M68.3446 73.7796C68.3446 73.672 68.3446 73.0265 67.8067 73.0265C67.2688 73.0265 67.1612 73.8872 67.1612 74.3175C67.1612 74.7479 67.2688 75.1782 67.4839 75.5009C67.5915 75.6085 67.6991 75.6085 67.8067 75.6085C67.9143 75.6085 68.237 75.6085 68.3446 74.8554H69.528C69.528 75.2858 69.3128 75.7161 68.9901 76.0389C68.6673 76.3616 68.237 76.4692 67.9143 76.4692C67.3764 76.4692 66.9461 76.3616 66.6233 75.9313C66.3006 75.5009 66.0854 74.8554 66.0854 74.3175C65.9778 73.3493 66.6233 72.381 67.5915 72.2734H67.9143C68.7749 72.1659 69.4204 72.8114 69.528 73.672V73.7796H68.3446Z" fill="#196CB6"/>
<path d="M72.5399 76.3637V75.8258C72.3247 76.2561 71.7868 76.4713 71.3565 76.4713C71.0338 76.4713 70.6034 76.3637 70.3883 76.1485C70.1731 75.9334 70.0655 75.6106 70.0655 75.2879C70.0655 74.75 70.3883 74.212 70.9262 73.9969C71.4641 73.7817 72.002 73.7817 72.4323 73.7817V73.2438C72.3247 73.0286 72.1095 72.9211 71.8944 72.9211C71.6792 72.9211 71.5717 73.0286 71.4641 73.1362V73.459H70.1731C70.1731 73.1362 70.2807 72.7059 70.6034 72.4907C70.9262 72.2756 71.3565 72.168 71.7868 72.168C72.3247 72.168 72.755 72.3831 73.1853 72.7059C73.4005 73.0286 73.5081 73.3514 73.5081 73.6741V76.2561H72.5399V76.3637ZM71.0338 75.1803C71.0338 75.503 71.2489 75.7182 71.5717 75.7182C71.7868 75.7182 71.8944 75.6106 72.1095 75.503C72.3247 75.1803 72.3247 74.8575 72.3247 74.5348C71.5717 74.5348 71.0338 74.6424 71.0338 75.1803Z" fill="#196CB6"/>
<path d="M76.843 76.3632C76.5202 76.4708 76.1975 76.4708 75.9823 76.4708C74.799 76.4708 74.799 75.7177 74.799 75.395V73.2433H74.0459V72.3826H74.799V71.6296L75.9823 71.1992V72.3826H76.9505V73.1357H75.9823V74.9646C75.9823 75.2874 75.9823 75.6101 76.5202 75.6101H76.9505L76.843 76.3632Z" fill="#196CB6"/>
<path d="M77.4878 70.6719H78.7787V71.7477H77.5954L77.4878 70.6719ZM77.4878 72.3932H78.7787V76.3738H77.5954L77.4878 72.3932Z" fill="#196CB6"/>
<path d="M81.5767 72.2734C82.7601 72.2734 83.7283 73.2417 83.7283 74.4251C83.7283 75.6085 82.7601 76.5768 81.5767 76.5768C80.5009 76.6843 79.6403 75.8237 79.5327 74.7478V74.4251C79.4251 73.3493 80.1782 72.381 81.2539 72.2734H81.5767ZM81.5767 75.7161C82.1146 75.7161 82.4373 75.3934 82.4373 74.3175C82.4373 73.7796 82.4373 73.0265 81.5767 73.0265C80.7161 73.0265 80.7161 73.9948 80.7161 74.4251C80.7161 75.2858 81.0388 75.7161 81.5767 75.7161Z" fill="#196CB6"/>
<path d="M84.4795 73.0335V72.388H85.5553V73.0335C85.7704 72.6032 86.3083 72.2805 86.8462 72.388C87.3841 72.388 87.8144 72.6032 88.0296 73.1411C88.1372 73.5714 88.1372 74.0018 88.1372 74.3245V76.4762H86.9538V73.5715C86.8462 73.3563 86.6311 73.2487 86.4159 73.2487C86.2008 73.2487 85.9856 73.3563 85.7704 73.5715C85.6629 73.7866 85.6629 74.0018 85.6629 74.2169V76.5838H84.4795V73.0335Z" fill="#196CB6"/>
<path d="M94.2715 70.6719L96.2079 76.3738H95.0245L94.5942 75.1904H92.4426L92.0123 76.3738H90.9365L92.9805 70.6719H94.2715ZM94.2715 74.2221L93.5184 71.8553L92.6578 74.2221H94.2715Z" fill="#196CB6"/>
<path d="M100.402 72.381V76.3616C100.402 77.8678 99.2188 77.9753 98.4657 77.9753C97.7127 77.9753 96.852 77.9753 96.7445 76.6843H97.8202C97.8202 77.0071 98.143 77.2223 98.4657 77.2223H98.5733C98.896 77.2223 99.2188 77.0071 99.2188 76.6843V75.7161C99.0036 76.0388 98.5733 76.254 98.143 76.254C97.1748 76.1464 96.4217 75.3933 96.5293 74.4251V74.3175C96.5293 73.2417 97.0672 72.2734 98.143 72.2734C98.5733 72.2734 99.0036 72.4886 99.2188 72.8114V72.381H100.402ZM98.4657 75.5009C99.2188 75.5009 99.2188 74.5327 99.2188 74.3175C99.2188 74.1024 99.2188 73.0265 98.4657 73.0265C97.7127 73.0265 97.7127 73.3493 97.7127 74.2099C97.7127 74.5327 97.7127 75.5009 98.4657 75.5009Z" fill="#196CB6"/>
<path d="M102.125 74.6424C102.125 74.8575 102.125 75.7182 102.878 75.7182C103.201 75.7182 103.524 75.503 103.524 75.1803H104.6C104.6 75.503 104.492 75.8258 104.277 76.041C103.954 76.3637 103.416 76.5789 102.878 76.4713C102.34 76.4713 101.91 76.2561 101.48 75.9334C101.265 75.6106 101.049 75.0727 101.049 74.4272C100.942 73.6741 101.265 73.0286 101.91 72.4907C102.233 72.2756 102.556 72.168 102.986 72.168C103.631 72.168 104.277 72.4907 104.492 73.1362C104.707 73.5665 104.815 74.1045 104.707 74.6424H102.125ZM103.631 73.8893C103.631 73.6741 103.631 73.0286 102.986 73.0286C102.34 73.0286 102.233 73.459 102.233 73.8893H103.631Z" fill="#196CB6"/>
<path d="M105.566 73.0335V72.388H106.642V73.0335C106.857 72.6032 107.395 72.2805 107.933 72.388C108.471 72.388 108.901 72.6032 109.117 73.1411C109.224 73.5714 109.224 74.0018 109.224 74.3245V76.4762H108.041V73.5715C107.933 73.3563 107.718 73.2487 107.503 73.2487C107.288 73.2487 107.073 73.3563 106.857 73.5715V76.5838H105.674L105.566 73.0335Z" fill="#196CB6"/>
<path d="M112.235 73.7797C112.235 73.6721 112.235 73.0266 111.697 73.0266C111.16 73.0266 111.052 73.8872 111.052 74.3176C111.052 74.7479 111.16 75.1782 111.375 75.501C111.482 75.6086 111.59 75.6086 111.697 75.6086C111.697 75.6086 112.128 75.6086 112.235 74.8555H113.311C113.311 75.2858 113.096 75.7162 112.773 76.0389C112.451 76.3617 112.128 76.4692 111.697 76.4692C111.16 76.4692 110.729 76.3617 110.407 75.9313C110.084 75.501 109.869 74.8555 109.976 74.3176C109.976 72.4887 111.267 72.2735 111.805 72.2735C112.558 72.1659 113.311 72.8114 113.419 73.5645V73.7797H112.235Z" fill="#196CB6"/>
<path d="M114.82 72.375L115.681 75.1722L116.541 72.375H117.725L116.219 76.248L115.788 77.8617H114.605L115.143 76.3556L113.637 72.375H114.82Z" fill="#196CB6"/>
<path d="M115.462 40.968H118.797L112.02 31.0703H94.8071L97.6042 36.5571L95.5602 40.3225C96.9587 43.3348 99.0027 46.0244 101.692 48.0684L105.995 35.9116L105.135 48.7139C108.577 48.0684 114.171 45.9168 115.247 44.6258L114.924 41.6135L111.805 40.968H115.462Z" fill="#F16037"/>
<path d="M36.393 43.7665H28.7549L30.4762 35.375H58.2316L56.5103 43.7665H48.8722L44.0311 66.5741H31.5519L36.393 43.7665Z" fill="#196CB6"/>
<path d="M61.6733 35.375H85.3408L83.6195 43.4437H71.7858L71.1403 46.7788H82.1134L80.3921 54.8475H69.3115L68.5584 58.3978H80.8224L79.1012 66.4665H55.0034L61.6733 35.375Z" fill="#196CB6"/>
<path d="M115.355 46.145C115.032 47.5435 108.792 49.9104 105.135 50.6635L104.919 53.9985H99.648L101.047 49.8028C98.4646 47.8663 94.6994 43.4554 94.6994 41.9492L81.5747 66.6933H93.4084L95.7752 61.7445H104.704L104.812 66.6933H117.614L115.355 46.145Z" fill="#196CB6"/>
<path d="M124.178 66.4677C124.178 67.9739 123.102 69.2649 121.596 69.2649C120.09 69.2649 118.799 68.189 118.799 66.6829C118.799 65.1767 119.875 63.8857 121.381 63.8857H121.488C122.994 63.7781 124.178 64.9615 124.178 66.4677ZM119.444 66.4677C119.444 67.5435 120.305 68.5118 121.381 68.5118H121.488C122.672 68.5118 123.532 67.6511 123.64 66.4677C123.64 65.2843 122.779 64.4236 121.596 64.316C120.413 64.316 119.444 65.2843 119.444 66.4677ZM121.058 67.7587H120.413V65.1767H121.381C121.703 65.1767 122.026 65.1767 122.241 65.3919C122.457 65.4994 122.564 65.7146 122.457 65.9298C122.457 66.2525 122.241 66.4677 121.919 66.5753C122.241 66.6829 122.349 66.898 122.349 67.2208C122.349 67.4359 122.457 67.6511 122.564 67.8663H121.919C121.811 67.6511 121.703 67.4359 121.703 67.2208C121.703 67.0056 121.488 66.7904 121.166 66.7904H120.843L121.058 67.7587ZM121.058 66.3601H121.381C121.703 66.3601 122.026 66.3601 122.026 65.9298C122.026 65.4995 121.811 65.4994 121.488 65.4994H121.166L121.058 66.3601Z" fill="#196CB6"/>
</g>
<path d="M1.476 6.976C1.476 6.472 1.722 6.22 2.214 6.22H6.39C6.99 6.22 7.536 6.322 8.028 6.526C8.532 6.718 8.964 7 9.324 7.372C9.684 7.732 9.96 8.17 10.152 8.686C10.356 9.19 10.458 9.754 10.458 10.378C10.458 11.002 10.356 11.572 10.152 12.088C9.96 12.604 9.684 13.048 9.324 13.42C8.964 13.792 8.532 14.08 8.028 14.284C7.536 14.488 6.99 14.59 6.39 14.59H3.78V18.244C3.78 18.748 3.534 19 3.042 19H2.214C1.722 19 1.476 18.748 1.476 18.244V6.976ZM5.958 12.574C6.642 12.574 7.17 12.376 7.542 11.98C7.914 11.584 8.1 11.05 8.1 10.378C8.1 9.718 7.914 9.196 7.542 8.812C7.182 8.416 6.666 8.218 5.994 8.218H3.78V12.574H5.958ZM11.5494 10.576C11.5494 10.072 11.7954 9.82 12.2874 9.82H12.9894C13.4934 9.82 13.7454 10.072 13.7454 10.576V11.44C13.7454 11.536 13.7394 11.62 13.7274 11.692C13.7274 11.764 13.7214 11.83 13.7094 11.89C13.6974 11.95 13.6914 12.01 13.6914 12.07H13.7274C13.8114 11.794 13.9374 11.518 14.1054 11.242C14.2734 10.966 14.4714 10.72 14.6994 10.504C14.9394 10.276 15.1974 10.096 15.4734 9.964C15.7614 9.82 16.0674 9.748 16.3914 9.748C16.6434 9.748 16.8174 9.814 16.9134 9.946C17.0214 10.066 17.0754 10.252 17.0754 10.504V11.206C17.0754 11.71 16.8174 11.962 16.3014 11.962C15.8814 11.962 15.5154 12.058 15.2034 12.25C14.8914 12.442 14.6334 12.694 14.4294 13.006C14.2254 13.318 14.0694 13.672 13.9614 14.068C13.8654 14.464 13.8174 14.872 13.8174 15.292V18.244C13.8174 18.748 13.5714 19 13.0794 19H12.2874C11.7954 19 11.5494 18.748 11.5494 18.244V10.576ZM17.0294 14.41C17.0294 13.714 17.1614 13.072 17.4254 12.484C17.6894 11.884 18.0494 11.374 18.5054 10.954C18.9614 10.534 19.4954 10.204 20.1074 9.964C20.7194 9.724 21.3734 9.604 22.0694 9.604C22.7654 9.604 23.4194 9.724 24.0314 9.964C24.6434 10.204 25.1774 10.534 25.6334 10.954C26.1014 11.374 26.4674 11.884 26.7314 12.484C26.9954 13.072 27.1274 13.714 27.1274 14.41C27.1274 15.118 26.9954 15.766 26.7314 16.354C26.4674 16.942 26.1014 17.452 25.6334 17.884C25.1774 18.304 24.6434 18.634 24.0314 18.874C23.4194 19.102 22.7654 19.216 22.0694 19.216C21.3734 19.216 20.7194 19.102 20.1074 18.874C19.4954 18.634 18.9614 18.304 18.5054 17.884C18.0494 17.452 17.6894 16.942 17.4254 16.354C17.1614 15.766 17.0294 15.118 17.0294 14.41ZM19.3514 14.41C19.3514 14.842 19.4234 15.232 19.5674 15.58C19.7114 15.928 19.9034 16.228 20.1434 16.48C20.3954 16.732 20.6834 16.93 21.0074 17.074C21.3434 17.206 21.6974 17.272 22.0694 17.272C22.4414 17.272 22.7894 17.206 23.1134 17.074C23.4494 16.93 23.7434 16.732 23.9954 16.48C24.2474 16.228 24.4454 15.928 24.5894 15.58C24.7334 15.232 24.8054 14.842 24.8054 14.41C24.8054 13.99 24.7334 13.606 24.5894 13.258C24.4454 12.898 24.2474 12.592 23.9954 12.34C23.7434 12.088 23.4494 11.896 23.1134 11.764C22.7894 11.62 22.4414 11.548 22.0694 11.548C21.6974 11.548 21.3434 11.62 21.0074 11.764C20.6834 11.896 20.3954 12.088 20.1434 12.34C19.9034 12.592 19.7114 12.898 19.5674 13.258C19.4234 13.606 19.3514 13.99 19.3514 14.41ZM27.8667 14.41C27.8667 13.762 27.9807 13.15 28.2087 12.574C28.4487 11.986 28.7847 11.476 29.2167 11.044C29.6487 10.6 30.1707 10.252 30.7827 10C31.4067 9.736 32.0967 9.604 32.8527 9.604C33.5967 9.604 34.2147 9.712 34.7067 9.928C35.1987 10.132 35.5827 10.33 35.8587 10.522C36.0507 10.654 36.1527 10.81 36.1647 10.99C36.1887 11.158 36.1347 11.344 36.0027 11.548L35.7687 11.908C35.6367 12.112 35.4867 12.226 35.3187 12.25C35.1627 12.262 34.9767 12.214 34.7607 12.106C34.5687 11.974 34.3227 11.848 34.0227 11.728C33.7227 11.608 33.3747 11.548 32.9787 11.548C32.5587 11.548 32.1747 11.626 31.8267 11.782C31.4787 11.926 31.1847 12.13 30.9447 12.394C30.7047 12.646 30.5187 12.946 30.3867 13.294C30.2547 13.63 30.1887 13.996 30.1887 14.392C30.1887 14.776 30.2547 15.142 30.3867 15.49C30.5187 15.838 30.7047 16.144 30.9447 16.408C31.1967 16.672 31.4967 16.882 31.8447 17.038C32.2047 17.194 32.6067 17.272 33.0507 17.272C33.5067 17.272 33.9087 17.194 34.2567 17.038C34.6047 16.882 34.8867 16.726 35.1027 16.57C35.5587 16.318 35.9007 16.396 36.1287 16.804L36.3087 17.146C36.5367 17.566 36.4707 17.902 36.1107 18.154C35.9667 18.262 35.7927 18.376 35.5887 18.496C35.3847 18.616 35.1447 18.73 34.8687 18.838C34.5927 18.946 34.2867 19.036 33.9507 19.108C33.6147 19.18 33.2487 19.216 32.8527 19.216C32.0967 19.216 31.4067 19.09 30.7827 18.838C30.1707 18.586 29.6487 18.244 29.2167 17.812C28.7847 17.38 28.4487 16.876 28.2087 16.3C27.9807 15.712 27.8667 15.082 27.8667 14.41ZM37.6096 6.976C37.6096 6.472 37.8556 6.22 38.3476 6.22H39.1396C39.6316 6.22 39.8776 6.472 39.8776 6.976V15.958C39.8776 16.186 39.8956 16.372 39.9316 16.516C39.9796 16.648 40.0396 16.756 40.1116 16.84C40.1836 16.912 40.2616 16.966 40.3456 17.002C40.4296 17.026 40.5136 17.044 40.5976 17.056C40.7656 17.08 40.8976 17.146 40.9936 17.254C41.1016 17.35 41.1556 17.5 41.1556 17.704V18.316C41.1556 18.556 41.0956 18.748 40.9756 18.892C40.8676 19.024 40.6756 19.09 40.3996 19.09C40.0876 19.09 39.7696 19.06 39.4456 19C39.1216 18.94 38.8216 18.808 38.5456 18.604C38.2696 18.4 38.0416 18.106 37.8616 17.722C37.6936 17.326 37.6096 16.798 37.6096 16.138V6.976ZM41.5929 16.462C41.5929 16.018 41.6769 15.634 41.8449 15.31C42.0129 14.974 42.2409 14.692 42.5289 14.464C42.8169 14.224 43.1409 14.032 43.5009 13.888C43.8729 13.744 44.2569 13.63 44.6529 13.546C45.0489 13.462 45.4449 13.408 45.8409 13.384C46.2369 13.348 46.6089 13.33 46.9569 13.33H47.3349V13.114C47.3349 12.514 47.1669 12.094 46.8309 11.854C46.4949 11.614 46.0929 11.494 45.6249 11.494C45.2409 11.494 44.8809 11.554 44.5449 11.674C44.2089 11.782 43.9329 11.896 43.7169 12.016C43.2489 12.22 42.9129 12.118 42.7089 11.71L42.5289 11.368C42.3009 10.924 42.3969 10.588 42.8169 10.36C43.1169 10.204 43.5189 10.042 44.0229 9.874C44.5389 9.694 45.1389 9.604 45.8229 9.604C47.0229 9.604 47.9529 9.922 48.6129 10.558C49.2849 11.194 49.6209 12.094 49.6209 13.258V18.244C49.6209 18.748 49.3689 19 48.8649 19H48.2529C47.7609 19 47.5149 18.748 47.5149 18.244V17.884C47.5149 17.74 47.5209 17.644 47.5329 17.596C47.5329 17.548 47.5389 17.512 47.5509 17.488H47.5149C47.3349 17.812 47.1069 18.1 46.8309 18.352C46.5909 18.568 46.2909 18.766 45.9309 18.946C45.5709 19.126 45.1389 19.216 44.6349 19.216C44.2149 19.216 43.8189 19.15 43.4469 19.018C43.0869 18.886 42.7689 18.7 42.4929 18.46C42.2169 18.22 41.9949 17.932 41.8269 17.596C41.6709 17.26 41.5929 16.882 41.5929 16.462ZM43.8609 16.264C43.8609 16.576 43.9749 16.858 44.2029 17.11C44.4429 17.35 44.7909 17.47 45.2469 17.47C45.5709 17.47 45.8589 17.398 46.1109 17.254C46.3749 17.11 46.5969 16.924 46.7769 16.696C46.9569 16.456 47.0949 16.192 47.1909 15.904C47.2989 15.616 47.3529 15.334 47.3529 15.058V14.716H46.9749C46.6869 14.716 46.3629 14.734 46.0029 14.77C45.6429 14.806 45.3009 14.878 44.9769 14.986C44.6649 15.094 44.4009 15.25 44.1849 15.454C43.9689 15.658 43.8609 15.928 43.8609 16.264ZM51.392 10.576C51.392 10.072 51.638 9.82 52.13 9.82H52.832C53.324 9.82 53.57 10.072 53.57 10.576V11.134C53.57 11.194 53.564 11.248 53.552 11.296C53.552 11.344 53.552 11.386 53.552 11.422C53.54 11.47 53.534 11.512 53.534 11.548H53.57C53.678 11.32 53.828 11.092 54.02 10.864C54.212 10.636 54.434 10.432 54.686 10.252C54.95 10.06 55.238 9.904 55.55 9.784C55.874 9.664 56.216 9.604 56.576 9.604C57.98 9.604 58.874 10.234 59.258 11.494H59.294C59.414 11.254 59.576 11.02 59.78 10.792C59.996 10.564 60.236 10.366 60.5 10.198C60.776 10.018 61.076 9.874 61.4 9.766C61.724 9.658 62.066 9.604 62.426 9.604C63.386 9.604 64.124 9.886 64.64 10.45C65.168 11.002 65.432 11.884 65.432 13.096V18.244C65.432 18.748 65.18 19 64.676 19H63.902C63.398 19 63.146 18.748 63.146 18.244V13.528C63.146 13.264 63.128 13.024 63.092 12.808C63.068 12.58 63.008 12.388 62.912 12.232C62.828 12.064 62.702 11.932 62.534 11.836C62.366 11.74 62.15 11.692 61.886 11.692C61.502 11.692 61.16 11.782 60.86 11.962C60.572 12.142 60.326 12.382 60.122 12.682C59.93 12.982 59.786 13.324 59.69 13.708C59.594 14.092 59.546 14.482 59.546 14.878V18.244C59.546 18.748 59.3 19 58.808 19H58.016C57.512 19 57.26 18.748 57.26 18.244V13.528C57.26 13.276 57.248 13.042 57.224 12.826C57.2 12.598 57.14 12.4 57.044 12.232C56.96 12.064 56.834 11.932 56.666 11.836C56.51 11.74 56.3 11.692 56.036 11.692C55.628 11.692 55.274 11.788 54.974 11.98C54.686 12.16 54.44 12.406 54.236 12.718C54.044 13.018 53.9 13.36 53.804 13.744C53.708 14.116 53.66 14.494 53.66 14.878V18.244C53.66 18.748 53.414 19 52.922 19H52.13C51.638 19 51.392 18.748 51.392 18.244V10.576ZM66.5018 16.462C66.5018 16.018 66.5858 15.634 66.7538 15.31C66.9218 14.974 67.1498 14.692 67.4378 14.464C67.7258 14.224 68.0498 14.032 68.4098 13.888C68.7818 13.744 69.1658 13.63 69.5618 13.546C69.9578 13.462 70.3538 13.408 70.7498 13.384C71.1458 13.348 71.5178 13.33 71.8658 13.33H72.2438V13.114C72.2438 12.514 72.0758 12.094 71.7398 11.854C71.4038 11.614 71.0018 11.494 70.5338 11.494C70.1498 11.494 69.7898 11.554 69.4538 11.674C69.1178 11.782 68.8418 11.896 68.6258 12.016C68.1578 12.22 67.8218 12.118 67.6178 11.71L67.4378 11.368C67.2098 10.924 67.3058 10.588 67.7258 10.36C68.0258 10.204 68.4278 10.042 68.9318 9.874C69.4478 9.694 70.0478 9.604 70.7318 9.604C71.9318 9.604 72.8618 9.922 73.5218 10.558C74.1938 11.194 74.5298 12.094 74.5298 13.258V18.244C74.5298 18.748 74.2778 19 73.7738 19H73.1618C72.6698 19 72.4238 18.748 72.4238 18.244V17.884C72.4238 17.74 72.4298 17.644 72.4418 17.596C72.4418 17.548 72.4478 17.512 72.4598 17.488H72.4238C72.2438 17.812 72.0158 18.1 71.7398 18.352C71.4998 18.568 71.1998 18.766 70.8398 18.946C70.4798 19.126 70.0478 19.216 69.5438 19.216C69.1238 19.216 68.7278 19.15 68.3558 19.018C67.9958 18.886 67.6778 18.7 67.4018 18.46C67.1258 18.22 66.9038 17.932 66.7358 17.596C66.5798 17.26 66.5018 16.882 66.5018 16.462ZM68.7698 16.264C68.7698 16.576 68.8838 16.858 69.1118 17.11C69.3518 17.35 69.6998 17.47 70.1558 17.47C70.4798 17.47 70.7678 17.398 71.0198 17.254C71.2838 17.11 71.5058 16.924 71.6858 16.696C71.8658 16.456 72.0038 16.192 72.0998 15.904C72.2078 15.616 72.2618 15.334 72.2618 15.058V14.716H71.8838C71.5958 14.716 71.2718 14.734 70.9118 14.77C70.5518 14.806 70.2098 14.878 69.8858 14.986C69.5738 15.094 69.3098 15.25 69.0938 15.454C68.8778 15.658 68.7698 15.928 68.7698 16.264ZM76.6994 11.764H76.2134C75.7214 11.764 75.4754 11.512 75.4754 11.008V10.702C75.4754 10.198 75.7274 9.946 76.2314 9.946H76.7534V8.074C76.7534 7.57 77.0054 7.318 77.5094 7.318H78.2294C78.7334 7.318 78.9854 7.57 78.9854 8.074V9.946H80.3174C80.8214 9.946 81.0734 10.198 81.0734 10.702V11.008C81.0734 11.512 80.8274 11.764 80.3354 11.764H78.9854V15.328C78.9854 15.676 79.0334 15.958 79.1294 16.174C79.2254 16.378 79.3454 16.546 79.4894 16.678C79.6334 16.798 79.7894 16.888 79.9574 16.948C80.1374 16.996 80.3054 17.026 80.4614 17.038C80.7374 17.062 80.9294 17.128 81.0374 17.236C81.1574 17.344 81.2174 17.524 81.2174 17.776V18.334C81.2174 18.61 81.1394 18.808 80.9834 18.928C80.8274 19.036 80.5934 19.09 80.2814 19.09C79.8734 19.09 79.4534 19.03 79.0214 18.91C78.6014 18.79 78.2174 18.598 77.8694 18.334C77.5334 18.07 77.2514 17.728 77.0234 17.308C76.8074 16.876 76.6994 16.348 76.6994 15.724V11.764ZM83.13 8.254C82.638 8.254 82.392 8.008 82.392 7.516V6.976C82.392 6.472 82.638 6.22 83.13 6.22H83.922C84.426 6.22 84.678 6.472 84.678 6.976V7.516C84.678 8.008 84.426 8.254 83.922 8.254H83.13ZM82.392 10.576C82.392 10.072 82.638 9.82 83.13 9.82H83.922C84.414 9.82 84.66 10.072 84.66 10.576V18.244C84.66 18.748 84.414 19 83.922 19H83.13C82.638 19 82.392 18.748 82.392 18.244V10.576ZM85.9912 14.41C85.9912 13.714 86.1232 13.072 86.3872 12.484C86.6512 11.884 87.0112 11.374 87.4672 10.954C87.9232 10.534 88.4572 10.204 89.0692 9.964C89.6812 9.724 90.3352 9.604 91.0312 9.604C91.7272 9.604 92.3812 9.724 92.9932 9.964C93.6052 10.204 94.1392 10.534 94.5952 10.954C95.0632 11.374 95.4292 11.884 95.6932 12.484C95.9572 13.072 96.0892 13.714 96.0892 14.41C96.0892 15.118 95.9572 15.766 95.6932 16.354C95.4292 16.942 95.0632 17.452 94.5952 17.884C94.1392 18.304 93.6052 18.634 92.9932 18.874C92.3812 19.102 91.7272 19.216 91.0312 19.216C90.3352 19.216 89.6812 19.102 89.0692 18.874C88.4572 18.634 87.9232 18.304 87.4672 17.884C87.0112 17.452 86.6512 16.942 86.3872 16.354C86.1232 15.766 85.9912 15.118 85.9912 14.41ZM88.3132 14.41C88.3132 14.842 88.3852 15.232 88.5292 15.58C88.6732 15.928 88.8652 16.228 89.1052 16.48C89.3572 16.732 89.6452 16.93 89.9692 17.074C90.3052 17.206 90.6592 17.272 91.0312 17.272C91.4032 17.272 91.7512 17.206 92.0752 17.074C92.4112 16.93 92.7052 16.732 92.9572 16.48C93.2092 16.228 93.4072 15.928 93.5512 15.58C93.6952 15.232 93.7672 14.842 93.7672 14.41C93.7672 13.99 93.6952 13.606 93.5512 13.258C93.4072 12.898 93.2092 12.592 92.9572 12.34C92.7052 12.088 92.4112 11.896 92.0752 11.764C91.7512 11.62 91.4032 11.548 91.0312 11.548C90.6592 11.548 90.3052 11.62 89.9692 11.764C89.6452 11.896 89.3572 12.088 89.1052 12.34C88.8652 12.592 88.6732 12.898 88.5292 13.258C88.3852 13.606 88.3132 13.99 88.3132 14.41ZM97.4045 10.576C97.4045 10.072 97.6505 9.82 98.1425 9.82H98.8445C99.3365 9.82 99.5825 10.072 99.5825 10.576V11.134C99.5825 11.194 99.5765 11.248 99.5645 11.296C99.5645 11.344 99.5645 11.386 99.5645 11.422C99.5525 11.47 99.5465 11.512 99.5465 11.548H99.5825C99.6785 11.356 99.8165 11.146 99.9965 10.918C100.176 10.69 100.398 10.48 100.662 10.288C100.926 10.096 101.238 9.934 101.598 9.802C101.958 9.67 102.372 9.604 102.84 9.604C103.86 9.604 104.646 9.88 105.198 10.432C105.762 10.984 106.044 11.872 106.044 13.096V18.244C106.044 18.748 105.792 19 105.288 19H104.514C104.01 19 103.758 18.748 103.758 18.244V13.564C103.758 13 103.662 12.55 103.47 12.214C103.278 11.866 102.894 11.692 102.318 11.692C101.91 11.692 101.544 11.77 101.22 11.926C100.896 12.082 100.62 12.298 100.392 12.574C100.164 12.85 99.9845 13.174 99.8525 13.546C99.7325 13.906 99.6725 14.29 99.6725 14.698V18.244C99.6725 18.748 99.4265 19 98.9345 19H98.1425C97.6505 19 97.4045 18.748 97.4045 18.244V10.576ZM111.6 17.866C111.6 17.098 111.744 16.432 112.032 15.868C112.332 15.292 112.704 14.782 113.148 14.338C113.592 13.894 114.072 13.498 114.588 13.15C115.104 12.802 115.584 12.466 116.028 12.142C116.472 11.806 116.838 11.47 117.126 11.134C117.426 10.786 117.576 10.402 117.576 9.982C117.576 9.418 117.384 8.98 117 8.668C116.628 8.356 116.172 8.2 115.632 8.2C115.404 8.2 115.188 8.23 114.984 8.29C114.792 8.35 114.618 8.428 114.462 8.524C114.306 8.62 114.168 8.728 114.048 8.848C113.928 8.956 113.826 9.058 113.742 9.154C113.574 9.322 113.4 9.43 113.22 9.478C113.04 9.526 112.86 9.472 112.68 9.316L112.194 8.938C111.798 8.638 111.732 8.302 111.996 7.93C112.14 7.75 112.32 7.546 112.536 7.318C112.752 7.09 113.016 6.88 113.328 6.688C113.652 6.496 114.018 6.334 114.426 6.202C114.834 6.07 115.302 6.004 115.83 6.004C116.382 6.004 116.91 6.088 117.414 6.256C117.918 6.424 118.362 6.67 118.746 6.994C119.13 7.318 119.43 7.714 119.646 8.182C119.874 8.65 119.988 9.184 119.988 9.784C119.988 10.468 119.844 11.068 119.556 11.584C119.28 12.088 118.926 12.544 118.494 12.952C118.074 13.348 117.612 13.708 117.108 14.032C116.616 14.356 116.154 14.674 115.722 14.986C115.29 15.286 114.924 15.598 114.624 15.922C114.324 16.246 114.168 16.606 114.156 17.002H119.43C119.934 17.002 120.186 17.248 120.186 17.74V18.244C120.186 18.748 119.934 19 119.43 19H112.41C112.17 19 111.972 18.94 111.816 18.82C111.672 18.688 111.6 18.496 111.6 18.244V17.866ZM126.295 19.216C125.419 19.216 124.687 19.042 124.099 18.694C123.511 18.346 123.037 17.878 122.677 17.29C122.317 16.69 122.059 15.988 121.903 15.184C121.747 14.38 121.669 13.516 121.669 12.592C121.669 11.68 121.747 10.822 121.903 10.018C122.059 9.214 122.317 8.518 122.677 7.93C123.037 7.33 123.511 6.862 124.099 6.526C124.687 6.178 125.419 6.004 126.295 6.004C127.171 6.004 127.903 6.178 128.491 6.526C129.091 6.862 129.571 7.33 129.931 7.93C130.291 8.518 130.549 9.214 130.705 10.018C130.861 10.822 130.939 11.68 130.939 12.592C130.939 13.516 130.861 14.38 130.705 15.184C130.549 15.988 130.291 16.69 129.931 17.29C129.571 17.878 129.091 18.346 128.491 18.694C127.903 19.042 127.171 19.216 126.295 19.216ZM126.295 17.092C126.727 17.092 127.087 16.978 127.375 16.75C127.675 16.51 127.909 16.192 128.077 15.796C128.245 15.388 128.365 14.914 128.437 14.374C128.509 13.822 128.545 13.228 128.545 12.592C128.545 11.968 128.509 11.386 128.437 10.846C128.365 10.306 128.245 9.838 128.077 9.442C127.909 9.034 127.675 8.716 127.375 8.488C127.087 8.26 126.727 8.146 126.295 8.146C125.863 8.146 125.497 8.26 125.197 8.488C124.909 8.716 124.681 9.034 124.513 9.442C124.345 9.838 124.225 10.306 124.153 10.846C124.081 11.386 124.045 11.968 124.045 12.592C124.045 13.228 124.081 13.822 124.153 14.374C124.225 14.914 124.345 15.388 124.513 15.796C124.681 16.192 124.909 16.51 125.197 16.75C125.497 16.978 125.863 17.092 126.295 17.092ZM132.325 17.866C132.325 17.098 132.469 16.432 132.757 15.868C133.057 15.292 133.429 14.782 133.873 14.338C134.317 13.894 134.797 13.498 135.313 13.15C135.829 12.802 136.309 12.466 136.753 12.142C137.197 11.806 137.563 11.47 137.851 11.134C138.151 10.786 138.301 10.402 138.301 9.982C138.301 9.418 138.109 8.98 137.725 8.668C137.353 8.356 136.897 8.2 136.357 8.2C136.129 8.2 135.913 8.23 135.709 8.29C135.517 8.35 135.343 8.428 135.187 8.524C135.031 8.62 134.893 8.728 134.773 8.848C134.653 8.956 134.551 9.058 134.467 9.154C134.299 9.322 134.125 9.43 133.945 9.478C133.765 9.526 133.585 9.472 133.405 9.316L132.919 8.938C132.523 8.638 132.457 8.302 132.721 7.93C132.865 7.75 133.045 7.546 133.261 7.318C133.477 7.09 133.741 6.88 134.053 6.688C134.377 6.496 134.743 6.334 135.151 6.202C135.559 6.07 136.027 6.004 136.555 6.004C137.107 6.004 137.635 6.088 138.139 6.256C138.643 6.424 139.087 6.67 139.471 6.994C139.855 7.318 140.155 7.714 140.371 8.182C140.599 8.65 140.713 9.184 140.713 9.784C140.713 10.468 140.569 11.068 140.281 11.584C140.005 12.088 139.651 12.544 139.219 12.952C138.799 13.348 138.337 13.708 137.833 14.032C137.341 14.356 136.879 14.674 136.447 14.986C136.015 15.286 135.649 15.598 135.349 15.922C135.049 16.246 134.893 16.606 134.881 17.002H140.155C140.659 17.002 140.911 17.248 140.911 17.74V18.244C140.911 18.748 140.659 19 140.155 19H133.135C132.895 19 132.697 18.94 132.541 18.82C132.397 18.688 132.325 18.496 132.325 18.244V17.866ZM142.291 15.706C141.799 15.706 141.553 15.46 141.553 14.968V14.788C141.553 14.44 141.643 14.134 141.823 13.87L146.755 6.706C146.959 6.382 147.259 6.22 147.655 6.22H149.059C149.563 6.22 149.815 6.472 149.815 6.976V13.78H150.715C151.219 13.78 151.471 14.026 151.471 14.518V14.968C151.471 15.46 151.267 15.706 150.859 15.706H149.815V18.244C149.815 18.748 149.563 19 149.059 19H148.267C147.775 19 147.529 18.748 147.529 18.244V15.706H142.291ZM147.529 13.78V9.82C147.529 9.664 147.529 9.508 147.529 9.352C147.541 9.196 147.553 9.052 147.565 8.92C147.577 8.776 147.595 8.632 147.619 8.488H147.583C147.523 8.62 147.463 8.752 147.403 8.884C147.343 9.004 147.271 9.136 147.187 9.28C147.115 9.412 147.037 9.538 146.953 9.658L144.001 13.744V13.78H147.529Z" fill="#306AB3"/>
<defs>
<clipPath id="clip0_232_34223">
<rect width="95.4228" height="46.9062" fill="white" transform="translate(28.7568 31.0938)"/>
</clipPath>
</defs>
</svg>
