<svg width="133" height="89" viewBox="0 0 133 89" fill="none" xmlns="http://www.w3.org/2000/svg">
<g clip-path="url(#clip0_494_280546)">
<path d="M22.5107 61.6335C-0.593109 43.2975 32.4213 30.8774 50.6571 28.2848C83.0663 25.1579 118.611 53.8258 120.936 66.8733C122.795 77.3114 97.8614 83.3229 81.1745 82.5179C58.8956 81.0192 43.6129 78.3809 22.5107 61.6335Z" fill="#DAF0FB"/>
<g filter="url(#filter0_dd_494_280546)">
<g clip-path="url(#clip1_494_280546)">
<rect x="12.4844" y="10.5797" width="57.5672" height="40.0229" rx="1.95834" fill="white"/>
<path d="M70.0509 10.5782L25.8936 10.5782L25.8936 50.6012L70.0509 50.6012L70.0509 10.5782Z" fill="#F9F9FA"/>
<path d="M25.8796 10.5769L12.4697 10.5769L12.4697 50.5947L25.8796 50.5947L25.8796 10.5769Z" fill="#F9F9FA"/>
<path d="M22.305 10.5769L12.4697 10.5769L12.4697 50.5947L22.305 50.5947L22.305 10.5769Z" fill="#3082CF"/>
<path d="M20.3715 24.4982L14.377 24.4982C14.2346 24.4982 14.1191 24.6136 14.1191 24.7561C14.1191 24.8985 14.2346 25.014 14.377 25.014L20.3715 25.014C20.5139 25.014 20.6294 24.8985 20.6294 24.7561C20.6294 24.6136 20.5139 24.4982 20.3715 24.4982Z" fill="#F5FDFF"/>
<path d="M20.3715 27.2772L14.377 27.2772C14.2346 27.2772 14.1191 27.3927 14.1191 27.5351C14.1191 27.6776 14.2346 27.793 14.377 27.793L20.3715 27.793C20.5139 27.793 20.6294 27.6776 20.6294 27.5351C20.6294 27.3927 20.5139 27.2772 20.3715 27.2772Z" fill="#F5FDFF"/>
<path d="M20.3715 21.719L14.377 21.719C14.2346 21.719 14.1191 21.8345 14.1191 21.9769C14.1191 22.1193 14.2346 22.2348 14.377 22.2348L20.3715 22.2348C20.5139 22.2348 20.6294 22.1193 20.6294 21.9769C20.6294 21.8345 20.5139 21.719 20.3715 21.719Z" fill="#F5FDFF"/>
<path d="M20.3715 19.0822L14.377 19.0822C14.2346 19.0822 14.1191 19.1976 14.1191 19.34C14.1191 19.4825 14.2346 19.5979 14.377 19.5979L20.3715 19.5979C20.5139 19.5979 20.6294 19.4825 20.6294 19.34C20.6294 19.1976 20.5139 19.0822 20.3715 19.0822Z" fill="#F5FDFF"/>
<path d="M18.5003 14.569C18.5003 13.3578 17.5185 12.376 16.3073 12.376C15.0961 12.376 14.1143 13.3578 14.1143 14.569C14.1143 15.7802 15.0961 16.7621 16.3073 16.7621C17.5185 16.7621 18.5003 15.7802 18.5003 14.569Z" fill="#DAF0FB"/>
<g filter="url(#filter1_d_494_280546)">
<path d="M63.9666 50.6055L25.8994 50.6055L25.8994 14.8226L68.3394 14.8226L68.3522 50.6055L66.3917 50.6055" fill="white"/>
<path d="M29.4397 33.4793L35.5857 33.4793C36.4444 33.4793 37.1523 33.3639 37.1523 33.2214C37.1523 33.0789 36.4594 32.9635 35.5857 32.9635L29.4397 32.9635C28.581 32.9635 27.873 33.0789 27.873 33.2214C27.873 33.3639 28.566 33.4793 29.4397 33.4793Z" fill="#64B4ED"/>
<path d="M59.5704 33.4793L65.7436 33.4793C66.0863 33.4793 66.3618 33.3639 66.3618 33.2214C66.3618 33.0789 66.0863 32.9635 65.7436 32.9635L59.5704 32.9635C59.2277 32.9635 58.9521 33.0789 58.9521 33.2214C58.9521 33.3639 59.2277 33.4793 59.5704 33.4793Z" fill="#64B4ED"/>
<path d="M28.2062 35.7902L40.6742 35.7902C40.8568 35.7902 41.0074 35.6748 41.0074 35.5323C41.0074 35.3899 40.86 35.2744 40.6742 35.2744L28.2062 35.2744C28.0236 35.2744 27.873 35.3899 27.873 35.5323C27.873 35.6748 28.0204 35.7902 28.2062 35.7902V35.7902Z" fill="#64B4ED"/>
<path d="M45.3878 35.7902L65.7492 35.7902C66.092 35.7902 66.3675 35.6748 66.3675 35.5323C66.3675 35.3899 66.092 35.2744 65.7492 35.2744L45.3878 35.2744C45.045 35.2744 44.7695 35.3899 44.7695 35.5323C44.7695 35.6748 45.045 35.7902 45.3878 35.7902Z" fill="#64B4ED"/>
</g>
<g filter="url(#filter2_d_494_280546)">
<path d="M68.3501 38.3425L25.8965 38.3425L25.8965 51.7015L68.3501 51.7015L68.3501 38.3425Z" fill="#BEE3F8"/>
<path d="M35.054 47.0233L28.3646 47.0233C28.0942 47.0233 27.875 46.8041 27.875 46.5338L27.875 40.8891C27.875 40.6187 28.0942 40.3995 28.3646 40.3995L35.3892 40.3995C35.6596 40.3995 35.8787 40.6186 35.8788 40.8889L35.8809 46.6536C35.881 46.8578 35.7155 47.0233 35.5113 47.0233V47.0233" fill="white"/>
<path d="M28.814 42.139L29.9731 42.139C30.135 42.139 30.2685 42.0596 30.2685 41.9616C30.2685 41.8637 30.1378 41.7843 29.9731 41.7843L28.814 41.7843C28.6521 41.7843 28.5186 41.8637 28.5186 41.9616C28.5186 42.0596 28.6492 42.139 28.814 42.139Z" fill="#64B4ED"/>
<path d="M33.9662 42.139L35.1304 42.139C35.195 42.139 35.247 42.0596 35.247 41.9616C35.247 41.8637 35.195 41.7843 35.1304 41.7843L33.9662 41.7843C33.9016 41.7843 33.8496 41.8637 33.8496 41.9616C33.8496 42.0596 33.9016 42.139 33.9662 42.139Z" fill="#64B4ED"/>
<path d="M31.2885 43.652L35.1284 43.652C35.193 43.652 35.245 43.5727 35.245 43.4747C35.245 43.3767 35.193 43.2974 35.1284 43.2974L31.2885 43.2974C31.2238 43.2974 31.1719 43.3767 31.1719 43.4747C31.1719 43.5727 31.2238 43.652 31.2885 43.652Z" fill="#64B4ED"/>
<path d="M28.5814 45.163L29.9256 45.163C29.96 45.163 29.9884 45.0836 29.9884 44.9857C29.9884 44.8877 29.9606 44.8083 29.9256 44.8083L28.5814 44.8083C28.5469 44.8083 28.5186 44.8877 28.5186 44.9857C28.5186 45.0836 28.5463 45.163 28.5814 45.163Z" fill="#64B4ED"/>
<path d="M32.6117 45.163L35.1231 45.163C35.1878 45.163 35.2397 45.0836 35.2397 44.9857C35.2397 44.8877 35.1878 44.8083 35.1231 44.8083L32.6117 44.8083C32.5471 44.8083 32.4951 44.8877 32.4951 44.9857C32.4951 45.0836 32.5471 45.163 32.6117 45.163Z" fill="#64B4ED"/>
<path d="M45.222 47.0233L38.5326 47.0233C38.2622 47.0233 38.043 46.8041 38.043 46.5338L38.043 40.8891C38.043 40.6187 38.2622 40.3995 38.5326 40.3995L45.5572 40.3995C45.8275 40.3995 46.0467 40.6186 46.0468 40.8889L46.0489 46.6536C46.049 46.8578 45.8835 47.0233 45.6793 47.0233V47.0233" fill="white"/>
<path d="M38.9947 42.139L40.1537 42.139C40.3157 42.139 40.4492 42.0596 40.4492 41.9616C40.4492 41.8637 40.3185 41.7843 40.1537 41.7843L38.9947 41.7843C38.8327 41.7843 38.6992 41.8637 38.6992 41.9616C38.6992 42.0596 38.8299 42.139 38.9947 42.139Z" fill="#64B4ED"/>
<path d="M44.1469 42.139L45.311 42.139C45.3757 42.139 45.4276 42.0596 45.4276 41.9616C45.4276 41.8637 45.3757 41.7843 45.311 41.7843L44.1469 41.7843C44.0822 41.7843 44.0303 41.8637 44.0303 41.9616C44.0303 42.0596 44.0822 42.139 44.1469 42.139Z" fill="#64B4ED"/>
<path d="M38.762 43.652L41.1134 43.652C41.1478 43.652 41.1762 43.5727 41.1762 43.4747C41.1762 43.3767 41.1484 43.2974 41.1134 43.2974L38.762 43.2974C38.7276 43.2974 38.6992 43.3767 38.6992 43.4747C38.6992 43.5727 38.727 43.652 38.762 43.652V43.652Z" fill="#64B4ED"/>
<path d="M38.762 45.163L40.1063 45.163C40.1407 45.163 40.1691 45.0836 40.1691 44.9857C40.1691 44.8877 40.1413 44.8083 40.1063 44.8083L38.762 44.8083C38.7276 44.8083 38.6992 44.8877 38.6992 44.9857C38.6992 45.0836 38.727 45.163 38.762 45.163Z" fill="#64B4ED"/>
<path d="M40.3607 45.163L41.83 45.163C41.8644 45.163 41.8928 45.0836 41.8928 44.9857C41.8928 44.8877 41.865 44.8083 41.83 44.8083L40.3607 44.8083C40.3262 44.8083 40.2979 44.8877 40.2979 44.9857C40.2979 45.0836 40.3256 45.163 40.3607 45.163Z" fill="#64B4ED"/>
<path d="M42.7924 45.163L45.3038 45.163C45.3684 45.163 45.4204 45.0836 45.4204 44.9857C45.4204 44.8877 45.3684 44.8083 45.3038 44.8083L42.7924 44.8083C42.7277 44.8083 42.6758 44.8877 42.6758 44.9857C42.6758 45.0836 42.7277 45.163 42.7924 45.163Z" fill="#64B4ED"/>
<path d="M55.3948 47.0233L48.7054 47.0233C48.435 47.0233 48.2158 46.8041 48.2158 46.5338L48.2158 40.8891C48.2158 40.6187 48.435 40.3995 48.7054 40.3995L55.7301 40.3995C56.0004 40.3995 56.2195 40.6186 56.2196 40.8889L56.2217 46.6536C56.2218 46.8578 56.0563 47.0233 55.8521 47.0233V47.0233" fill="white"/>
<path d="M54.3031 42.139L55.4673 42.139C55.5319 42.139 55.5839 42.0596 55.5839 41.9616C55.5839 41.8637 55.5319 41.7843 55.4673 41.7843L54.3031 41.7843C54.2385 41.7843 54.1865 41.8637 54.1865 41.9616C54.1865 42.0596 54.2385 42.139 54.3031 42.139Z" fill="#64B4ED"/>
<path d="M51.6195 43.652L55.4594 43.652C55.5241 43.652 55.576 43.5727 55.576 43.4747C55.576 43.3767 55.5241 43.2974 55.4594 43.2974L51.6195 43.2974C51.5549 43.2974 51.5029 43.3767 51.5029 43.4747C51.5029 43.5727 51.5549 43.652 51.6195 43.652Z" fill="#64B4ED"/>
<path d="M48.9124 45.163L50.2567 45.163C50.2911 45.163 50.3195 45.0836 50.3195 44.9857C50.3195 44.8877 50.2917 44.8083 50.2567 44.8083L48.9124 44.8083C48.878 44.8083 48.8496 44.8877 48.8496 44.9857C48.8496 45.0836 48.8774 45.163 48.9124 45.163Z" fill="#64B4ED"/>
<path d="M50.5111 45.163L51.9803 45.163C52.0148 45.163 52.0432 45.0836 52.0432 44.9857C52.0432 44.8877 52.0154 44.8083 51.9803 44.8083L50.5111 44.8083C50.4766 44.8083 50.4482 44.8877 50.4482 44.9857C50.4482 45.0836 50.476 45.163 50.5111 45.163Z" fill="#64B4ED"/>
<path d="M52.9428 45.163L55.4542 45.163C55.5188 45.163 55.5708 45.0836 55.5708 44.9857C55.5708 44.8877 55.5188 44.8083 55.4542 44.8083L52.9428 44.8083C52.8781 44.8083 52.8262 44.8877 52.8262 44.9857C52.8262 45.0836 52.8781 45.163 52.9428 45.163Z" fill="#64B4ED"/>
<path d="M65.5472 47.0233L58.8577 47.0233C58.5874 47.0233 58.3682 46.8041 58.3682 46.5338L58.3682 40.8891C58.3682 40.6187 58.5874 40.3995 58.8577 40.3995L65.8824 40.3995C66.1527 40.3995 66.3719 40.6186 66.372 40.8889L66.3741 46.6536C66.3742 46.8578 66.2087 47.0233 66.0045 47.0233V47.0233" fill="white"/>
<path d="M64.4447 42.139L65.6089 42.139C65.6735 42.139 65.7255 42.0596 65.7255 41.9616C65.7255 41.8637 65.6735 41.7843 65.6089 41.7843L64.4447 41.7843C64.3801 41.7843 64.3281 41.8637 64.3281 41.9616C64.3281 42.0596 64.3801 42.139 64.4447 42.139Z" fill="#64B4ED"/>
<path d="M61.7719 43.652L65.6118 43.652C65.6764 43.652 65.7284 43.5727 65.7284 43.4747C65.7284 43.3767 65.6764 43.2974 65.6118 43.2974L61.7719 43.2974C61.7072 43.2974 61.6553 43.3767 61.6553 43.4747C61.6553 43.5727 61.7072 43.652 61.7719 43.652Z" fill="#64B4ED"/>
<path d="M59.0648 45.163L60.409 45.163C60.4434 45.163 60.4718 45.0836 60.4718 44.9857C60.4718 44.8877 60.444 44.8083 60.409 44.8083L59.0648 44.8083C59.0303 44.8083 59.002 44.8877 59.002 44.9857C59.002 45.0836 59.0297 45.163 59.0648 45.163Z" fill="#64B4ED"/>
<path d="M60.6634 45.163L62.1327 45.163C62.1671 45.163 62.1955 45.0836 62.1955 44.9857C62.1955 44.8877 62.1677 44.8083 62.1327 44.8083L60.6634 44.8083C60.629 44.8083 60.6006 44.8877 60.6006 44.9857C60.6006 45.0836 60.6284 45.163 60.6634 45.163Z" fill="#64B4ED"/>
<path d="M63.0951 45.163L65.6065 45.163C65.6712 45.163 65.7231 45.0836 65.7231 44.9857C65.7231 44.8877 65.6712 44.8083 65.6065 44.8083L63.0951 44.8083C63.0305 44.8083 62.9785 44.8877 62.9785 44.9857C62.9785 45.0836 63.0305 45.163 63.0951 45.163Z" fill="#64B4ED"/>
</g>
<path d="M53.811 12.8947L48.7961 12.8947C48.5846 12.8947 48.4111 12.7799 48.4111 12.6368C48.4111 12.4937 48.5825 12.3789 48.7961 12.3789L53.811 12.3789C54.0225 12.3789 54.196 12.4937 54.196 12.6368C54.196 12.7799 54.0247 12.8947 53.811 12.8947Z" fill="#DAF0FB"/>
<path d="M60.8823 12.8947L55.8674 12.8947C55.6559 12.8947 55.4824 12.7799 55.4824 12.6368C55.4824 12.4937 55.6537 12.3789 55.8674 12.3789L60.8823 12.3789C61.0938 12.3789 61.2673 12.4937 61.2673 12.6368C61.2673 12.7799 61.096 12.8947 60.8823 12.8947Z" fill="#DAF0FB"/>
<path d="M67.9595 12.8947L62.9445 12.8947C62.733 12.8947 62.5596 12.7799 62.5596 12.6368C62.5596 12.4937 62.7309 12.3789 62.9445 12.3789L67.9595 12.3789C68.171 12.3789 68.3444 12.4937 68.3444 12.6368C68.3444 12.7799 68.1731 12.8947 67.9595 12.8947Z" fill="#DAF0FB"/>
<path d="M55.24 22.6865L54.6309 23.3627L55.9948 21.0423L56.6702 20.2335L55.24 22.6865Z" fill="#6A582D"/>
<path d="M55.24 22.6865L54.6309 23.3627L55.9948 21.0423L56.6702 20.2335L55.24 22.6865Z" fill="#F8D062" fill-opacity="0.8"/>
<path d="M58.5393 28.4278L57.758 28.8123L55.5068 27.2743L56.169 26.8102L58.5393 28.4278Z" fill="#6A582D"/>
<path d="M58.5393 28.4278L57.758 28.8123L55.5068 27.2743L56.169 26.8102L58.5393 28.4278Z" fill="#F8D062" fill-opacity="0.7"/>
<path d="M54.2744 25.0591L53.705 25.6293L51.957 23.4813L52.4205 22.8051L54.2744 25.0591Z" fill="#6A582D"/>
<path d="M54.2744 25.0591L53.705 25.6293L51.957 23.4813L52.4205 22.8051L54.2744 25.0591Z" fill="#F8D062" fill-opacity="0.7"/>
<path d="M56.1673 26.8102L55.5052 27.2743L53.0156 28.3615L53.5453 27.9372L56.1673 26.8102Z" fill="#6A582D"/>
<path d="M56.1673 26.8102L55.5052 27.2743L53.0156 28.3615L53.5453 27.9372L56.1673 26.8102Z" fill="#F8D062" fill-opacity="0.8"/>
<path d="M53.5453 27.9379L53.0156 28.3622L53.7042 25.6308L54.2736 25.0607L53.5453 27.9379Z" fill="#6A582D"/>
<path d="M53.5453 27.9379L53.0156 28.3622L53.7042 25.6308L54.2736 25.0607L53.5453 27.9379Z" fill="#F8D062" fill-opacity="0.8"/>
<path d="M56.6746 20.2335L57.6943 22.9516L60.3957 23.6676L58.2769 25.4841L58.5418 28.4277L56.1714 26.8101L53.5494 27.9371L54.2778 25.0598L52.4238 22.8058L55.2444 22.6865L56.6746 20.2335Z" fill="#F8D062"/>
<path d="M56.6746 20.2335L57.6943 22.9516L60.3957 23.6676L58.2769 25.4841L58.5418 28.4277L56.1714 26.8101L53.5494 27.9371L54.2778 25.0598L52.4238 22.8058L55.2444 22.6865L56.6746 20.2335Z" fill="#F8D062"/>
<path d="M51.6826 21.1368L51.4442 21.8528L49.2725 23.961L49.3916 23.3511L51.6826 21.1368Z" fill="#DCB857"/>
<path d="M44.7553 23.3511L44.8745 23.961L42.6895 21.8528L42.4512 21.1368L44.7553 23.3511Z" fill="#CDAC52"/>
<path d="M49.963 26.5312L49.8173 26.982L47.0762 25.55L47.0762 25.0197L49.963 26.5312Z" fill="#CDAC52"/>
<path d="M47.0734 25.0197L47.0734 25.55L44.3322 26.982L44.1865 26.5312L47.0734 25.0197Z" fill="#DCB857"/>
<path d="M47.0727 17.8599L48.4897 20.6708L51.6811 21.1349L49.3902 23.3491L49.9596 26.5313L47.0727 25.0198L44.1859 26.5313L44.7553 23.3491L42.4512 21.1349L45.6426 20.6708L47.0727 17.8599Z" fill="#F8D062"/>
<path d="M37.5889 20.2335L38.2642 21.0423L39.6282 23.3627L39.019 22.6865L37.5889 20.2335Z" fill="#6A582D"/>
<path d="M37.5889 20.2335L38.2642 21.0423L39.6282 23.3627L39.019 22.6865L37.5889 20.2335Z" fill="#F8D062" fill-opacity="0.9"/>
<path d="M38.0946 26.8102L38.7434 27.2743L36.4922 28.8123L35.7109 28.4278L38.0946 26.8102Z" fill="#6A582D"/>
<path d="M38.0946 26.8102L38.7434 27.2743L36.4922 28.8123L35.7109 28.4278L38.0946 26.8102Z" fill="#F8D062" fill-opacity="0.8"/>
<path d="M41.8608 22.8051L42.3242 23.4813L40.563 25.6293L40.0068 25.0591L41.8608 22.8051Z" fill="#6A582D"/>
<path d="M41.8608 22.8051L42.3242 23.4813L40.563 25.6293L40.0068 25.0591L41.8608 22.8051Z" fill="#F8D062" fill-opacity="0.8"/>
<path d="M40.0068 25.0607L40.563 25.6308L41.2516 28.3622L40.7219 27.9379L40.0068 25.0607Z" fill="#6A582D"/>
<path d="M40.0068 25.0607L40.563 25.6308L41.2516 28.3622L40.7219 27.9379L40.0068 25.0607Z" fill="#F8D062" fill-opacity="0.9"/>
<path d="M40.7167 27.9372L41.2464 28.3615L38.7436 27.2743L38.0947 26.8102L40.7167 27.9372Z" fill="#6A582D"/>
<path d="M40.7167 27.9372L41.2464 28.3615L38.7436 27.2743L38.0947 26.8102L40.7167 27.9372Z" fill="#F8D062" fill-opacity="0.7"/>
<path d="M37.5908 20.2335L39.021 22.6865L41.8548 22.8058L40.0009 25.0598L40.716 27.9371L38.094 26.8101L35.7104 28.4277L35.9752 25.4841L33.8564 23.6676L36.5579 22.9516L37.5908 20.2335Z" fill="#F8D062"/>
</g>
</g>
<g clip-path="url(#clip2_494_280546)">
<path d="M64.3424 37.9738C64.1998 36.3209 61.8133 35.422 60.1468 35.0167C58.4803 34.6114 56.5058 34.3419 56.4787 35.2408C56.4538 36.142 59.515 36.7352 59.515 36.7352L64.3424 37.9738V37.9738Z" fill="#E9B6A6"/>
<g style="mix-blend-mode:multiply" opacity="0.4">
<path d="M64.3424 37.9738C64.1998 36.3209 61.8133 35.422 60.1468 35.0167C58.4803 34.6114 56.5058 34.3419 56.4787 35.2408C56.4538 36.142 59.515 36.7352 59.515 36.7352L64.3424 37.9738V37.9738Z" fill="#E9B6A6"/>
</g>
<path d="M75.4967 68.5869C71.5546 75.2008 73.2868 84.8578 74.3034 89.3049H99.1854C102.17 73.532 95.5648 67.9529 95.5648 67.9529L75.4967 68.5891V68.5869Z" fill="#2B6BB1"/>
<g style="mix-blend-mode:multiply" opacity="0.8">
<path d="M85.9456 75.203C88.6854 75.2664 91.4319 74.7411 93.9271 73.5139C94.7106 73.129 95.6593 73.5592 95.8631 74.4105C97.0382 79.2991 97.0631 85.0322 94.509 89.3049H99.1893C102.174 73.532 95.5687 67.9529 95.5687 67.9529L75.5006 68.5891C75.0228 69.3884 74.6311 70.233 74.3096 71.1093C76.9021 73.1199 80.1106 74.4762 83.4527 74.9857L85.9479 75.2053L85.9456 75.203Z" fill="#2A4365"/>
</g>
<path d="M75.5116 44.6814C74.3161 47.231 73.0368 49.2326 73.0368 49.2326C71.8933 45.8022 64.3352 37.9769 64.3352 37.9769L61.3555 39.7544C61.3555 39.7544 70.1838 57.2005 73.0368 57.5832C74.8346 57.8232 78.1133 54.3702 79.9269 51.1572C79.0892 48.5601 77.8982 45.9471 75.5116 44.6814V44.6814Z" fill="#E9B6A6"/>
<g style="mix-blend-mode:multiply" opacity="0.6">
<path d="M79.9303 51.1545C79.0925 48.5574 77.9015 45.9444 75.515 44.6787C75.2229 45.3014 74.9285 45.8878 74.6455 46.4245C76.3845 49.4744 77.4872 53.0112 75.8139 56.2672C77.2947 55.0128 78.8661 53.0429 79.9303 51.1545Z" fill="#E9B6A6"/>
</g>
<path d="M84.7711 33.0217H82.9936C78.37 33.3319 76.2552 41.6146 74.3555 44.6804C76.742 45.9439 79.09 48.5591 79.9278 51.1562C80.992 49.2701 81.7234 47.7575 81.7234 47.7575L84.7711 33.024V33.0217Z" fill="#2A4365"/>
<path d="M74.221 44.6796C77.6491 46.5272 80.1783 51.4973 80.1783 51.4973L80.8757 50.2701C80.2756 46.1853 75.0769 42.9293 75.0769 42.9293L74.2188 44.6819L74.221 44.6796Z" fill="#F5FDFF"/>
<path d="M95.647 12.8431C91.6166 9.31085 97.2795 2.96187 101.188 3.50529C101.188 3.50529 98.98 4.02833 98.4298 4.8729C98.4298 4.8729 101.24 2.47958 104.19 6.26542C107.14 10.0513 103.438 14.6002 100.862 14.6975C98.2849 14.7949 95.6447 12.8431 95.6447 12.8431H95.647Z" fill="#755C42"/>
<g style="mix-blend-mode:multiply">
<path d="M97.6955 4.48469C94.8425 6.33685 92.7526 10.3129 95.6418 12.8421C95.6418 12.8421 98.2819 14.7939 100.859 14.6965C102.192 14.6467 103.827 13.4013 104.685 11.6873C100.327 14.0693 98.0374 8.00335 97.6978 4.48242L97.6955 4.48469Z" fill="#755C42"/>
</g>
<path d="M93.2373 10.5894L93.5114 10.2767C93.7176 10.3877 93.6655 10.5939 93.6655 10.5939L93.2373 10.5894V10.5894Z" fill="black"/>
<path d="M91.9971 11.3544L92.3482 11.1301C92.5159 11.2933 92.4094 11.4768 92.4094 11.4768L91.9971 11.3544V11.3544Z" fill="black"/>
<path d="M80.3857 5.43718C75.9478 5.27642 74.227 15.4633 79.7676 18.4725L81.1624 9.08944L80.3857 5.43718V5.43718Z" fill="#755C42"/>
<g style="mix-blend-mode:multiply" opacity="0.6">
<path d="M78.1313 11.4142C77.7395 12.3064 77.9343 13.4204 78.1313 14.3102C76.6708 12.2339 76.3946 9.53717 77.6309 7.15063C75.4821 9.80435 75.6293 16.1103 79.8295 18.4719L80.1917 15.465C78.9781 14.6929 78.1335 12.9879 78.1335 11.4142H78.1313Z" fill="#755C42"/>
</g>
<path d="M107.626 46.2152C106.358 42.6965 104.141 35.2743 102.18 34.2961C102.18 34.2961 97.3528 34.2961 96.2116 40.8987C95.4916 45.0582 98.1498 48.1353 98.1498 48.1353L100.849 52.1498C102.176 49.4237 104.791 47.4379 107.628 46.2152H107.626Z" fill="#2A4365"/>
<g style="mix-blend-mode:multiply" opacity="0.2">
<path d="M96.8067 38.6625C96.5554 39.3078 96.3471 40.0459 96.1999 40.8973C95.4798 45.0567 98.1381 48.1339 98.1381 48.1339L100.837 52.1484C101.625 50.5295 102.87 49.1732 104.344 48.0795C100.384 46.5398 97.2029 43.0891 96.8067 38.6625Z" fill="#2A4365"/>
</g>
<path d="M94.9738 31.1586C97.4713 33.0221 102.172 34.2946 102.172 34.2946C96.0743 36.4501 96.8079 43.1841 99.1876 46.6121C99.1876 46.6121 93.536 53.9801 94.17 60.5826C94.804 67.1875 98.1415 69.3476 98.1415 69.3476C87.9478 77.3495 77.4054 73.7923 74.3555 69.3476C75.7525 64.5202 80.2992 55.3522 78.7866 52.6328C77.2764 49.9134 76.2597 45.7223 77.1496 43.9448C78.0394 42.1674 83.1204 34.6727 82.9936 33.0221L86.3379 32.5149L94.9761 31.1608L94.9738 31.1586Z" fill="#2A4365"/>
<g style="mix-blend-mode:multiply" opacity="0.2">
<path d="M78.6213 52.3256C78.6757 52.4298 78.73 52.5317 78.7866 52.6313C80.2969 55.3507 75.7525 64.5187 74.3555 69.3461C77.4032 73.7908 87.9456 77.348 98.1415 69.3461C98.1415 69.3461 94.8063 67.186 94.17 60.5811C93.536 53.9763 99.1876 46.6106 99.1876 46.6106C98.1755 45.1525 97.4645 43.0988 97.4464 41.0519C96.0516 43.4565 95.361 46.5155 94.2493 49.1534C91.4823 56.2224 84.5831 55.3326 78.6236 52.3256H78.6213Z" fill="#2A4365"/>
</g>
<path d="M95.566 20.318C93.9969 24.1831 94.9728 31.157 94.9728 31.157C93.7026 33.1903 89.5725 34.2047 88.4631 34.2907C87.3536 34.3745 86.3369 32.5133 86.3369 32.5133C88.2842 31.0732 88.4631 26.3319 88.4631 26.3319L95.566 20.3203V20.318Z" fill="#E9B6A6"/>
<g style="mix-blend-mode:multiply" opacity="0.6">
<path d="M94.765 24.174C94.8804 22.7906 95.1182 21.4275 95.5688 20.318L88.4658 26.3296C88.4658 26.3296 88.3277 29.9886 86.9736 31.8544C90.5081 30.7698 93.0215 27.4097 94.765 24.174Z" fill="#E9B6A6"/>
</g>
<path d="M82.469 8.00111C78.9073 10.0412 79.1224 13.655 79.4372 16.8204C79.5866 18.3125 79.8945 21.6772 81.5339 24.3762C83.3747 27.4058 85.6322 28.3591 86.8594 28.3115C87.4753 28.35 89.6739 27.6798 91.997 25.8208C93.3307 24.7544 94.6643 23.2011 95.2779 21.9535C96.3036 22.0531 98.192 20.6651 98.02 17.7872C97.8818 15.5117 96.1361 15.9464 96.1361 15.9464C96.1361 15.9464 96.0387 10.6865 93.4054 8.22527C90.7743 5.76628 85.888 6.04252 82.469 8.00111V8.00111Z" fill="#E9B6A6"/>
<path d="M98.9368 9.73621C98.2236 6.92853 96.5639 5.06504 95.04 3.86498C92.2459 1.66412 83.3293 -0.249177 80.3857 5.43638L81.1624 8.97995C89.3771 3.64535 83.1391 15.8203 92.7305 16.6264C93.8875 16.8392 93.8694 20.3194 93.8694 20.3194C93.8694 20.3194 95.9254 18.1887 96.0046 16.2912C98.4364 16.5652 97.9134 20.0522 95.7374 21.5647C94.4128 22.4863 94.2996 24.2524 94.7095 24.9951C98.287 23.872 101.717 17.1585 98.9391 9.73621H98.9368Z" fill="#755C42"/>
<g style="mix-blend-mode:multiply" opacity="0.6">
<path d="M98.9395 9.73493C98.8942 9.55605 98.8444 9.37944 98.79 9.20735C98.8625 10.2195 98.8014 11.2633 98.5885 12.3298C98.3508 13.754 97.402 14.7027 95.9778 13.9917C95.5023 13.754 95.2669 13.043 95.0291 12.5675C95.0291 13.5162 94.583 14.9382 92.5384 15.4952C90.4915 16.0499 87.6748 12.4113 86.2891 8.37637C85.612 6.40193 82.5327 5.80643 81.165 9.08735C89.2439 3.5218 83.3727 15.8914 92.7331 16.6251C93.8902 16.8379 93.8721 20.3181 93.8721 20.3181C93.8721 20.3181 95.928 18.1874 96.0073 16.29C98.4391 16.5639 97.916 20.0509 95.7401 21.5634C94.4155 22.485 94.3023 24.2511 94.7121 24.9938C98.2896 23.8707 101.72 17.1572 98.9417 9.73493H98.9395Z" fill="#755C42"/>
</g>
<path d="M95.5372 22.3435C95.8711 22.3435 96.1417 22.0728 96.1417 21.739C96.1417 21.4051 95.8711 21.1344 95.5372 21.1344C95.2033 21.1344 94.9326 21.4051 94.9326 21.739C94.9326 22.0728 95.2033 22.3435 95.5372 22.3435Z" fill="#DA3E3E"/>
<g style="mix-blend-mode:multiply" opacity="0.6">
<path d="M96.968 18.2856C96.6193 20.0268 95.6004 20.2034 95.2675 20.2034C94.9347 20.2034 95.3468 18.9943 95.3468 18.6614C95.3468 18.3286 95.8155 17.1036 96.1483 17.1036C96.4812 17.1036 97.1265 17.4931 96.968 18.2856Z" fill="#E9B6A6"/>
</g>
<path d="M95.168 30.6807C95.168 30.6807 92.9264 33.545 88.5156 34.2854C88.5156 34.2854 89.3217 37.8063 90.9203 37.8063C92.5188 37.8063 96.5945 32.6483 96.5945 31.8558C96.5945 31.0633 95.1658 30.6807 95.1658 30.6807H95.168Z" fill="#F5FDFF"/>
<path d="M88.5131 34.2854C88.5131 34.2854 86.7017 37.4236 85.5107 36.7013C84.1114 35.8522 85.5288 32.6664 85.8164 31.8558C86.1017 31.0452 87.8497 30.6807 87.8497 30.6807C87.8497 30.6807 87.424 31.7403 86.944 32.1932C86.8443 33.2348 88.5131 34.2854 88.5131 34.2854Z" fill="#F5FDFF"/>
<g style="mix-blend-mode:multiply" opacity="0.6">
<path d="M81.6221 6.57153C84.6788 4.45898 87.1559 5.53903 89.59 7.91877C91.655 9.89773 93.7811 12.4269 96.9488 11.2993C93.8106 12.8367 91.3539 10.2487 89.2775 8.24935C86.8887 5.90811 84.792 4.89145 81.6221 6.56927V6.57153Z" fill="#755C42"/>
</g>
<g style="mix-blend-mode:multiply" opacity="0.6">
<path d="M80.9251 8.04663C79.116 8.11229 79.2088 12.0657 79.2088 12.0657C79.2088 12.0657 79.4737 10.3539 81.1606 8.90931L80.9251 8.04663V8.04663Z" fill="#755C42"/>
</g>
<path d="M88.1668 37.3346C88.1668 37.7128 87.9766 38.0207 87.7411 38.0207C87.5056 38.0207 87.3154 37.715 87.3154 37.3346C87.3154 36.9542 87.5056 36.6486 87.7411 36.6486C87.9766 36.6486 88.1668 36.9565 88.1668 37.3346Z" fill="#DAF0FB"/>
<path d="M87.3662 39.1348V40.953" stroke="#2A4365" stroke-width="0.113213" stroke-miterlimit="10"/>
<g style="mix-blend-mode:multiply" opacity="0.2">
<path d="M82.0015 35.6899C79.9727 41.4502 75.9921 42.605 76.9907 47.2128L75.768 45.9719C75.6638 43.5107 81.5147 38.5656 81.9992 35.6899H82.0015Z" fill="#2A4365"/>
</g>
<path opacity="0.6" d="M91.0197 70.2312L90.6182 70.6243L90.7022 70.7101L91.1037 70.317L91.0197 70.2312Z" fill="white"/>
<path opacity="0.6" d="M91.4084 70.6088L90.832 71.173L90.916 71.2588L91.4924 70.6946L91.4084 70.6088Z" fill="white"/>
<path opacity="0.6" d="M91.785 70.9901L91.3838 71.3834L91.4678 71.4692L91.8691 71.0758L91.785 70.9901Z" fill="white"/>
<path opacity="0.6" d="M92.1152 71.3373L91.7139 71.7305L91.7979 71.8162L92.1993 71.4231L92.1152 71.3373Z" fill="white"/>
<path opacity="0.6" d="M92.4949 71.727L91.9189 72.2916L92.003 72.3774L92.579 71.8128L92.4949 71.727Z" fill="white"/>
<path opacity="0.6" d="M92.8662 72.109L92.4648 72.5022L92.5489 72.588L92.9502 72.1948L92.8662 72.109Z" fill="white"/>
<path opacity="0.6" d="M93.2856 72.537L92.8846 72.929L92.8008 72.8451L93.2018 72.4509L93.2856 72.537Z" fill="white"/>
<path opacity="0.6" d="M93.5744 72.8293L92.998 73.3936L93.082 73.4794L93.6584 72.9151L93.5744 72.8293Z" fill="white"/>
<path opacity="0.6" d="M94.0346 73.3004L93.6314 73.6947L93.5498 73.6086L93.9508 73.2144L94.0346 73.3004Z" fill="white"/>
<path opacity="0.6" d="M94.367 73.6424L93.9637 74.0366L93.8799 73.9505L94.2832 73.5586L94.367 73.6424Z" fill="white"/>
<path opacity="0.6" d="M94.6649 73.9511L94.0889 74.5156L94.1729 74.6014L94.749 74.0369L94.6649 73.9511Z" fill="white"/>
<path d="M111.004 56.7349C110.907 55.6141 109.009 51.2055 107.288 46.5774C104.347 47.5148 102.792 48.742 101.204 51.3255L104.173 56.762C102.456 58.3787 96.1573 66.7316 92.9443 68.5837L95.1407 71.9394C95.1407 71.9394 111.332 60.532 111.004 56.7349Z" fill="#E9B6A6"/>
<g style="mix-blend-mode:multiply" opacity="0.6">
<path d="M109.809 53.1053C109.101 51.2621 108.172 48.9481 107.291 46.5774C104.35 47.5148 102.795 48.742 101.205 51.3255L102.086 52.9377C104.495 52.0795 107.561 51.835 109.809 53.1075V53.1053Z" fill="#E9B6A6"/>
</g>
<path d="M101.497 52.9052C102.215 50.3081 108.453 47.2151 108.453 47.2151L107.586 45.2249C103.302 46.5947 100.616 51.7572 100.616 51.7572L101.499 52.9075L101.497 52.9052Z" fill="#F5FDFF"/>
<path d="M92.9432 68.5862C92.1666 69.0254 87.8192 73.0105 87.6403 73.3706C87.4614 73.7306 88.0683 75.508 88.1135 76.185C88.1588 76.8598 91.4488 78.9542 92.3047 79.1806C93.1606 79.4048 94.1704 78.1006 94.1704 78.1006C94.1704 78.1006 93.147 77.1292 93.0111 77.1292C92.8753 77.1292 95.4701 74.0747 95.1395 71.9441C95.0377 71.018 92.9432 68.5884 92.9432 68.5884V68.5862Z" fill="#E9B6A6"/>
<g style="mix-blend-mode:multiply" opacity="0.3">
<path d="M93.0158 77.1282C92.9864 77.1282 93.0317 77.1033 93.2196 76.8248C91.064 77.7124 88.9447 75.3779 87.6133 73.5869C87.6201 74.1892 88.0797 75.5976 88.1182 76.184C88.1635 76.8588 91.4535 78.9532 92.3094 79.1796C93.1652 79.4038 94.1751 78.0996 94.1751 78.0996C94.1751 78.0996 93.1517 77.1282 93.0158 77.1282V77.1282Z" fill="#E9B6A6"/>
</g>
<path d="M64.3382 37.9748C64.3382 35.3664 58.5213 36.177 58.7908 36.2223C58.7908 36.2223 48.5223 36.7045 48.6129 37.651C48.7035 38.5975 60.5546 38.2805 61.3584 39.7522L64.3382 37.9748Z" fill="#E9B6A6"/>
<g style="mix-blend-mode:multiply" opacity="0.4">
<path d="M56.1988 36.9998C54.2402 36.9998 51.7631 37.0904 51.4031 37.541C51.0431 37.9916 55.0508 38.5305 55.0508 38.5305C55.0508 38.5305 51.1563 38.3516 51.2016 37.5183C51.2468 36.6851 56.1988 36.9998 56.1988 36.9998Z" fill="#E9B6A6"/>
</g>
<path d="M79.0471 15.3681C79.577 14.1411 81.9243 14.2611 81.9243 14.2611" stroke="#6F5A47" stroke-width="0.468702" stroke-linecap="round" stroke-linejoin="round"/>
<path d="M85.73 13.9279C87.8793 12.668 91.2201 14.7922 91.2201 14.7922" stroke="#6F5A47" stroke-width="0.468702" stroke-linecap="round" stroke-linejoin="round"/>
<path d="M81.6681 17.9952C81.7283 18.4149 81.5403 18.7881 81.2469 18.8317C80.9535 18.8738 80.6661 18.5699 80.6044 18.1501C80.5427 17.7304 80.7323 17.3572 81.0257 17.3136C81.3191 17.2715 81.6065 17.5754 81.6681 17.9952Z" fill="#755C42"/>
<path d="M88.68 17.2352C88.7425 17.6585 88.5506 18.0376 88.2537 18.0818C87.9568 18.1244 87.666 17.8169 87.6036 17.3921C87.5412 16.9688 87.733 16.5897 88.0299 16.547C88.3268 16.5044 88.6176 16.812 88.68 17.2368V17.2352Z" fill="#755C42"/>
<path opacity="0.3" d="M83.1135 18.2249C83.1746 19.9321 81.841 21.3631 80.136 21.4243C78.431 21.4854 76.9977 20.1518 76.9366 18.4468C76.8755 16.7418 78.2091 15.3085 79.9141 15.2474C81.6213 15.1862 83.0524 16.5199 83.1135 18.2249V18.2249Z" fill="white"/>
<path d="M83.1135 18.2249C83.1746 19.9321 81.841 21.3631 80.136 21.4243C78.431 21.4854 76.9977 20.1518 76.9366 18.4468C76.8755 16.7418 78.2091 15.3085 79.9141 15.2474C81.6213 15.1862 83.0524 16.5199 83.1135 18.2249V18.2249Z" stroke="#EB5656" stroke-width="0.346432" stroke-linecap="round" stroke-linejoin="round"/>
<path opacity="0.3" d="M91.4426 17.4178C91.5037 19.1227 90.1701 20.556 88.4651 20.6172C86.7601 20.6783 85.3268 19.3446 85.2657 17.6397C85.2046 15.9347 86.5382 14.5014 88.2432 14.4403C89.9504 14.3791 91.3815 15.7128 91.4426 17.4178V17.4178Z" fill="white"/>
<path d="M91.4426 17.4178C91.5037 19.1227 90.1701 20.556 88.4651 20.6172C86.7601 20.6783 85.3268 19.3446 85.2657 17.6397C85.2046 15.9347 86.5382 14.5014 88.2432 14.4403C89.9504 14.3791 91.3815 15.7128 91.4426 17.4178V17.4178Z" stroke="#EB5656" stroke-width="0.346432" stroke-linecap="round" stroke-linejoin="round"/>
<path d="M83.0518 17.7151C83.9778 17.2215 85.2685 17.4207 85.2685 17.4207" stroke="#EB5656" stroke-width="0.346432" stroke-linecap="round" stroke-linejoin="round"/>
<path d="M91.3232 16.6465L95.9808 16.0781" stroke="#EB5656" stroke-width="0.346432" stroke-linecap="round" stroke-linejoin="round"/>
<path d="M77.0439 19.1565L79.435 18.4705" stroke="#EB5656" stroke-width="0.346432" stroke-linecap="round" stroke-linejoin="round"/>
<g style="mix-blend-mode:multiply" opacity="0.6">
<path d="M84.07 19.4333C84.2376 19.8364 82.5552 20.6515 84.0949 21.1383" stroke="#E9B6A6" stroke-width="0.262654" stroke-linecap="round" stroke-linejoin="round"/>
</g>
<path d="M83.1465 23.1853C84.4326 23.4434 88.4086 22.6917 88.4086 22.6917C87.3671 23.7604 86.0991 24.4102 85.0824 24.4329C84.1043 24.4532 83.1465 23.1875 83.1465 23.1875V23.1853Z" fill="#212731"/>
<g style="mix-blend-mode:multiply" opacity="0.6">
<path d="M85.2002 24.844C85.8319 25.0591 86.4161 24.6403 86.4161 24.6403C86.047 25.4463 85.2002 24.844 85.2002 24.844Z" fill="#E9B6A6"/>
</g>
<path d="M83.459 23.2232C83.459 23.2232 83.6107 23.6013 83.8462 23.6806C84.0839 23.7598 86.869 23.5334 87.5007 23.307C88.0803 23.0987 88.4041 22.6888 88.4041 22.6888C88.4041 22.6888 85.4289 23.2526 83.459 23.2232V23.2232Z" fill="white"/>
</g>
</g>
<defs>
<filter id="filter0_dd_494_280546" x="10.6841" y="10.2197" width="61.1679" height="43.9835" filterUnits="userSpaceOnUse" color-interpolation-filters="sRGB">
<feFlood flood-opacity="0" result="BackgroundImageFix"/>
<feColorMatrix in="SourceAlpha" type="matrix" values="0 0 0 0 0 0 0 0 0 0 0 0 0 0 0 0 0 0 127 0" result="hardAlpha"/>
<feOffset dy="1.80025"/>
<feGaussianBlur stdDeviation="0.900127"/>
<feColorMatrix type="matrix" values="0 0 0 0 0 0 0 0 0 0 0 0 0 0 0 0 0 0 0.1 0"/>
<feBlend mode="multiply" in2="BackgroundImageFix" result="effect1_dropShadow_494_280546"/>
<feColorMatrix in="SourceAlpha" type="matrix" values="0 0 0 0 0 0 0 0 0 0 0 0 0 0 0 0 0 0 127 0" result="hardAlpha"/>
<feOffset dy="0.360051"/>
<feGaussianBlur stdDeviation="0.360051"/>
<feColorMatrix type="matrix" values="0 0 0 0 0 0 0 0 0 0 0 0 0 0 0 0 0 0 0.1 0"/>
<feBlend mode="multiply" in2="effect1_dropShadow_494_280546" result="effect2_dropShadow_494_280546"/>
<feBlend mode="normal" in="SourceGraphic" in2="effect2_dropShadow_494_280546" result="shape"/>
</filter>
<filter id="filter1_d_494_280546" x="23.9411" y="13.8435" width="46.3698" height="39.6995" filterUnits="userSpaceOnUse" color-interpolation-filters="sRGB">
<feFlood flood-opacity="0" result="BackgroundImageFix"/>
<feColorMatrix in="SourceAlpha" type="matrix" values="0 0 0 0 0 0 0 0 0 0 0 0 0 0 0 0 0 0 127 0" result="hardAlpha"/>
<feOffset dy="0.979169"/>
<feGaussianBlur stdDeviation="0.979169"/>
<feColorMatrix type="matrix" values="0 0 0 0 0 0 0 0 0 0 0 0 0 0 0 0 0 0 0.05 0"/>
<feBlend mode="normal" in2="BackgroundImageFix" result="effect1_dropShadow_494_280546"/>
<feBlend mode="normal" in="SourceGraphic" in2="effect1_dropShadow_494_280546" result="shape"/>
</filter>
<filter id="filter2_d_494_280546" x="23.9381" y="37.3634" width="46.3698" height="17.2756" filterUnits="userSpaceOnUse" color-interpolation-filters="sRGB">
<feFlood flood-opacity="0" result="BackgroundImageFix"/>
<feColorMatrix in="SourceAlpha" type="matrix" values="0 0 0 0 0 0 0 0 0 0 0 0 0 0 0 0 0 0 127 0" result="hardAlpha"/>
<feOffset dy="0.979169"/>
<feGaussianBlur stdDeviation="0.979169"/>
<feColorMatrix type="matrix" values="0 0 0 0 0 0 0 0 0 0 0 0 0 0 0 0 0 0 0.05 0"/>
<feBlend mode="normal" in2="BackgroundImageFix" result="effect1_dropShadow_494_280546"/>
<feBlend mode="normal" in="SourceGraphic" in2="effect1_dropShadow_494_280546" result="shape"/>
</filter>
<clipPath id="clip0_494_280546">
<rect width="132" height="88.1089" fill="white" transform="translate(0.854492 0.691895)"/>
</clipPath>
<clipPath id="clip1_494_280546">
<rect x="12.4844" y="10.5797" width="57.5672" height="40.0229" rx="1.95834" fill="white"/>
</clipPath>
<clipPath id="clip2_494_280546">
<rect width="62.394" height="87.6133" fill="white" transform="translate(48.6162 1.69189)"/>
</clipPath>
</defs>
</svg>
