<svg width="158" height="42" viewBox="0 0 158 42" version="1.1" xmlns="http://www.w3.org/2000/svg" xmlns:xlink="http://www.w3.org/1999/xlink">
<title>teaching-invert</title>
<desc>Created using Figma</desc>
<g id="Canvas" transform="translate(-9703 -9604)">
<g id="teaching-invert">
<g id="Group">
<g id="Group">
<g id="Vector">
<use xlink:href="#path0_fill" transform="translate(9738.66 9618.62)" fill="#FFFFFF"/>
</g>
<g id="Vector">
<use xlink:href="#path1_fill" transform="translate(9750.09 9622.94)" fill="#FFFFFF"/>
</g>
<g id="Vector">
<use xlink:href="#path2_fill" transform="translate(9761.94 9622.94)" fill="#FFFFFF"/>
</g>
<g id="Vector">
<use xlink:href="#path3_fill" transform="translate(9773.05 9622.94)" fill="#FFFFFF"/>
</g>
<g id="Vector">
<use xlink:href="#path4_fill" transform="translate(9785.44 9618.32)" fill="#FFFFFF"/>
</g>
<g id="Vector">
<use xlink:href="#path5_fill" transform="translate(9797.41 9618.06)" fill="#FFFFFF"/>
</g>
<g id="Vector">
<use xlink:href="#path6_fill" transform="translate(9803.37 9622.98)" fill="#FFFFFF"/>
</g>
<g id="Vector">
<use xlink:href="#path7_fill" transform="translate(9814.95 9623.09)" fill="#FFFFFF"/>
</g>
</g>
<g id="Subtract">
<use xlink:href="#path8_fill" transform="translate(9829.13 9621.76)" fill="#FEDC3D"/>
</g>
<g id="Vector">
<use xlink:href="#path9_fill" transform="translate(9703 9604)" fill="#FEDC3D"/>
</g>
</g>
</g>
</g>
<defs>
<path id="path0_fill" d="M 7.92503 2.8125L 7.92503 15.15L 4.88582 15.15L 4.88582 2.8125L -1.17404e-06 2.8125L -1.17404e-06 0L 12.8108 0L 12.8108 2.8125L 7.92503 2.8125Z"/>
<path id="path1_fill" d="M 10.4256 7.8C 9.88705 9.6 8.15585 11.1375 5.53983 11.1375C 2.57756 11.1375 5.87021e-07 9.075 5.87021e-07 5.5125C 5.87021e-07 2.175 2.53909 0 5.309 0C 8.6175 0 10.618 2.0625 10.618 5.4375C 10.618 5.85 10.5795 6.2625 10.5795 6.3L 2.88532 6.3C 2.96226 7.6875 4.15487 8.7 5.61677 8.7C 6.96325 8.7 7.73267 8.025 8.07891 7.0875L 10.4256 7.8ZM 7.73267 4.35C 7.6942 3.3 7.00172 2.2875 5.309 2.2875C 3.80863 2.2875 2.96226 3.4125 2.88532 4.35L 7.73267 4.35Z"/>
<path id="path2_fill" d="M 3.15538 4.7625L 5.80988 4.3875C 6.42542 4.3125 6.61777 4.0125 6.61777 3.6375C 6.61777 2.8875 6.04071 2.2875 4.80964 2.2875C 3.54009 2.2875 2.84761 3.075 2.77067 3.975L 0.193116 3.45C 0.385471 1.8 1.92431 0 4.80964 0C 8.23355 0 9.5031 1.875 9.5031 3.975L 9.5031 9.15C 9.5031 9.7125 9.58004 10.4625 9.61851 10.8L 6.96401 10.8C 6.88707 10.5375 6.8486 9.9375 6.8486 9.525C 6.31001 10.35 5.27129 11.1 3.69398 11.1C 1.38572 11.1 0.000760683 9.6 0.000760683 7.95C -0.0377103 6.075 1.38572 5.025 3.15538 4.7625ZM 6.61777 6.5625L 6.61777 6.075L 4.1941 6.45C 3.46315 6.5625 2.84762 6.975 2.84762 7.7625C 2.84762 8.3625 3.30927 8.9625 4.23257 8.9625C 5.46364 9 6.61777 8.4375 6.61777 6.5625Z"/>
<path id="path3_fill" d="M 2.88533 5.55C 2.88533 7.4625 4.15487 8.5125 5.65524 8.5125C 7.15561 8.5125 7.88655 7.5375 8.11738 6.75L 10.6949 7.575C 10.1948 9.3375 8.54056 11.1 5.65524 11.1C 2.50062 11.1 2.34808e-06 8.7375 2.34808e-06 5.55C 2.34808e-06 2.325 2.46215 -5.32907e-15 5.5783 -5.32907e-15C 8.50209 -5.32907e-15 10.1563 1.7625 10.618 3.525L 8.00197 4.3875C 7.73267 3.525 7.07866 2.625 5.61676 2.625C 4.15487 2.625 2.88533 3.675 2.88533 5.55Z"/>
<path id="path4_fill" d="M 2.92379 15.4125L 1.17404e-06 15.4125L 1.17404e-06 2.86102e-07L 2.92379 2.86102e-07L 2.92379 5.8125C 3.61627 4.9875 4.80888 4.65 5.84759 4.65C 8.57903 4.65 9.84857 6.4875 9.84857 8.8125L 9.84857 15.4125L 6.92478 15.4125L 6.92478 9.3C 6.92478 8.1375 6.34772 7.2 4.92429 7.2C 3.69322 7.2 2.96226 8.1 2.92379 9.2625L 2.92379 15.4125Z"/>
<path id="path5_fill" d="M 1.80814 0C 2.80839 0 3.61628 0.7875 3.61628 1.7625C 3.61628 2.7 2.84686 3.4875 1.80814 3.4875C 0.807893 3.4875 -2.34808e-06 2.7 -2.34808e-06 1.7625C 0.0384687 0.7875 0.846364 0 1.80814 0ZM 0.384708 15.675L 0.384708 5.175L 3.30851 5.175L 3.30851 15.675L 0.384708 15.675Z"/>
<path id="path6_fill" d="M 2.9238 10.7625L -2.34808e-06 10.7625L -2.34808e-06 0.2625L 2.80839 0.2625L 2.80839 1.575C 3.46239 0.4875 4.7704 -5.72205e-07 5.92453 -5.72205e-07C 8.57903 -5.72205e-07 9.8101 1.8375 9.8101 4.1625L 9.8101 10.7625L 6.8863 10.7625L 6.8863 4.65C 6.8863 3.4875 6.30925 2.55 4.88582 2.55C 3.61628 2.55 2.88532 3.525 2.88532 4.725L 2.88532 10.7625L 2.9238 10.7625Z"/>
<path id="path7_fill" d="M 2.61602 10.5375C 2.80838 11.7 3.77015 12.525 5.11664 12.525C 6.96325 12.525 8.00196 11.625 8.00196 9.6L 8.00196 8.85C 7.57878 9.525 6.54007 10.2 5.00123 10.2C 2.11591 10.2 0 8.0625 0 5.1C 0 2.325 2.03896 5.72205e-07 5.00123 5.72205e-07C 6.69395 5.72205e-07 7.6942 0.7125 8.07891 1.425L 8.07891 0.187501L 10.8873 0.187501L 10.8873 9.5625C 10.8873 12.45 9.27151 15.075 5.23206 15.075C 2.26979 15.075 0.307768 13.275 0 11.2875L 2.61602 10.5375ZM 8.04044 5.1C 8.04044 3.4875 6.8863 2.4375 5.50135 2.4375C 4.03945 2.4375 2.9238 3.45 2.9238 5.1C 2.9238 6.75 4.00098 7.7625 5.50135 7.7625C 7.00172 7.7625 8.04044 6.7125 8.04044 5.1Z"/>
<path id="path8_fill" fill-rule="evenodd" d="M 0.0175781 0.127247C 0.0175781 1.61943 0.0136719 3.14873 0.00878906 4.69756C 0 7.85967 -0.00878906 11.1067 0.0175781 14.3021C 11.2891 14.4153 31.8711 14.6399 31.8711 14.6399L 31.6787 0.0149426C 31.6885 0.0247082 30.2998 0.0217785 28.0605 0.0168957L 27.3525 0.0149426C 20.4805 -0.00263554 7.12402 -0.0348621 0.0175781 0.127247ZM 4.13477 8.56279C 4.71191 8.56279 5.17285 9.01299 5.17285 9.57549C 5.17285 10.138 4.71191 10.5882 4.13477 10.5882C 3.55762 10.5882 3.0957 10.138 3.0957 9.57549C 3.0957 9.01299 3.55762 8.56279 4.13477 8.56279ZM 8.78906 9.31279C 8.01953 9.31279 7.36621 8.75029 7.36621 7.77568C 7.36621 6.8001 8.01953 6.2376 8.75098 6.2376C 9.48145 6.2376 9.82812 6.72588 9.98242 7.1751L 11.3281 6.72588C 11.0977 5.82549 10.251 4.88799 8.71289 4.88799C 7.09668 4.88799 5.82715 6.08818 5.82715 7.77568C 5.82715 9.4251 7.13477 10.6634 8.78906 10.6634C 10.29 10.6634 11.1748 9.72588 11.4053 8.82549L 10.0586 8.37529C 9.94336 8.82549 9.55859 9.31279 8.78906 9.31279ZM 17.7148 7.77471C 17.7148 9.46221 16.4453 10.6624 14.791 10.6624C 13.1367 10.6624 11.8672 9.42412 11.8672 7.77471C 11.8672 6.08721 13.1367 4.88701 14.791 4.88701C 16.4453 4.88701 17.7148 6.08721 17.7148 7.77471ZM 16.1758 7.77471C 16.1758 6.76201 15.4834 6.23662 14.7529 6.23662C 14.0215 6.23662 13.3291 6.76201 13.3291 7.77471C 13.3291 8.7874 14.0215 9.31182 14.7529 9.31182C 15.4834 9.31182 16.1758 8.7874 16.1758 7.77471ZM 20.1377 5.03838L 18.6758 5.03838L 18.6758 10.513L 18.6758 10.5501L 20.2148 10.5501L 20.2148 7.3626C 20.2148 6.76299 20.5996 6.27568 21.2529 6.27568C 21.9463 6.27568 22.2539 6.68779 22.2539 7.28838L 22.2539 10.513L 23.7539 10.513L 23.7539 7.32549C 23.7539 6.72588 24.1387 6.2376 24.793 6.2376C 25.4854 6.2376 25.793 6.65068 25.793 7.25029L 25.793 10.4759L 27.2549 10.4759L 27.2549 6.95049C 27.2549 5.4876 26.2549 4.88799 25.2158 4.88799C 24.4854 4.88799 23.9082 5.1126 23.4463 5.78838C 23.1768 5.22588 22.5615 4.88799 21.792 4.88799C 21.1768 4.88799 20.4453 5.18779 20.1377 5.71318L 20.1377 5.03838Z"/>
<path id="path9_fill" d="M 15.273 0C 6.84784 0 0 6.675 0 14.8875C 0 20.25 2.96227 25.1625 7.73267 27.825L 7.73267 36.45L 15.2345 42L 22.7364 36.45L 22.7364 27.825C 27.5068 25.2 30.469 20.25 30.469 14.8875C 30.5075 6.675 23.6597 0 15.273 0ZM 21.3514 31.6125L 10.9258 31.6125L 10.9258 33L 21.3514 33L 21.3514 34.2L 10.9258 34.2L 10.9258 35.5875L 21.3514 35.5875L 21.3514 35.775L 15.2345 40.275L 9.11763 35.775L 9.11763 30.4125L 21.3129 30.4125L 21.3129 31.6125L 21.3514 31.6125ZM 21.7361 26.8125L 21.3514 27L 21.3514 29.025L 17.1581 29.025L 17.1581 15.825C 17.1581 15.825 17.1581 15.225 17.1965 14.55C 20.1588 14.775 22.4286 14.1375 23.4673 13.2375C 24.1983 12.6 24.0828 11.9625 23.9674 11.7375C 23.6597 10.9875 22.6594 10.6125 20.8898 10.6125C 19.1201 10.6125 17.7351 11.1375 16.8503 12.15C 16.581 12.45 16.3886 12.75 16.2348 13.0875C 14.5036 12.825 12.5415 12.2625 10.5026 11.2125C 10.4641 11.2125 10.4641 11.175 10.4256 11.175C 10.3487 10.4625 9.69469 9.9 8.96374 9.9C 8.15585 9.9 7.46337 10.5375 7.46337 11.3625C 7.46337 12.15 8.11738 12.825 8.96374 12.825C 9.34845 12.825 9.65622 12.675 9.92552 12.4875C 12.003 13.5375 14.0034 14.1375 15.8116 14.4375C 15.7346 15.4875 15.7346 16.95 15.7346 16.95L 15.7346 29.0625L 14.9267 29.0625L 14.9267 15.675C 14.9267 15.3 14.619 15 14.2343 15C 13.8496 15 13.5418 15.3 13.5418 15.675L 13.5418 29.025L 9.1561 29.025L 9.1561 27L 8.77139 26.8125C 4.23181 24.45 1.42343 19.875 1.42343 14.8875C 1.42343 7.4625 7.61726 1.3875 15.273 1.3875C 22.8902 1.3875 29.1225 7.425 29.1225 14.8875C 29.1225 19.875 26.2757 24.45 21.7361 26.8125ZM 17.7736 13.2C 17.8121 13.125 17.889 13.0875 17.9275 13.0125C 18.543 12.3 19.5433 11.9625 20.9282 11.9625C 21.9285 11.9625 22.3901 12.1125 22.5825 12.1875C 22.4286 12.3375 22.1208 12.525 21.5053 12.75C 20.582 13.0875 19.3124 13.275 17.7736 13.2ZM 9.54081 11.2875C 9.54081 11.625 9.27151 11.85 8.96374 11.85C 8.6175 11.85 8.38668 11.5875 8.38668 11.2875C 8.38668 10.95 8.65597 10.725 8.96374 10.725C 9.27151 10.725 9.54081 10.9875 9.54081 11.2875Z"/>
</defs>
</svg>
