<svg width="231" height="223" viewBox="0 0 231 223" fill="none" xmlns="http://www.w3.org/2000/svg">
<g filter="url(#filter0_d_744_8480)">
<path d="M122.849 110.811V45.3467C122.756 45.3644 122.662 45.3921 122.564 45.4376C121.564 45.8921 120.703 45.5083 119.829 45.0437C117.61 43.8694 115.892 42.0462 113.935 40.5311C113.446 40.1523 113.635 39.7179 113.738 39.276C113.986 38.2179 114.387 37.2028 114.42 36.0867C114.713 26.1271 115.019 16.1676 115.355 6.21063C115.387 5.27377 115.236 4.90003 114.17 4.88235C98.5751 4.62226 82.9824 4.31923 67.3896 4.00105C66.5336 3.98337 66.2382 4.18287 66.2129 5.08942C65.7988 19.6701 65.3468 34.2533 64.8569 50.3593C64.5539 63.4576 63.9479 78.0787 63.958 92.7099C63.958 93.6064 63.6575 93.7352 62.8798 93.6948C54.9887 93.2958 47.0926 92.9347 39.2016 92.5508C27.9925 92.0054 16.7834 91.4448 5.57436 90.9044C4.10474 90.8337 3.86232 91.1468 4.05928 92.6569C4.18049 93.5963 4.57441 94.4246 5.08701 95.2049C5.78395 96.268 6.62987 97.2124 7.58184 98.0357C10.3847 100.457 12.8947 103.185 15.6193 105.677C20.3893 110.046 25.3007 114.263 30.1767 118.513C31.308 119.498 32.5251 120.485 32.6009 122.051C32.7701 125.508 34.1437 128.659 34.8508 131.972C35.9543 137.144 38.9061 140.907 43.1029 143.884C46.8957 146.573 50.9586 148.881 54.1579 152.389C55.6907 154.071 57.5113 154.04 59.4304 152.773C61.8571 151.172 63.8141 149.136 65.0034 146.422C65.9806 144.192 66.8947 141.929 68.2709 139.899C70.9501 135.944 73.8338 135.278 77.9472 137.689C78.7957 138.187 79.6669 138.518 80.6466 138.651C83.6869 139.066 86.7322 139.399 89.7952 139.601C91.5249 139.715 93.2142 140.066 94.4162 141.538C95.906 143.359 97.3781 145.197 98.9336 146.962C103.209 151.818 107.027 156.947 109.13 163.171C109.476 164.197 110.044 165.154 110.569 166.108C112.362 169.351 113.86 172.712 114.915 176.277C115.872 179.512 117.657 182.204 120.476 184.151C121.309 184.727 122.087 185.388 122.521 186.338C122.627 186.57 122.736 186.8 122.847 187.03V110.806L122.849 110.811Z" fill="#0C6CB9"/>
<path d="M224.292 110.822C222.244 105.921 220.361 100.943 217.651 96.3449C216.767 94.8449 216.06 93.2388 215.911 91.5191C215.507 86.8348 214.194 82.3753 212.851 77.9107C211.869 74.6531 211.616 71.3223 212.174 67.941C212.386 66.6506 212.359 65.3476 212.033 64.0598C211.823 63.229 211.487 62.7643 210.477 62.8906C208.571 63.1279 206.937 62.4386 205.551 61.1179C204.697 60.3073 203.826 59.5143 202.937 58.7416C200.508 56.6305 197.718 55.4916 194.471 55.9689C191.579 56.3957 188.706 56.4866 185.809 56.0775C184.855 55.9437 183.885 55.8856 182.921 55.8629C180.817 55.8174 179.103 56.5245 177.837 58.3275C176.686 59.9664 174.994 60.3047 173.161 59.4335C171.949 58.8553 170.762 58.2265 169.565 57.6154C168.088 56.8603 166.659 56.9108 165.275 57.8452C164.858 58.128 164.442 58.4133 164.033 58.7088C162.212 60.027 160.295 60.0926 158.331 59.1027C157.356 58.6128 156.44 58.0118 155.477 57.4942C154.387 56.9083 153.169 56.3376 151.99 56.7745C149.872 57.5623 148.304 56.7517 146.847 55.4083C144.584 53.3225 141.88 52.1457 138.933 51.4715C135.62 50.7114 132.282 50.0624 128.976 49.2619C126.855 48.7493 124.711 48.1685 123.729 45.8402C123.557 45.4336 123.226 45.2872 122.848 45.3629V110.825H224.287L224.292 110.822Z" fill="white"/>
<path d="M224.287 110.827H122.848V187.051C124.507 190.478 126.668 193.657 127.83 197.334C129.65 203.096 133.319 207.225 138.849 209.758C141.092 210.783 143.412 211.77 145.251 213.483C146.841 214.962 148.596 215.238 150.475 214.392C152.702 213.387 154.619 213.821 156.482 215.212C157.591 216.041 158.641 216.962 159.899 217.573C161.742 218.472 163.639 218.543 165.485 217.652C166.813 217.01 166.881 216.227 165.732 215.351C164.043 214.063 162.78 212.508 162.192 210.435C160.982 206.162 160.048 201.798 158.013 197.793C157.568 196.92 157.429 195.925 157.859 194.98C158.351 193.899 158.508 192.728 158.864 191.614C159.119 190.819 158.962 190.301 158.157 190.036C157.217 189.725 157.159 189.129 157.621 188.382C157.995 187.776 158.361 187.157 158.795 186.591C160.005 185.016 160.699 183.263 160.869 181.273C160.957 180.23 161.141 179.182 161.629 178.233C162.058 177.392 162.606 176.49 163.603 176.455C166.288 176.364 167.388 174.67 167.846 172.402C168.391 169.687 169.732 167.622 172.095 166.152C173.287 165.412 174.287 164.372 174.588 162.942C174.769 162.086 175.173 161.867 175.951 161.869C177.128 161.872 178.305 161.809 179.481 161.768C183.279 161.637 187.009 161.147 190.594 159.799C195.034 158.129 199.283 156.14 202.523 152.533C205.349 149.39 205.339 147.902 202.637 144.718C200.281 141.94 201.796 137.673 205.379 136.993C207.033 136.68 208.222 137.518 208.394 139.17C208.455 139.751 208.46 140.352 208.389 140.933C208.268 141.925 208.616 142.246 209.634 142.2C214.697 141.968 220.394 137.763 221.883 132.935C223.01 129.289 224.042 125.615 225.229 121.983C226.249 118.867 226.368 115.68 225.042 112.61C224.787 112.016 224.535 111.42 224.287 110.824V110.827Z" fill="#E51E25"/>
<path d="M96.5516 79.9766C97.698 80.0119 98.4379 80.6028 98.8697 81.6432C99.8671 84.0447 100.89 86.4336 101.87 88.8427C102.316 89.9462 103.064 90.5421 104.266 90.6356C106.935 90.8401 109.601 91.0901 112.268 91.3098C113.377 91.4007 114.142 91.9638 114.478 93.0042C114.811 94.0421 114.536 94.9562 113.692 95.681C111.718 97.3779 109.761 99.0976 107.766 100.769C106.735 101.633 106.417 102.633 106.753 103.938C107.382 106.385 107.93 108.85 108.526 111.307C108.793 112.416 108.609 113.378 107.67 114.105C106.811 114.769 105.809 114.764 104.69 114.095C102.498 112.787 100.296 111.494 98.1273 110.153C97.0339 109.476 96.0314 109.469 94.938 110.156C92.7159 111.555 90.4685 112.916 88.2111 114.257C86.5571 115.239 84.6077 114.287 84.4183 112.443C84.3754 112.039 84.4739 111.653 84.5648 111.269C85.1481 108.812 85.7188 106.35 86.3324 103.901C86.643 102.658 86.3273 101.681 85.3501 100.855C83.3805 99.1911 81.4361 97.4966 79.4867 95.8072C78.5145 94.9638 78.204 94.0068 78.6029 92.9689C79.0221 91.878 79.863 91.3982 81.017 91.3174C83.5396 91.1406 86.0571 90.8982 88.5772 90.7164C89.9054 90.6204 90.7614 90.0144 91.2589 88.7467C92.1957 86.3477 93.2209 83.9866 94.2108 81.6079C94.6451 80.5649 95.4077 79.9968 96.5566 79.9766H96.5516Z" fill="white"/>
</g>
<defs>
<filter id="filter0_d_744_8480" x="0" y="0" width="230.016" height="222.285" filterUnits="userSpaceOnUse" color-interpolation-filters="sRGB">
<feFlood flood-opacity="0" result="BackgroundImageFix"/>
<feColorMatrix in="SourceAlpha" type="matrix" values="0 0 0 0 0 0 0 0 0 0 0 0 0 0 0 0 0 0 127 0" result="hardAlpha"/>
<feOffset/>
<feGaussianBlur stdDeviation="2"/>
<feComposite in2="hardAlpha" operator="out"/>
<feColorMatrix type="matrix" values="0 0 0 0 0 0 0 0 0 0 0 0 0 0 0 0 0 0 0.25 0"/>
<feBlend mode="normal" in2="BackgroundImageFix" result="effect1_dropShadow_744_8480"/>
<feBlend mode="normal" in="SourceGraphic" in2="effect1_dropShadow_744_8480" result="shape"/>
</filter>
</defs>
</svg>
